/* XPM */
static char *result[] = {
/* columns rows colors chars-per-pixel */
"60 60 205 2 ",
"   c #050202",
".  c #0B0404",
"X  c #130505",
"o  c #1B0606",
"O  c #160807",
"+  c #1C0807",
"@  c #160808",
"#  c #1C0909",
"$  c #220606",
"%  c #2D0506",
"&  c #230807",
"*  c #230A09",
"=  c #2B0B0A",
"-  c #290708",
";  c #340506",
":  c #3C0405",
">  c #350807",
",  c #320909",
"<  c #3B0A09",
"1  c #330709",
"2  c #440505",
"3  c #4C0506",
"4  c #490708",
"5  c #470A08",
"6  c #520506",
"7  c #5E0303",
"8  c #5A0905",
"9  c #620506",
"0  c #6A0404",
"q  c #650808",
"w  c #690606",
"e  c #720202",
"r  c #7D0303",
"t  c #740903",
"y  c #7D0905",
"u  c #681103",
"i  c #751303",
"p  c #7E1A01",
"a  c #772101",
"s  c #830204",
"d  c #8B0504",
"f  c #880A02",
"g  c #940402",
"h  c #9C0302",
"j  c #950902",
"k  c #9A0C02",
"l  c #891700",
"z  c #861B05",
"x  c #9F1501",
"c  c #911B01",
"v  c #A10203",
"b  c #A40B02",
"n  c #AC0A02",
"m  c #B60901",
"M  c #AC1C04",
"N  c #A81602",
"B  c #BB1301",
"V  c #BD1B00",
"C  c #8B2003",
"Z  c #AD2201",
"A  c #B32402",
"S  c #B32B01",
"D  c #BC2C01",
"F  c #B63901",
"G  c #C30D01",
"H  c #C40701",
"J  c #C61E01",
"K  c #C51500",
"L  c #CF2201",
"P  c #C62B01",
"I  c #CA2D01",
"U  c #D42900",
"Y  c #D72800",
"T  c #C03200",
"R  c #CD3101",
"E  c #D13200",
"W  c #ED3B2F",
"Q  c #F13F2E",
"!  c #F73D30",
"~  c #FB3D31",
"^  c #A54A09",
"/  c #B54904",
"(  c #BE6300",
")  c #C44D01",
"_  c #C84E00",
"`  c #DC4000",
"'  c #DB4B00",
"]  c #C05200",
"[  c #C45C00",
"{  c #DB5600",
"}  c #D35C00",
"|  c #DF5E00",
" . c #E14100",
".. c #ED5900",
"X. c #E25A00",
"o. c #C16102",
"O. c #D56400",
"+. c #DC6400",
"@. c #D46C00",
"#. c #DF6F00",
"$. c #CC7300",
"%. c #CB7801",
"&. c #DA7E00",
"*. c #E56D00",
"=. c #EF6A00",
"-. c #E27700",
";. c #E27B00",
":. c #EA7800",
">. c #EB7200",
",. c #EA6B1C",
"<. c #E5761E",
"1. c #EA402D",
"2. c #E74B29",
"3. c #EB4C29",
"4. c #F3442E",
"5. c #FA452F",
"6. c #F54C2C",
"7. c #FB4C2E",
"8. c #ED5627",
"9. c #F5532B",
"0. c #FC552C",
"q. c #F35D28",
"w. c #FA5C2B",
"e. c #F64130",
"r. c #FB4331",
"t. c #F94930",
"y. c #E56123",
"u. c #E86D20",
"i. c #E56921",
"p. c #F56B25",
"a. c #FB6F26",
"s. c #F76429",
"d. c #F86329",
"f. c #F97B22",
"g. c #F57423",
"h. c #D18100",
"j. c #DA8201",
"k. c #D08900",
"l. c #DF9100",
"z. c #D59900",
"x. c #D69300",
"c. c #E28900",
"v. c #EC8800",
"b. c #F78E00",
"n. c #E69700",
"m. c #E19800",
"M. c #EE9A08",
"N. c #E5970D",
"B. c #E48317",
"V. c #FA8C1D",
"C. c #F4861E",
"Z. c #E49316",
"A. c #E09C10",
"S. c #EE9A16",
"D. c #F79417",
"F. c #F59919",
"G. c #F89B15",
"H. c #D3A300",
"J. c #DCA500",
"K. c #D9AC00",
"L. c #D5B600",
"P. c #DEB602",
"I. c #DCBC02",
"U. c #D3BB00",
"Y. c #E2A501",
"T. c #E8A500",
"R. c #E2AF00",
"E. c #EAAA02",
"W. c #E2A60C",
"Q. c #E4AB0C",
"!. c #F3A700",
"~. c #F0AB00",
"^. c #E7B300",
"/. c #ECB303",
"(. c #E4B800",
"). c #EBB800",
"_. c #E6B60B",
"`. c #F1BE00",
"'. c #F4BA0D",
"]. c #F4B404",
"[. c #E0A210",
"{. c #EFA713",
"}. c #F9A414",
"|. c #F1AA14",
" X c #F9A817",
".X c #F7B712",
"XX c #FA8420",
"oX c #DFC702",
"OX c #E5C403",
"+X c #ECC102",
"@X c #EBCD04",
"#X c #EDC20A",
"$X c #E1CC01",
"%X c #F4C302",
"&X c #F0CD04",
"*X c #FCCC0B",
"=X c #F5C909",
"-X c #E8D700",
";X c #F6D300",
":X c #F7D902",
">X c #FCDC01",
",X c #FBD205",
"<X c #F4E301",
"1X c #F9E301",
"2X c None",
/* pixels */
"2X2X2X2X2X2X2X2X2X2X2X2X2X2X2X2X2X2X2X2X2X2X2X2X2X2X2X2X2X2X2X2X2X2X2X2X2X2X2X2X2X2X2X2X2X2X2X2X2X2X2X2X2X2X2X2X2X2X2X2X",
"2X2X2X2X2X2X2X2X2X2X2X2X2X2X2X2X2X2X2X2X2X2X2X2X2X2X2X2X2X2X2X2X2X2X2X2X2X2X2X2X2X2X2X2X2X2X2X2X2X2X2X2X2X2X2X2X2X2X2X2X",
"2X2X2X2X2X2X2X2X2X2X2X2X2X2X2X2X2X2X2X2X2X2X2X2X2X2X2X2X2X2X2X2X2X2X2X2X2X2X2X2X2X2X2X2X2X2X2X2X2X2X2X2X2X2X2X2X2X2X2X2X",
"2X2X2X2X2X2X2X2X2X2X2X2X2X2X2X2X2X2X2X2X2X2X2X2X2X2X2X2X2X2X2X2X2X2X2X2X2X2X2X2X2X2X2X2X2X2X2X2X2X2X2X2X2X2X2X2X2X2X2X2X",
"2X2X2X2X2X2X2X2X2X2X2X2X2X2X2X2X2X2X2X2X2X2X2X2X2X2X2X2X2X2X2X2X2X2X2X2X2X2X2X2X2X2X2X2X2X2X2X2X2X2X2X2X2X2X2X2X2X2X2X2X",
"2X2X2X2X2X2X2X2X2X2X2X2X2X2X2X2X2X2X2X2X2X2X2X2X2X2X2X2X2X2X2X2X2X2X2X2X2X2X2X2X2X2X2X2X2X2X2X2X2X2X2X2X2X2X2X2X2X2X2X2X",
"2X2X2X2X2X2X2X2X2X2X2X2X2X2X2X2X2X2X2X2X2X2X2X2X2X2X2X2X2X2X2X2X2X2X2X2X2X2X2X2X2X2X2X2X2X2X2X2X2X2X2X2X2X2X2X2X2X2X2X2X",
"2X2X2X2X2X2X2X2X2X2X2X2X2X2X2X2X2X2X2X2X2X2X2X2X2X2X2X2X2X2X2X2X2X2X2X2X2X2X2X2X2X2X2X2X2X2X2X2X2X2X2X2X2X2X2X2X2X2X2X2X",
"2X2X2X2X2X2X2X2X2X2X2X2X2X2X2X2X2X2X2X2X2X2X2X2X2X2X2X2X2X2X2X2X2X2X2X2X2X2X2X2X2X2X2X2X2X2X2X2X2X2X2X2X2X2X2X2X2X2X2X2X",
"2X2X2X2X2X2X2X2X2X2X2X2X2X2X2X2X2X2X2X2X2X2X2X2X2X2X2X2X2X2X2X2X2X2X2X2X2X2X2X2X2X2X2X2X2X2X2X2X2X2X2X2X2X2X2X2X2X2X2X2X",
"2X2X2X2X2X2X2X2X2X2X2X2X2X2X2X2X2X2X2X2X2X2X2X2X2X2X2X2X2X2X2X2X2X2X2X2X2X2X2X2X2X2X2X2X2X2X2X2X2X2X2X2X2X2X2X2X2X2X2X2X",
"2X2X2X2X2X2X2X2X2X2X2X2X2X2X2X2X2X2X2X2X2X2X2X2X2X2X2X2X2X2X2X2X2X2X2X2X2X2X2X2X2X2X2X2X2X2X2X2X2X2X2X2X2X2X2X2X2X2X2X2X",
"2X2X2X2X2X2X2X2X2X2X2X2X2X2X2X2X2X2X2X2X2X2X2X2X2X~ w.a.XXV.V.f.w.r.~ 2X2X2X2X2X2X2X2X2X2X2X2X2X2X2X2X2X2X2X2X2X2X2X2X2X",
"2X2X2X2X2X2X2X2X2X2X2X2X2X2X2X2X2X2X2X2X2X2X~ d.}.=X,X;X1X1X:X,X1X*X Xa.~ t.2X2X2X2X2X2X2X2X2X2X2X2X2X2X2X2X2X2X2X2X2X2X",
"2X2X2X2X2X2X2X2X2X2X2X2X2X2X2X2X2X2X2X2Xr.0..X=X1X~...>.:.X.E  .=.b.].>X*Xa.~ 2X2X2X2X2X2X2X2X2X2X2X2X2X2X2X2X2X2X2X2X2X",
"2X2X2X2X2X2X2X2X2X2X2X2X2X2X2X2X2X2X0.r.V.:X:Xj.^ ' m h g h s k m G Y *.`.>X}.~ 0.2X2X2X2X2X2X2X2X2X2X2X2X2X2X2X2X2X2X2X",
"2X2X2X2X2X2X2X2X2X2X2X2X2X2X2X2X2X0.t.}.;Xv.Y _ z r 9 3 3 5 < 5 q f N B M ;.;X*X6.0.2X2X2X2X2X2X2X2X2X2X2X2X2X2X2X2X2X2X",
"2X2X2X2X2X2X2X2X2X2X2X2X2X2X2X2X2Xr.G.].*.U h i u 1 , = = * = , , , 5 t j k / I.*X6.0.2X2X2X2X2X2X2X2X2X2X2X2X2X2X2X2X2X",
"2X2X2X2X2X2X2X2X2X2X2X2X2X2X2X2Xr.D.!.*.K h q : % = * * * * * * * * * = 3 t h A /.'.r.0.2X2X2X2X2X2X2X2X2X2X2X2X2X2X2X2X",
"2X2X2X2X2X2X2X2X2X2X2X2X2X2X2Xt.f.%Xn.U d 6 > - * * & # # # # # # # * * * 3 f V E ).G.~ 2X2X2X2X2X2X2X2X2X2X2X2X2X2X2X2X",
"2X2X2X2X2X2X2X2X2X2X2X2X2X2X2Xt.'.E.{ h 6 - * * # # @ @ @ @ @ @ @ @ # # * = : f b %.1Xs.6.2X2X2X2X2X2X2X2X2X2X2X2X2X2X2X",
"2X2X2X2X2X2X2X2X2X2X2X2X2X2Xr.V.&X#.V q = * * # # @ @ @ @ . @ . . @ @ @ # # # 8 x n T..X~ 2X2X2X2X2X2X2X2X2X2X2X2X2X2X2X",
"2X2X2X2X2X2X2X2X2X2X2X2X2X2Xr.=X/.I s < * * & o @ @ . . . . . . . @ X X @ # # * 6 b ' %Xd.7.2X2X2X2X2X2X2X2X2X2X2X2X2X2X",
"2X2X2X2X2X2X2X2X2X2X2X2X2Xt.p.<X-.m w > & & o X . . . . . . . . . . . X X @ @ & : s I T.F.~ 2X2X2X2X2X2X2X2X2X2X2X2X2X2X",
"2X2X2X2X2X2X2X2X2X2X2X2X2X~ F.-X@.n 9 - $ # @ X . . . . . . . . . . . @ . @ o # % 7 J O.'.r.2X2X2X2X2X2X2X2X2X2X2X2X2X2X",
"2X2X2X2X2X2X2X2X2X2X2X2X2X~ '.OXR h 3 & & X X X . . .       . .   . . . . @ o # $ : x ' E.0.2X2X2X2X2X2X2X2X2X2X2X2X2X2X",
"2X2X2X2X2X2X2X2X2X2X2X2X2X! =Xl.H y = # o X X   . .               . . . . . o # # ; N -./.s.7.2X2X2X2X2X2X2X2X2X2X2X2X2X",
"2X2X2X2X2X2X2X2X2X2X2X2X2Xt.@Xj.n q = # o X X . .                   .   . X X # o % e { +Xp.7.2X2X2X2X2X2X2X2X2X2X2X2X2X",
"2X2X2X2X2X2X2X2X2X2X2X2X2X9./.+.D 0 = # o . . .                     . . . . X o $ % r { +Xp.7.2X2X2X2X2X2X2X2X2X2X2X2X2X",
"2X2X2X2X2X2X2X2X2X2X2X2X2X9.M.c.D w % # @ X . .                 .   .   . X o o o 2 j +.+Xs.6.2X2X2X2X2X2X2X2X2X2X2X2X2X",
"2X2X2X2X2X2X2X2X2X2X2X2X2Xr.|.(.J s > # o X X .                   .   . . X o o $ 2 b | +X9.2X2X2X2X2X2X2X2X2X2X2X2X2X2X",
"2X2X2X2X2X2X2X2X2X2X2X2X2X! |.OXU g < # # X X .   .                 . . X X o o $ 2 Z c.#X4.2X2X2X2X2X2X2X2X2X2X2X2X2X2X",
"2X2X2X2X2X2X2X2X2X2X2X2X2Xr.C.@X' n 6 * # # . . . . .       .   . . . . X X o $ % 0 ] Y.|.Q 2X2X2X2X2X2X2X2X2X2X2X2X2X2X",
"2X2X2X2X2X2X2X2X2X2X2X2X2X0.6.@X;.G e = # # @ @ . . . . . .   . . . . . X o o $ : g O.J.g.5.2X2X2X2X2X2X2X2X2X2X2X2X2X2X",
"2X2X2X2X2X2X2X2X2X2X2X2X2X2X! |.^.Y h 5 = # # @ X . . . .       . . X X o o $ $ 7 D &.N.6.2X2X2X2X2X2X2X2X2X2X2X2X2X2X2X",
"2X2X2X2X2X2X2X2X2X2X2X2X2X2X6.q.@X#.P d 4 * # # @ X . . . . X . X X X o o o $ : d } (.,.t.2X2X2X2X2X2X2X2X2X2X2X2X2X2X2X",
"2X2X2X2X2X2X2X2X2X2X2X2X2X2X2X! S.OXO.B f , * # # @ X X X X X X X o o o $ $ : 0 T Y.Q.4.0.2X2X2X2X2X2X2X2X2X2X2X2X2X2X2X",
"2X2X2X2X2X2X2X2X2X2X2X2X2X2X2X0.Q #XR.E Z q 3 = # # # o @ o o o o o $ $ o : e S z.OX8.6.2X2X2X2X2X2X2X2X2X2X2X2X2X2X2X2X",
"2X2X2X2X2X2X2X2X2X2X2X2X2X2X2X2X9.9.@Xl.) Z C 3 2 * & * * # * $ $ o $ $ : e M h.$Xu.4.2X2X2X2X2X2X2X2X2X2X2X2X2X2X2X2X2X",
"2X2X2X2X2X2X2X2X2X2X2X2X2X2X2X2X2X6.8.@X(.$.M s q 4 : ; : 1 % % $ : : 2 0 A k.$X<.Q 2X2X2X2X2X2X2X2X2X2X2X2X2X2X2X2X2X2X",
"2X2X2X2X2X2X2X2X2X2X2X2X2X2X2X2X2X2X6.3._.-Xo.b k d l t 0 0 p a i l c M ] H.I.i.4.2X2X2X2X2X2X2X2X2X2X2X2X2X2X2X2X2X2X2X",
"2X2X2X2X2X2X2X2X2X2X2X2X2X2X2X2X2X2X2X6.W Z.OXJ.$./ [ ( / F F S A F %.H.I.A.2.4.2X2X2X2X2X2X2X2X2X2X2X2X2X2X2X2X2X2X2X2X",
"2X2X2X2X2X2X2X2X2X2X2X2X2X2X2X2X2X2X2X2X9.1.3.Z.OX(.K.L.U.H.&.h.x.K.P.[.8.W 9.2X2X2X2X2X2X2X2X2X2X2X2X2X2X2X2X2X2X2X2X2X",
"2X2X2X2X2X2X2X2X2X2X2X2X2X2X2X2X2X2X2X2X2X2X9.W W y.B.N.W.Q.W.Q.Z.<.2.W 3.2X2X2X2X2X2X2X2X2X2X2X2X2X2X2X2X2X2X2X2X2X2X2X",
"2X2X2X2X2X2X2X2X2X2X2X2X2X2X2X2X2X2X2X2X2X2X2X2X2X6.W W W 1.1.W W 4.2X2X2X2X2X2X2X2X2X2X2X2X2X2X2X2X2X2X2X2X2X2X2X2X2X2X",
"2X2X2X2X2X2X2X2X2X2X2X2X2X2X2X2X2X2X2X2X2X2X2X2X2X2X2X2X2X2X2X2X2X2X2X2X2X2X2X2X2X2X2X2X2X2X2X2X2X2X2X2X2X2X2X2X2X2X2X2X",
"2X2X2X2X2X2X2X2X2X2X2X2X2X2X2X2X2X2X2X2X2X2X2X2X2X2X2X2X2X2X2X2X2X2X2X2X2X2X2X2X2X2X2X2X2X2X2X2X2X2X2X2X2X2X2X2X2X2X2X2X",
"2X2X2X2X2X2X2X2X2X2X2X2X2X2X2X2X2X2X2X2X2X2X2X2X2X2X2X2X2X2X2X2X2X2X2X2X2X2X2X2X2X2X2X2X2X2X2X2X2X2X2X2X2X2X2X2X2X2X2X2X",
"2X2X2X2X2X2X2X2X2X2X2X2X2X2X2X2X2X2X2X2X2X2X2X2X2X2X2X2X2X2X2X2X2X2X2X2X2X2X2X2X2X2X2X2X2X2X2X2X2X2X2X2X2X2X2X2X2X2X2X2X",
"2X2X2X2X2X2X2X2X2X2X2X2X2X2X2X2X2X2X2X2X2X2X2X2X2X2X2X2X2X2X2X2X2X2X2X2X2X2X2X2X2X2X2X2X2X2X2X2X2X2X2X2X2X2X2X2X2X2X2X2X",
"2X2X2X2X2X2X2X2X2X2X2X2X2X2X2X2X2X2X2X2X2X2X2X2X2X2X2X2X2X2X2X2X2X2X2X2X2X2X2X2X2X2X2X2X2X2X2X2X2X2X2X2X2X2X2X2X2X2X2X2X",
"2X2X2X2X2X2X2X2X2X2X2X2X2X2X2X2X2X2X2X2X2X2X2X2X2X2X2X2X2X2X2X2X2X2X2X2X2X2X2X2X2X2X2X2X2X2X2X2X2X2X2X2X2X2X2X2X2X2X2X2X",
"2X2X2X2X2X2X2X2X2X2X2X2X2X2X2X2X2X2X2X2X2X2X2X2X2X2X2X2X2X2X2X2X2X2X2X2X2X2X2X2X2X2X2X2X2X2X2X2X2X2X2X2X2X2X2X2X2X2X2X2X",
"2X2X2X2X2X2X2X2X2X2X2X2X2X2X2X2X2X2X2X2X2X2X2X2X2X2X2X2X2X2X2X2X2X2X2X2X2X2X2X2X2X2X2X2X2X2X2X2X2X2X2X2X2X2X2X2X2X2X2X2X",
"2X2X2X2X2X2X2X2X2X2X2X2X2X2X2X2X2X2X2X2X2X2X2X2X2X2X2X2X2X2X2X2X2X2X2X2X2X2X2X2X2X2X2X2X2X2X2X2X2X2X2X2X2X2X2X2X2X2X2X2X",
"2X2X2X2X2X2X2X2X2X2X2X2X2X2X2X2X2X2X2X2X2X2X2X2X2X2X2X2X2X2X2X2X2X2X2X2X2X2X2X2X2X2X2X2X2X2X2X2X2X2X2X2X2X2X2X2X2X2X2X2X",
"2X2X2X2X2X2X2X2X2X2X2X2X2X2X2X2X2X2X2X2X2X2X2X2X2X2X2X2X2X2X2X2X2X2X2X2X2X2X2X2X2X2X2X2X2X2X2X2X2X2X2X2X2X2X2X2X2X2X2X2X",
"2X2X2X2X2X2X2X2X2X2X2X2X2X2X2X2X2X2X2X2X2X2X2X2X2X2X2X2X2X2X2X2X2X2X2X2X2X2X2X2X2X2X2X2X2X2X2X2X2X2X2X2X2X2X2X2X2X2X2X2X",
"2X2X2X2X2X2X2X2X2X2X2X2X2X2X2X2X2X2X2X2X2X2X2X2X2X2X2X2X2X2X2X2X2X2X2X2X2X2X2X2X2X2X2X2X2X2X2X2X2X2X2X2X2X2X2X2X2X2X2X2X",
"2X2X2X2X2X2X2X2X2X2X2X2X2X2X2X2X2X2X2X2X2X2X2X2X2X2X2X2X2X2X2X2X2X2X2X2X2X2X2X2X2X2X2X2X2X2X2X2X2X2X2X2X2X2X2X2X2X2X2X2X"
};
