/* XPM */
static char *result[] = {
/* columns rows colors chars-per-pixel */
"37 60 201 2 ",
"   c #030303",
".  c #0B0605",
"X  c #0C0A0A",
"o  c #141212",
"O  c #181817",
"+  c #1B1B1A",
"@  c #1D1313",
"#  c #3E0404",
"$  c #201F1F",
"%  c #232222",
"&  c #272829",
"*  c #3B2E2C",
"=  c #33312F",
"-  c #232E35",
";  c #27343C",
":  c #530E0C",
">  c #420A05",
",  c #690C0C",
"<  c #670C0A",
"1  c #7B0404",
"2  c #7F0909",
"3  c #6D1205",
"4  c #6F1716",
"5  c #6E1C15",
"6  c #721515",
"7  c #7F1313",
"8  c #572308",
"9  c #59290A",
"0  c #5F340C",
"q  c #6B3D0E",
"w  c #6A2110",
"e  c #6E280B",
"r  c #53312E",
"t  c #72302E",
"y  c #7C450F",
"u  c #674910",
"i  c #7A4F16",
"p  c #6C5212",
"a  c #6E5813",
"s  c #6B430D",
"d  c #706015",
"f  c #6D423E",
"g  c #38434B",
"h  c #4A4A4A",
"j  c #514F4F",
"k  c #545453",
"l  c #5E5D5B",
"z  c #724B49",
"x  c #655958",
"c  c #515C63",
"v  c #656362",
"b  c #6B6B6A",
"n  c #706E6C",
"m  c #75716F",
"M  c #6B7379",
"N  c #820404",
"B  c #8C0B07",
"V  c #830C0B",
"C  c #880E0E",
"Z  c #9C0101",
"A  c #920202",
"S  c #8E1209",
"D  c #91190B",
"F  c #8B0F10",
"G  c #811414",
"H  c #8D1514",
"J  c #821C17",
"K  c #911616",
"L  c #981817",
"P  c #A60504",
"I  c #A90E0D",
"U  c #B50303",
"Y  c #BA0706",
"T  c #A41B15",
"R  c #AB1B17",
"E  c #AD1B1B",
"W  c #A61617",
"Q  c #B41617",
"!  c #B21C18",
"~  c #BF1A1B",
"^  c #BC1718",
"/  c #992915",
"(  c #933213",
")  c #AE311D",
"_  c #A52216",
"`  c #BC2021",
"'  c #C90B0A",
"]  c #C40A08",
"[  c #C8191A",
"{  c #D41616",
"}  c #D41F1F",
"|  c #DA1C1C",
" . c #C42D1E",
".. c #DB2D1D",
"X. c #EB351D",
"o. c #D91F20",
"O. c #DD2323",
"+. c #DC2729",
"@. c #D62525",
"#. c #C42828",
"$. c #E52727",
"%. c #EC2727",
"&. c #E72F25",
"*. c #EF2728",
"=. c #E32C2A",
"-. c #E52B26",
";. c #F02828",
":. c #E63428",
">. c #E93E26",
",. c #E53333",
"<. c #E53A37",
"1. c #E43D3C",
"2. c #BF4B29",
"3. c #EF481C",
"4. c #F05C1E",
"5. c #C56219",
"6. c #EB6A1D",
"7. c #EC4922",
"8. c #EE542E",
"9. c #E84139",
"0. c #E8782C",
"q. c #BA4C48",
"w. c #897877",
"e. c #AD7676",
"r. c #DC4443",
"t. c #D35654",
"y. c #E54444",
"u. c #EC4A44",
"i. c #E44949",
"p. c #EE4E48",
"a. c #E44B47",
"s. c #E65454",
"d. c #E96969",
"f. c #DE8539",
"g. c #FBB13E",
"h. c #FAAA3E",
"j. c #ECD92E",
"k. c #E8E639",
"l. c #FCA846",
"z. c #FCB94C",
"x. c #D78767",
"c. c #DEA162",
"v. c #F0BC6C",
"b. c #E6AE69",
"n. c #EEC94D",
"m. c #F9C448",
"M. c #F3D548",
"N. c #F1D659",
"B. c #EEE34A",
"V. c #EFE556",
"C. c #F0E752",
"Z. c #EAF557",
"A. c #F3DC6A",
"S. c #EBF865",
"D. c #EEFF7D",
"F. c #EEF971",
"G. c #7D858A",
"H. c #8D8C8B",
"J. c #878484",
"K. c #9A8888",
"L. c #8C928B",
"P. c #979492",
"I. c #969C97",
"U. c #8D9796",
"Y. c #A09D9A",
"T. c #B39B9B",
"R. c #9BA39A",
"E. c #A4AAAE",
"W. c #B5ACA9",
"Q. c #B7B2AE",
"!. c #B9B6B2",
"~. c #BCB9B5",
"^. c #D39393",
"/. c #F0AEAE",
"(. c #BDC8BB",
"). c #F1FF8C",
"_. c #E0C2A0",
"`. c #FEDBB1",
"'. c #F8F1AD",
"]. c #FDE9BB",
"[. c #F5FEB4",
"{. c #F7FBBA",
"}. c #FBE7AB",
"|. c #C2CCC0",
" X c #D1DFCF",
".X c #CAD8C8",
"XX c #F2C8C8",
"oX c #FFECCD",
"OX c #FFE3C1",
"+X c #FAFFC1",
"@X c #F7FFCD",
"#X c #E0E0DE",
"$X c #F9FFD2",
"%X c #F9FFDA",
"&X c #FFF1DE",
"*X c #F6E3D8",
"=X c #FBFEEA",
"-X c #FAFFE4",
";X c #FFFEFD",
":X c #FEFBF1",
">X c None",
/* pixels */
">X>X>X>X>X>X>X>X>X>X>X>X>X>X>X>X>X>X>X>X>X>X>X>X>X>X>X>X>X>X>X>X>X>X>X>X>X",
">X>X>X>X>X>X>X>X>X>X>X>X>X>X>X>X>X>X>X>X>X>X>X>X>X>X>X>X>X>X>X>X>X>X>X>X>X",
">X>X>X>X>X>X>X>X>X>X>X>X>X>X>X>X>Xv >X>X>X>X>X>X>X>X>X>X>X>X>X>X>X>X>X>X>X",
">X>X>X>X>X>X>X>X>X>X>X>X>X>X>X>X>Xv >X>X>X>X>X>X>X>X>X>X>X>X>X>X>X>X>X>X>X",
">X>X>X>X>X>X>X>X>X>X>X>X>X>X>X>X>Xk >X>X>X>X>X>X>X>X>X>X>X>X>X>X>X>X>X>X>X",
">X>X>X>X>X>X>X>X>X>X>X>X>X>X>X>X>Xj >X>X>X>X>X>X>X>X>X>X>X>X>X>X>X>X>X>X>X",
">X>X>X>X>X>X>X>X>X>X>X>X>X>X>X>X% l Y.>X>X>X>X>X>X>X>X>X>X>X>X>X>X>X>X>X>X",
">X>X>X>X>X>X>X>X>X>X>X>X>X>X>X>XO v W.I.>X>X>X>X>X>X>X>X>X>X>X>X>X>X>X>X>X",
">X>X>X>X>X>X>X>X>X>X>X>X>X>X>X. O n !.P.#X>X>X>X>X>X>X>X>X>X>X>X>X>X>X>X>X",
">X>X>X>X>X>X>X>X>X>X>X>X>X>Xo o O m ~.W.k ;X>X>X>X>X>X>X>X>X>X>X>X>X>X>X>X",
">X>X>X>X>X>X>X>X>X>X>X>X>X>X  X + m ~.W.l H.;X>X>X>X>X>X>X>X>X>X>X>X>X>X>X",
">X>X>X>X>X>X>X>X>X>X>X>X>X  .   O n ~.Q.m & ;X;X>X>X>X>X>X>X>X>X>X>X>X>X>X",
">X>X>X>X>X>X>X>X>X>X>X>X>X  @   o b Q.W.w.& J.;X>X>X>X>X>X>X>X>X>X>X>X>X>X",
">X>X>X>X>X>X>X>X>X>X>X>XO . o . o k H.J.v & = ;X>X>X>X>X>X>X>X>X>X>X>X>X>X",
">X>X>X>X>X>X>X>X>X>X>X>Xi S I Y ' | =.y.i.1.0.;X>X>X>X>X>X>X>X>X>X>X>X>X>X",
">X>X>X>X>X>X>X>X>X>X>X>Xy H P Y { t.r.1.s.1.3.;X>X>X>X>X>X>X>X>X>X>X>X>X>X",
">X>X>X>X>X>X>X>X>X>X>X>Xe K P q. XU.R.P.d.d.&._.>X>X>X>X>X>X>X>X>X>X>X>X>X",
">X>X>X>X>X>X>X>X>X>X>X>X3 K Z |.& ; - b ^./.=.f.>X>X>X>X>X>X>X>X>X>X>X>X>X",
">X>X>X>X>X>X>X>X>X>X>Xd 3 K B H.g E.M g T.XX=.6.>X>X>X>X>X>X>X>X>X>X>X>X>X",
">X>X>X>X>X>X>X>X>X>X>Xp , F N (.c G.M b e.y.=.3.>X>X>X>X>X>X>X>X>X>X>X>X>X",
">X>X>X>X>X>X>X>X>X>X>Xq 6 F Z f .XU.I.v r.y.,.X.>X>X>X>X>X>X>X>X>X>X>X>X>X",
">X>X>X>X>X>X>X>X>X>X>Xq 6 C Z Z 6 z t #.i.y.,.X.>X>X>X>X>X>X>X>X>X>X>X>X>X",
">X>X>X>X>X>X>X>X>X>X>X9 6 C Z Y ' { +.,.i.y.=.&.>X>X>X>X>X>X>X>X>X>X>X>X>X",
">X>X>X>X>X>X>X>X>X>X>X8 6 V Z U ' { +.,.i.y.,.&.>X>X>X>X>X>X>X>X>X>X>X>X>X",
">X>X>X>X>X>X>X>X>X>X>X9 4 N Z U ' { $.,.i.y.,.&.>X>X>X>X>X>X>X>X>X>X>X>X>X",
">X>X>X>X>X>X>X>X>X>X>X8 4 2 A U ' ..O.,.i.y.,.=.>X>X>X>X>X>X>X>X>X>X>X>X>X",
">X>X>X>X>X>X>X>X>X>X: 9 4 N Z U ]  .=.,.i.y.,.:./ >X>X>X>X>X>X>X>X>X>X>X>X",
">X>X>X>X>X>X>X>X>XH < 9 4 2 Z U B ! 1.,.i.y.,.:./ [ >X>X>X>X>X>X>X>X>X>X>X",
">X>X>X>X>X>X>X>X@.E , 0 4 2 Z A S ! u.,.i.i.<.>.L [ %.>X>X>X>X>X>X>X>X>X>X",
">X>X>X>X>X>X>X>X$.E , u 4 2 A N D ! u.,.r.y.<.7.L o.*.>X>X>X>X>X>X>X>X>X>X",
">X>X>X>X>X>X>X>X$.E , a 5 2 1 N D R p.,.i.y.<.4.W o.;.>X>X>X>X>X>X>X>X>X>X",
">X>X>X>X>X>X>X>X$.E , p w 7 1 N D R p.,.i.y.<.6.W o.;.=.>X>X>X>X>X>X>X>X>X",
">X>X>X>X>X>X>X>X%.R , 9 5 7 1 2 S R u.1.i.y.<.5.Q } ;.=.>X>X>X>X>X>X>X>X>X",
">X>X>X>X>X>X>X>X$.E , > w 7 1 1 B T 9.r.i.y.<.( Q O.%.+.>X>X>X>X>X>X>X>X>X",
">X>X>X>X>X>X>X>X$.E , # s J 1 1 U T <.r.i.i.8.G ^ $.%.+.>X>X>X>X>X>X>X>X>X",
">X>X>X>X>X>X>X>X$.! , > s J V P ] T ,.1.a.i.0.S ^ | %.+.>X>X>X>X>X>X>X>X>X",
">X>X>X>X>X>X>X>X=.E , # >X  . o O T * % % o . V ^ | ;.=.>X>X>X>X>X>X>X>X>X",
">X>X>X>X>X>X>X>X$.E < >X>X. X % h T H.P.j + >X>X^ O.;.$.>X>X>X>X>X>X>X>X>X",
">X>X>X>X>X>X>X>X$.W >X>X>X>Xr r z T K.w.x >X>X>X>XO.;.+.>X>X>X>X>X>X>X>X>X",
">X>X>X>X>X>X>X>X@.H >X>X>X>Xn.b.c.) b.v.N.>X>X>X>X[ %.>X>X>X>X>X>X>X>X>X>X",
">X>X>X>X>X>X>X>X` >X>X>X>X>XA.l.l.2.l.l.N.>X>X>X>X>X$.>X>X>X>X>X>X>X>X>X>X",
">X>X>X>X>X>X>X>XL >X>X>X>X>XB.g.`.x.].z.j.>X>X>X>X>X>X>X>X>X>X>X>X>X>X>X>X",
">X>X>X>X>X>X>X>X>X>X>X>X>X>XV.m.oX*X&Xz.k.>X>X>X>X>X>X>X>X>X>X>X>X>X>X>X>X",
">X>X>X>X>X>X>X>X>X>X>X>X>X>XS.M.].;XoXM.Z.>X>X>X>X>X>X>X>X>X>X>X>X>X>X>X>X",
">X>X>X>X>X>X>X>X>X>X>X>X>X>X>XC.}.;X].B.S.>X>X>X>X>X>X>X>X>X>X>X>X>X>X>X>X",
">X>X>X>X>X>X>X>X>X>X>X>X>X>X>XF.'.:X{.Z.>X>X>X>X>X>X>X>X>X>X>X>X>X>X>X>X>X",
">X>X>X>X>X>X>X>X>X>X>X>X>X>X>X).[.:X{.S.>X>X>X>X>X>X>X>X>X>X>X>X>X>X>X>X>X",
">X>X>X>X>X>X>X>X>X>X>X>X>X>X>X).[.=X[.D.>X>X>X>X>X>X>X>X>X>X>X>X>X>X>X>X>X",
">X>X>X>X>X>X>X>X>X>X>X>X>X>X>X>X[.%X[.D.>X>X>X>X>X>X>X>X>X>X>X>X>X>X>X>X>X",
">X>X>X>X>X>X>X>X>X>X>X>X>X>X>X>X[.$X{.>X>X>X>X>X>X>X>X>X>X>X>X>X>X>X>X>X>X",
">X>X>X>X>X>X>X>X>X>X>X>X>X>X>X>X+X$X$X>X>X>X>X>X>X>X>X>X>X>X>X>X>X>X>X>X>X",
">X>X>X>X>X>X>X>X>X>X>X>X>X>X>X>X+X$X%X>X>X>X>X>X>X>X>X>X>X>X>X>X>X>X>X>X>X",
">X>X>X>X>X>X>X>X>X>X>X>X>X>X>X>X>X%X>X>X>X>X>X>X>X>X>X>X>X>X>X>X>X>X>X>X>X",
">X>X>X>X>X>X>X>X>X>X>X>X>X>X>X>X>X-X>X>X>X>X>X>X>X>X>X>X>X>X>X>X>X>X>X>X>X",
">X>X>X>X>X>X>X>X>X>X>X>X>X>X>X>X>X=X>X>X>X>X>X>X>X>X>X>X>X>X>X>X>X>X>X>X>X",
">X>X>X>X>X>X>X>X>X>X>X>X>X>X>X>X>X>X>X>X>X>X>X>X>X>X>X>X>X>X>X>X>X>X>X>X>X",
">X>X>X>X>X>X>X>X>X>X>X>X>X>X>X>X>X>X>X>X>X>X>X>X>X>X>X>X>X>X>X>X>X>X>X>X>X",
">X>X>X>X>X>X>X>X>X>X>X>X>X>X>X>X>X>X>X>X>X>X>X>X>X>X>X>X>X>X>X>X>X>X>X>X>X",
">X>X>X>X>X>X>X>X>X>X>X>X>X>X>X>X>X>X>X>X>X>X>X>X>X>X>X>X>X>X>X>X>X>X>X>X>X",
">X>X>X>X>X>X>X>X>X>X>X>X>X>X>X>X>X>X>X>X>X>X>X>X>X>X>X>X>X>X>X>X>X>X>X>X>X"
};
