/* XPM */
static char *result[] = {
/* columns rows colors chars-per-pixel */
"60 37 201 2 ",
"   c #030303",
".  c #0B0605",
"X  c #0C0A0A",
"o  c #141212",
"O  c #181817",
"+  c #1B1B1A",
"@  c #1D1313",
"#  c #3E0404",
"$  c #201F1F",
"%  c #232222",
"&  c #272829",
"*  c #3B2E2C",
"=  c #33312F",
"-  c #232E35",
";  c #27343C",
":  c #530E0C",
">  c #420A05",
",  c #690C0C",
"<  c #670C0A",
"1  c #7B0404",
"2  c #7F0909",
"3  c #6D1205",
"4  c #6F1716",
"5  c #6E1C15",
"6  c #721515",
"7  c #7F1313",
"8  c #572308",
"9  c #59290A",
"0  c #5F340C",
"q  c #6B3D0E",
"w  c #6A2110",
"e  c #6E280B",
"r  c #53312E",
"t  c #72302E",
"y  c #7C450F",
"u  c #674910",
"i  c #7A4F16",
"p  c #6C5212",
"a  c #6E5813",
"s  c #6B430D",
"d  c #706015",
"f  c #6D423E",
"g  c #38434B",
"h  c #4A4A4A",
"j  c #514F4F",
"k  c #545453",
"l  c #5E5D5B",
"z  c #724B49",
"x  c #655958",
"c  c #515C63",
"v  c #656362",
"b  c #6B6B6A",
"n  c #706E6C",
"m  c #75716F",
"M  c #6B7379",
"N  c #820404",
"B  c #8C0B07",
"V  c #830C0B",
"C  c #880E0E",
"Z  c #9C0101",
"A  c #920202",
"S  c #8E1209",
"D  c #91190B",
"F  c #8B0F10",
"G  c #811414",
"H  c #8D1514",
"J  c #821C17",
"K  c #911616",
"L  c #981817",
"P  c #A60504",
"I  c #A90E0D",
"U  c #B50303",
"Y  c #BA0706",
"T  c #A41B15",
"R  c #AB1B17",
"E  c #AD1B1B",
"W  c #A61617",
"Q  c #B41617",
"!  c #B21C18",
"~  c #BF1A1B",
"^  c #BC1718",
"/  c #992915",
"(  c #933213",
")  c #AE311D",
"_  c #A52216",
"`  c #BC2021",
"'  c #C90B0A",
"]  c #C40A08",
"[  c #C8191A",
"{  c #D41616",
"}  c #D41F1F",
"|  c #DA1C1C",
" . c #C42D1E",
".. c #DB2D1D",
"X. c #EB351D",
"o. c #D91F20",
"O. c #DD2323",
"+. c #DC2729",
"@. c #D62525",
"#. c #C42828",
"$. c #E52727",
"%. c #EC2727",
"&. c #E72F25",
"*. c #EF2728",
"=. c #E32C2A",
"-. c #E52B26",
";. c #F02828",
":. c #E63428",
">. c #E93E26",
",. c #E53333",
"<. c #E53A37",
"1. c #E43D3C",
"2. c #BF4B29",
"3. c #EF481C",
"4. c #F05C1E",
"5. c #C56219",
"6. c #EB6A1D",
"7. c #EC4922",
"8. c #EE542E",
"9. c #E84139",
"0. c #E8782C",
"q. c #BA4C48",
"w. c #897877",
"e. c #AD7676",
"r. c #DC4443",
"t. c #D35654",
"y. c #E54444",
"u. c #EC4A44",
"i. c #E44949",
"p. c #EE4E48",
"a. c #E44B47",
"s. c #E65454",
"d. c #E96969",
"f. c #DE8539",
"g. c #FBB13E",
"h. c #FAAA3E",
"j. c #ECD92E",
"k. c #E8E639",
"l. c #FCA846",
"z. c #FCB94C",
"x. c #D78767",
"c. c #DEA162",
"v. c #F0BC6C",
"b. c #E6AE69",
"n. c #EEC94D",
"m. c #F9C448",
"M. c #F3D548",
"N. c #F1D659",
"B. c #EEE34A",
"V. c #EFE556",
"C. c #F0E752",
"Z. c #EAF557",
"A. c #F3DC6A",
"S. c #EBF865",
"D. c #EEFF7D",
"F. c #EEF971",
"G. c #7D858A",
"H. c #8D8C8B",
"J. c #878484",
"K. c #9A8888",
"L. c #8C928B",
"P. c #979492",
"I. c #969C97",
"U. c #8D9796",
"Y. c #A09D9A",
"T. c #B39B9B",
"R. c #9BA39A",
"E. c #A4AAAE",
"W. c #B5ACA9",
"Q. c #B7B2AE",
"!. c #B9B6B2",
"~. c #BCB9B5",
"^. c #D39393",
"/. c #F0AEAE",
"(. c #BDC8BB",
"). c #F1FF8C",
"_. c #E0C2A0",
"`. c #FEDBB1",
"'. c #F8F1AD",
"]. c #FDE9BB",
"[. c #F5FEB4",
"{. c #F7FBBA",
"}. c #FBE7AB",
"|. c #C2CCC0",
" X c #D1DFCF",
".X c #CAD8C8",
"XX c #F2C8C8",
"oX c #FFECCD",
"OX c #FFE3C1",
"+X c #FAFFC1",
"@X c #F7FFCD",
"#X c #E0E0DE",
"$X c #F9FFD2",
"%X c #F9FFDA",
"&X c #FFF1DE",
"*X c #F6E3D8",
"=X c #FBFEEA",
"-X c #FAFFE4",
";X c #FFFEFD",
":X c #FEFBF1",
">X c None",
/* pixels */
">X>X>X>X>X>X>X>X>X>X>X>X>X>X>X>X>X>X>X>X>X>X>X>X>X>X>X>X>X>X>X>X>X>X>X>X>X>X>X>X>X>X>X>X>X>X>X>X>X>X>X>X>X>X>X>X>X>X>X>X",
">X>X>X>X>X>X>X>X>X>X>X>X>X>X>X>X>X>X>X>X>X>X>X>X>X>X>X>X>X>X>X>X>X>X>X>X>X>X>X>X>X>X>X>X>X>X>X>X>X>X>X>X>X>X>X>X>X>X>X>X",
">X>X>X>X>X>X>X>X>X>X>X>X>X>X>X>X>X>X>X>X>X>X>X>X>X>X>X>X>X>X>X>X>X>X>X>X>X>X>X>X>X>X>X>X>X>X>X>X>X>X>X>X>X>X>X>X>X>X>X>X",
">X>X>X>X>X>X>X>X>X>X>X>X>X>X>X>X>X>X>X>X>X>X>X>X>X>X>X>X>X>X>X>X>X>X>X>X>X>X>X>X>X>X>X>X>X>X>X>X>X>X>X>X>X>X>X>X>X>X>X>X",
">X>X>X>X>X>X>X>X>X>X>X>X>X>X>X>X>X>X>X>X>X>X>X>X>X>X>X>X>X>X>X>X>X>X>X>X>X>X>X>X>X>X>X>X>X>X>X>X>X>X>X>X>X>X>X>X>X>X>X>X",
">X>X>X>X>X>X>X>X>X>X>X>X>X>X>X>X>X>X>X>X>X>X>X>X>X>X>X>X>X>X>X>X>X>X>X>X>X>X>X>X>X>X>X>X>X>X>X>X>X>X>X>X>X>X>X>X>X>X>X>X",
">X>X>X>X>X>X>X>X>X>X>X>X>X>X>X>X>X>X>X>X>X>X>X>X>X>X>X>X>X>X>X>X>X>X>X>X>X>X>X>X>X>X>X>X>X>X>X>X>X>X>X>X>X>X>X>X>X>X>X>X",
">X>X>X>X>X>X>X>X>X>X>X>X>X>X>X>X>X>X>X>X>X>X>X>X>X>X>X>X>X>X>X>X>X>X>X>X>X>X>X>X>X>X>X>X>X>X>X>X>X>X>X>X>X>X>X>X>X>X>X>X",
">X>X>X>X>X>X>X>X>X>X>X>X>X>X>X>X>X>XL ` @.=.$.$.$.$.$.$.$.$.$.@.>X>X>X>X>X>X>X>X>X>X>X>X>X>X>X>X>X>X>X>X>X>X>X>X>X>X>X>X",
">X>X>X>X>X>X>X>X>X>X>X>X>X>X>X>X>X>X>X>XH W E E E E E E E ! E E K >X>X>X>X>X>X>X>X>X>X>X>X>X>X>X>X>X>X>X>X>X>X>X>X>X>X>X",
">X>X>X>X>X>X>X>X>X>X>X>X>X>X>X>X>X>X>X>X>X>X< < , < , , , , , , < : >X>X>X>X>X>X>X>X>X>X>X>X>X>X>X>X>X>X>X>X>X>X>X>X>X>X",
">X>X>X>X>X>X>X>X>X>X>X>X>X>X>X>X>X>X>X>X>X>X>X# > > > 8 p a u 0 9 8 8 8 9 9 q 0 a d >X>X>X>X>X>X>X>X>X>X>X>X>X>X>X>X>X>X",
">X>X>X>X>X>X>X>X>X>X>X>X>X>X>X>X>X>X>X>X>X>X>X>Xs s e 5 5 5 4 4 4 4 4 4 6 6 4 4 , 3 3 e ( a + >X>X>X>X>X>X>X>X>X>X>X>X>X",
">X>X>X>X>X>X>X>X>X>X>X>X>X>X>X>X>X>X>X>X>X>X.   J 7 7 7 7 7 2 2 1 1 N N V V H H H K H L S B .     >X>X>X>X>X>X>X>X>X>X>X",
">X>X>X>X>X>X>X>X>X>X>X>X>X>X>X>XS.C.N.A.n.r X . V 1 1 1 1 1 A A Z Z Z Z Z P Z Z N N P P P I X $ X   o >X>X>X>X>X>X>X>X>X",
">X>X>X>X>X>X>X>X>X>X>X>X).).F.C.M.m.g.g.v.r % o P 1 N N 1 N N A U U U U U U Z t (.L.(.q.Y ] .     X o . >X>X>X>X>X>X>X>X",
">X>X>X>X>X>X>X>X{.+X[.[.[.[.'.}.`.oX`.l.c.z h + ] Y B S D D D S B ' ' ' ' ' 6 .Xc g &  X[ ' o o O O O O O % >X>X>X>X>X>X",
">X>X>X>X>X=X-X%X%X$X$X%X=X:X:X:X;X*Xx.2.) / L T T T T R R R ! ! !  ...{ { { z U.G.E.; U.t.o.j b m m m n v l j k v v >X>X",
">X>X>X>X>X>X>X>X%X@X{.[.[.{.{.].oX&X].l.b.e.H.* ,.<.9.y.p.p.p.u.<.=.+.$.O.+.t I.M M - R.r.=.H.Q.!.~.~.!.W.I.>X>X>X>X>X>X",
">X>X>X>X>X>X>X>X>X>X>XD.D.F.Z.B.n.m.z.g.v.w.P.% r.r.1.1.,.,.,.,.,.,.,.,.,.,.#.x M g n P.1.1.H.W.Q.Q.W.P.Y.>X>X>X>X>X>X>X",
">X>X>X>X>X>X>X>X>X>X>X>X>X>X>XS.Z.k.j.N.N.x j $ a.a.a.a.i.i.i.i.i.i.i.i.i.i.i.r.e.T.^.d.s.p.v w.m l k #X>X>X>X>X>X>X>X>X",
">X>X>X>X>X>X>X>X>X>X>X>X>X>X>X>X>X>X>X>X>X>X$ o a.a.y.y.a.a.y.y.y.y.y.y.y.y.y.y.y.XX/.d.1.1.% & & H.;X>X>X>X>X>X>X>X>X>X",
">X>X>X>X>X>X>X>X>X>X>X>X>X>X>X>X>X>X>X>X>X>X>X. 0.8.9.9.,.,.,.,.,.,.,.,.,.,.,.:.=.=.=.&.7.0.= J.;X;X>X>X>X>X>X>X>X>X>X>X",
">X>X>X>X>X>X>X>X>X>X>X>X>X>X>X>X>X>X>X>X>X>X>XC S G ( 5.6.8.7.>.:.:.&.$.&.&.&.X.3.6.f._.;X;X;X;X;X>X>X>X>X>X>X>X>X>X>X>X",
">X>X>X>X>X>X>X>X>X>X>X>X>X>X>X>X>X>X>X>X>X>XQ ^ ^ ^ Q Q W W K L / / >X>X>X>X>X>X>X>X>X>X>X>X>X>X>X>X>X>X>X>X>X>X>X>X>X>X",
">X>X>X>X>X>X>X>X>X>X>X>X>X>X>X>X>X>X>X>X[ | $.O.o.O.O.| | ..o.[ ~ >X>X>X>X>X>X>X>X>X>X>X>X>X>X>X>X>X>X>X>X>X>X>X>X>X>X>X",
">X>X>X>X>X>X>X>X>X>X>X>X>X>X>X>X>X>X>X$.*.*.;.;.;.*.*.*.;.;.*.$.>X>X>X>X>X>X>X>X>X>X>X>X>X>X>X>X>X>X>X>X>X>X>X>X>X>X>X>X",
">X>X>X>X>X>X>X>X>X>X>X>X>X>X>X>X>X>X>X>X>X+.+.$.+.+.+.+.$.>X>X>X>X>X>X>X>X>X>X>X>X>X>X>X>X>X>X>X>X>X>X>X>X>X>X>X>X>X>X>X",
">X>X>X>X>X>X>X>X>X>X>X>X>X>X>X>X>X>X>X>X>X>X>X>X>X>X>X>X>X>X>X>X>X>X>X>X>X>X>X>X>X>X>X>X>X>X>X>X>X>X>X>X>X>X>X>X>X>X>X>X",
">X>X>X>X>X>X>X>X>X>X>X>X>X>X>X>X>X>X>X>X>X>X>X>X>X>X>X>X>X>X>X>X>X>X>X>X>X>X>X>X>X>X>X>X>X>X>X>X>X>X>X>X>X>X>X>X>X>X>X>X",
">X>X>X>X>X>X>X>X>X>X>X>X>X>X>X>X>X>X>X>X>X>X>X>X>X>X>X>X>X>X>X>X>X>X>X>X>X>X>X>X>X>X>X>X>X>X>X>X>X>X>X>X>X>X>X>X>X>X>X>X",
">X>X>X>X>X>X>X>X>X>X>X>X>X>X>X>X>X>X>X>X>X>X>X>X>X>X>X>X>X>X>X>X>X>X>X>X>X>X>X>X>X>X>X>X>X>X>X>X>X>X>X>X>X>X>X>X>X>X>X>X",
">X>X>X>X>X>X>X>X>X>X>X>X>X>X>X>X>X>X>X>X>X>X>X>X>X>X>X>X>X>X>X>X>X>X>X>X>X>X>X>X>X>X>X>X>X>X>X>X>X>X>X>X>X>X>X>X>X>X>X>X",
">X>X>X>X>X>X>X>X>X>X>X>X>X>X>X>X>X>X>X>X>X>X>X>X>X>X>X>X>X>X>X>X>X>X>X>X>X>X>X>X>X>X>X>X>X>X>X>X>X>X>X>X>X>X>X>X>X>X>X>X",
">X>X>X>X>X>X>X>X>X>X>X>X>X>X>X>X>X>X>X>X>X>X>X>X>X>X>X>X>X>X>X>X>X>X>X>X>X>X>X>X>X>X>X>X>X>X>X>X>X>X>X>X>X>X>X>X>X>X>X>X",
">X>X>X>X>X>X>X>X>X>X>X>X>X>X>X>X>X>X>X>X>X>X>X>X>X>X>X>X>X>X>X>X>X>X>X>X>X>X>X>X>X>X>X>X>X>X>X>X>X>X>X>X>X>X>X>X>X>X>X>X",
">X>X>X>X>X>X>X>X>X>X>X>X>X>X>X>X>X>X>X>X>X>X>X>X>X>X>X>X>X>X>X>X>X>X>X>X>X>X>X>X>X>X>X>X>X>X>X>X>X>X>X>X>X>X>X>X>X>X>X>X"
};
