/* XPM */
static char *result[] = {
/* columns rows colors chars-per-pixel */
"60 60 81 1 ",
"  c #434343",
". c #3A3A3A",
"X c #232323",
"o c gray20",
"O c gray37",
"+ c #494949",
"@ c #323232",
"# c #393939",
"$ c gray12",
"% c #2F2F2F",
"& c gray36",
"* c gray21",
"= c #191919",
"- c gray16",
"; c #5A5A5A",
": c #5D5D5D",
"> c gray26",
", c #3E3E3E",
"< c #1B1B1B",
"1 c #252525",
"2 c gray28",
"3 c #4E4E4E",
"4 c gray27",
"5 c #414141",
"6 c gray25",
"7 c #3F3F3F",
"8 c #373737",
"9 c #2D2D2D",
"0 c #1E1E1E",
"q c gray13",
"w c gray23",
"e c #2C2C2C",
"r c #282828",
"t c #272727",
"y c gray17",
"u c gray11",
"i c #1D1D1D",
"p c gray14",
"a c gray18",
"s c gray10",
"d c #181818",
"f c #222222",
"g c #202020",
"h c #464646",
"j c #484848",
"k c #444444",
"l c gray15",
"z c #343434",
"x c #686868",
"c c #5F5F5F",
"v c gray19",
"b c #353535",
"n c #4B4B4B",
"m c #626262",
"M c #585858",
"N c gray30",
"B c #3C3C3C",
"V c gray35",
"C c #535353",
"Z c gray32",
"A c gray39",
"S c #565656",
"D c #515151",
"F c #4C4C4C",
"G c #505050",
"H c gray31",
"J c #313131",
"K c #2A2A2A",
"L c gray22",
"P c gray34",
"I c gray24",
"U c gray38",
"Y c #646464",
"T c gray33",
"R c gray29",
"E c #555555",
"W c gray40",
"Q c #606060",
"! c #676767",
"~ c #656565",
"^ c #5B5B5B",
/* pixels */
"                             .XoOO+                         ",
"                             .XoOO+                         ",
"                             .X@OO+                         ",
"                             #$%&O+                         ",
"                             *=-;:+                         ",
"                           >,@<1234                         ",
"567777777666765555555555555,890q@w75555555555555555667777777",
"%ertttttry9-re%%%%%%%%%%%%%9-Xuip-9%%%%%%%%%%%%%%%%ayttttttt",
"1qsddddd=$Xu<q11111111111111pXffXp11111111Xg0ii0qp1p0=dddddd",
"+2       hj4k2++++++++++++++++++++++++++++ @1i0lz4++4       ",
"xxxxxxxxxxxxxxxxxxxxxxxxxxxxxxxxxxxxxxxxxxc4vgXbnmxxxxxxxxxx",
"::::::::::::::::::::::::::::::::::::::::::MNBpeNV&::::::::::",
"CCCCCCCCCCCCCCCCCCCCCCCCCCCCCCCCCCCCCCCCCCZZ4rz:ASCCCCCCCCCC",
"ZZZZZZZZZZZZZZZZZZZZZZZZZZZZZZZZZZZZZZZZZZZZ2a#cASZZZZZZZZZZ",
"ZZZZZZZZZZZZZZZZZZZZZZZZZZZZZZZZZZZZZZZZZZZZ2a#cASZZZZZZZZZZ",
"ZZZZZZZZZZZZZZZZZZZZZZZZZZZZZZZZZZZZZZZZZZZZh-bOASZZZZZZZZZZ",
"ZZZZZZZZZZZZZZZZZZZZZZZZZZZZZZZZZZZZZZZZZZDF7tvGMCZZZZZZZZZZ",
"DDDDDDDDDDDDDDDDDDDDDDDDDDDDDDDDDDDDDDDDDDN6z-e#4HDDDDDDDDDD",
",,,,,,,,,,,,,,,,,,,,,,,,,,,,,,,,,,,,,,,,,,.v-tt-Jw,,,,,,,,,,",
"XXXXXXXXffqqqqffXXXXXXXXXXXXXXXXXXXXXXXXXXf$ql1ggfXXXXXXXXXX",
",,,,,,,,w%X0uqKL,,,,,,,,,,,,,,,,,,,,,,,,,,,,6  7,,,,,,,,,,,,",
"mmmmmmmm:2vf$e7PmmmmmmmmmmmmmmmmmmmmmmmmmmmmAAAAmmmmmmmmmmmm",
"VVVVVVVVSjLlp6ZSVVVVVVVVVVVVVVVVVVVVVVVVVVVVVVVVVVVVVVVVVVVV",
"hhhhhhhhhkIttDU3hhhhhhhhhhhhhhhhhhhhhhhhhhhhhhhhhhhhhhhhhhhh",
"          IXfDYN                                            ",
"          Iq$GYN                                            ",
"          ,l1ZYN                                            ",
"          ,--TYN                                            ",
"          ,-KTYN                                            ",
"         5wttnVR                                            ",
"        >Bzpqb5>                                            ",
"88888888*vKgilaz88888888888888888888888888888888888888888888",
"XXXXXXXXXq$u<0gfXXXXXXXXXXXXXXXXXXXXXXXXXXXffffffXXXXXXXXXXX",
"##########LLLLL###########################z-q<ufy*##########",
"AAAAAAAAAAAAAAAAAAAAAAAAAAAAAAAAAAAAAAAAAAV6y$q9 &AAAAAAAAAA",
"mmmmmmmmmmmmmmmmmmmmmmmmmmmmmmmmmmmmmmmmmm&nLf-kTcmmmmmmmmmm",
"EEEEEEEEEEEEEEEEEEEEEEEEEEEEEEEEEEEEEEEEEETD lJVUPEEEEEEEEEE",
"ZZZZZZZZZZZZZZZZZZZZZZZZZZZZZZZZZZZZZZZZZZZZ4toOASZZZZZZZZZZ",
"ZZZZZZZZZZZZZZZZZZZZZZZZZZZZZZZZZZZZZZZZZZZZ4toOASZZZZZZZZZZ",
"ZZZZZZZZZZZZZZZZZZZZZZZZZZZZZZZZZZZZZZZZZZZZ4toOASZZZZZZZZZZ",
"ZZZZZZZZZZZZZZZZZZZZZZZZZZZZZZZZZZZZZZZZZZDG>lvMcEZZZZZZZZZZ",
"ZZZZZZZZZZZZZZZZZZZZZZZZZZZZZZZZZZZZZZZZZZHk*fr6FDZZZZZZZZZZ",
"jjjjjjjjjjjjjjjjjjjjjjjjjjjjjjjjjjjjjjjjjjk*K0geL4jjjjjjjjjj",
"yyyyyyyyyyyyyyyyyyyyyyyyyyyyyyyyyyyyyyyyyy-p$<<gp-yyyyyyyyyy",
"99999999e1$<s0fK99999999999999999999999999999999999999999999",
";;;;;;;;S6yqitLH;;;;;;;;;;;;;;;;;;;;;;;;;;;;;;;;;;;;;;;;;;;;",
"WWWWWWWWU3#lfLFOWWWWWWWWWWWWWWWWWWWWWWWWWWWWWWWWWWWWWWWWWWWW",
"PPPPPPPPSD2etNQ;PPPPPPPPPPPPPPPPPPPPPPPPPPPPPPPPPPPPPPPPPPPP",
"ZZZZZZZZZZn%KT!VZZZZZZZZZZZZZZZZZZZZZZZZZZZZZZZZZZZZZZZZZZZZ",
"ZZZZZZZZZZn%KT!VZZZZZZZZZZZZZZZZZZZZZZZZZZZZZZZZZZZZZZZZZZZZ",
"ZZZZZZZZZZn%KT!VZZZZZZZZZZZZZZZZZZZZZZZZZZZZZZZZZZZZZZZZZZZZ",
"ZZZZZZZZZDRa-ZYMZZZZZZZZZZZZZZZZZZZZZZZZZZZZZZZZZZZZZZZZZZZZ",
"ZZZZZZZZD+,-p6DZZZZZZZZZZZZZZZZZZZZZZZZZZZZZZZZZZZZZZZZZZZZZ",
"NNNNNNNNR,vX$e.2NNNNNNNNNNNNNNNNNNNNNNNNNNNNNNNNNNNNNNNNNNNN",
"@@@@@@@@JKX0uqr%@@@@@@@@@@@@@@@@@@@@@@@@@@@@@@@@@@@@@@@@@@@@",
"1111111111pppp1111111111111pgi<uigp1111111111111111111111111",
"HHHHHHHHHHHHHHHHHHHHHHHHHHHjbli0t8RHHHHHHHHHHHHHHHHHHHHHHHHH",
"~~~~~~~~~~~~~~~~~~~~~~~~~~~^k%gp8FQ~~~~~~~~~~~~~~~~~~~~~~~~~",
"GGGGGGGGGGGGGGGGGGGGGGGGGGGNk*f9GPDGGGGGGGGGGGGGGGGGGGGGGGGG",
"                             .XoOO+                         "
};
