/* XPM */
static char *result[] = {
/* columns rows colors chars-per-pixel */
"60 60 82 1 ",
"  c #1C1C1C",
". c #252525",
"X c #2B2526",
"o c #2C2C2C",
"O c #332425",
"+ c #3C2324",
"@ c #333333",
"# c #3C3C3C",
"$ c #641C1F",
"% c #6C1B1F",
"& c #7A171B",
"* c #731A1D",
"= c #781A1E",
"- c #4E1F21",
"; c #541E21",
": c #5B1E21",
"> c #621E21",
", c #691E21",
"< c #751E22",
"1 c #7B1E22",
"2 c #432324",
"3 c #4C2123",
"4 c #542224",
"5 c #5B2123",
"6 c #652124",
"7 c #6A2124",
"8 c #732024",
"9 c #7A2024",
"0 c #434343",
"q c #4C4C4C",
"w c #525252",
"e c #5B5B5B",
"r c #646464",
"t c #686868",
"y c #797979",
"u c #83161B",
"i c #8D151A",
"p c #83181C",
"a c #8A1B1F",
"s c #9D1117",
"d c #93151B",
"f c #9C141A",
"g c #931A1F",
"h c #9D191E",
"j c #A61319",
"k c #AB151B",
"l c #A2181E",
"z c #B4151C",
"x c #BE161D",
"c c #831D22",
"v c #8B1E23",
"b c #941D22",
"n c #9B1D22",
"m c #A21C22",
"M c #AC1C22",
"N c #B51B22",
"B c #BA1B22",
"V c #8B2125",
"C c #B42026",
"Z c #B92026",
"A c #C3161D",
"S c #C9171E",
"D c #C3181F",
"F c #CE181F",
"G c #D1181F",
"H c #C51A21",
"J c #CC1A21",
"K c #D41921",
"L c #D91921",
"P c #E61A22",
"I c #E91C25",
"U c #F51C25",
"Y c #FC1D26",
"T c #868686",
"R c #8B8B8B",
"E c #A9A9A9",
"W c #B3B3B3",
"Q c #BEBEBE",
"! c gray76",
"~ c gray80",
"^ c #D6D6D6",
"/ c #E6E6E6",
/* pixels */
"00000000000000000000000000000#.@req0000000000000000000000000",
"00000000000000000000000000000#.@eeq#000000000000000000000000",
"00000000000000000000000000000# @erq0000000000000000000000000",
"00000000000000000000000000000@.oeeq0000000000000000000000000",
"00000000000000000000000000000@ .ee00000000000000000000000000",
"0000000000000000000000000000#@ .qq00000000000000000000000000",
"0##0###00#0##0#00#0#00##0####o. @##0#0000#0#0#00#0#00####0#0",
"@oX.oX...ooo.oo@@o@o@o@@@@@o..  .oooo@ooo@o@@o@oo@@oo.o..o..",
"..       ..  ..............................     .....       ",
"q00#00###0q00qq0qqqqq0qq0qqqq0q0qqq0qqqqqq0@. ..@00q00#0##0#",
"ttttttttttrtttttrttttttttttrttrtttttrttrrrr0@..@qrttrttttrrt",
"eeeeereeeeeeeeeeeeeeeeeeeeerreeeeeeeeeereewq#.oweeeereeeeree",
"wwwwwwwwwwwwwwwwwwwwwwwwwwwwwwwwwwwwwwwwwwww0.@erwwwwwwwwwww",
"wwwwwwwwwwwwwwwwwwwwwwwwwwwwwwwwwwwwwwwwwwwwqo#erewwwwwwwwww",
"wwwwwwwwwwwwwwwwwwwwwwwwwwwwwwwwwwwwwwwwwwwwqo#erwwwwwwwwwww",
"wwwwwwwwwwwwwwwX2+.oqwwwwwwwwwwwwwwwwwwwwwww0o@erwwwwwwwwwww",
"wwwwwwwwwwwwww0,jLLJ.@qwwwww0o.@wwwwwwwwwwwq#.@wewwwwwwwwwww",
"qwwwwwwwwqwwww0*jc7nM..wqww#X2Oowwwwqwwwqw0o...#0qwwwqwwwwqw",
"###########0#2@%jXJnXmHX@#.9KL..XXX.###@XX>ijj..@###########",
".......... ..o.>jXYYL5.B3.NLLLLLLLL....7fjzDoX... ..........",
"###0#####o.  .o4j+UYYLnOLb7LLLLLLLb.XX>f=9K4v1X#############",
"rerrerrre0@. o#+juCYYn+5LLLLLLLLLLLL74jKLKX1Lv#rrrrrrrrrrrrr",
"eeweeee#@....oq.fjOKCX%LLLLLLLLLLLLLLLLLL+HII+weeeweeweeeewe",
"00q00#oXO6bbVX..ij.VXpDLLLLLLLLLLLLLLLLnNXPYZX#@@000q00000q0",
"00#.+<Jxk1+OGGm.2j5.=LLLLLLLLLLLLLLLLLLJ5MYYXXnMm6XX@0000000",
"o.3Hxv+.X$XXK1AX.jjfkLLLLLLLLLLLLLLLLLLLK.YYOML24hDScX.#0000",
".mLMO.+uss.7cOk9.djjgLLLLLLLLLLLLLLLLLLLLXIC5zL...5aDM5.#000",
"O5X.fd+xx%1L.XXFHXjj.LLLLL+6NLLLLLLLLLLLLM..lO87Xs&3X4kG2.@0",
"0#@.<xxAxXLM-d+hDb+avGLLLby~R.5nLLLLLLHOoX.1.-.K>u1O%&2OzA:@",
"000#X2xxj.K4u$u2zGXODLLLL3W//!#o6KLLKMXT!y.5Oi.LM;xxgzjOO$2@",
"00000#Xk&<4Xz&zO.xF7OVJLHXQ/////W6LLXt///Q..fj>bLXxAxn-X@##0",
"#@#@@#X*2MXOxxxpXgGL4.6LH+Q/////^8LL#E///!XO2zi4J.kxm.X@#@@#",
".........N+<2.....lHL2XLLby^////wJLLXR///RX,DAz.44d7........",
"@##@@##o.OXo@#@#@+2kHX6PLLOyW~Qr4LLL9o!//....X53.b.X@##@@##@",
"rrrrrere@.rrrrrrrXXc>OhGLLN.@wXOLLLLH3RWR5o#.....moerrrrerre",
"errerrrrrrererrrro*3=kjDLLLLLLLLLLLLLLNnBXeq#.X00.wrrrerrrrr",
"wwwewwwwwwwwwwewwwX,jjjjX4LLLLLLLLLLLLLLNoww0.@erwwewwwwwwww",
"wwwwwwwwwwwwwwwwwwX.jjjji4KLLLLLLLLLLLLM2qww0.@erwwwwwwwwwww",
"wwwwwwwwwwwwwwwwwww#2jjjjjjX8GLGLLLLLFj.@www0.@erwwwwwwwwwww",
"wwwwwwwwwwwwwwwwwwww#X3jjjjjjjkkjkjjf6.wwwww0.@rrewwwwwwwwww",
"wwwwwwwwwwwwwwwwwwwww@.>jjjjjjjjjjjfX.0wwwww#.oeewwwwwwwwwww",
"wwwwwwwwwwwwwwqwwwwwwqw@.X>ifjjhu2X.0wwwwww0#..#qwwwwwwwwwww",
"0qq00q0qqq0qq00qq00qqqqqqq#@@Xoo#0qqqq0q0q0@. .X#00qqqqq0qqq",
"oooo.oooXooooooooooo.o.ooXoooooooX.ooXoooo...  ...ooo..oo..o",
"ooooooooo.    .ooooooooooooooooooooooooooooooooooooooooooooo",
"eeeeeeeee#o. .#qeeeeeeeeeeeeeeeeeeeeeeeeeeeeeeeeeeeeeeeeeeee",
"rtrrrrrrrq@..@qerrrrrrrrrrrrrrtrrrrrrrrrrrrrttrrrrrrrrrrttrt",
"eweweewewwqo.weeeweeweeweeweeewweeweeweeweeewweweweeweeewwew",
"wwwwwwwwwwqoowrewwwwwwwwwwwwwwwqwwwwwwwwwwwwwwwwwwwwwwwwwwww",
"wwwwwwwwwwqoowtwwwwwwwwwwwwwwwwwwwwwwwwwwwwwwwwwwwwwwwwwwwww",
"wwwwwwwwwwqoowrewwwwqwwwwwwwwwwwwwwwqwwwwwwwwwwwwwwwqwwwwwww",
"wwwwwwwqwwqoowrewwwwwwwwwwwwwwwwwwwqwwwwwwwwwqwwwwwqwwwwwwww",
"wwwwwwwwwq#..#wwwwwwwwwwwwwwwwwwwwwwwwwwwwwwwwwwwwwwwwwwwwww",
"qqqqqqqqq#@..o#0qqqqqqqqqqqqqqqwqqqqqqqqqqqqqqqqqqqqqqqqqqqq",
"@@@@@@@@o..  ..@@@@@@@@@@@@@@@@@@@@@@@@@@@@@@@@@@@@@@@@@@@@@",
"............................     ...........................",
"wqwqqwqwwqwqwqwqwwqwwqwqwwq0@.  .#qqwqwwqwwqqwqwwqwwwqwqwwqw",
"rrrrrrrrrrrrrrrrrrrrrrrrrrre0@..@qrrrrrrrrrrrrrrrrrrrrrrrrrr",
"qwwwwwwwqwwwwwwwqwwqwwwwqwww0@.owwwqwqwwwwwwwwqwqwwqwwwwwwwq",
"000000#0000000#0000000#000000@.@eeq00000000#0000000000#0#000"
};
