/* XPM */
static char *result[] = {
/* columns rows colors chars-per-pixel */
"60 60 107 2 ",
"   c #1C1C1C",
".  c #242424",
"X  c #2C2626",
"o  c #2C2C2C",
"O  c #352526",
"+  c #3D2425",
"@  c #362728",
"#  c #3B2628",
"$  c #332B2B",
"%  c #392A2B",
"&  c #333333",
"*  c #3B3636",
"=  c #3D3D3D",
"-  c #5E1D1F",
";  c #651B1E",
":  c #6C1B1E",
">  c #7E171B",
",  c #741A1E",
"<  c #7D1A1E",
"1  c #4B1F22",
"2  c #551F21",
"3  c #5C1E21",
"4  c #621D20",
"5  c #6C1E21",
"6  c #741E21",
"7  c #7D1D21",
"8  c #432324",
"9  c #4C2224",
"0  c #432B2C",
"q  c #4D2B2C",
"w  c #532224",
"e  c #5B2225",
"r  c #522728",
"t  c #5A2729",
"y  c #572C2D",
"u  c #5B2B2D",
"i  c #4C3132",
"p  c #403E3E",
"a  c #56393A",
"s  c #642124",
"d  c #6B2225",
"f  c #602D2F",
"g  c #712024",
"h  c #7D2125",
"j  c #603032",
"k  c #65383A",
"l  c #434343",
"z  c #4C4C4C",
"x  c #544444",
"c  c #534E4E",
"v  c #525252",
"b  c #5B5B5B",
"n  c #6C5F60",
"m  c #656565",
"M  c #686565",
"N  c #686868",
"B  c #737272",
"V  c #85161B",
"C  c #8B171B",
"Z  c #83191D",
"A  c #8C1A1E",
"S  c #93161B",
"D  c #9C151A",
"F  c #951A1F",
"G  c #9A191F",
"H  c #A51319",
"J  c #AB141A",
"K  c #A3191F",
"L  c #AC181E",
"P  c #B4171E",
"I  c #BC161D",
"U  c #B4181E",
"Y  c #BE181E",
"T  c #841E22",
"R  c #8B1E22",
"E  c #921D21",
"W  c #9C1D22",
"Q  c #A41C22",
"!  c #AD1C22",
"~  c #B41B22",
"^  c #BB1B22",
"/  c #802024",
"(  c #9C2025",
")  c #B42026",
"_  c #C5171E",
"`  c #CC171F",
"'  c #C5191F",
"]  c #CE181F",
"[  c #C41A22",
"{  c #CB1A22",
"}  c #D41921",
"|  c #D91921",
" . c #E51B23",
".. c #ED1B24",
"X. c #F51C25",
"o. c #FB1D26",
"O. c gray52",
"+. c #8D8D8D",
"@. c #9D9D9D",
"#. c #A4A4A4",
"$. c #AEAEAE",
"%. c #B1B1B1",
"&. c #BABABA",
"*. c #C2C2C2",
"=. c #CDCDCD",
"-. c #DDDDDD",
";. c #E5E5E5",
/* pixels */
"l l l l l l l l l l l l l l l l l l l l l l l l l l l l l = . o b b z l l l l l l l l l l l l l l l = l l l l l l l l l ",
"l l l l l l l l l l l l l l l l l l l l l l l l l l l l l = . & m b z l l l l l l l l l l l l l l l l l l l l l l l l l ",
"l l l l l l l l l l l l l l l l l l l l l l l l l l l l l = . & m b z l l l l l l l l l l l l l l l l l l l l l l l l l ",
"l l l l l l l l l l l l l l l l l l l l l l l l l l l l l & . o b b l l l l l l l l l l l l l l l l l l l l l l l l l l ",
"l l l l l l l l l l l l l l l l l l l l l l l l l l l l l &   . b b z l l l l l l l l l l l l l l l l l l l l l l l l l ",
"l l l l l l l l l l l l l l l l l l l l l l l l l l l l = &   . l z l l l l l l l l l l l l l l l l l l l l l l l l l l ",
"l p p p p l = = = = p l = p p l = l l l l l l l = l l = & o . . & = = l p l l l = p l l l = l l l = l = = l = = = l l = ",
"o o o . . . . X o o o . o o o & o & o o o o o o o o & o . .     . o o & o o o & o & o o o & o & o & & o o . . o . o . . ",
". .               . .     . . . . . . . . . . . . . . . . . . . . . . . . . . . . . . .         . . . . .               ",
"z z l = l l = l = l l l l z z l l z z z z l z z z z z z z z z l z z z z l z z z z z p & .   . . & l z z l l l l = = l = ",
"N N m m m N N m N N N N N N N N N N m N N N N N N N N N N N m m N N N N N N N N m m b l & . . & z m m m N N N N N N m m ",
"m b b b m b b b b b b b b b b b b b m b b b b b b b b b m b b b b b b b b b b b b b b z = . o v b b b b b b b b m b b b ",
"v v v v v v v v b v v v v v v v b v v v v v v v v v v v v v v v v v v v v v v v v v v v l . & b m v v v v v v v v v v v ",
"v v v v v v v v v v v v v v v v v v v v v v v v v v v v v v v v v v v v v v v v v v v v z o = b m b v v v v v v v v v v ",
"v v v v v v v v v v v v v v v v v v v v v v v v v v v v v v v v v v v v v v v v v v v v l & = b m v v v v v v v v v v v ",
"v v v v v v v v v v v v v v l & @ $ = l v v v v v v v v z v v v v v v v v v v v v v v v l o & b m v v v v v v v v v v v ",
"v v v v v v v v v v v v v v = 3 W Q s $ = z v c v v v v = * & z v v v v v v v v v v z & o . & v b v v v v v v v v v v v ",
"z v v v v v v v v z v v v v & 5 H T / Q g # = z v z l % d / w = l = p z v v v z = @ + e 6 X o * l z v v z v v v v v v z ",
"= = = = = = = = = = = = = = o 4 Z 9 h e d E e $ & & % / } [ w 8 e s 9 & = = & X 8 < S A e @ . . & = = = = = = = = = = = ",
". . . . . . . . . . .   . . . - C 9  .| / w h T 8 X ~ | | } ^ } | } h . . X 1 > < U ! w s . . .   . . . . . . . . . . . ",
"= = = = p p = = = & .       . w S 8  .o...^ e s ^ / ! } | | | | | [ h 8 X , H A T ^ r W ~ o = = = = l = = = = = = = = p ",
"m b m m b b m m b l o . . o * 0 J 4 ( o.X.~ 8 h | | } | | | | | | | | } ~ K I | } s / ..W * n m m b m m m b m m m b m m ",
"b b b b b b b b b z * . . l l @ H V s X.) 9 / } | | | | | | | | | | | | | | } [ Q e { o.h = b b b b b v b b b b b b b b ",
"l l l l z l l l l l p . . v b & S H 9 ( # Z } | | | | | | | | | | | | | | | } Q O ~ X.| q l l l l z l l z l l l l l l l ",
"l l l l l l l l l l = .   v b & , H : O : Y | | | | | | | | | | | | | | | | | { e / X.) @ l l l l l l l l l l l l l l l ",
"l l l l l l l l l l = . . z m = 2 H S 3 J } | | | | | | | | | | | | | | | | | | ^ 8 { d & l l l = l l l l l l l l l l l ",
"l l l l l l l = & % 8 # . z m l 8 S H H K } | | | | | } | | | | | | | | | | | | | e h % = = & 8 # $ & = l l l l l l l l ",
"l l l l l p & @ 6 E ~ ~ s $ v z @ 2 H H e { | | | } h R [ } | | | | | | | | | } ! s X & = o s ~ ~ F g % & = l l l l l l ",
"l l l l = % s ~ F : ~ U U R 8 * & 9 H H s { | | | / v B c a h ! { | | | | { Q k N l . & # E L U ~ : F U s @ = p l l l l ",
"l l l = o T U 4 + X W d w L ! s . 9 H H U } | | [ r %.;.=.&.+.x r / } | ~ u M &.-.O.X e L L w d W X O e P R X = l l l l ",
"l l & 8 W F 8 2 > 8 L e + 8 G _ Q e + - s R } | ^ i *.;.;.;.;.;.*.y ^ | e #.;.;.;.#.. R D + 8 e ! 8 > - 9 F W 8 * l l l ",
"* o + Q F + ; D V 8 ~ w , : # 6 _ ' Q 6 / w E | ^ q %.;.;.;.;.;.=.r [ } 5 #.-.;.;.@.. 9 8 : , w ~ 8 V C - # E Q @ & * * ",
". 8 Q 7 + 2 A I Z + ~ w 6 : C 2 8 T I } | T d | } T m &.;.;.;.-.B R | | E N =.;.;.m X 8 - H C 9 ~ 8 Z G w , + < Q 8 . . ",
"@ Q R 8 > R U I > 8 ~ 9 C R I D 1 O w K ] 5 6 | | ` y b #.&.$.N u { | | { a +.=.#.0 X A A P F 9 ~ + < I K J < 8 R Q O & ",
", T O 2 S D U I < 8 ! 8 D L 6 0 = $ + 9 7 8 F } | | { / t y e R { | | | | ~ d j d d o 8 6 L D 8 ! 8 < Y U G F 3 # Z , X ",
"O $ = p p % 9 T , 8 Q 8 < 9 p v b l 8 w 9 , H P [ | | | { { { } | | | | | | } { { % z l $ 9 < 8 Q 8 , Z w 0 * = = & @ = ",
"v v v v b v z * $ . T + & z v v v v $ 5 H H H H d 6 { | | | | | | | | | | | | { s = v v l . o # / X o & z v v v v v v v ",
"v v v v v v v z l & 9 @ z z v v v v l $ C J H H H Z K ^ { | | | | | | | | | ] g $ z v v l X & @ 8 & z v v v v v v v v v ",
"v v v v v v v v v z & l v v v v v v v l O , H H H H H C A I _ ` } ] ] _ I D ; o z v v v l o & l & v v v v v v v v v v v ",
"v v v v v v v v v v z v v v v v v v v v p @ 3 F H H H H H J J J J J J H S 1 $ z v v v v l . & b m v v v v v v v v v v v ",
"v v v v v v v v v v v v v v v v v z v v v z & @ - Z S H H H H H D S , 9 o = v v v v v z l . & b b v v v v v v v v v v v ",
"v v v v v v v v v v v v v v v v v v v v v v v l * % 8 9 3 3 3 9 9 # % p l v v v v v v l & . . = v v v v v v v v v v v v ",
"l z l z l l l z z z l l z l z l z z z l z z z z l l = & & * & & * p l l z z l z l z l * .   . o & l z l z l z l l z l z ",
"o o o o o o o o X o o o o o o o o . o o . o . o o o o o o X o o o o o o o . o o o o . . .     . . . o o o o o o o o o o ",
"o o o o o o o o o .         . o o o o o o o o o o o o o o o o o o o o o o o o o o o o o o o o o o o o o o o o o o o o o ",
"b b b b b b b b v = o .   . * z b b b b b b b b b b b b b b b b b b b b b b b b b b b b b b b b b b b b b b b b b b b b ",
"N m m m m m m m m z = . . = z b m m m N m m m m m m m m m m N m N N m m N m m m m m m m N m m m m m m m m m m m m m m m ",
"b v b v v b b v b v l o . z m b b v b v b v b v b b v b b v b v v v b v v b v b v b b v b v b v b v b b v b b v b v b v ",
"v v v v v v v v v v z o o v m b v v v v v z v v v v v v v z v v v v v v v v v v v v v v v v v v v v v v v z v v v v v v ",
"v v v v z v v v v v z o o v N v v v v v v v v v v v v v v v v v v v v v v v v v v v v v v v v z v v v v v v v v v v v v ",
"v v v v v v v v v v z o o v N b v v v v v v v v v v v v v v v v v v v v v v v v v v v v v v v v v v v v v v v v v v v v ",
"v v v v v v v v v v z o . v m b v v v v v v v v v v v v v v v v v v v v v v v v v v v v v v v v v v v v v v v v v v v v ",
"v v v v v v v v v z = o . = v v v v v v v v v v v v v v v v v v v v v v v v v v v v v v v v v v v v v v v v v v v v v v ",
"z z z z z z z z z = o .   o = l z z z z z z z z z z z v z z v z z z z z z z z z z v z z z z z z z z z z z z z z z z z z ",
"& & & & & & & & & o .     . . & & & & & & & & & & & o & & & & & & & & & & & & & & & & & & & & & & & & & & & & & & & & & ",
". . . . . . . . . . . . . . . . . . . . . . . . . . . . .         . . . . . . . . . . . . . . . . . . . . . . . . . . . ",
"v v z v v z v z v z v z z v z v v v z v v z v z v z v z & o     . * z z v z v z v v z v v z v z v v z v v z v z v z v z ",
"m m m m m m m m m m m m m m m m m m m m m m m m m m m b l &   . * z m m m m m m m m m m m m m m m m m m m m m m m m m m ",
"z v v z z v v v v z v v v v z v v v v z v z v z v v z z l & . o z b v z v z v v z v v z z v v v v v v z v z v z z v v v ",
"l l l l l l l l l l l l l l l l l l l l l l l l l l l l l & . & b b z l l l l l l l l l l l l l l l l l l l l l l l l l "
};
