/* XPM */
static char *_e78c38bd8a040e5fdeedbe7e85f45f856pTsHEW47PVqZqZ[] = {
/* columns rows colors chars-per-pixel */
"64 64 163 2 ",
"   c None",
".  c gray77",
"X  c #C5C4C4",
"o  c #C4C5C4",
"O  c #C5C5C4",
"+  c #C4C4C5",
"@  c #C5C4C5",
"#  c #C4C5C5",
"$  c #C5C5C5",
"%  c #C6C5C5",
"&  c #C5C6C5",
"*  c #C5C5C6",
"=  c #C5C6C6",
"-  c #CACACA",
";  c #CBCACA",
":  c #CACBCA",
">  c #CBCBCA",
",  c #CACACB",
"<  c #CBCACB",
"1  c #CACBCB",
"2  c #CBCBCB",
"3  c #CDCDCD",
"4  c #CECECE",
"5  c #CFCFCE",
"6  c gray81",
"7  c #D0CFCF",
"8  c #CFCFD0",
"9  c gray82",
"0  c #D1D2D1",
"q  c #D1D1D2",
"w  c #D2D2D2",
"e  c #D3D2D2",
"r  c #D2D3D2",
"t  c #D3D3D2",
"y  c #D3D2D3",
"u  c #D2D3D3",
"i  c LightGray",
"p  c #D4D3D3",
"a  c #D3D4D3",
"s  c #D4D4D3",
"d  c #D3D3D4",
"f  c #D4D3D4",
"g  c #D3D4D4",
"h  c gray83",
"j  c #D5D4D4",
"k  c #D4D5D4",
"l  c #D4D4D5",
"z  c gray84",
"x  c #D6D6D7",
"c  c #D8D8D8",
"v  c #D9D8D8",
"b  c #D8D9D8",
"n  c #D9D9D8",
"m  c #D8D8D9",
"M  c #D9D8D9",
"N  c #D8D9D9",
"B  c gray85",
"V  c #DADADA",
"C  c #DBDADA",
"Z  c #DADBDA",
"A  c #DBDBDA",
"S  c #DBDADB",
"D  c #DADBDB",
"F  c gray86",
"G  c #DCDBDB",
"H  c #DBDCDB",
"J  c #DBDBDC",
"K  c #DCDBDC",
"L  c #DBDCDC",
"P  c gainsboro",
"I  c #DDDCDC",
"U  c #DCDDDC",
"Y  c #DDDDDC",
"T  c #DCDCDD",
"R  c #DDDCDD",
"E  c #DCDDDD",
"W  c #DDDDDD",
"Q  c #DEDDDD",
"!  c #DDDEDD",
"~  c #DEDEDD",
"^  c #DDDDDE",
"/  c #DEDDDE",
"(  c #DDDEDE",
")  c gray87",
"_  c #DFDFDF",
"`  c #DFE0DF",
"'  c #E1E1E1",
"]  c #E2E1E1",
"[  c #E1E2E1",
"{  c #E2E2E1",
"}  c #E1E1E2",
"|  c #E2E1E2",
" . c #E1E2E2",
".. c #E2E2E2",
"X. c #E4E4E4",
"o. c #E5E4E4",
"O. c #E4E5E4",
"+. c #E4E4E5",
"@. c #E5E4E5",
"#. c #E4E5E5",
"$. c gray90",
"%. c #E6E5E5",
"&. c #E5E6E5",
"*. c #E6E6E5",
"=. c #E5E5E6",
"-. c #E6E5E6",
";. c #E5E6E6",
":. c #E6E6E6",
">. c gray91",
",. c #E9E8E8",
"<. c #E9E9E9",
"1. c #EAE9E9",
"2. c #E9EAE9",
"3. c #EAEAE9",
"4. c #E9EAEA",
"5. c #ECECEC",
"6. c #EDECEC",
"7. c #ECEDEC",
"8. c #EDEDEC",
"9. c #ECECED",
"0. c #EDECED",
"q. c #ECEDED",
"w. c gray93",
"e. c #EEEDED",
"r. c #EEEEEE",
"t. c #EFEEEE",
"y. c #EEEFEE",
"u. c #EFEFEE",
"i. c #EEEEEF",
"p. c #EFEEEF",
"a. c gray94",
"s. c #F1F0F0",
"d. c #F0F0F1",
"f. c #F3F3F3",
"g. c #F4F3F3",
"h. c #F3F4F3",
"j. c #F4F4F3",
"k. c #F3F3F4",
"l. c #F3F4F4",
"z. c #F6F5F6",
"x. c #F5F6F6",
"c. c #F6F6F6",
"v. c #F8F8F8",
"b. c #F9F8F8",
"n. c #F8F9F8",
"m. c #F9F9F8",
"M. c #F8F8F9",
"N. c #F9F8F9",
"B. c #F8F9F9",
"V. c #F9F9F9",
"C. c #FCFBFB",
"Z. c #FCFCFB",
"A. c #FBFBFC",
"S. c #FCFBFC",
"D. c gray99",
"F. c #FDFCFC",
"G. c #FEFEFE",
"H. c #FFFEFE",
"J. c #FEFFFE",
"K. c #FFFFFE",
"L. c #FEFEFF",
"P. c #FEFFFF",
"I. c white",
/* pixels */
"* * o * o o * * . . * * o * * o * * * * X o * . X . . . . . * * * * * . o * * o * . . . X X * * * * * . * . o . o * o o o * * 4 ",
"* 5 4 4 e B H P W H B W G e 4 7 4 7 p P P G G W J W R e 8 4 8 4 7 7 7 4 e B P P L W H W B e 8 5 5 5 e H H W G W W B P p 4 7 b 5 ",
"* 4 B B x x               - s B c f ;               - e B m c x s B v c e -               1 x B B a -               x s x [ B 4 ",
"o 4 B [ W s 4             - x W W x -               g W [ W c     g W [ W x               1 e W W x -             - s W &.P x e ",
"X e g W &.W f -           - x W W f -             g R o.} c         x W &.R e             - e W W s -           - d W &.W x B W ",
"* G x p W &.R f -         - a W W x -           s W &.[ B             e W &.P x           - g W W x -         - d L &.[ B B 5.W ",
"o P   4 d H &.G x -       - g W W f 1         f W &.[ B                 f W &.P e         - x W W x -       - x W &.[ B e   a.W ",
"X G     - x W &.W e -     - x W W f 1       f R &.[ c                     p W &.W x       < e W W e -     - f W &.[ c e     5.P ",
"* B       - x W &.W f -   - p W W f -     x W &.[ B                         x W &.R f     - x R W a -   - f R &.} B e       5.W ",
"* W         - g R &.R f - x W &.&.W x   e P &.[ B                             a W &.W x   f W &.&.W x 1 d W &.[ c e         5.W ",
"* G           - f W &.W x B &.6.5.&.P x W &.W B                                 f W &.W d W &.5.5.&.B f W &.W B e           5.W ",
"o P             - f W &.W o.5.g.f.6.&.W &.W f                                     p W &.W &.5.x.g.5.&.W &.W e e             5.W ",
"o G               - x W &.5.g.N.N.j.5.&.W s                                         e W &.6.x.N.M.l.5.&.W f 7               5.W ",
"X e - ; - - - - - x B &.6.f.N.D.D.C.x.7.&.P x - - - - 1 - - - - - - - - - 2 - - - a R &.5.k.N.D.S.N.x.5.&.W f - - - - - 4 2 B s ",
"* 7 x e x a e x a W *.5.x.N.D.D.D.D.N.g.5.&.W s x a x a x a e x x s s x s x e s x W &.6.k.N.D.D.D.D.M.f.5.&.W a x p e x x g B e ",
"* 4 B W W W W W W &.5.h.N.D.D.D.D.D.D.N.g.5.&.W P W W W W W W W P W W W W W W W P &.5.f.M.S.D.D.D.D.C.M.g.5.&.W W W W W W [ c 4 ",
"* 5 b W W W W W P &.5.g.N.A.D.D.D.D.Z.b.h.5.&.W W W W P W W W W W W W W W W W W R &.6.f.N.D.D.D.D.D.D.N.f.6.&.W W W W W W W B 4 ",
"* 5 a x s x x e x W &.5.f.N.D.D.D.D.b.x.u.2.[ B e x s x s a e x s s x g x e x f f W &.5.h.Z.D.D.D.D.N.N.a.>.[ c f f s x x e x 4 ",
"o e - 2 - - - - - s R &.7.f.b.Z.D.N.j.f.2.` c 4 - 2 - 1 - - 2 - - - - 2 - - 1 - 1 f R &.5.l.M.C.Z.N.l.f.2.[ B 4 ; ; - 2 - ; B e ",
"o P                 p R &.7.f.b.A.x.5.2.[ B 4                                     - f W &.5.f.b.N.h.5.2.[ B                 5.W ",
"* L               x P &.[ &.5.g.g.5.&.[ o.R f -                                 - g W &.[ &.5.x.f.5.&.[ &.W x               5.W ",
"o W             p R &.[ B W &.5.5.&.B B W &.W f -                             - f W &.[ B L &.5.5.&.W B W &.W f             5.W ",
". R           s R &.[ B   x W &.&.W x 4 f W &.W e -                         1 f R &.} c e g W &.&.W x   f W &.W x           f.B ",
"* B         s W &.[ B     - g W W x <   - f W &.P x -                     - f W &.[ m e   - e W W x -     s W &.W s         5.W ",
"* P       g W &.[ B       - x W W p -     - s W &.W e -                 - x G &.[ m e     - x W P x 2       e W &.W f       5.W ",
"o P     d W &.[ c         - a W W x -       - x W &.P x -             - f W &.[ m e       - g W W s -         x W &.W p     5.W ",
". W - f R o.[ B           - s W P x 2         2 s W &.W p -         - x R &.} c e         1 x W W s -           p W &.W f - 5.W ",
"* e e W &.[ B             - x W W s 2           - a W &.L x -     - f W &.[ B e           - e W W x 2             p W &.W p W W ",
". 4 B [ [ v               1 e W W s -             - x P &.W f - - d R &.} c 7             2 a W W x -               e H &.W p e ",
"* 4 c P c                 - x W W s 2               - g W &.W f e R &.W c e               - g W W p -                 x W [ B 8 ",
"* 5 B x                   - x W W a -                 - p W &.R W &.W e e                 - x W W e -                   e [ B 4 ",
"* 5 g                     1 p W W x -                   - p W &.&.W x -                   1 g W W x -                     x B 4 ",
"* 8 f                     - g W W e -                   - d R &.&.W f -                   - x P W s -                     p B 7 ",
"* 4 B d                   - x W W x -                 - p R &.[ W &.W f 1                 - s W W a 2                   x ` B 4 ",
"* 4 c W f                 - e W W x -               1 f W &.[ b f W &.W p -               - x W P x 2                 a W [ B 7 ",
"* 5 c [ W d               - x W W g 1             - f R o.[ v e - f W &.W x -             2 p W W s 2               x P &.P x e ",
"* e a W &.W f             - x W W e -           - e W &.[ B e     - p P &.R f -           - s W W s ;             p W &.W e B W ",
"X B - x W &.W g           ; p W W x -         - x W o.[ x e         - x W &.W f -         - x W W x 2           f R &.[ B 4 5.W ",
"* B     g W &.W p         - x W P x -       1 d W o.[ c e             - d W &.W x -       - e W W g -         e W &.[ B     5.W ",
"* W       e W &.W x       - f W W s 2     - d R :.} c d                 - p W &.W p -     - x W W d -       x W &.[ B       u.W ",
"o G         x P &.R p     - f ^ W s -   - d W &.[ B e                     - x W &.R d -   - f W W e ;     f W &.[ c         s.R ",
"* P           p R &.W x   g W &.&.W d - f W &.[ x e                         - e W &.W s - x W &.&.W x   s W &.[ B           s.G ",
"o W             x R &.W s W &.6.5.&.B x W &.W b e                             - f W &.W x B &.5.5.&.R p W &.W x             5.W ",
". G               f W &.W &.5.g.f.5.&.W &.W e e                                 - d W &.W &.5.l.x.5.&.W &.W x               5.G ",
". W                 f W &.5.x.N.x.x.5.&.W f 4                                     - x W &.5.x.N.M.g.5.&.W x                 5.W ",
". e - - - ; - - - s W &.5.j.N.D.D.N.g.5.&.R x - 2 2 - - ; - - ; - - - - - 2 - - - x B &.5.f.N.D.S.N.x.5.&.W f - 1 ; - - 1 1 G f ",
"* 4 f s x f x p x W &.5.x.b.D.D.D.D.N.g.5.&.W e x e e x x e x s x s s x s x a s e L &.5.j.v.D.D.D.D.x.g.5.&.W x x e s s x f c 8 ",
"* 7 B W P W W W W &.5.j.N.N.D.D.D.D.S.M.x.5.&.W W W W W W W W W W W W W W W W W W &.5.j.N.D.D.D.D.D.D.N.f.5.&.W W W W W P [ B 4 ",
"* 4 b W W W W W W &.5.x.v.D.D.D.D.D.D.N.x.7.&.W W P W W W W W W W W W P W W W W W &.5.f.N.D.D.D.D.D.D.C.g.5.:.W W W W W W W B 5 ",
"* 7 s s x f p x p W &.5.f.v.D.D.D.D.D.x.s.2.[ B s x x s s x s s x s a x x e x f x W &.5.h.A.D.D.D.D.N.x.a.2.[ B f x e x x e g 5 ",
"o e ; 2 1 1 - - - s B O.5.x.N.D.S.N.k.a.2.[ c 7 - - - - - 2 - - - - - - - - - 1 - x W &.5.j.N.Z.C.b.x.f.>.W B 4 - - - 1 - 2 B a ",
"* W               - x W &.5.x.N.M.k.5.5.[ v                                         x W *.5.g.N.N.g.5.>.[ m 4               5.W ",
"o G             - d W o.[ &.5.f.f.6.&.} &.W d                                     e W &.[ &.5.g.f.5.o.[ &.R x -             5.W ",
"o P           - x R &.[ B R &.5.6.&.R c W &.W f                                 x P &.[ B P &.5.5.&.R B R &.W f -           5.W ",
"X W         - f L &.[ c e x W &.&.W x   d W &.W g                             f W &.[ c   x W &.&.W d 4 f W &.W s -         a.W ",
". B       2 g W &.[ m e   1 f W W p -     f W &.W g                         f W &.[ B     - x W W x -   - f W &.P x -       u.W ",
"* B     - d R &.[ c e     - x W W a -       s W &.W x                     p W &.[ B       - e W W e -     - e P &.W s -     i.W ",
"* W   - f W o.[ c 7       - a W P x -         x R &.H p                 s W &.[ B         - x W W x -       - x R &.W e -   5.J ",
"* H x p W &.[ B e         - a W W s 2           e W &.R x             e R &.[ c           - x W W x 2         - e W &.W x B 5.W ",
". a f W &.[ c e           - x W W s 2             a W &.W s         x P &.[ B             ; p W W g 2           - x W &.W g W W ",
"* 7 B &.P m 4             - x W W a -               s W &.W f     d W &.R c               - f W W a -             - f W &.R e e ",
"o 4 [ W x R               - e [ W e -               - e W [ [ d g [ [ W f 4               - x [ W x -               B x R [ B 5 ",
"* B v p B i.5.5.5.f.5.i.5.B c B B x L 5.5.a.5.a.u.5.5.W s B c x B B B s R 5.5.a.5.s.5.5.5.P B B v x B s.5.s.f.5.s.5.5.W g c B 4 ",
"4 5 8 e W W W W L H W W W d 4 8 8 4 a P P W L W W J W W a 8 4 e 4 4 8 e G R R W W W W P W e 5 4 4 4 e R W W B B R W B W a 4 4 e "
};
