/* XPM */
static char *result[] = {
/* columns rows colors chars-per-pixel */
"60 60 208 2 ",
"   c #0A0C0D",
".  c #0D0E10",
"X  c #050E17",
"o  c #0F1011",
"O  c #0F141C",
"+  c #131415",
"@  c #1B1C1D",
"#  c #161719",
"$  c #2C0F0E",
"%  c #32291C",
"&  c #000E2D",
"*  c #0C1522",
"=  c #131D2D",
"-  c #161B23",
";  c #131D31",
":  c #1D2123",
">  c #1D2229",
",  c #172028",
"<  c #0F213D",
"1  c #162032",
"2  c #1B2434",
"3  c #12223D",
"4  c #1A273B",
"5  c #1C293B",
"6  c #232426",
"7  c #2B2924",
"8  c #242629",
"9  c #272C2C",
"0  c #2B2B2C",
"q  c #282726",
"w  c #312C28",
"e  c #3A3328",
"r  c #2C2E32",
"t  c #272B36",
"y  c #2D3236",
"u  c #333333",
"i  c #393833",
"p  c #4D1514",
"a  c #55231D",
"s  c #71271D",
"d  c #483B2C",
"f  c #423B36",
"g  c #423E3C",
"h  c #6B3B2E",
"j  c #494339",
"k  c #564B3C",
"l  c #584936",
"z  c #56442A",
"x  c #63523D",
"c  c #6C573C",
"v  c #655036",
"b  c #6A563C",
"n  c #0E2242",
"m  c #1C2C45",
"M  c #13294A",
"N  c #1A2C4B",
"B  c #142846",
"V  c #1F324E",
"C  c #192E52",
"Z  c #1D3253",
"A  c #1D345D",
"S  c #212D44",
"D  c #212F49",
"F  c #233047",
"G  c #23334C",
"H  c #233553",
"J  c #243855",
"K  c #21375C",
"L  c #26395B",
"P  c #293B5C",
"I  c #293A57",
"U  c #263C61",
"Y  c #2A3E62",
"T  c #394453",
"R  c #2D4166",
"E  c #2E446A",
"W  c #3A4965",
"Q  c #31456A",
"!  c #354A6D",
"~  c #384A6A",
"^  c #2D4876",
"/  c #344A72",
"(  c #354C79",
")  c #3D5275",
"_  c #3B537B",
"`  c #5B5346",
"'  c #454B5B",
"]  c #595B5D",
"[  c #675946",
"{  c #7B6746",
"}  c #7C6B52",
"|  c #756754",
" . c #445575",
".. c #42567C",
"X. c #4B5C7A",
"o. c #4B5366",
"O. c #546178",
"+. c #756D62",
"@. c #89231B",
"#. c #A43425",
"$. c #825836",
"%. c #856845",
"&. c #9A7749",
"*. c #82705A",
"=. c #8A7453",
"-. c #977B57",
";. c #8E7046",
":. c #A27E4D",
">. c #A76C51",
",. c #887863",
"<. c #827B76",
"1. c #A78558",
"2. c #B48D5B",
"3. c #B08857",
"4. c #BE945C",
"5. c #A8824F",
"6. c #988164",
"7. c #938475",
"8. c #A48863",
"9. c #A78E6E",
"0. c #B89568",
"q. c #AD9474",
"w. c #B39976",
"e. c #B49A79",
"r. c #B69C79",
"t. c #BBA27C",
"y. c #C1975D",
"u. c #CF9270",
"i. c #C8A26D",
"p. c #D2A363",
"a. c #D8A96B",
"s. c #C5A679",
"d. c #D4AB77",
"f. c #E1AE6C",
"g. c #E6B16D",
"h. c #ECB56E",
"j. c #E6B474",
"k. c #EBB672",
"l. c #EBBB7E",
"z. c #EABA77",
"x. c #F5BD75",
"c. c #F8BE75",
"v. c #F0B66F",
"b. c #F4C17C",
"n. c #566682",
"m. c #5A6A89",
"M. c #626F87",
"N. c #63718D",
"B. c #6D788C",
"V. c #717E97",
"C. c #687591",
"Z. c #74819C",
"A. c #7B869F",
"S. c #7F889C",
"D. c #908E90",
"F. c #A79A8B",
"G. c #B6AA9C",
"H. c #BEA680",
"J. c #8A93A8",
"K. c #9198AA",
"L. c #8A93AA",
"P. c #9AA1B5",
"I. c #AFB1BF",
"U. c #AEAEB8",
"Y. c #CCAD83",
"T. c #C2A785",
"R. c #CDB289",
"E. c #D7B686",
"W. c #DCBB8C",
"Q. c #D6B888",
"!. c #D9BE98",
"~. c #E7BD85",
"^. c #ECC186",
"/. c #E3C18C",
"(. c #EBC68E",
"). c #FDCC8B",
"_. c #F9C785",
"`. c #E4C292",
"'. c #EBC693",
"]. c #ECCA96",
"[. c #EECC9A",
"{. c #E8C79A",
"}. c #F2CB94",
"|. c #FACE92",
" X c #F1CE9A",
".X c #F5D19C",
"XX c #FBD49D",
"oX c #FDD696",
"OX c #D1C4B9",
"+X c #FFDAA5",
"@X c #F9D4A1",
"#X c #EDD4B0",
"$X c #FFE4A3",
"%X c #B5B8C8",
"&X c #BEC1CE",
"*X c #C9CBD6",
"=X c #CFD0D8",
"-X c #D8D4DD",
";X c #D9CCC3",
":X c #E7DDD7",
">X c #E5DACE",
",X c #D8D5E2",
"<X c #E8E5EE",
"1X c #F2EEF6",
"2X c #EFF0FE",
"3X c #FFFCFF",
"4X c #FDF5FB",
"5X c None",
/* pixels */
"5X5X5X5X5X5X5X5X5X5X5X5X5X5X5X5X5X5X5X5X5X5X5X5X5X5X5X5X5X5X5X5X5X5X5X5X5X5X5X5X5X5X5X5X5X5X5X5X5X5X5X5X5X5X5X5X5X5X5X5X",
"5X5X5X5X5X5X5X5X5X5X5X5X5X5X5X5X5X5X5X5X5X5X5X5X5X5X5X5X5X5X5X5X5X5X5X5X5X5X5X5X5X5X5X5X5X5X5X5X5X5X5X5X5X5X5X5X5X5X5X5X",
"5X5X5X5X5X5X5X5X5X5X5X5X5X5X5X5X5X5X5X5X5X5X5X5X5X5X5X5X5X5X5X5X5X5X5X5X5X5X5X5X5X5X5X5X5X5X5X5X5X5X5X5X5X5X5X5X5X5X5X5X",
"5X5X5X5X5X5X5X5X5X5X5X5X5X5X5X5X5X5X5X5X5X5X5X5X5X5X5X5X5X5X5X5X5X5X5X5X5X5X5X5X5X5X5X5X5X5X5X5X5X5X5X5X5X5X5X5X5X5X5X5X",
"5X5X5X5X5X5X5X5X5X5X5X5X5X5X5X5X5X5X5X5X5X5X5X5X5X5X5X5X5X5X5X5X5X5X5X5X5X5X5X5X5X5X5X5X5X5X5X5X5X5X5X5X5X5X5X5X5X5X5X5X",
"5X5X5X5X5X5X5X5X5X5X5X5X5X5X5X5X5X5X5X5X5X5X5X5X5X5X5X5X5X5X5X5X5X5X5X5X5X5X5X5X5X5X5X5X5X5X5X5X5X5X5X5X5X5X5X5X5X5X5X5X",
"5X5X5X5X5X5X5X5X5X5X5X5X5X5X5X5X5X5X5X5X5X5X5X5X5X5X5X5X5 S F G G G F 5X5X5X5X5X5X5X5X5X5X5X5X5X5X5X5X5X5X5X5X5X5X5X5X5X",
"5X5X5X5X5X5X5X5X5X5X5X5X5X5X5X5X5X5X5X5X5X5X5X5X4 I P L R Q Q / / / ( ) Q I 4 5X5X5X5X5X5X5X5X5X5X5X5X5X5X5X5X5X5X5X5X5X",
"5X5X5X5X5X5X5X5X5X5X5X5X5X5X5X5X5X5X5X5X5X5XG R ! E / m. .R ~ J Y R Y  .V...( Y 4 5X5X5X5X5X5X5X5X5X5X5X5X5X5X5X5X5X5X5X",
"5X5X5X5X5X5X5X5X5X5X5X5X5X5X5X5X5X5X5X5XS E ! E R Y R ) A.P.K.Z.U Y Q U  .P.J.V.E F 5X5X5X5X5X5X5X5X5X5X5X5X5X5X5X5X5X5X",
"5X5X5X5X5X5X5X5X5X5X5X5X5X5X5X5X5X5X5XG / E R R R R R Y A C.=X<X&X! U Q K  .&X-XP.Y S 5X5X5X5X5X5X5X5X5X5X5X5X5X5X5X5X5X",
"5X5X5X5X5X5X5X5X5X5X5X5X5X5X5X5X5X5XF Q Y R R E Q Q R E E U J.3X3X-X .U E R L.3X3XL.Z , 5X5X5X5X5X5X5X5X5X5X5X5X5X5X5X5X",
"5X5X5X5X5X5X5X5X5X5X5X5X5X5X5X5X5X1 Y R R U U U U A Y R E Y Z J.1X-XA.E R P R *X3X<Xn.< 5X5X5X5X5X5X5X5X5X5X5X5X5X5X5X5X",
"5X5X5X5X5X5X5X5X5X5X5X5X5X5X5X5X5XF E R / X.N.K.K.V. .Y R R K B V.%Xn.U R R Z X.-XI.m.B 5X5X5X5X5X5X5X5X5X5X5X5X5X5X5X5X",
"5X5X5X5X5X5X5X5X5X5X5X5X5X5X5X5X5XI E E ~ O.M.K.1X3X<XN.U Y Y H H n.Z.U E Y H J m.P.Q S 5X5X5X5X5X5X5X5X5X5X5X5X5X5X5X5X",
"5X5X5X5X5X5X5X5X5X5X5X5X5X5X5X5X= Y R L V m B N o.A.I.J.W L H H G H W P J J J J G M.) m 5X5X5X5X5X5X5X5X5X5X5X5X5X5X5X5X",
"5X5X5X5X5X5X5X5X5X5X5X5X5X5X5X5X2 P H G H J J Z N M J W W H J Z N M n < 3 3 3 n n Z J ; 5X5X5X5X5X5X5X5X5X5X5X5X5X5X5X5X",
"5X5X5X5X5X5X5X5X5X5X5X5X5X5X5X5X; H J V B 4 t y t 2 B H V B < 5 f [ %.;.:.5.&.;.{ i ; 5X5X5X5X5X5X5X5X5X5X5X5X5X5X5X5X5X",
"5X5X5X5X5X5X5X5X5X5X5X5X5X5X5X5X* Z 3 u | -.9.q.9.,.` 2 t v :.p.l._.).).|.|.|.)._.x.%.5X5X5X5X5X5X5X5X5X5X5X5X5X5X5X5X5X",
"5X5X5X5X5X5X5X5X5X5X5X5X5X5X5X5X5X= [ w.r.w.w.w.q.e.d.j x b.oXXX{.].{.].{.[.].].{.+Xa.5X5X5X5X5X5X5X5X5X5X5X5X5X5X5X5X5X",
"5X5X5X5X5X5X5X5X5X5X5X5X5X5X5X5X5X  -.r.q.q.q.q.w.i.x.} & 5 +.R.}.XXXX.X[.]..X+X@Xt.f 5X5X5X5X5X5X5X5X5X5X5X5X5X5X5X5X5X",
"5X5X5X5X5X5X5X5X5X5X5X5X5X5X5X5X5X5X` r.e.q.q.q.d.k.(.[.Y.| , X ' ,.T.E.`.[.R.,.f u *.5X5X5X5X5X5X5X5X5X5X5X5X5X5X5X5X5X",
"5X5X5X5X5X5X5X5X5X5X5X5X5X5X5X5X5X5X5X} 9.w.q.s.g.~.[.W.9.,.D.D.] * q [ s.+Xs.` ' ' *.5X5X5X5X5X5X5X5X5X5X5X5X5X5X5X5X5X",
"5X5X5X5X5X5X5X5X5X5X5X5X5X5X5X5X5X5X5Xv { *.H.a.k.'..X[ D.1X3X-XO._ Q 7..X[.!.-XN.^ O.5X5X5X5X5X5X5X5X5X5X5X5X5X5X5X5X5X",
"5X5X5X5X5X5X5X5X5X5X5X5X5X5X5X5X5X5X5X2.0.v 8.v.l.[..XE.;X3X4XB._ L ( N.#X^.>X2X..^ ] 5X5X5X5X5X5X5X5X5X5X5X5X5X5X5X5X5X",
"5X5X5X5X5X5X5X5X5X5X5X5X5X5X5X5X5X5X5Xy.i.} ;.c.~.[.]. X X:X3X%X^ ^ ^ %X#X(.#X>XU.<.[ 5X5X5X5X5X5X5X5X5X5X5X5X5X5X5X5X5X",
"5X5X5X5X5X5X5X5X5X5X5X5X5X5X5X5X5X5X5X3.i.d.p.k.z. X[.[. XW.G.OXG.7.H.@X[.}.'.}.|.~.5X5X5X5X5X5X5X5X5X5X5X5X5X5X5X5X5X5X",
"5X5X5X5X5X5X5X5X5X5X5X5X5X5X5X5X5X5X5Xc p.g.k.j.j.z.^.'.[. X'./. X@X.X].[.[.Y.Y.@XW.5X5X5X5X5X5X5X5X5X5X5X5X5X5X5X5X5X5X",
"5X5X5X5X5X5X5X5X5X5X5X5X5X5X5X5X5X5X5X5X5X&.2.x.k.g.g.j.'.[.[.[.[.{.].]. X@X`.s.[.[.} 5X5X5X5X5X5X5X5X5X5X5X5X5X5X5X5X5X",
"5X5X5X5X5X5X5X5X5X5X5X5X5X5X5X5X5X5X5X5X5X5X5X5.f.v.k.g.z.].[.].[.[.[.].Y.Y.{.@X@XY.5X5X5X5X5X5X5X5X5X5X5X5X5X5X5X5X5X5X",
"5X5X5X5X5X5X5X5X5X5X5X5X5X5X5X5X5X5X5X5X5X5X5X5X5Xy.f.c.x.b.}. X[. X X.XE.s.`.`.r.5X5X5X5X5X5X5X5X5X5X5X5X5X5X5X5X5X5X5X",
"5X5X5X5X5X5X5X5X5X5X5X5X5X5X5X5X5X5X5X5X5X5X5X5X5XO % c &.4.a.j.^./.~./.!.Q.t.5X5X5X5X5X5X5X5X5X5X5X5X5X5X5X5X5X5X5X5X5X",
"5X5X5X5X5X5X5X5X5X5X5X5X5X5X5X5X5X5X5X5X5X5X5X5X6 6 0 - 8 q u f e 5X5X5X5X5X5X5X5X5X5X5X5X5X5X5X5X5X5X5X5X5X5X5X5X5X5X5X",
"5X5X5X5X5X5X5X5X5X5X5X5X5X5X5X5X5X5X5X5X5X5X5XO @ u u w i u w u 8 5X5X5X5X5X5X5X5X5X5X5X5X5X5X5X5X5X5X5X5X5X5X5X5X5X5X5X",
"5X5X5X5X5X5X5X5X5X5X5X5X5X5X5X5X5X5X5X5X5X5X5X[ j g q 0 u u 0 i w 5X5X5X5X5X5X5X5X5X5X5X5X5X5X5X5X5X5X5X5X5X5X5X5X5X5X5X",
"5X5X5X5X5X5X5X5X5X5X5X5X5X5X5X5X5X5X5X5X5X5X5Xl.+Xt.+ q u u r r 0 @ 5X5X5X5X5X5X5X5X5X5X5X5X5X5X5X5X5X5X5X5X5X5X5X5X5X5X",
"5X5X5X5X5X5X5X5X5X5X5X5X5X5X5X5X5X5X5X5X5X5Xz d.W.>.$ # 0 i u u r a @.5X5X5X5X5X5X5X5X5X5X5X5X5X5X5X5X5X5X5X5X5X5X5X5X5X",
"5X5X5X5X5X5X5X5X5X5X5X5X5X5X5X5X5X5X5X5X5X5X5Xs @.#.h . @ 8 u u y p u.t.k 5X5X5X5X5X5X5X5X5X5X5X5X5X5X5X5X5X5X5X5X5X5X5X",
"5X5X5X5X5X5X5X5X5X5X5X5X5X5X5X5X5X5X5X5X5X5X5X$.d.{.W.x 0 9 7 u 8 l $X1.1.` [ 5X5X5X5X5X5X5X5X5X5X5X5X5X5X5X5X5X5X5X5X5X",
"5X5X5X5X5X5X5X5X5X5X5X5X5X5X5X5X5X5X5X5X5X5X5X{ j.^.|.q.@ r 9 9 5 f p.l z { b 5X5X5X5X5X5X5X5X5X5X5X5X5X5X5X5X5X5X5X5X5X",
"5X5X5X5X5X5X5X5X5X5X5X5X5X5X5X5X5X5X5X5X5X5X5X5X2.)..X~.g B I R E 1 % x -.c 5X5X5X5X5X5X5X5X5X5X5X5X5X5X5X5X5X5X5X5X5X5X",
"5X5X5X5X5X5X5X5X5X5X5X5X5X5X5X5X5X5X5X5X5X5X5X5X%.2.%.l q m H Y E I 5X5Xx 5X5X5X5X5X5X5X5X5X5X5X5X5X5X5X5X5X5X5X5X5X5X5X",
"5X5X5X5X5X5X5X5X5X5X5X5X5X5X5X5X5X5X5X5X5X5X5X5X5X- - q = 5X= I Q R H 5X5X5X5X5X5X5X5X5X5X5X5X5X5X5X5X5X5X5X5X5X5X5X5X5X",
"5X5X5X5X5X5X5X5X5X5X5X5X5X5X5X5X5X5X5X5X5X5X5X5X5X> 0 0 8 5X5X3 A Q T 5X5X5X5X5X5X5X5X5X5X5X5X5X5X5X5X5X5X5X5X5X5X5X5X5X",
"5X5X5X5X5X5X5X5X5X5X5X5X5X5X5X5X5X5X5X5X5X5X5X5X- G A K m 5X5X[ 9.R.} 5X5X5X5X5X5X5X5X5X5X5X5X5X5X5X5X5X5X5X5X5X5X5X5X5X",
"5X5X5X5X5X5X5X5X5X5X5X5X5X5X5X5X5X5X5X5X5X5X5X5X=.~.F.] 5X5X5X-.oXXX[ 5X5X5X5X5X5X5X5X5X5X5X5X5X5X5X5X5X5X5X5X5X5X5X5X5X",
"5X5X5X5X5X5X5X5X5X5X5X5X5X5X5X5X5X5X5X5X5X5X5X5Xe -.s.x 5X5X5X7 j k q 5X5X5X5X5X5X5X5X5X5X5X5X5X5X5X5X5X5X5X5X5X5X5X5X5X",
"5X5X5X5X5X5X5X5X5X5X5X5X5X5X5X5X5X5X5X5X5X5X5X# # > : * 5X5X5X. + r 0 5X5X5X5X5X5X5X5X5X5X5X5X5X5X5X5X5X5X5X5X5X5X5X5X5X",
"5X5X5X5X5X5X5X5X5X5X5X5X5X5X5X5X5X5X5X5X5X5X5X# @ 0 u w 6 5X5X# @ 0 u w 8 5X5X5X5X5X5X5X5X5X5X5X5X5X5X5X5X5X5X5X5X5X5X5X",
"5X5X5X5X5X5X5X5X5X5X5X5X5X5X5X5X5X5X5X5X5X5X5Xo . o + + + 5X5X. o + + + # 5X5X5X5X5X5X5X5X5X5X5X5X5X5X5X5X5X5X5X5X5X5X5X",
"5X5X5X5X5X5X5X5X5X5X5X5X5X5X5X5X5X5X5X5X5X5X5X5X5X5X5X5X5X5X5X5X5X5X5X5X5X5X5X5X5X5X5X5X5X5X5X5X5X5X5X5X5X5X5X5X5X5X5X5X",
"5X5X5X5X5X5X5X5X5X5X5X5X5X5X5X5X5X5X5X5X5X5X5X5X5X5X5X5X5X5X5X5X5X5X5X5X5X5X5X5X5X5X5X5X5X5X5X5X5X5X5X5X5X5X5X5X5X5X5X5X",
"5X5X5X5X5X5X5X5X5X5X5X5X5X5X5X5X5X5X5X5X5X5X5X5X5X5X5X5X5X5X5X5X5X5X5X5X5X5X5X5X5X5X5X5X5X5X5X5X5X5X5X5X5X5X5X5X5X5X5X5X",
"5X5X5X5X5X5X5X5X5X5X5X5X5X5X5X5X5X5X5X5X5X5X5X5X5X5X5X5X5X5X5X5X5X5X5X5X5X5X5X5X5X5X5X5X5X5X5X5X5X5X5X5X5X5X5X5X5X5X5X5X",
"5X5X5X5X5X5X5X5X5X5X5X5X5X5X5X5X5X5X5X5X5X5X5X5X5X5X5X5X5X5X5X5X5X5X5X5X5X5X5X5X5X5X5X5X5X5X5X5X5X5X5X5X5X5X5X5X5X5X5X5X",
"5X5X5X5X5X5X5X5X5X5X5X5X5X5X5X5X5X5X5X5X5X5X5X5X5X5X5X5X5X5X5X5X5X5X5X5X5X5X5X5X5X5X5X5X5X5X5X5X5X5X5X5X5X5X5X5X5X5X5X5X",
"5X5X5X5X5X5X5X5X5X5X5X5X5X5X5X5X5X5X5X5X5X5X5X5X5X5X5X5X5X5X5X5X5X5X5X5X5X5X5X5X5X5X5X5X5X5X5X5X5X5X5X5X5X5X5X5X5X5X5X5X",
"5X5X5X5X5X5X5X5X5X5X5X5X5X5X5X5X5X5X5X5X5X5X5X5X5X5X5X5X5X5X5X5X5X5X5X5X5X5X5X5X5X5X5X5X5X5X5X5X5X5X5X5X5X5X5X5X5X5X5X5X",
"5X5X5X5X5X5X5X5X5X5X5X5X5X5X5X5X5X5X5X5X5X5X5X5X5X5X5X5X5X5X5X5X5X5X5X5X5X5X5X5X5X5X5X5X5X5X5X5X5X5X5X5X5X5X5X5X5X5X5X5X",
"5X5X5X5X5X5X5X5X5X5X5X5X5X5X5X5X5X5X5X5X5X5X5X5X5X5X5X5X5X5X5X5X5X5X5X5X5X5X5X5X5X5X5X5X5X5X5X5X5X5X5X5X5X5X5X5X5X5X5X5X"
};
