/* XPM */
static char *result[] = {
/* columns rows colors chars-per-pixel */
"60 60 209 2 ",
"   c #110F0F",
".  c #0F0F10",
"X  c #0F1010",
"o  c #131314",
"O  c #1A1817",
"+  c #1C1C1C",
"@  c #191718",
"#  c #251C19",
"$  c #27211F",
"%  c #3A2F1E",
"&  c #1C1C20",
"*  c #151C28",
"=  c #1E2124",
"-  c #1D232C",
";  c #1C2635",
":  c #1A263A",
">  c #1E293C",
",  c #16253A",
"<  c #242424",
"1  c #282726",
"2  c #20242B",
"3  c #2C2C2C",
"4  c #2B2927",
"5  c #322E2C",
"6  c #392F26",
"7  c #393429",
"8  c #212732",
"9  c #242A34",
"0  c #2C2E32",
"q  c #222B3C",
"w  c #2A2F38",
"e  c #2D3136",
"r  c #343434",
"t  c #34363A",
"y  c #36393C",
"u  c #3C3C3C",
"i  c #38353B",
"p  c #551914",
"a  c #6F211A",
"s  c #4F3E2B",
"d  c #433D32",
"f  c #403E39",
"g  c #56452C",
"h  c #4C4134",
"j  c #48443D",
"k  c #5A4933",
"l  c #5A4B39",
"z  c #564B3D",
"x  c #624D35",
"c  c #6C5436",
"v  c #665236",
"b  c #7F4B34",
"n  c #1E2C45",
"m  c #1E2F4A",
"M  c #1F324D",
"N  c #243144",
"B  c #21324D",
"V  c #2B364B",
"C  c #3E3F40",
"Z  c #373E40",
"A  c #223452",
"S  c #253855",
"D  c #253658",
"F  c #26395A",
"G  c #2A3D5D",
"H  c #293953",
"J  c #212D47",
"K  c #2A3F61",
"L  c #3E4041",
"P  c #3A434F",
"I  c #2E405F",
"U  c #35445E",
"Y  c #2D4266",
"T  c #2D4268",
"R  c #324565",
"E  c #35496D",
"W  c #3B4C6B",
"Q  c #364868",
"!  c #354A73",
"~  c #384D74",
"^  c #3A4F7A",
"/  c #395176",
"(  c #3C537D",
")  c #434343",
"_  c #4C4C4C",
"`  c #464848",
"'  c #5A5347",
"]  c #4D4F51",
"[  c #504F52",
"{  c #525252",
"}  c #5B5B5B",
"|  c #5E5550",
" . c #534E46",
".. c #675947",
"X. c #735E43",
"o. c #715F4B",
"O. c #7B6344",
"+. c #766449",
"@. c #7C6C53",
"#. c #766753",
"$. c #7E705C",
"%. c #40526F",
"&. c #485877",
"*. c #424F69",
"=. c #4E617F",
"-. c #55637C",
";. c #646464",
":. c #686868",
">. c #6A666A",
",. c #766D67",
"<. c #8A261D",
"1. c #AB251A",
"2. c #954132",
"3. c #876B49",
"4. c #94754B",
"5. c #86755D",
"6. c #8E785A",
"7. c #997D5C",
"8. c #987A52",
"9. c #927D65",
"0. c #807B7D",
"q. c #8B7960",
"w. c #9C815B",
"e. c #AE8758",
"r. c #BB935C",
"t. c #998263",
"y. c #938068",
"u. c #A58A66",
"i. c #B4966C",
"p. c #AF9675",
"a. c #AB967A",
"s. c #B09674",
"d. c #B39974",
"f. c #BA9E76",
"g. c #B28766",
"h. c #BDA176",
"j. c #C99B5D",
"k. c #C39965",
"l. c #CFA266",
"z. c #D7A86C",
"x. c #DFB06E",
"c. c #D9AD75",
"v. c #D2AD78",
"b. c #E4B36E",
"n. c #E9B56F",
"m. c #E1AE72",
"M. c #E5B473",
"N. c #E9B572",
"B. c #E9B975",
"V. c #E8BE7D",
"C. c #3E5781",
"Z. c #3F5789",
"A. c #465B84",
"S. c #505F81",
"D. c #4E6181",
"F. c #5B6A87",
"G. c #66728B",
"H. c #6B7B97",
"J. c #727D93",
"K. c #76829A",
"L. c #7F889B",
"P. c #9E9384",
"I. c #A79988",
"U. c #828DA4",
"Y. c #8993A8",
"T. c #999DAD",
"R. c #979DB5",
"E. c #9EA5B7",
"W. c #BDB3AF",
"Q. c #A3A9BD",
"!. c #D0AD82",
"~. c #CEB088",
"^. c #D6B587",
"/. c #D9BD96",
"(. c #CAAC83",
"). c #ECBE83",
"_. c #E4BD89",
"`. c #E1BF92",
"'. c #C4B8AC",
"]. c #ECC185",
"[. c #ECC48A",
"{. c #EEC98F",
"}. c #E4C394",
"|. c #EBC694",
" X c #EDCA96",
".X c #EECC99",
"XX c #EAC99C",
"oX c #F0CB96",
"OX c #F0CB99",
"+X c #DAC4AD",
"@X c #E7CDA6",
"#X c #E3D4BF",
"$X c #A9AFC0",
"%X c #ACB0C2",
"&X c #B8BBC9",
"*X c #BDBFD0",
"=X c #C3C3CF",
"-X c #C3C5D3",
";X c #CCCDDA",
":X c #D4D0DA",
">X c #F4E5DD",
",X c #D8D7E3",
"<X c #E6E2E6",
"1X c #EEEAF4",
"2X c #F3ECF4",
"3X c #F4EFF8",
"4X c #F6F1F9",
"5X c #F8F0FA",
"6X c #F2E9E7",
/* pixels */
") ) ) ) ) ) ) ) ) ) ) ) ) ) ) ) ) ) ) ) ) ) ) ) ) ) ) ) ) y < r } } ` ) ) ) ) ) ) ) ) ) ) ) ) ) ) ) ) ) ) ) ) ) ) ) ) ) ",
") ) ) ) ) ) ) ) ) ) ) L ) ) ) ) ) ) ) ) ) ) ) ) ) ) ) ) ) y < r ;.} _ ) ) ) ) ) ) ) ) ) ) ) ) ) ) ) ) ) L ) ) ) ) ) ) ) ",
") ) ) ) ) ) ) ) ) ) ) ) ) ) ) ) ) ) ) ) ) ) ) t ; 9 q q q ; @ - ` } ` ) ) ) ) ) ) ) ) ) ) ) ) ) ) ) ) ) ) ) ) ) ) ) ) ) ",
") ) ) ) ) ) ) ) ) ) ) ) ) ) ) ) ) ) ) ) u e q Y A.C.( ( ( ^ / R H N q y ) ) ) ) ) ) ) ) ) ) ) ) ) ) ) ) ) ) ) ) ) ) ) ) ",
") ) ) ) ) ) ) ) ) ) j ) ) ) ) ) ) ) ) 0 N ( C.( Y Y Y Y Y Y Y Y T ! / m - Z ) L ) ) ) ) ) ) ) ) ) ) ) ) ) ) ) ) ) ) ) ) ",
") ) ) ) ) ) ) ) ) ) ) ) ) ) ) ) ) t ! F.H.U.E.W Y Y Y Y G.Y.Q.K.E T Y Y R E ! n Z L ) ) ) ) ) ) ) ) ) ) ) ) ) ) ) L ) ) ",
") L L L L L u u L L L L L L ) ) t B F.&X&XQ.R T Y Y R E.=X-X%.Y T Y T Y Y Y Y / V L L L j ) L L L ) L L L L L L L L L L ",
"5 3 1 1 1 1 1 1 4 3 3 4 1 3 5 0 ; R ,X:X;XF.E R T W Q.3X1X-XE Y Y T Y Y Y Y Y T E 0 5 e 3 0 5 5 0 5 5 5 3 1 1 1 1 1 1 1 ",
"< < + @ + @ @ @ @ = < + + < < = B R 4X4X-XS.T Y T Q.3X4X4X%XT T Y T T T T T Y Y Y ; < = & + + & = < 1 < & + @ @ O O O O ",
"` ` ) ) ) ) ) ) ) ) ` ) ) _ ` - Y K.4X2XF.Y Y T H.-X2X3XQ.K T R Y Y T Y T T Y Y Y I w r 1 + $ 1 r ` ` ` ) j ) ) ) ) ) L ",
":.:.:.:.:.:.:.:.:.:.:.:.:.:.:.: Q &X1X$XY Y K Y F.R.;X*XR A Y Y Y Y Y R W R T Y Y Y q ) r + < r _ ;.:.:.:.:.:.:.:.:.:.:.",
"} } } } } ;.} } ;.} } } } } } ; Y &.J.S S S T Y D.J.-.B D Y Y E Y.,X4X:XT.K.G.=.Y Y I - u < 3 _ } } } } } ;.} } } ;.} } ",
"{ { { { { { { { { { { { { { { ; Y F.W A A S G G F.R S A F D Y R Y.:X1XG.U A M I I Y Y ; ` 4 r } ;.{ { { { { { { { { { { ",
"{ { { { { { { { { { { { { { { - I &.B M B B A A S M A A A A H H.K.L.W V A A M M M Y Y q ` 5 r ;.;.} { { { { { { { { { { ",
"{ { { { { { { { { { { { { { { 9 B S A B n M B B A A A A A A G R U S A A M A A A A S I q ` 3 r ;.;.{ { { { { { { { { { { ",
"{ { { { { { { { { { { { { { { t : M + 6 g x c g 4 + * : B B B B S M M m > m M M A B S q ` 4 t } ;.{ { { { { { { { { { { ",
"{ { { { { { { { { { { { { { { ] + k M.N.B.N.N.B.N.B.l.8.x 5 J A m ; 5 ..o...d 9 ; H M ; L 1 0 { } { { { { { { { { { { { ",
"] { ] ] { ] { ] { { ] { { { ] { 3.].OXoX.X.X.X.X X X.X.XoX[.z.k +.d.p.p.p.p.p.p.s.7 : - r 3 3 y ` _ ] { { ] { ] ] { ] { ",
"f L u L f L f L u u f L u f u L x _..XOX.X.X.X.XoXOXOX.XOX}.u : 8.M.f.s.p.p.p.p.d.q.o - 1 1 1 1 5 y L u f L u L f L f L ",
"< < $ < < < < $ < $ = = $ = < < * t XX.X.X.X.X.XoXOX.X}.9.y , q i.B.N.s.p.p.p.p.s.z & & < 2 1 # = $ < = $ < < $ < < < < ",
"f u u L f L L y y 5 < & + $ 3 t O.5.t $.^.XX.X.XXXu.| q , w d.}.oX{.B.f.p.p.p.s.p.r u u ) ) ) u f u L f L u L u u y f L ",
";.;.;.;.;.} ;.;.} ` 5 < & 3 L { O.#.i t @.}..Xu.w * 2 ` _ | p.|.OXoX[.c.s.p.p.s.p.{ ;.;.;.;.;.;.;.;.;.;.;.} ;.;.;.;.;.;.",
"} } } { } } } } } ` y 1 < ) { } { D.=.1X'. X X X~ ( ( -.&X5X1X,.9.oX|.n.c.s.5.c e.} { } } } } } } } } { } } | } { } } } ",
") ` ) ` ` ) ) ` ) ) u 1 < _ ;._ ` -.%.3X<XXX.X/.A.D D J.U.5X3XI.|.OXOXN.n.i.l k.e.) ` ) ) ) ) ` ) ) ` ` ` ` ) ` ` ` ) ) ",
") ) ) ) ) ) ) ) ) ) u < < { ;._ u ,.Y.4X6X@XOX#XZ.! ! C.T.4X>XXX X.X.XB.b.X.X.8.l.u ) ) ) ) ) ) ) ) ) ) ) ) ) ) ) ) ) ) ",
") ) ) ) ) ) ) ) ) ) u = = _ :._ u 5.+X+X@X.XOX@X-.^ C.F.<X3X@XOXOX.X.XB.n.4.u.7.b.L ) ) ) ) ) ) ) ) ) ) ) ) ) ) ) ) ) ) ",
") ) ) ) ) ) ) j ) ) C 1 < { :._ ) @..XOXOXOX.X.X/.a.P.'.W.I.OXOXoX.X.XN.n.j.c.u.x.) ) ) ) ) ) ) ) ) ) ) ) ) ) ) ) ) ) L ",
") ) ) ) ) ) ) L ) ) u 3 1 { ;._ ) @.OXXXv.`..X.XOX.X.X.XXX.X.X.XoX|.[.N.n.N.M.z.k.) L j ) ) ) ) ) ) ) ) ) ) ) ) ) ) ) ) ",
") ) ) ) ) ) ) ) ) ) u 1 1 { :._ u ~.oX}.^.oXOXOX.X.X X.X.X.X.X].N.n.n.b.N.4.h d ) ) ) ) ) ) ) ) ) ) ) ) ) ) ) ) ) ) ) ) ",
") ) ) ) ) ) ) ) L j u 1 1 ` } ` L 5..X X X.X.X`..X.X.X.X.X.X{.M.b.n.n.b.8.f ) ) ) ) ) ) ) ) ) ) ) ) ) ) ) ) j ) ) ) ) ) ",
") ) ) ) ) ) ) ) ) u r < < t ) ) ) j |..X Xd.t.h..X.X XOX.XOXB.N.b.n.n.O.f ) ) ) ) ) ) ) j ) ) ) ) ) ` ) ) j L ) j ) L j ",
"r r u r r r t t t r 1 < + < 3 r t t ' f. X X X.X.X.X.XOXoX].n.n.b.j.O.u r r u r r r t t u y r u r r r r t t t t y r y f ",
"4 $ < < < $ < $ < = + + O $ + $ < $ < $ ' t.(.|..X{.[.V.N.N.r.4.g $ = < < < < $ < $ < = < $ = $ < < < $ $ < $ < $ $ < = ",
"y u y r y y y y u y u r u r y y y r y y y u r h ....v k g 6 1 0 = 3 & r y y y y y y r 1 = + + < 3 r y u y y r u y y y u ",
";.;.;.;.;.;.;.;.;.;.;.;.;.;.;.;.;.;.;.;.;.;.;.;.;.;.t t r 3 e r 3 5 r & ` ;.;.;.;.;.{ j 3 = = 3 ) } ;.;.;.;.;.;.;.;.;.;.",
";.;.;.;.} ;.;.;.;.} ;.;.;.;.;.;.;.;.} ;.;.;.;.} } ;.4 t r 3 r r 3 4 r 5 l } ;.;.;.;.} _ y = 1 j { } ;.;.;.;.} ;.} ;.;.;.",
"{ { { { { { { | { { { { { { { { { { { } { } { { } ` + r r 3 r 5 < O 9.^.z. .{ { { { { { j 1 e } ;.} { { } { { { { { { { ",
"{ { { { { { { { { { { { { { { { { { { { { { { { ) 6 O r 3 5 r r + o 9.|.c. .{ { { { { { ) 1 r } ;.{ { { { { { { { { { { ",
"{ { { { { { { { { { { { { { { { { { { ] { { { { a <.$ r r r r = + # 3.{.z.L { { { { { { ) 1 r ;.;.{ { { { { { { { { { { ",
"{ { { { { { { { { { { { { { { { { { { { { { _ ) g.<.$ r r r 1 + + p 1.2.2.L { { { { { { ) 1 r } ;.{ { { { { { { { { { { ",
"{ { { { { { { { { { { { { { { { { { { {  .#.X.8.].u.# r r 0 r 7 t.^..Xx.k { { { { { { { L 1 r { ;.{ { { { { { { { { { { ",
"{ { { { { { { { { { { { { { { { { { { { l v x 6 b.8.- 2 1 1 1 5 !.[.).l.` { { { { { ] j r < 1 L ` { { { { { { { { { { { ",
"` ` ` ` ` ` ` ` ` _ ` ` ` ` ` ` ` ` ` ` ) +.c w.3.$ A K G H q j }.oX{.3.` ` ` ` ` ` ) y 1 + = 3 t ` ` ` ` ` ` ` ` ` ` ` ",
"3 4 3 4 3 4 3 3 4 4 4 3 3 4 3 4 4 3 3 3 3 1 6.c < = D T K D q 6.c.].V.h 3 3 3 3 3 3 4 < = + + $ < 3 3 3 4 4 3 3 3 4 3 1 ",
"3 3 3 3 3 4 3 3 3 1 + + + = $ 1 3 3 3 3 3 1 4 ..9 M Y Y Y A * 9 h O.r.3 3 3 3 3 3 3 3 3 3 3 3 3 3 3 3 3 5 3 5 3 3 3 3 3 ",
"} } } } } } } } { ) 3 + + 1 t { } } } } } } } } Z K Y Y F : y 3 0 1 & } } } } } } } } } } } } } } } } } } } } } } } } } ",
":.:.:.:.:.:.:.:.;._ y 1 $ y _ } ;.;.:.:.:.:.:.:.C W K K , ;.] 9 < = = :.;.;.:.:.:.:.;.;.:.:.:.:.;.:.;.;.;.;.;.;.;.;.;.:.",
"{ { } { { } { } { { ` 3 1 _ ;.} } } { { } { { } t /.a.9.z } ] B G I S } } } { { } { } { } { } { { } } } { } } { } } { } ",
"{ { { { { { { { { { ` 3 4 { :.} { { { { { { { { e }.{.].+.{ { P R W :.) { { { { { { { { { { { { { { { { {  .{ { { { { { ",
"{ { { { { { { { { { _ r 3 { ;.} { { { { { _ { { e /. XV...{ { _ y.}.].y { { { { { { { { _ { { { _ { { { { { { { { ] { { ",
"{ { { { { { { { { { _ 0 3 { :.} { { { { { { { { 1 h h 7 < { { { ..~.w.+ _ { { { { { { { { { { { { { { { { { { { { { { { ",
"{ { { { _ { { { { { ` 5 1 { ;.} { ] { { { { ] L r r 1 + X ` ] y 0 r r + @ _ { { { { { { { { { { { { { { ] { { { { { { { ",
"{ { { { { { { { { ` f 4 1 L { { { { { { { { e 3 e 3 = + @ r 0 3 e 0 3 + o C [ [ { { { { { { { { { { { { { { { { { { { { ",
"_ _ _ _ _ _ _ _ ` L r = = 4 y ) _ _ _ ] _ ) X o o X X X X e X o o o X X X C _ ] _ _ _ _ _ ] _ _ _ _ _ _ _ _ _ _ _ _ _ _ ",
"r r e r r r r r r 4 < + + + 1 r r e 5 r r r 3 3 3 3 3 1 1 e 3 3 3 3 3 3 3 r r r e e 5 e 5 r r e r 5 r r r r r r e r 5 r ",
"= $ 1 < $ < < < < < 1 < < 1 < < < 1 < < < < < 1 1 1 = < $ + + + & & < 1 < < < < 1 1 1 < 1 1 < 1 1 1 < < < < < < 1 < 1 1 ",
"{ _ { _ _ { _ ] { { _ { ] { ] { { { _ { { ] { _ { { _ ` r 1 + & 4 u `  ._ { _ {  .] ] ] { _ {  .] { ] ] ] { _ { ] { _ { ",
":.;.:.:.;.;.:.;.;.;.;.;.;.;.;.;.;.;.;.;.;.;.;.;.;.;.;.} ) 5 = 1 t _ } :.;.;.;.;.:.;.;.;.;.;.;.;.;.;.;.;.;.;.;.;.;.;.;.;.",
"_ { _ _ { { ] { { { { _ ] { { { { { { _ { _ { { ] { { _ ) t < 3 ] } { { { { _ { ] { { { { ] ] ] _ { { { { ] ] { { ] { { ",
"j ) ) ` ) ) ) L L ) L j j ) L ) L ) L j ) ) L ) ) ) ) j j y < r } } ` ) ) ) ) ` ) j ) ) ) ) ) ) ) ) ) L ) ) j ) ) ) L j "
};
