/* XPM */
static char *_b12a9aafb7345b9b4bbff96f98167adgcA05PMHdpXCtQUq[] = {
/* columns rows colors chars-per-pixel */
"60 60 201 2 ",
"   c #151515",
".  c #171719",
"X  c #1C1C1C",
"o  c #181718",
"O  c #21201F",
"+  c #1E1F21",
"@  c #151C26",
"#  c #1E2023",
"$  c #1A222C",
"%  c #172132",
"&  c #19263A",
"*  c #1D2636",
"=  c #242424",
"-  c #292725",
";  c #23262B",
":  c #272828",
">  c #2C2C2C",
",  c #282827",
"<  c #31312F",
"1  c #3A332B",
"2  c #2B2E33",
"3  c #252D3D",
"4  c #242935",
"5  c #312F30",
"6  c #2E3034",
"7  c #2A313B",
"8  c #343434",
"9  c #34363A",
"0  c #3C3C3C",
"q  c #3B3733",
"w  c #312D27",
"e  c #492C29",
"r  c #473E2F",
"t  c #483E32",
"y  c #6D2B22",
"u  c #4F412E",
"i  c #45403A",
"p  c #4C443D",
"a  c #4B4135",
"s  c #5C4D3C",
"d  c #574A38",
"f  c #634E36",
"g  c #60503F",
"h  c #765D3D",
"j  c #1E2D46",
"k  c #1F2F49",
"l  c #1F3452",
"z  c #2D3543",
"x  c #22324D",
"c  c #2A374C",
"v  c #353A42",
"b  c #3C3E42",
"n  c #333D4D",
"m  c #223451",
"M  c #273A5B",
"N  c #293C5B",
"B  c #273957",
"V  c #2A3E61",
"C  c #3E4145",
"Z  c #3C414E",
"A  c #2E415E",
"S  c #344054",
"D  c #2D4266",
"F  c #2D4268",
"G  c #314465",
"H  c #324569",
"J  c #34496C",
"K  c #3A4B6D",
"L  c #3A4E73",
"P  c #384D76",
"I  c #3D5174",
"U  c #3D537C",
"Y  c #434343",
"T  c #444649",
"R  c #45484B",
"E  c #4C4C4C",
"W  c #4A4541",
"Q  c #514F4D",
"!  c #4C4E50",
"~  c #484B58",
"^  c #4F5051",
"/  c #4D505A",
"(  c #525252",
")  c #5B5B5B",
"_  c #575757",
"`  c #585248",
"'  c #675B4C",
"]  c #725D43",
"[  c #615E58",
"{  c #6F604C",
"}  c #7C6345",
"|  c #7F6A4E",
" . c #776246",
".. c #6E6151",
"X. c #6E665A",
"o. c #70675B",
"O. c #7B6953",
"+. c #424E64",
"@. c #425068",
"#. c #40547A",
"$. c #4B5B7B",
"%. c #485672",
"&. c #505E7C",
"*. c #555860",
"=. c #54637F",
"-. c #646464",
";. c #686868",
":. c #716E6A",
">. c #767371",
",. c #86251C",
"<. c #943020",
"1. c #9D4635",
"2. c #876A4A",
"3. c #8C714D",
"4. c #96774E",
"5. c #896B51",
"6. c #897457",
"7. c #997853",
"8. c #AA624A",
"9. c #887A65",
"0. c #977F60",
"q. c #847A76",
"w. c #9D815A",
"e. c #A58459",
"r. c #B88F5A",
"t. c #BA925B",
"y. c #978469",
"u. c #A58D6C",
"i. c #A98A62",
"p. c #BB9667",
"a. c #AF9675",
"s. c #A79170",
"d. c #B19676",
"f. c #B99D75",
"g. c #BDA17B",
"h. c #C89C62",
"j. c #C49D6D",
"k. c #C08B67",
"l. c #CDA165",
"z. c #CFA46C",
"x. c #DDAB6C",
"c. c #D2A569",
"v. c #C3A274",
"b. c #C7A578",
"n. c #D9AF78",
"m. c #E7B36F",
"M. c #E9B572",
"N. c #EABA7B",
"B. c #E6B676",
"V. c #3E5683",
"C. c #546584",
"Z. c #5B6A86",
"A. c #636F8A",
"S. c #6E7B93",
"D. c #657086",
"F. c #768399",
"G. c #848285",
"H. c #90909B",
"J. c #A99782",
"K. c #848EA4",
"L. c #8B94AA",
"P. c #8F99AE",
"I. c #919AAD",
"U. c #959DB1",
"Y. c #A3A7B6",
"T. c #BFB9BE",
"R. c #B5ACAA",
"E. c #CFB185",
"W. c #D7B78A",
"Q. c #D6BD9A",
"!. c #E9BE88",
"~. c #E1BF90",
"^. c #DEC194",
"/. c #EDC48C",
"(. c #EDC285",
"). c #E4C394",
"_. c #EBC693",
"`. c #EECA95",
"'. c #EECC98",
"]. c #F0CA96",
"[. c #F0CB9A",
"{. c #F1C58C",
"}. c #CEC0AB",
"|. c #D0C2B5",
" X c #F0D1A6",
".X c #E6D1B4",
"XX c #ACAFC0",
"oX c #B6BAC9",
"OX c #BEC0CE",
"+X c #BEC0D0",
"@X c #C9C8D1",
"#X c #E8DFDC",
"$X c #E5DACE",
"%X c #DAD8E4",
"&X c #E0DEE8",
"*X c #E4E2EC",
"=X c #E9E5EE",
"-X c #EFEAF2",
";X c #F6F1F9",
":X c #F8F0FB",
">X c #F3ECF2",
/* pixels */
"Y Y Y Y Y Y Y Y Y Y Y Y Y Y Y Y Y C Y Y Y Y Y Y Y Y Y Y Y 9 = 8 ) ) R Y Y Y Y Y Y Y Y Y Y Y Y Y Y Y Y Y Y Y Y Y Y Y Y Y ",
"Y Y Y Y Y Y Y Y Y Y Y Y Y Y Y Y Y i Y Y Y i Y Y Y Y Y Y Y 0 = 8 -.) E Y Y Y Y Y Y Y Y Y Y Y Y Y Y Y Y Y Y Y Y Y Y Y Y Y ",
"Y Y Y Y Y Y Y Y Y Y Y Y Y Y Y Y Y Y Y Y Y Y Y Y Y Y Y Y Y 9 = < -.) E Y Y Y Y Y Y Y Y Y Y Y Y Y Y Y Y Y Y Y Y Y Y Y Y Y ",
"Y Y Y Y Y Y Y Y Y Y Y Y Y Y Y Y Y Y Y Y Y Y Y Y Y Y Y Y Y 0 O > ) ) R Y Y Y Y Y Y Y Y Y Y Y Y Y Y Y Y Y Y Y Y Y Y Y Y Y ",
"Y Y Y Y Y Y Y Y Y Y Y Y Y Y Y Y Y Y Y Y Y Y Y Y Y Y Y Y Y q X : ) ) E Y Y Y Y Y Y Y Y Y Y Y Y Y Y Y Y Y Y Y Y Y Y Y Y Y ",
"Y Y Y Y Y Y Y Y Y Y Y Y Y Y Y Y Y Y Y Y Y Y Y Y Y Y Y Y b < X = W E Y Y Y Y Y Y Y Y Y Y Y Y Y Y Y Y Y Y Y Y Y Y Y i Y Y ",
"Y t b b i b 0 0 0 Y C i C b b i Y C i C i Y Y C i Y b 0 9 > X = 8 0 0 Y i C Y Y i Y Y Y C i Y Y t C Y Y Y b 0 0 b b i b ",
"2 2 : : : , , , : > < , , > < 6 > < 6 < 6 > > < < < < < , = X X = , > < 6 > > < 6 > > < > < 2 > 2 2 > < , - : , : : : : ",
"= = X . X o o o o O = X X O = : - - : = - - = = = = : = = = = = = = = = = = - - = = = + + X X + = = - = + X o o o o o o ",
"R W Y Y Y T Y Y Y T W Y Y T E W T E R E T E R R R R W Y 0 6 2 2 7 2 9 Y E R R R E E Y 8 = X O : 8 T R W W T Y Y Y Y Y Y ",
";.;.;.;.;.;.;.;.;.;.;.;.;.;.;.;.;.;.;.;.;.;.;.;.) v c N G P P U U U U F n ! ;.;.;.;.[ T 5 = = 8 R ;.;.;.;.;.;.;.;.;.;.;.",
") ) ) ) ) ) ) ) ) -.) ) -.) ) ) ) ) ) ) ) ) E n N J J L F D D D D D H C.#.K n ~ ) ) _ E 0 = > E ) ) ) ) ) ) ) ) ) ) ) ) ",
"_ ( ( ( ( ( ( ( ( ( ( ( ( ( ( ( ( ( ( ( ( v G J F D F $.K.Z.F.K V F F %.L.Z.C.H v ( ( ( T - 8 ) -.( ( ( ( ( ( ( _ ( ( ( ",
"( ( ( ( ( ( ( ( ( ( ( ( ( ( ( ^ ( ( ( ( c F F D F D F F I L.OXoXC.F D F $.oXXXZ.G v ( ( T > 0 [ -._ ( ( ( ( ( ( ( ( ( ( ",
"( ( ( ( ( ( ( ( ( ( ( ( ( ( ( ( ( ( ( 9 H D D F D F F D D $.oX;X*XC.D F L F.*X*XL c E ( E > 0 -.-._ Q ( ( ( ( ( ( ( ( ( ",
"( ( ( ( ( ( ( ( ( ( ( ( ( ( ( ( ^ ( C N D F D D F F D D D D &.*X:X@XH F H $.%X;XoXM 0 ( Y : 8 ) -._ ( ( ( ( ( ( ( ( ( ( ",
"( ( ( ( ( ( ( ( ( ( ( ( ( ( ( ( ( ( z D D D F I $.J F F F D B D.@XU.$.D D D K.=X+X=.4 R b : 5 Q ) ( ( ( ( ( ( ( ( ( ( ( ",
"Q ( ( ( ( ^ ( ^ Q ( ( ( Q ( Q ( ( R m D D $.F.U.OX%XY.$.F D V m S.I.D F D B K Y.I.I * 0 8 , > 0 T E ( ( ^ ^ ^ ( ( ^ ^ / ",
"0 0 b 0 b 0 0 0 0 b b 0 b 0 b b b 9 B F D A A @.K.%X=XI.F D M m N =.J V N m m $.P.D $ < : - = : < 0 b 0 t b 0 b 0 b 0 t ",
"= = = = O = = = = O O = O O # = = # N N m m m m k m D.F.%.N m l m x B m l l m m =.N @ O = : = = X = # = = = = = = = = = ",
"0 0 C 0 0 0 0 0 0 < = X X O : q 0 6 B m m m l x x l m B N m l m x j & % % % * j x x 2 b b Y Y 0 0 0 0 t 0 b t v 0 0 0 t ",
"-.X.-.-.-.-.-.-.[ T < = O > b _ -.R x m x 3 0 Y Y 9 3 x x j 7 p } 7.t.h.c.l.t.4.' ; _ -.-.-.-.-.-.-.-.-.-.-.-.-.-.-.-.-.",
") ) _ _ ) ) ) ) _ E 9 = = C ( ( ) T j & d y.a.d.d.a.6.8 > 2.c.B.!.{.].`.`.`._.!.B.4.( _ ) _ ) _ _ _ _ ) ) _ _ ) ) _ _ _ ",
"Y Y T T W Y Y T Y Y 0 , ; ^ X.^ T b @ O.a.a.a.a.a.a.g.O.s z._.].'.].].`.].].[.'._.e.Y T W T T W T T T T Y Y E Y T T T R ",
"Y Y Y Y Y Y Y Y Y Y 0 = O ( -.E Y Y 6 6.d.a.a.a.d.v.B.i.& & X.E.[.[.].'.'.'.[.'.s.8 b Y Y Y Y Y Y Y Y Y Y Y Y Y Y Y Y Y ",
"Y Y Y Y Y Y Y Y Y Y 0 = O ^ -.^ Y Y C p d.a.a.a.f.m./.'.E.y.C * R y.).'.'.^.9.9 ' 6.0 Y Y Y Y Y Y Y Y Y Y Y Y Y Y Y Y Y ",
"Y Y Y Y Y Y Y Y Y Y b = = ( ;.E Y Y Y 0 y.s.a.a.x.B.].).u.>.y.F.~ $ i y.`.W.o.^ Z ..0 Y Y Y Y Y Y Y Y Y Y Y Y Y Y Y Y Y ",
"Y Y Y Y Y Y Y Y Y Y 0 > , ( -.E Y Y i C f ] u.v.M./.].7.H.-X;XY.I U / ).].^.@XC.P *.Y Y Y Y Y Y Y Y Y Y Y Y Y Y Y Y C Y ",
"Y Y Y Y Y Y Y Y Y Y 0 : > ( -.! Y Y Y q t.e.] z.M.`.'.).|.;X;XS.I D I }.'..X=X#.P ( Y Y Y Y Y Y Y Y Y Y Y Y Y Y Y Y Y Y ",
"Y Y Y Y Y Y Y Y Y Y 0 : : E ) E Y Y Y 0 l.p.f h.M.`.'.'. X>X;XH.V.V.C.$X'. X#XY.>.Y Y Y Y Y Y Y Y Y Y Y Y Y Y Y Y Y Y Y ",
"Y Y Y Y Y Y Y Y i 0 8 = O 8 C i Y Y Y 0 h.f.l.x.M.`.'.].'.Q.R.T.G.q.}.'.'.'.[.'.).0 Y Y Y Y Y Y Y Y Y Y Y Y Y Y Y Y Y C ",
"q 9 9 q 9 q 8 9 9 < > # X = < 8 q 9 q 9  .c.m.M.M.N.{._.'.'._.`.'.].].'.'.W.W.].).q 9 9 q 9 9 q 8 0 8 8 0 8 0 8 q 9 q 9 ",
"= # = = # = = O = O X X X O O = O = = = = 2.t.n.m.M.M.B.`.'.'.'.'.'.'.'.'.'.E.'.'.t = = + + = = O = = = = # O = = = = = ",
"q 0 9 0 8 9 0 9 9 0 9 9 8 9 q 9 0 9 9 q 0 q t 5.m.m.M.M.N.`.'.'.'.'.'._.'.'.).'.Q.b 8 > = X X X > 9 q 0 0 q 0 9 9 q 9 0 ",
"-.-.X.-.-.-.-.-.-.-.-.-.-.-.-.-.-.-.-.-.-.-.-.) ] h.M.M.M.(.'.[.'.'.'.W.w.E.[.W.X.) ) b > X = > C ) -.-.-.-.-.-.-.-.-.-.",
") -.-.-.-.-.-.-.X.-.-.-.) -.-.-.) -.-.-.-.-.) -.-._ f r.m.M.N.{.'.'.'.'.'.^.y.) -.X.) E 0 = , Y ( [ -.-.-.-.) -.-.[ -.-.",
"( ( _ ( _ ( _ ( _ _ _ _ _ _ _ _ ( _ ( _ _ ( _ _ ! = : O 1 f } 3.4.u.y.y.X.( _ ( _ ( ( ( Y : 8 _ -._ ( ( _ ( _ ( ( ( ( _ ",
"( ( ( ( ( ( ( ( ^ ^ ^ ( ^ ^ ^ ^ ( ( ( ( ( ( ( ( 6 , 8 , 8 8 8 5 : ^ ( ( ( ( ( ( ( ( ( ( Y = 8 ) -._ ( ( ( ( ( ( ( ( ( ( ",
"( ( ( ( ( ( ( ( ( ( ( ( ( ^ ( ( ( ^ ( ^ ( ( ( W = 2 5 > 8 8 > 9 , E ( ( ( ( ( ( ( ( ( ( T : 8 ) -.( ^ ( ( ( ( ( ( ( ( ( ",
"( ( ( ^ ( ( ^ ( ( ( ( ( ( ( ( ( ( ( ( ( ( ( ( 6.f.6.q : 8 8 > 8 , T ( ( ( ( ^ ( ( ( ( ( Y = 8 -.-._ ( ( ( ( ( ( ( ( ( ( ",
"^ ( ( ( ^ ( ( ( ^ ( ( ( ( ( ( ^ ( ( ( ( ( ( Q 7.].~.1 O < 8 8 < : e T ^ ( ( ( ( ( ^ ( ^ Y = 5 _ -.( ^ ( ^ ( ( ( ( ( ( ^ ",
"( ( ( ( ( ( ( ( ( ( ( ( ( ( ( ( ( ( ^ ( ( ( E 2.k.8.y o = < 8 8 > ,.5.E ( ( ( ( ( ( ^ Y 8 = : Y E ^ ( ( ( ( ( ( ( ^ ( ^ ",
"R E T W T W R R W T T T T T T E T T W E W T T e <.1.7.- X = 2 8 > 5.'.| ` T R W W E Y 8 , X O > 0 Y E W T W E T E T W E ",
"> > > > > > : > > > w > w > w , > > > > > > > w l.{.!.u.q 2 5 5 - i.N.h 3.O.< , > > : = O X X O = : : > > > > : > > > > ",
"> > < > > > > > > = O X X O O : > > > > > > > > 7.N._.v., $ 4 3 x ] 3.r d r > > > > > > > > > 2 > > 2 > > > > > > > > > ",
"_ ) ) _ ) ) ) ) _ C : = X : 9 ^ _ ) ) ) ) ) ) ) ' B.!.!.' m M D N 7 t h 5.E ) ) ) _ ) ) ) ) ) ) ) ) ) ) ) ) ) ) _ ) ) ) ",
"-.;.;.-.;.-.;.-.X.! q : = 8 E -.;.-.-.;.-.;.;.;.[ 0.} t = n m D V B [ ..Q -.;.-.;.;.;.-.;.-.-.;.;.-.-.;.;.-.;.-.-.;.;.-.",
"_ _ _ _ _ _ _ _ _ ^ Y > : E -._ _ _ _ _ _ _ _ _ ) # = > 2 _ 3 N H V R _ _ _ _ _ _ _ _ _ _ _ _ _ _ _ _ _ _ _ _ _ _ _ _ _ ",
"( ( ( ^ ( ( ( ( ( ( E > , _ ;._ ^ ( Q ( ( ( ( ( ^ $ ; = 2 ^ T j V @.T ( ( ^ ( ( ( ( ( ( ( ( ( ( ( ( ( ^ ( ( ( ( ^ ( ( ( ",
"( ( ( ( ( ( ( ( ( ( E < > ( ;.) ( ( ( ( ( ( ^ ( ^ 3 D D S ( ( O.f.b.T ( ( ( ( ( ( ( ^ ( ( ( ( ^ ( ( ( ( ( ( ( ( ( ( ( ( ",
"( ( ( ( ( ( ( ^ ( ( E 6 , _ ;.) ( ^ ( ( ( ( ( ( Y n.J.:.E ( ( w._.f.T ( ( ( ^ ( ( ^ ( ( ^ ( ( ( ( ( ( ( ( ( ( ^ ( ( ( ( ",
"( ^ ( ( ( ( ( ( ( Q R > , ( -._ ( ( ( ( ( ( ( ! , 5.g.' ^ ( ^ r ] ` C ( ( ( ( ( ( ( ( ( ( ( ( ( ^ ( ( ( Q ( ( ( ( ( ( ( ",
"( ( ( ( ( ( ( ( ( W Y : = Y ( ( ( ( ( ( ( ( ( b o = 2 6 ( ( T   = 8 9 ^ ^ ( ( ( ( ( ( ( ( ( ( ( ( ( ^ ( ( ( ( ( ( ( ( ( ",
"E E E E E E E E R C < = X , 0 W E E E E E E E = X = 8 8 8 R 9 . + 5 8 8 C E E E E E E E E ^ E E E ! E E E E E E E E E E ",
"8 8 8 < 8 6 8 8 8 , = X X = , 6 8 8 8 8 8 8 8 o     o . o + +     . o X o 8 8 8 8 8 5 8 8 5 8 5 8 8 8 8 5 8 8 8 8 8 5 8 ",
"= = = = - = - = = = = = = = = = = = = = = = : = = = = = + X X X X + = = = = = - - = = : = = = - = = - = = = = - = = = - ",
"^ ^ E ^ ^ E Q ^ ^ E ^ E E ( E E ^ E ^ Q ^ Q ^ ^ ^ ( Q E 8 : X X = q E ! E ^ Q E ^ Q ^ E E Q ^ E Q Q ! ^ Q Q ^ ^ ^ E ^ Q ",
";.-.;.-.-.;.;.-.;.-.;.;.-.;.;.;.;.-.-.;.-.-.-.-.-.-.-.) Y 5 = = 0 R -.-.-.;.-.;.;.-.-.;.-.;.;.-.-.;.-.-.-.;.-.-.-.;.-.-.",
"Q ^ ^ Q ^ ^ Q ^ Q ^ E ( Q ^ ^ ^ Q ^ ^ ^ ^ ^ ^ ^ ^ ^ Q E W 8 = > ^ _ ^ Q ^ ( ^ ^ ^ ^ ^ ^ ^ ^ Q ( Q ( ^ ^ ^ ^ ^ ^ ^ ^ ^ ( ",
"Y Y Y Y Y Y Y Y Y Y Y Y Y Y Y Y Y Y Y Y Y Y Y Y Y Y Y Y b 0 = 8 ) ) E Y Y Y Y Y Y Y Y Y Y Y Y Y Y Y Y Y Y Y Y Y Y Y Y Y "
};
