/* XPM */
static char *e633d2145f3448f291cb58c68c3fce6e5ovV2UfnEA3taQuc[] = {
/* columns rows colors chars-per-pixel */
"60 60 208 2 ",
"   c None",
".  c #0A0C0D",
"X  c #0D0E10",
"o  c #050E17",
"O  c #0F1011",
"+  c #0F141C",
"@  c #131415",
"#  c #1B1C1D",
"$  c #161719",
"%  c #2C0F0E",
"&  c #32291C",
"*  c #000E2D",
"=  c #0C1522",
"-  c #131D2D",
";  c #161B23",
":  c #131D31",
">  c #1D2123",
",  c #1D2229",
"<  c #172028",
"1  c #0F213D",
"2  c #162032",
"3  c #1B2434",
"4  c #12223D",
"5  c #1A273B",
"6  c #1C293B",
"7  c #232426",
"8  c #2B2924",
"9  c #242629",
"0  c #272C2C",
"q  c #2B2B2C",
"w  c #282726",
"e  c #312C28",
"r  c #3A3328",
"t  c #2C2E32",
"y  c #272B36",
"u  c #2D3236",
"i  c #333333",
"p  c #393833",
"a  c #4D1514",
"s  c #55231D",
"d  c #71271D",
"f  c #483B2C",
"g  c #423B36",
"h  c #423E3C",
"j  c #6B3B2E",
"k  c #494339",
"l  c #564B3C",
"z  c #584936",
"x  c #56442A",
"c  c #63523D",
"v  c #6C573C",
"b  c #655036",
"n  c #6A563C",
"m  c #0E2242",
"M  c #1C2C45",
"N  c #13294A",
"B  c #1A2C4B",
"V  c #142846",
"C  c #1F324E",
"Z  c #192E52",
"A  c #1D3253",
"S  c #1D345D",
"D  c #212D44",
"F  c #212F49",
"G  c #233047",
"H  c #23334C",
"J  c #233553",
"K  c #243855",
"L  c #21375C",
"P  c #26395B",
"I  c #293B5C",
"U  c #293A57",
"Y  c #263C61",
"T  c #2A3E62",
"R  c #394453",
"E  c #2D4166",
"W  c #2E446A",
"Q  c #3A4965",
"!  c #31456A",
"~  c #354A6D",
"^  c #384A6A",
"/  c #2D4876",
"(  c #344A72",
")  c #354C79",
"_  c #3D5275",
"`  c #3B537B",
"'  c #5B5346",
"]  c #454B5B",
"[  c #595B5D",
"{  c #675946",
"}  c #7B6746",
"|  c #7C6B52",
" . c #756754",
".. c #445575",
"X. c #42567C",
"o. c #4B5C7A",
"O. c #4B5366",
"+. c #546178",
"@. c #756D62",
"#. c #89231B",
"$. c #A43425",
"%. c #825836",
"&. c #856845",
"*. c #9A7749",
"=. c #82705A",
"-. c #8A7453",
";. c #977B57",
":. c #8E7046",
">. c #A27E4D",
",. c #A76C51",
"<. c #887863",
"1. c #827B76",
"2. c #A78558",
"3. c #B48D5B",
"4. c #B08857",
"5. c #BE945C",
"6. c #A8824F",
"7. c #988164",
"8. c #938475",
"9. c #A48863",
"0. c #A78E6E",
"q. c #B89568",
"w. c #AD9474",
"e. c #B39976",
"r. c #B49A79",
"t. c #B69C79",
"y. c #BBA27C",
"u. c #C1975D",
"i. c #CF9270",
"p. c #C8A26D",
"a. c #D2A363",
"s. c #D8A96B",
"d. c #C5A679",
"f. c #D4AB77",
"g. c #E1AE6C",
"h. c #E6B16D",
"j. c #ECB56E",
"k. c #E6B474",
"l. c #EBB672",
"z. c #EBBB7E",
"x. c #EABA77",
"c. c #F5BD75",
"v. c #F8BE75",
"b. c #F0B66F",
"n. c #F4C17C",
"m. c #566682",
"M. c #5A6A89",
"N. c #626F87",
"B. c #63718D",
"V. c #6D788C",
"C. c #717E97",
"Z. c #687591",
"A. c #74819C",
"S. c #7B869F",
"D. c #7F889C",
"F. c #908E90",
"G. c #A79A8B",
"H. c #B6AA9C",
"J. c #BEA680",
"K. c #8A93A8",
"L. c #9198AA",
"P. c #8A93AA",
"I. c #9AA1B5",
"U. c #AFB1BF",
"Y. c #AEAEB8",
"T. c #CCAD83",
"R. c #C2A785",
"E. c #CDB289",
"W. c #D7B686",
"Q. c #DCBB8C",
"!. c #D6B888",
"~. c #D9BE98",
"^. c #E7BD85",
"/. c #ECC186",
"(. c #E3C18C",
"). c #EBC68E",
"_. c #FDCC8B",
"`. c #F9C785",
"'. c #E4C292",
"]. c #EBC693",
"[. c #ECCA96",
"{. c #EECC9A",
"}. c #E8C79A",
"|. c #F2CB94",
" X c #FACE92",
".X c #F1CE9A",
"XX c #F5D19C",
"oX c #FBD49D",
"OX c #FDD696",
"+X c #D1C4B9",
"@X c #FFDAA5",
"#X c #F9D4A1",
"$X c #EDD4B0",
"%X c #FFE4A3",
"&X c #B5B8C8",
"*X c #BEC1CE",
"=X c #C9CBD6",
"-X c #CFD0D8",
";X c #D8D4DD",
":X c #D9CCC3",
">X c #E7DDD7",
",X c #E5DACE",
"<X c #D8D5E2",
"1X c #E8E5EE",
"2X c #F2EEF6",
"3X c #EFF0FE",
"4X c #FFFCFF",
"5X c #FDF5FB",
/* pixels */
"                                                                                                                        ",
"                                                                                                                        ",
"                                                                                                                        ",
"                                                                                                                        ",
"                                                                                                                        ",
"                                                                                                                        ",
"                                                        6 D G H H H H                                                   ",
"                                                5 U I P E ! ! ( ( ( ( _ ! P 5                                           ",
"                                            H E ~ W ( M...E ^ K E E T _ C.X.( E 5                                       ",
"                                        D W ~ W E T E _ S.I.L.A.T Y W Y ..I.K.A.W G                                     ",
"                                      H ( W E E E E E T S Z.-X1X*X~ P W L ..*X;XI.T D                                   ",
"                                    G ! T E E W ! ! E W W Y K.4X4X<X..T ! E P.5X4XP.J <                                 ",
"                                  2 T E E Y Y Y Y S T E W T A K.2X<XS.W E I E =X4X1Xm.1                                 ",
"                                  G W E ( o.B.L.L.C...T E E L V C.&Xm.Y E E A o.;XU.M.V                                 ",
"                                  P W E ^ +.N.L.2X4X1XB.Y T T J H m.A.P W E J K M.I.! D                                 ",
"                                - T E P C M V B O.S.U.K.Q P J J J J Q P K K K K H N._ M                                 ",
"                                3 I K H J K A J B N K Q Q J K A B N m : m m m m m A K :                                 ",
"                                : J K B V 3 y u y 3 V C B N 1 y g { &.:.>.6.*.:.} p :                                   ",
"                                = H 4 p | 7.0.w.0.<.' 3 u c *.a.z.`._. X X X X_.`.c.&.                                  ",
"                                  - { r.t.r.w.r.r.r.f.k c n.OXoX{.}.].{.|.{.{.].}.@Xs.                                  ",
"                                  . ;.J.0.w.w.w.w.p.c.| * 6 @.E.#X@XoXXX{.[..X@X#Xy.g                                   ",
"                                    ' t.r.w.w.w.f.l.).}.R. ., o k <.J.E.'.{.E.<.g p |                                   ",
"                                      | 0.r.w.d.j.^.{.'.9.<.F.F.O.= 9 { d.@Xd.' ] ] =.                                  ",
"                                      b } =.t.s.l.].#X{ F.2X4X;X+.` Q 8.XX.X~.;XB./ +.                                  ",
"                                      3.5.' 9.b.z.{..XW.+X4X5XV.` L ) B.$X/.,X3XX./ [                                   ",
"                                      5.p.&.:.v.^.{.{..X#X>X4X&X/ / / &X$X).$X>XY.1.{                                   ",
"                                      3.p.d.a.l.x.{.{.{.{.!.H.+XH.8.J.#X{.[.].|..X^.                                    ",
"                                      v a.b.l.k.k.z./.).{.XX).)..XoXXX[.{.{.W.d.XXQ.                                    ",
"                                          *.3.c.l.h.h.k.[.{.{.{.{.[.[.{..XoX'.R..X.X=.                                  ",
"                                              6.h.b.j.h.x.[.{.{.{.{.[.[.T.T.].XXXXT.                                    ",
"                                                  5.g.v.c.c.|.{.{..X.X{.W.d.].'.r.                                      ",
"                                                  + e v *.5.s.k./.(.(.'.'.!.t.                                          ",
"                                                7 7 q ; 9 9 i g f                                                       ",
"                                              + # i i e p i q i 7                                                       ",
"                                              { k h w q i i q p e                                                       ",
"                                              z.@Xy.@ w p i t t q #                                                     ",
"                                            x f.Q.,.% $ q p p i t s d                                                   ",
"                                              d #.$.j . # 7 e i u a i.y.l                                               ",
"                                              %.f.{.!.' q q 8 i > l %X4.2.{ {                                           ",
"                                              } k./. Xe.# t 0 y 6 g a.z x } c                                           ",
"                                                3._.XX^.h V U E ! : & c -.v                                             ",
"                                                &.3.&.z w M J T W U     c                                               ",
"                                                  ; ; w -   - U ! E J                                                   ",
"                                                  , q q 9     4 S ! R                                                   ",
"                                                ; H S L M     { w.E.|                                                   ",
"                                                -.^.G.[       ;.OXoX{                                                   ",
"                                                r ;.d.c       8 z l w                                                   ",
"                                              $ $ , > =       X + t 0                                                   ",
"                                              $ # q i e 7     $ # 8 i e 9                                               ",
"                                              X O O @ @ @     X @ X @ @ $                                               ",
"                                                                                                                        ",
"                                                                                                                        ",
"                                                                                                                        ",
"                                                                                                                        ",
"                                                                                                                        ",
"                                                                                                                        ",
"                                                                                                                        ",
"                                                                                                                        ",
"                                                                                                                        ",
"                                                                                                                        "
};
