/* XPM */
static char *result[] = {
/* columns rows colors chars-per-pixel */
"60 60 210 2 ",
"   c #110F0F",
".  c #0F0F10",
"X  c #0F1010",
"o  c #131314",
"O  c #1A1817",
"+  c #1C1C1C",
"@  c #191718",
"#  c #251C19",
"$  c #27211F",
"%  c #3A2F1E",
"&  c #1B1B20",
"*  c #191F29",
"=  c #141C29",
"-  c #1E2123",
";  c #1E232C",
":  c #1B2635",
">  c #1A263A",
",  c #1E293C",
"<  c #16253A",
"1  c #242424",
"2  c #282726",
"3  c #20242B",
"4  c #262A2F",
"5  c #2C2C2C",
"6  c #2E2823",
"7  c #322E2C",
"8  c #392F26",
"9  c #393429",
"0  c #212733",
"q  c #242A33",
"w  c #2C2E32",
"e  c #222B3C",
"r  c #2B2F38",
"t  c #2C3139",
"y  c #343434",
"u  c #34363A",
"i  c #36393C",
"p  c #3C3C3C",
"a  c #38353B",
"s  c #551914",
"d  c #6F211A",
"f  c #4F3E2B",
"g  c #433D32",
"h  c #403E39",
"j  c #56452C",
"k  c #4C4134",
"l  c #48443D",
"z  c #5A4933",
"x  c #5A4B39",
"c  c #564B3D",
"v  c #624D35",
"b  c #6C5436",
"n  c #665236",
"m  c #7F4B34",
"M  c #1E2C45",
"N  c #1E2F4A",
"B  c #1F324D",
"V  c #243144",
"C  c #21324D",
"Z  c #2B364B",
"A  c #3E3F40",
"S  c #373E40",
"D  c #223452",
"F  c #253855",
"G  c #253658",
"H  c #26395A",
"J  c #2A3D5D",
"K  c #293953",
"L  c #212D47",
"P  c #2A3F61",
"I  c #3E4041",
"U  c #3A434F",
"Y  c #2E405F",
"T  c #35445E",
"R  c #2D4266",
"E  c #2D4268",
"W  c #324565",
"Q  c #35496D",
"!  c #3B4C6B",
"~  c #364868",
"^  c #354A73",
"/  c #384D74",
"(  c #3A4F7A",
")  c #395176",
"_  c #3C537D",
"`  c #434343",
"'  c #4C4C4C",
"]  c #474848",
"[  c #5A5347",
"{  c #4C4E51",
"}  c #504F52",
"|  c #525252",
" . c #5B5B5B",
".. c #5E5550",
"X. c #534E46",
"o. c #675947",
"O. c #735E43",
"+. c #715F4B",
"@. c #7B6344",
"#. c #766449",
"$. c #796A53",
"%. c #7E705C",
"&. c #40526F",
"*. c #5E5F60",
"=. c #485877",
"-. c #424F69",
";. c #4E617F",
":. c #55637C",
">. c #646464",
",. c #686868",
"<. c #6A666A",
"1. c #766D67",
"2. c #8A261D",
"3. c #AB251A",
"4. c #954132",
"5. c #876B49",
"6. c #94754B",
"7. c #86755D",
"8. c #8E785A",
"9. c #997D5C",
"0. c #987A52",
"q. c #927D65",
"w. c #807B7D",
"e. c #8B7960",
"r. c #9C815B",
"t. c #AE8758",
"y. c #BB935C",
"u. c #998263",
"i. c #938068",
"p. c #A58A66",
"a. c #B4966C",
"s. c #AF9675",
"d. c #AB967A",
"f. c #B09674",
"g. c #B39974",
"h. c #BA9E76",
"j. c #B28766",
"k. c #BDA176",
"l. c #C99B5D",
"z. c #C39965",
"x. c #CFA266",
"c. c #D7A86C",
"v. c #DFB06E",
"b. c #D9AD75",
"n. c #D2AD78",
"m. c #E4B36E",
"M. c #E9B56F",
"N. c #E1AE72",
"B. c #E5B473",
"V. c #E9B572",
"C. c #E9B975",
"Z. c #E8BE7D",
"A. c #3E5781",
"S. c #3F5789",
"D. c #465B84",
"F. c #505F81",
"G. c #4E6181",
"H. c #5B6A87",
"J. c #66728B",
"K. c #6B7B97",
"L. c #727D93",
"P. c #76829A",
"I. c #7F889B",
"U. c #9E9384",
"Y. c #A79988",
"T. c #828DA4",
"R. c #8993A8",
"E. c #999DAD",
"W. c #979DB5",
"Q. c #9EA5B7",
"!. c #BDB3AF",
"~. c #A3A9BD",
"^. c #D0AD82",
"/. c #CEB088",
"(. c #D6B587",
"). c #D9BD96",
"_. c #CAAC83",
"`. c #ECBE83",
"'. c #E4BD89",
"]. c #E1BF92",
"[. c #C4B8AC",
"{. c #ECC185",
"}. c #ECC48A",
"|. c #EEC98F",
" X c #E4C394",
".X c #EBC694",
"XX c #EDCA96",
"oX c #EECC99",
"OX c #EAC99C",
"+X c #F0CB96",
"@X c #F0CB99",
"#X c #DAC4AD",
"$X c #E7CDA6",
"%X c #E3D4BF",
"&X c #A9AFC0",
"*X c #ACB0C2",
"=X c #B8BBC9",
"-X c #BDBFD0",
";X c #C3C5D3",
":X c #CCCDDA",
">X c #CECBD6",
",X c #F4E5DD",
"<X c #D8D7E3",
"1X c #E6E2E6",
"2X c #EEEAF4",
"3X c #F3ECF4",
"4X c #F4EFF8",
"5X c #F6F1F9",
"6X c #F8F0FA",
"7X c #F2E9E7",
/* pixels */
"` ` ` ` ` ` ` ` ` ` ` ` ` ` ` ` ` I ` ` ` ` ` ` ` ` ` ` ` p 1 y *. .' ` ` ` ` ` ` ` ` ` ` ` ` ` ` ` ` ` ` l I ` ` ` ` ` ",
"` ` ` ` ` ` ` ` ` ` ` ` ` ` ` ` ` ` ` ` ` ` ` ` ` ` ` ` ` i 1 y *.*.' ` ` ` ` ` ` ` ` ` ` ` ` ` ` ` ` ` ` ` ` ` ` ` ` ` ",
"` ` ` ` ` ` ` ` ` ` ` ` ` I ` ` ` ` ` ` ` ` ` ` ` I u 4 ; 0 : , e e 0 u ` ` ` ` ` ` ` ` ` ` ` ` ` ` ` ` ` ` ` ` ` ` ` ` ",
"` ` ` ` ` ` ` ` ` ` ` ` ` l ` ` ` ` ` ` ` ` ` p , V K ~ / ( ) ) _ A.D.R e t p ` ` ` ` ` ` ` ` ` ` ` ` ` ` ` ` ` ` ` ` ` ",
"` ` ` ` ` ` ` ` ` ` ` ` ` ` ` ` ` ` ` ` ` i 3 L ) ^ E R R R R R R R W ) A._ V w ` ` ` ` ` ` ` ` ` ` ` ` ` ` ` ` ` ` ` ` ",
"` ` ` ` ` ` ` ` ` ` ` ` ` ` ` ` ` ` i M ^ Q R R R E Q P.&XR.J.R R E E ! Q.T.L.G./ u ` ` ` ` ` ` ` ` ` ` ` ` ` ` ` ` ` ` ",
"I ` I A ` I p p I ` ` I I ` I I I I K ^ R E R E R R E R &.;X;XQ.W E R E E *X=X-XH.V u ` I ` p ` p ` ` ` I A p A I I I I ",
"w 2 2 2 2 2 2 2 2 5 5 2 2 5 7 7 7 w Q R R R R R R R R R Q ;X2X3X~.! R E Q H.>X<X<XE : 7 5 y y 5 y 5 w 5 5 2 2 2 2 2 2 2 ",
"2 1 @ @ O @ @ @ O + 1 + + 1 1 1 - : R E R E R R E R E R E *X5X5X4XQ.R R E F.;X6X5XR B + + + + + $ 1 1 1 # O O O @ O @ @ ",
"' ] ` ` ` ` ` ` ` ] ] ] ` ] ] ' t Y E E R R E R R E R E R W ~.5X2X;XK.R R R H.3X5XP.Y - 2 + $ 2 y ` ' ] ] ` ` ` I ] ] I ",
",.,.,.,.,.,.,.,.,.,.,.,.,.,.,.,.e R R E E ~ -.~ E W E E R D ~ -X>XQ.H.E P P R &X2X=XQ : y + 1 y ' >.,.,.,.,.,.,.,.>.,.,.",
"*. . . .*. .*. . . .*. . .*. .4 Y E E G.J.P.E.:X5X<XT.Q R R F B ;.P.G.R P H H H L.=.R > p 1 5 }  . . . . .*. . .*.*. .*.",
"| | | | | | | | | | | | | | | 0 R E Y F D D T J.2X<XR.W R H H B K W H.J P D D B ! H.R : ] 2 y  .>.| | | | | | | | | | | ",
"| | | | | | } | | | | | | | | e R Y D B D C D C T T.L.L.D D D D D D K D D D D C D =.Y : ] 7 i *.>. .| | | | | | | | | { ",
"| | | | | | | | | | | | | | | e Y Y D B C D D C D K W ~ J D D D D C C C N N B C D D B 4 ] 7 i *.*. .| { | | | | | | | | ",
"| | | | | | | | | | | | | | | e D B D D B M M M C D D B D B B < = + 6 j b v j 8 + B , i ` 5 y  .>.| | | | | | | | | | | ",
"| | | | | | | | | | | | | | | : B B , 4 k [ #.o.7 : N B N 7 v 0.x.C.V.V.C.V.V.V.m.v & ' I 2 7 |  .| | | | | | | | | | | ",
"' | } } } | } } } | | { } | | q < y g.g.s.s.s.s.s.g.#.z c.}.+X@XoX@XoXoXoXoX@X@X@X{.5.I y 4 5 i ` } { | } | | | ' | | | ",
"h I p I h p p p h p I h h h h 4 o 7.s.s.s.s.s.s.k.B.0.< A  X@X@X@X@XoXoXoXoX@X@XoX'.z y 2 2 2 4 7 p p p p h p p p I I h ",
"1 1 1 1 1 1 1 1 - 1 - $ - - 1 - - c s.s.s.s.g.s.B.C.g.q < a q.].oXoX@XoXoXoXoXoX Xi = - - 2 2 # + 1 1 1 1 1 1 1 1 1 1 1 ",
"h I I p I p I l p 7 1 + + $ 5 y I y s.s.s.s.s.h.V.|.XX Xs.t < 0 ..p. XoXoXoX(.%.u 7.@.p I ` ` p I h p I l p p p p S h I ",
">.*.*.>.*.*.*.>. .] y 1 + 5 I  .*.| g.g.s.s.g.b.}.+XoX.Xs...' ` 0 = t p.@X X%.y a $.@.*.>.>.>.>.>.>.*.>.*.*.>.>.>.>.*.>.",
" . . . . . . . .| ] y 2 1 I | |  . .t.b 7.s.b.M.oXXXq.w.3X6X=X:.A.A.)  XoXoX[.7XG.F.}  . . .|  . . . . . . . . . . . . .",
"` ` ] ` ] ] ` ] ] ] p 2 2 } >.} ] I t.z.z a.M.M.oXoX.Xd.3X6XT.K.G G D.).oXOX1X3X&.F.] ] ] ` ] ] ` ] ] ` ] ` ` ] ` ` ] ` ",
"` ` ` l ` ` ` ` ` ` p 1 1 { >.' ] p x.0.O.@.V.V.oXoXoXoX,X5XE._ ^ ^ S.%XoX$X7X5XR.1.i ` ` ` ` ` ` ` ` ` ` ` ` ` ` ` l I ",
"` ` ` ` ` ` ` ` ` ` p 1 + } >.} ` I v.0.p.5.V.C.XXoX@X@X$X5X1XJ._ ) :.$XoXoX$X#X#X7.h ` ` ` ` ` ` ` ` ` ` ` ` ` ` ` I ] ",
"` ` ` ` ` ` ` ` ` ` I 2 2 | ,.' ` ` N.p.b.l.M.V.oXXXoX@XoXY.!.[.U.d.].@X@XXX@XOXoX$.` ` ` ` ` ` ` l I ` ` ` ` ` ` ` ` ` ",
"` ` ` ` ` ` ` ` ` ` I 2 2 | >.' ` ` z.c.m.V.M.M.}.+X+XoXoXXXOXOXoXoXoXXXoX Xn.OX@X$.l ` ` ` ` ` ` ` ` ` ` ` ` ` ` ` ` ` ",
"` ` ` ` ` ` ` ` ` ` p 2 2 | >.' ` ` ` p k 0.M.M.M.M.V.{.oXoXoXoXoXoXoXXX@X@X(. X@X/.p ` ` ` ` ` ` ` ` ` ` ` ` ` ` ` ` ` ",
"` ` ` ` ` ` ` ` ` ` p 2 2 '  .' ` ` ` l ` p 0.m.m.m.V.M..XoXoXoXoXoXXX XOXoXXXoX@X7.` ` ` ` ` ` ` ` ` ` ` I ` ` ` ` ` ` ",
"` ` ` ` ` ` ` ` ` p y 1 1 y ` ` ` ` ` ` l I p #.M.V.M.M.C.@XoXoXoXoX@Xk.q.g.XXOX.Xl ` ` ` ` ` ` ` ` ` ` I l ` ` h I I l ",
"y p y y p i y y y y 2 - + 2 5 y y p y y p y y y @.l.M.M.M.{.+X@XoXoXoXXX+X+XoXh.[ i y y y y p y p y i y u p i y p y p p ",
"1 1 1 1 $ 1 $ $ - 1 + + + + $ 1 $ - 1 1 1 1 1 1 3 $ j 5.y.V.C.`.}.+X@X.X_.u.[ 6 1 $ 1 1 1 1 1 + $ 1 1 $ 1 1 + $ $ $ 1 - ",
"p y y p p y i i p i p y p y y p p i p y i y i u # 7 1 7 2 8 f z n o.o.p y i i p p y y 2 + + + 1 5 y p i p i p p i i i p ",
">.>.>.>.>.>.>.>.*.>.>.>.>.>.>.*.>.>.>.>.>.>.] & y w 2 y y 7 y y y >.>.*.>.>.>.>.>.>. .I 5 + 1 5 ]  .>.>.*.>.>.>.>.>.>.>.",
"*.>.*.>.>.*.>.>.>.>.*.>.>.*.>.>.*.>.>.>.>. .x 9 y 2 5 y y 5 y i 5 *.*.>.*.>.>.>.*.>. .' p 1 2 ` |  .>.>.>.*.>.*.>.>.*.>.",
"| .. .| |  .| | |  .| | | | | | | | ..| | | x.(.i.O 2 y y 5 y y + ] | ..|  .| | |  .| | ` 2 y  .>.| | |  .| | | | | | | ",
"| | | | } } | | | | | | | | | | | | | | | ] v.XXu.o & 7 y y 2 y O 9 ` | | { | | { | | | ` 2 y  .>. .| | | | | | | | | | ",
"| | | { | | | } | | | | | | | | | | | | | l c.|.5.# + 1 y y y y $ 2.d | | | | | | | | { ` 2 y  .>.| | | | | | | | | | | ",
"| | | | | | | | | | | | | | | | } | | | | ` m 4.3.s @ + 3 7 y y $ 2.j.` ' | | | | | | | ] 2 y *.>.| | | | | | | | | | | ",
"| | | | | | | | | | | | | | | | | | | | | | c v.oX'.r.7 y 5 y y 1 t.{.0.O.#.X.| | | | } l 2 7  .*.| | | | | | | | | | | ",
"| | ' | | | | | | | | | | | | | | | | | | | ' z.`.{.^.7 2 2 1 3 ; 6.m.% z n [ | | | } ] y - 2 I ] | | | | | | | | | | | ",
"] ] ] ] ] ] ] ] ] ] ] ] ] ] ] ] ] ] ] ] ` ` X.5.+X+X Xc e K J P D 6 @.r.b #.p ] ] ] ` y 5 + - 5 i ] ] ] ] ] ] ] ] ] ] ] ",
"5 5 5 5 5 5 5 5 5 5 5 6 5 5 5 5 5 5 5 5 5 5 2 k Z.`.(.8., G R R D ; 1 O.8.2 5 5 5 5 2 1 + + + + $ 5 5 5 5 5 5 6 5 5 5 2 ",
"7 5 5 5 5 5 7 5 5 1 - + O + $ 4 5 5 5 5 5 5 5 5 y.@.f q = D R R R C 4 O.4 5 5 5 5 5 5 5 7 5 7 5 5 5 5 5 5 5 5 5 5 5 5 5 ",
" . . . . . . . .| I 5 $ + 2 p |  . . . . . . . .+ 3 7 w i M H R R R V  . . . . . . . . . . . . . . . . . . . . . . . . .",
",.,.>.,.>.>.>.,.>.' i $ 1 i ] *.>.,.>.>.>.,.>.,.& 3 3 q ' *.> H R ! S >.>.,.>.>.,.>.>.>.,.>.,.>.>.,.>.>.,.>.>.,.>.>.>.>.",
"| |  .|  .|  . .| | ] 5 1 X.*. . .|  . .|  . .| J P J Z '  .c i.s.).p  . .|  . .|  . .|  . .|  . .|  . .|  . .|  . .|  .",
"| | | | | | | | | | ' 5 5 | >. .| | | | ' | | ` ,.! ~ U { | +.Z.XX Xy { | | | | | | | } | | | | | | | | | | | | | | | | ",
"| | | | | | | | | | ] y 5 | >. .| | | } | | | p }. Xi.' | | +.{.|.).y | | | | | | | | | | | | | | | | | | | | | | | | } ",
"| | | | | | | | | | ' w 5 | ,. .| | | | | | ' + 9./.o.| | } $ 9 g g 5 | | | | | | | | | | | ' | | | ' | | | ' | | | | | ",
"| | | | | | | ' | | ] 7 2 | >. .| | | | | ' O + y u w i } ] X + 2 y 7 I | { | | | | | | | | | | | | | | | | | | | | | | ",
"| | | | | | | | | ] h 2 1 h | | | | | | | I o + 5 y w 5 w y o + + 7 y 5 y | | | | | | | | | | | | | | | | | | | | | | | ",
"' ' ' ' ' ' ' ' ] S y 1 - 5 i ] ' ' ' ' ' S X X X o o o X w X X o o o o X ` ' ' ' ' ' ' ' ' ' ' ' ' ' ' ' ' ' ' ' ' ' ' ",
"y y y y y y y y y 5 $ - + - 2 y y y y y y y 5 5 5 5 5 5 w w 5 5 5 2 4 5 5 y y y y y y y y y y y y y y y y y y y y y y y ",
"1 1 1 1 $ 1 1 1 1 1 1 1 1 $ 1 1 1 1 1 1 1 1 1 2 1 1 2 1 1 + + + + - 1 1 1 1 1 - 1 1 1 1 1 1 1 1 1 1 1 1 1 1 - $ 1 1 1 2 ",
"{ ' | ' { | ' ' | ' | ' ' | ' | } | ' | ' | ' ' | | ' ] y 2 + + 2 y ' } ' | ' | | ' | ' ' | ' | | | ' ' | | ' | ' | | ' ",
">.,.,.>.>.>.>.,.>.>.>.,.>.>.>.>.>.>.>.>.>.>.,.>.>.>.,. .` y - 1 i ' *.>.>.>.>.>.>.>.,.>.>.>.>.>.>.>.,.>.>.>.>.>.>.>.>.>.",
"{ | | ' | | | | | | | ' | | | | | | | | | } } | | | | ' I y 1 5 | | | | | } } } | | | ' | | ' | | | | | | ' | | } | | | ",
"l ] I l ` ` I I l ` ` ` ` ` I I I I l I ` ` I ` I ` I l l p 1 y *.*.] l ` ` ` ` I ` ` ` ` ` ` l I I l I ` ` I ` I ` I l "
};
