/* XPM */
static char *_0d336c046174ac4f29bddc517c4cdbcLmmsFJjKet86vfhU[] = {
/* columns rows colors chars-per-pixel */
"60 60 195 2 ",
"   c #0C0C0D",
".  c #0E1012",
"X  c #131313",
"o  c #17191A",
"O  c #1C1C1C",
"+  c #24211E",
"@  c #0D1521",
"#  c #141A22",
"$  c #1C1E21",
"%  c #121C2C",
"&  c #101C30",
"*  c #1F2122",
"=  c #1A212B",
"-  c #132135",
";  c #1A2538",
":  c #232323",
">  c #2B2924",
",  c #262729",
"<  c #2B2B2B",
"1  c #362D23",
"2  c #2E302E",
"3  c #34322C",
"4  c #262B32",
"5  c #2B2D32",
"6  c #232938",
"7  c #2E3132",
"8  c #2C333E",
"9  c #343434",
"0  c #3C3936",
"q  c #373738",
"w  c #32353C",
"e  c #3D3D3D",
"r  c #6D271C",
"t  c #472824",
"y  c #483C2B",
"u  c #473E33",
"i  c #423F3B",
"p  c #5B462D",
"a  c #49423C",
"s  c #5F4D36",
"d  c #554B3D",
"f  c #624E36",
"g  c #755D3D",
"h  c #172944",
"j  c #192A46",
"k  c #1B2D4D",
"l  c #1C314F",
"z  c #1B3252",
"x  c #1E3458",
"c  c #2A3445",
"v  c #22334D",
"b  c #3C3E42",
"n  c #313B4C",
"m  c #223554",
"M  c #23365B",
"N  c #243A5C",
"B  c #293C5A",
"V  c #253B61",
"C  c #293F64",
"Z  c #3F4143",
"A  c #2A4066",
"S  c #2B4269",
"D  c #31466A",
"F  c #31486B",
"G  c #354C74",
"H  c #3A4D71",
"J  c #364E79",
"K  c #3A527A",
"L  c #3D537B",
"P  c #424242",
"I  c #4B4646",
"U  c #43464A",
"Y  c #474A4D",
"T  c #4D4D4D",
"R  c #504E4C",
"E  c #575146",
"W  c #4D4E50",
"Q  c #484B58",
"!  c #4F5050",
"~  c #525252",
"^  c #575A5B",
"/  c #5B5B5B",
"(  c #675B4B",
")  c #725E46",
"_  c #615E57",
"`  c #6E604D",
"'  c #7C6343",
"]  c #7F674F",
"[  c #6E6456",
"{  c #7B6A53",
"}  c #70675A",
"|  c #404E66",
" . c #545760",
".. c #475673",
"X. c #475A7C",
"o. c #4B5C7C",
"O. c #52627F",
"+. c #646464",
"@. c #686868",
"#. c #75716E",
"$. c #8E2618",
"%. c #9E4432",
"&. c #8A6947",
"*. c #816B4D",
"=. c #89704E",
"-. c #97784D",
";. c #8C6751",
":. c #8C7452",
">. c #85745B",
",. c #977854",
"<. c #AB6249",
"1. c #877964",
"2. c #857B77",
"3. c #A68558",
"4. c #B88F56",
"5. c #BA915B",
"6. c #8D8069",
"7. c #988468",
"8. c #A98C66",
"9. c #A58D6B",
"0. c #A7906E",
"q. c #BC9663",
"w. c #AD9474",
"e. c #B09776",
"r. c #B19876",
"t. c #BC9D73",
"y. c #BA9F79",
"u. c #BDA27A",
"i. c #C18C67",
"p. c #C99D62",
"a. c #C59E6D",
"s. c #CDA264",
"d. c #D2A66A",
"f. c #D6A76A",
"g. c #C6A474",
"h. c #C3A47B",
"j. c #DEB072",
"k. c #E0AD6B",
"l. c #E7B46E",
"z. c #E7B471",
"x. c #EAB572",
"c. c #E8BA7B",
"v. c #EBBA7B",
"b. c #3B5482",
"n. c #4F6285",
"m. c #546482",
"M. c #576888",
"N. c #647089",
"B. c #6E7C94",
"V. c #77849A",
"C. c #858386",
"Z. c #91919C",
"A. c #AA9883",
"S. c #838DA5",
"D. c #8790A5",
"F. c #8C95AB",
"G. c #919AAE",
"H. c #969EB2",
"J. c #B6ADAB",
"K. c #A4A8B7",
"L. c #D5AF80",
"P. c #D2B587",
"I. c #D2B78F",
"U. c #DCBB8E",
"Y. c #ECBF84",
"T. c #E6BF8C",
"R. c #DFC191",
"E. c #DCC19C",
"W. c #ECC286",
"Q. c #EDC58D",
"!. c #F1C68D",
"~. c #E5C494",
"^. c #ECC692",
"/. c #EDC994",
"(. c #EECD99",
"). c #F0CA96",
"_. c #F0CC9A",
"`. c #CFC1AC",
"'. c #D1C3B6",
"]. c #F0D2A7",
"[. c #E7D2B5",
"{. c #B5B9C9",
"}. c #BABECC",
"|. c #BFC1CF",
" X c #D0CACB",
".X c #C7C8D6",
"XX c #E6DBCF",
"oX c #DBD9E5",
"OX c #E1DFE9",
"+X c #E5E3ED",
"@X c #EAE6EF",
"#X c #EFEBF2",
"$X c #F3EDF3",
"%X c #F6F1F9",
"&X c #F8F0FB",
/* pixels */
"P P P P P Z Z P a Z Z e P P b Z a Z P e Z e P P a U / +.7 O q P P P P e P P P P P P e P P P P P P P P P P P P P P e P P ",
"P P P P a b b a P P Z P a P Z a Z Z P P Z a P Z P P / +.7 O q P P e P P P P e P P P P P P P P e P P P P P e P P P P P P ",
"e P P e P b Z P P e a P Z e P P Z a P a Z Z e P P U [ / < O q a P P e P P P P P P P P P P e P P P P P e P P P e P P P P ",
"P P P P P Z a Z Z Z Z P Z Z P P Z b Z Z Z a Z P P U / ^ < o 9 Z P P P P P e P P P P P e P P P P e P P P P P P P P e P P ",
"P e P P P P P P Z Z Z e P P P P Z a P Z a Z Z Z P Y / / , X 9 P a Z P P P P P P P e P P P P Z Z P P P Z e P P P P P P P ",
"a P P P P e P P a P P P e P P P Z b Z Z Z Z a Z a P ! P : X < q e P P P P e P P P P P P P e a Z e P P a P P e P Z a e Z ",
"e e e e e e e e e Z Z a P e i e e P e a e a Z P b e 0 2 O o , q e P e P e e P P e P e P e P e e e e e e e P e e P e e Z ",
"* * : : * : + , < < , < < , < < < < , < , < , < < , : O o X + : , < < < < < < , < < , < < < , + : < , : * * + * : : , < ",
". X . . X X X o O + * O o o X o o * * * : + $ + + * * O O O O : : * O * + O + + * + : + O : O X X * o X . . X . . X O * ",
"P P Z a P P P P I U P 2 + o o + < a P I P Y P U P 7 4 4 4 4 5 q P U Y I I U U Y P Y P U I Y P P P U P a P Z a Z a Z U P ",
"@.@.@.@.@.@.@.@.@.@.+.Y 2 O O < P +.@.@.@.@.Y n S L b.K J H G S N c c ^ @.@.@.@.@.@.@.@.@.@.@.@.@.@.@.@.@.@.@.@.@.@.@.@.",
"/ / / / / / / / _ / / ^ T , * 0 Y ^ _ / T A G L m.S S A A A S S H F S V n Y / / [ / / +./ / / / / / / / +./ / / / / / _ ",
"~ ~ ~ ~ ~ ~ ~ ~ ~ ~ ~ @./ 9 , P R ~ ~ w S m.M.F.H S A A H V.M.S.n.C C S D A c ~ ! ~ ~ ~ ~ ~ ~ ~ ^ ~ ~ ~ ~ ~ ~ ~ ~ ^ ~ ~ ",
"~ ~ ~ ~ ~ ~ ~ ~ ~ ~ ~ +./ q < P R ~ b S N.K.{.o.A A A n.{..XD.H C S C C S S S c ! ~ ~ ~ ~ ~ ~ ~ ~ ~ ~ ! ~ ~ ~ ~ ~ R ~ R ",
"~ ~ ~ ~ ~ ~ ~ ~ ~ ~ ~ +.+.q , I ~ T v H +X+XS.H A S m.+X%X|.o.S S C A A A A A S c Q ! ~ ~ ~ ~ ~ R ! ~ ~ ~ ! ~ ~ ~ ~ ~ ~ ",
"~ ~ ~ ~ ~ ! ~ ! ~ ~ ~ @./ 9 : P R w N {.%X+XX.A S S .X$X+Xo.C A C C S C S C A A N Z ~ ! ! ~ ~ R ~ ~ ~ ~ ~ ~ R ~ ~ ~ ~ ! ",
"~ ~ ! ~ ~ R ~ ~ ~ ~ ~ / ! < : e T ; O.|.#XD.C C A X.H..XN.x C C S S H X.H C A A A 8 ! ! ~ ~ ~ ~ ! ~ ~ ~ ~ ~ ~ R ~ ~ ~ ~ ",
"! ! ! ! ~ ! ! ~ ! R T P q , : 9 e = H G.K.F N V A A G.B.m N C A X.K.oX}.H.V.X.A A v U ! ~ R T ~ ~ ~ ! R ! ~ R ! T ~ T ~ ",
"e e e e e e e e e e 0 < : + + : , % A G.o.z z V V F m.B z N V D G.@XoXS.| A A A A m 7 e e e e e q e e e e e e e e e e e ",
"O O * O O O O O * O O o o * * o o o N O.l l l l z z l z z z N ..V.N.v l l l j z A A o O O O o O o O O O O O * O O O O O ",
"i q e e q e e q e q e e e P P e e 4 j l j - % % & - h z z l z m v l l z l z l l l m 5 b 9 , o X o O < e q e e q e q e e ",
"+.+.+.+.+.+.+.+.+.+.[ +.+.+.+.+.+.~ 6 f -.5.s.d.p.5.,.' a 5 h k k ; 9 a a q 6 j l j Z +.^ e > o O < P / +.+.+.+.+.+.+.+.",
"/ / ~ / / / ^ / / ^ ^ ~ / / ~ ^ ^ ~ :.v.W.!.).).)./.!.W.v.f.&., < 6.w.e.e.w.7.d ; h U ^ ~ R P * : 9 I ~ / / / / / / ~ / ",
"P P P P P P P P P P U Z P I P P P P 3._._._._.(.(._.)._././.g.d ] u.e.e.e.e.e.w.{ @ e P Y +.! : : e P U P P P P P P P P ",
"P P P i P P P P e P P P P e Z P P e 7 w.(._.(.(.(.)._._.P.} - - 8.x.g.r.e.e.e.e.>.< e P Y +.R O + 0 e P P P P e Z Z Z P ",
"P P P P P b P P P P P P Z a Z Z P e :./ 9 1.R.(.(.~.7.Y - Z 7.P.(.Q.z.t.r.w.e.r.a P P e T @.R o O q P P P P P P a P e P ",
"P P P b P P i P P P P P Z P P a e e ( Z Q } I.(.7.a = Z Z.6.#.0.~._.v.z.r.e.0.7.q a Z P T +.~ : * e P P a P P P P P P P ",
"P i P P P P P b P e P P Z P e P P P  .J M. X~.(.~.Q J K K.&X$XZ.:.(.Q.x.g.9.) f e Z Z a T +.~ : : e P P Z P e P e P P P ",
"i P P P P P P P P P P P Z a P P P P T J H @X[.).`.K A G B.%X&X'.~.(./.x.d.) 3.5.0 P Z a T +.R : , e Z Z Z e P P a Z Z e ",
"Z P P e i b P P P P e P Z Z e P e Z I #.K.OX[._.XXM.b.L D.%X#X].(.(.).x.p.f q.s.0 P Z Z U ^ T : * 0 e Z Z P P P P P Z P ",
"P P P P b i P P e P P P P P Z P Z a 0 ~.(._._.(.(.E.2.C.}.J.I._._.)./.x.j.a.t.p.q P P P a b 2 O O 9 q a e P P P P Z P P ",
"9 9 9 9 q 9 9 9 9 9 9 9 9 9 9 9 9 q 2 ~.(.U.U.(.(.(.(.(.^./._._./.^.v.z.l.l.f.' 9 9 9 9 9 , + o o : < 9 9 9 9 9 9 9 9 9 ",
"O O O O O O O O O O O O O O O O O O u (.(.h./.(.(._._.(.(.(.(./.x.x.x.x.k.5.&.O O O * * O O o X X O O O * O * $ * O * O ",
"q q q q q w q q q q 9 > O X X O : 2 a ~.(.(.(._.~._.(.(.(.(.(.Y.x.x.x.x.=.q q q q 0 q w 9 9 q 9 w w 9 q q 9 q w 9 q q 9 ",
"+.+.+.+.+.+.+.+.+.+./ P > O o , e ^ +.[ U._.P.7.P.(.(.(.)._.W.x.x.z.s.` / +.+.+.+.+.+.+.+.+.+.+.+.+.+.+.+.+.+.+.+.+.+.} ",
"+.+._ +._ +.+.+.+.+./ ~ P : O q Y / +.@./ 6.U.(.(.(.(._.!.v.x.l.4.s ~ } +.+.+.@.[ / +./ +.+.+./ / [ +.+.} / +./ / +.+./ ",
"~ ~ ~ ~ ^ ~ ~ ~ ^ ~ ~ +./ < : P ! ~ ~ ~ ^ ~ ~ } 6.9.9.-.=.&.f 3 O * * T ~ ~ ~ ~ ^ ~ ~ ~ ~ ~ ~ ~ ~ ^ ~ ~ ~ ~ ^ ~ ^ ! ~ ^ ",
"~ ! ~ ~ ~ ~ ~ ! ~ ~ ~ +./ 2 : P ~ ~ ~ ~ R ~ ~ ~ ~ ~ ! * < 2 2 2 : 2 : < ~ ~ ~ ~ R ~ ~ ~ ! ~ ~ ~ ! ~ ~ ~ ~ ~ R ~ ~ ! ! ~ ",
"~ ~ ~ ~ ~ ~ ~ ~ ~ ~ / +.+.2 : P R ~ ~ ~ ~ ~ ~ R ! ~ T , 9 < 2 9 > , 2 O P ~ ~ ~ ~ ~ ~ ! ~ ~ ~ ~ ~ ~ ~ ~ ~ ~ ~ ~ ! ~ ~ ~ ",
"~ ! ~ W ~ ~ ~ ~ ~ R ~ +./ 2 : P ~ ~ ! ~ ! ~ ~ ~ ~ ~ P : 2 , 7 2 : 0 >.t.:.~ ~ ~ ~ ~ ~ ~ ~ ~ ~ ~ ~ R ~ ~ ~ ~ ~ R ~ ~ ! ~ ",
"~ R ~ ~ ~ ~ ~ ~ ~ ~ ~ +.~ < : P ! ~ ~ ~ ~ ~ ~ ~ ~ Z t + 2 5 2 < o 1 /._.,.! ~ ~ ~ ~ ~ ~ ~ ~ ~ ~ ~ ~ R ~ ~ ~ ~ ~ ~ ~ ~ ~ ",
"~ ~ ~ ~ ~ ~ ~ ~ ~ ~ ! T i : O 9 P T R ~ ~ ! ~ R I ;.$.> 3 3 5 * X r <.i.*.! ~ ~ ~ ~ ~ ~ ~ ~ ! ~ ~ ~ ~ ~ ~ ! ~ R ~ ~ ~ R ",
"P Y P I P I I P P I P 9 , O o : 9 P I P P I U E *._.;.> 5 < O o + ,.%.$.t I P I P P Y P I P P Y P Y U I P I U U P U P I ",
"> , , , , , , , , , : * o X X o O , , > , < { =.g Y.8.+ < < < 2 8.T.!.f.+ : , , , > > , , , , > , > > , , , > , , > , , ",
", > , , , > < , > , , , > , > < > , , < , , y p y &.' k ; = = > h.!.v.-.> , < > , > , , , O o X X o + , , , > > , < > , ",
"/ / / / / _ / / / / / / / / / / / _ / / / / I *.g u 5 M C M m ( T.!.v.( / / / / / / / ^ T 9 : X o > e ~ / / / ^ / / / / ",
"@.@.@.@.+.+.+.+.@.+.@.@.@.@.+.@.+.+.+.+.@.@.+.! ` / m C A l n $ y *.,.[ +.+.@.@.@.@.@.@./ Y 9 O : q T +.@.@.@.@.@.@.@.@.",
"~ ~ ^ ~ / ~ ^ ^ ~ ^ ~ / ~ ~ / ~ / ~ ^ ^ ^ ~ ^ ~ ^ U C C V 6 ~ , > O % ~ ^ ^ ~ ~ ^ ~ ^ ~ / [ T : < P R ~ ^ ~ ~ ^ ~ ~ ^ ~ ",
"~ ~ ~ R ~ ~ ~ ~ ~ ~ W ~ ~ ~ ~ ~ ~ W ~ ~ ~ ~ W ~ ~ Z | C j P ~ 4 * : # W ~ ~ ~ W ~ ~ W ~ ^ +.~ , < I R ~ ~ ! ~ ~ ~ ~ ~ ~ ",
"~ ~ ~ ~ ~ ! ! ~ ~ ~ ~ ~ ~ R R ~ ~ ~ ~ W ~ ~ ~ ~ ~ U u.y.] ~ ~ n C C 6 W ~ ~ ~ ~ ~ ~ ~ ~ / +.~ , < I ~ ~ ~ ~ ! ~ ! ~ W ~ ",
"~ ~ ~ ~ ~ ~ ~ ~ R ~ ~ ~ ~ ~ ~ ~ ~ ~ ~ ~ ~ ~ ~ ~ ~ U y.W.7.~ ~ Y #.A.L.P ~ T ~ ~ ~ R ~ R / @.~ , < I ~ ~ ~ ~ ~ ~ ~ ~ R ~ ",
"~ R ~ ~ ! ~ ! ~ ~ ~ ~ ~ ~ W ~ ~ ~ ~ R ~ W ~ ~ R ~ P d ) y T ~ ! ( y.=.: W ~ ~ ~ ~ ~ ~ ~ ~ +.~ : < Y ~ ~ R ~ W ~ ~ ~ ~ ~ ",
"~ ~ ~ ~ ~ R ~ ~ ~ ~ ~ ~ ~ ~ ~ ~ ~ ~ ~ ~ ~ ~ ~ ~ ~ 9 5 * . P ~ ~ 5 2 * X b ~ ~ ~ ~ ~ ~ ~ ~ ~ i O : e I ! ~ ~ ~ ~ ~ ~ ~ ~ ",
"T I T R Y T T T W I I W T T I T T T I R T I T b 2 5 < o X w I 2 5 2 O X * I T T W I T T P q , o O < e Y T Y T I T T Y T ",
"< 2 2 2 2 2 < < 2 2 2 2 < 5 < 2 < 5 < 5 2 2 < X X X .     o o   .       X 5 < < 2 2 2 2 < : O X o + , < 2 < 2 < < < < < ",
"* * O * * O : : * + * + O * * * O * $ + + * * $ * O o X X X o o O + O : O $ : : * * + O * : * O O O : O : $ : : + : : * ",
"R ~ T R R W T ~ T ~ T T T T R T ! ! R R ~ T T ~ T U 9 * o o + 9 I T T T T T T T T T T T T T T T R T T T T T T T T T T T ",
"+.+.@.+.+.+.+.+.+.+.+.+.+.+.+.@.@.+.+.+.+.+.+.+.+.+.I 9 O O < P / @.+.@.+.@.@.+.@.+.+.@.@.+.+.@.@.@.+.@.@.@.+.@.+.@.@.+.",
"T W W R T T ~ T T T ~ ~ T ~ T T R T ~ ! T R W T ! ~ / T , O 9 P T T T T T T T T ! ! T W T T ~ T T T T T W T R T ! T T T ",
"P P P P P P P P P P P P P P P P P P P P P P P P P P +./ 2 O q P P P P P P P P P i P P P P P P P P P P P P P P P Z b a P "
};
