/* XPM */
static char *e237a1289176461d89736be08d8189ccUH9w4Xuv8R8zulaD[] = {
/* columns rows colors chars-per-pixel */
"60 60 221 2 ",
"   c None",
".  c #3F0E0C",
"X  c #48261B",
"o  c #4B341B",
"O  c #42301E",
"+  c #513C1E",
"@  c #46200F",
"#  c #482823",
"$  c #4C3825",
"%  c #533C23",
"&  c #553728",
"*  c #593C33",
"=  c #50362A",
"-  c #603C2D",
";  c #58431F",
":  c #795C18",
">  c #6F4C1F",
",  c #7B6C0D",
"<  c #7B720D",
"1  c #7D790D",
"2  c #787407",
"3  c #7C6616",
"4  c #7D7815",
"5  c #54442C",
"6  c #584729",
"7  c #5D542E",
"8  c #5C4D33",
"9  c #5C4D3A",
"0  c #584536",
"q  c #5C5334",
"w  c #5E533B",
"e  c #5A5636",
"r  c #4E4223",
"t  c #644B26",
"y  c #734E24",
"u  c #675529",
"i  c #765A29",
"p  c #634B33",
"a  c #635432",
"s  c #645A35",
"d  c #63553D",
"f  c #645B3C",
"g  c #6A5D3B",
"h  c #6B5937",
"j  c #705F33",
"k  c #7B6B2B",
"l  c #796A25",
"z  c #7E742A",
"x  c #6B633C",
"c  c #6D6535",
"v  c #73663A",
"b  c #756C3D",
"n  c #756733",
"m  c #75753C",
"M  c #7A733D",
"N  c #7A7937",
"B  c #6F6E2C",
"V  c #5E5847",
"C  c #645B43",
"Z  c #675944",
"A  c #6C6444",
"S  c #6E6944",
"D  c #6C6649",
"F  c #686348",
"G  c #736C43",
"H  c #736D4B",
"J  c #756A46",
"K  c #757344",
"L  c #7C7344",
"P  c #7D7B43",
"I  c #76714C",
"U  c #7B744C",
"Y  c #7E7D4B",
"T  c #736E51",
"R  c #7B7652",
"E  c #797657",
"W  c #816A13",
"Q  c #817414",
"!  c #83791A",
"~  c #835B21",
"^  c #816A28",
"/  c #847C2C",
"(  c #837828",
")  c #867D36",
"_  c #847C4B",
"`  c #897E4B",
"'  c #827745",
"]  c #827C53",
"[  c #837E5B",
"{  c #887D51",
"}  c #7F8209",
"|  c #7F8111",
" . c #7E813D",
".. c #7F8146",
"X. c #84890E",
"o. c #848414",
"O. c #868913",
"+. c #868B1C",
"@. c #898C1B",
"#. c #898917",
"$. c #8C921E",
"%. c #85822C",
"&. c #8A8E2A",
"*. c #888826",
"=. c #8D9224",
"-. c #8D922D",
";. c #909425",
":. c #92962B",
">. c #94982C",
",. c #858234",
"<. c #8A8535",
"1. c #8C8B34",
"2. c #85853C",
"3. c #8B8C3C",
"4. c #86893F",
"5. c #8E9333",
"6. c #8E923B",
"7. c #879032",
"8. c #919533",
"9. c #959934",
"0. c #999C33",
"q. c #92953B",
"w. c #95993B",
"e. c #9A9D3D",
"r. c #9EA03C",
"t. c #A0A33B",
"y. c #848344",
"u. c #8B8C44",
"i. c #84844B",
"p. c #8B844D",
"a. c #8B8B4B",
"s. c #878945",
"d. c #8E9143",
"f. c #8E904E",
"g. c #929544",
"h. c #959A44",
"j. c #9A9D44",
"k. c #93934C",
"l. c #96994B",
"z. c #9B9D4B",
"x. c #999648",
"c. c #848253",
"v. c #8C8353",
"b. c #8D8C53",
"n. c #86825D",
"m. c #8C8B5A",
"M. c #89865A",
"N. c #938C56",
"B. c #948C5A",
"V. c #948955",
"C. c #8F9155",
"Z. c #949453",
"A. c #969953",
"S. c #9C9C53",
"D. c #93935A",
"F. c #9C935A",
"G. c #9D9D5B",
"H. c #989958",
"J. c #918F4C",
"K. c #A19F5A",
"L. c #A09F4A",
"P. c #9EA144",
"I. c #9EA24B",
"U. c #9EA251",
"Y. c #A2A444",
"T. c #A3A44C",
"R. c #A6A94D",
"E. c #AAAA4D",
"W. c #A8AA43",
"Q. c #A4A553",
"!. c #A6A954",
"~. c #ABAB54",
"^. c #A4A45B",
"/. c #A6A95A",
"(. c #ACAC5B",
"). c #A8A658",
"_. c #B0AF5C",
"`. c #B0AF55",
"'. c #AEB05D",
"]. c #AFB057",
"[. c #B0B056",
"{. c #B1B15C",
"}. c #918E66",
"|. c #999564",
" X c #918E68",
".X c #A39964",
"XX c #A99D65",
"oX c #A39965",
"OX c #A4A362",
"+X c #ACAD62",
"@X c #AAA768",
"#X c #B1AA6A",
"$X c #AFB163",
"%X c #B2B364",
"&X c #B4B56A",
"*X c #B9B96D",
"=X c #B7B86A",
"-X c #B7AB75",
";X c #BEB27C",
":X c #B8B870",
">X c #C1B67D",
",X c #C9BC7F",
"<X c #C9BD83",
"1X c #C5B981",
"2X c #CDC289",
"3X c #D1C58B",
"4X c #D4C88D",
"5X c #D6CA92",
"6X c #D9CD95",
"7X c #DACF99",
"8X c #D1C690",
"9X c #DCD097",
"0X c #DDD29C",
"qX c #E1D59E",
"wX c #E2D6A1",
"eX c #E6DAA3",
"rX c #EADDA6",
"tX c #EADFA8",
"yX c #EDE2AA",
"uX c #F0E5AE",
"iX c #F2E7B1",
/* pixels */
"                                                                                                                        ",
"                                                                                                                        ",
"                                                                                                                        ",
"                                                    i 3 l l l k k k ^                                                   ",
"                                          y l k (  .5.q.q.w.h.g.6.6.3.<.) ) k                                           ",
"                                      : ^ %.7.q.w.h.I.U.h.h.I.P.U.I.P.h.l.l.6.2.)                                       ",
"                                y : ( &.:.9.P.I.I.I.I.U.U.I.I.I.I.U.I.I.A.A.h.U.z.3.4.2.                                ",
"                            i : 4 &.:.w.h.I.I.U.U.U.R.!.!.U.U.Q.~.U.U.I.I.I.I.U.z.z.h.g.2.N                             ",
"                          ^ ! *.5.6.P.I.P.I.R.I.R.!.R.R.~./.!.!.!./.!.!.Q.Q.Q.U.U.P.h.I.h.g.,.z                         ",
"                      t 3 *.1.5.h.h.I.U.!.!.!.!./.].!.R.!.'.(.R.+X(.&X(.Q.Q.Q.Q.U.U.I.I.I.l.l.1.(                       ",
"                    y W | 5.-.w.I.!.U.].'.(.R.R.~.'.~.U.!.$X'.P.$X&X%X+X+X+X$X'././.!.U.P.h.U.h.6.(                     ",
"                  i Q +. .=.5.I.U./.(.~.%X%X(.P.!.'.].I.T.'.Q.h.~.%X)._.%X(.(.%X+X!.!.!.U.Q.Q.z.h.w.)                   ",
"                  Q +.&.7.-.h.U./.'.!.~.%X%X(.g.j.).!.g.l.(.z.a.).(.L.(.+XT.R.%X'.U.r.R.(./.z.z.U.U.h.%.                ",
"                3 @.-.=.-.w.I.U.$X$X'.!.(.%X{.k.u.z.Q.u.s.Q.J.s.Q.S.Z.).L.g.(.#X!.I.R.$X+X/.Q.R.Y.I.T.5.^               ",
"              3 o.&.&.5.w.P.U.(.$X:X=X'.S.Q.+Xz.' k.^._ b k.y.' S.a.u.x.s.d.(.z.u.z.'.&X%X(.(.!.Q.I.I.P.6.              ",
"            : ! &.-.&.6.h.U.+X/.%X$X=X$XS.a.S.Q.M h a.v @ L P ..p.P y.p.M J.^.4.2.T.{.%X(.!.(.Q.!.Q.T.I.w.%.            ",
"            4 $.-.5.5.h.I.Q./.&X$X/./.$X^.a.i.A.L o x U o c q & I H i.P M H.v u k.+X+XOX+X).(.(.(.!.!.I.j.8.(           ",
"          , +.7.-.8.w.P.Q./.+X$X$X/.k.U.^.K._ b v.h % F r 6 $ & f 5 6 r _ i.o c K.XXD.H._.%X:X%X'.!.!.Q.Y.P.%.          ",
"        : ! -.:.5.6.h.!.$X$X$X'.$X$XA.a.a.K.V.p c L % C C q f g F # X 6 E 7 9 m.H.i.a.).$X:X{.[.'.~./.!.Q.P.q.B         ",
"        W $.:.-.q.h.I.+X$X$X(./.U.U.+Xf.P P N.{ f A A a A x x A 6 w d F C X & g 6 ' Q.#X(._.{.[.'.$X(.Q.Q.Q.P.%.        ",
"      : O.>.8.8.h.I.Q.$X$X&X&X$XU.D.Z.G.b.7 q }.H # A j b v G G a A A f 0 C H % g K.OXA.S.Q.{.*X&X'.R.!.Q.^.I.5.%.      ",
"      Q =.8.w.9.r.R.'.'.'.Q.^.$X(..XN.i.p.] f $ g h v ' ' ` _ L L L b b G Z a U |.p.y.a.Q.(.%X&X(.].~.R.Y.Y.I.w.%.      ",
"    W #.9.9.q.P.R.!.$X:X:X/.Z.H.G.^.OXU q U I $ 0 h J B.XX;X-XF.V.v.V.' G a I J r b k.@X@X^.S.).[.~.'.!.P.!.P.w.&.(     ",
"    Q :.8.9.P.R.R.'.'.'.$X&X+XU.b.m.C.B.I + % J F = ' XX8X5X8X1X;X;X1XN.L ] H p h M.|.D.s.u.Q.!.{.%X'.~.R.!.P.w.-.(     ",
"  : #.9.9.e.P.R.~.$X%X~.(./.U.|.G.F.n.x H H t = = ' F.1X6X7X7X7X7X7X2XXXv.L ] [ [ I C K Z.^.&X/.].{.E.!.R.R.P.r.5.%.    ",
"  4 =.w.j.P.Y.R.E.$X&X%X+X+Xk.i.Y [  XD V E d # + ` >X<X7XqXrXeXqX0X5XXXp.B.[ Z 9 & * c.OXG.A.h.T.~.~.].'.P.P.w.5.%.    ",
"  +.9.e.P.P.T.!.!.'.(.^.S.G.U.H.p.S F C F 0 * h V.F.>X9XwXrXrXrXeXeX6X<X.X` L A E T F D c N 4.z.(.$X%X'./.!.U.r.8.*.    ",
"  *.w.j.I.Y.I.Q.^.(./.Q.Z.a.c.v.[ U R d 6 s h ) F.>X5X0XeXyXyXyXrXeXqX4XXXV.U = 0 9 * 9 2.S./.$X'.'.'.'.R.P.r.8.:.@.    ",
"4 -.z.P.Y.Y.R.I.z.S.U.^.^.G.F.m.D F T C * f v p.>X3X0XwXrXuXiXyXyXqXqX5X<XXX{ 0 * w 9 h P a.C.D.A.l.I.R.r.W.r.P.9.+.<   ",
"4 -.z.j.I.R.R.I.x.d.k.Z.Z.f.N.c.I E F O # h L F.,X9XqXeXyXuXiXyXyXrXqXqX5X>X|.G x d 0 0 K s.l.U.U.!.R.R.P.P.l.9.:.@.4   ",
"! q.w.z.T.T.R.~.z.6.2.2.y.m 6 & d 8 9 5 X & ` XX<X9XwXrXuXuXuXtXrXeXqX7X4X1XoXL g Z F E D.OX@X$X$X'.$X%X/.W.P.r.;.X.<   ",
"+.9.h.U.Y.R.R.R.e.q.u.g.d.s.b K K A C 7 @ - ` XX,X9XwXrXyXyXyXrXeXqX6X3X>XoX' c Z * 9 w r B  .d.P.(.$X'.'.t.r.>.>.+.,   ",
"! 9.Y.Y.T.Y.E.~.~.R.).Q.z.k.a._ Y H 9 C 8 Z v.XX<X7XeXrXtXyXrXwX0X8X<X>Xp.' G A g d E n.m.C.u.6.P.(.!.!.].W.r.>.=.| 4   ",
"  ;.j.T.Q.E.E.`.`.`.(.z.J.a.a.p.b.{ H S A _ v..X<X7XqXeXrXeXwXqX3X1X-XB._ a Z H I J 9 x D.U.^./.'.'.'.].W.r.r.r.$.} k   ",
"  =.e.Y.T.Y.W.`.`.`._.).^.S.Z.Z.i.x 8 V H ] v..X<X6XqXqXwX0X0X6X;X` v J x 0 0 5 7 [ v.K  . .s.l.I.!.%XE.P.r.0.;.$.4 v   ",
"  &.w.P.R.~.W.~.`.=X*X%XQ.k.s.P P b H T p a _ .X1X3X6X5X8X6X6X1X.XS X p h 8 H R 6 s s.S.U.l.d.d.P.r.W.W.r.r.>.$.X.4     ",
"  ( w.e.R.{.E.E.[.[.E.~.I.l.k.k.Z.Y 8 0 5 A _ B.#X<X>X-X-X;X>X-XL R T V Z [ f S C.a.B  .d.P./.!.R.I.P.t.r.r.=.$.} l     ",
"    ;.r.T.R.W.E.`.[.[._.(.Q.x.s.Y m a V 9 H R L B.XX` p.p.` v.[ ' G  XF C n.c.7 $ b U.d.s.6.P.].'.~.W.r.>.:.=.X.4       ",
"    @.e.P.R.T.T.`.`.%X%XQ.k.a.a.J.b.R 8 0 C 5 S ' v J b L b L ' ] D J |.f e f.H - n d.I.P.P.j.Y.R.R.r.r.>.=.$.} 4       ",
"    ! 8.j.P.Q.Q.E.~.~.R.R.L.^.^.Z.G s E E O $ h a # p % A a 9 H A [ a n.|.I B 2.l.<.2.6.!.~.Q.Y.R.t.r.r.>.;.O.1         ",
"      @.e.j.P.j.L.E.E.`.#X%XL.s.s.u.D.n.w T T q e $ x $ S $ . d w [ E r b.|.y.N z.Q.h.g.r.~.$X(.T.r.0.>.;.$.} l         ",
"      ( :.P.j.h.L.R._.%X%XQ.k.k.S.).D.b Y n.r I e e F e I q % I w & m.0 0 D.G.Z.g.!.(.R.r.~.(.~.t.r.0.=.:.o.<           ",
"        *.x.j.e.L.Q.~.~.!.L.).~.(.a.P u.@X6 6 R o x I e c.H e c.K 0 m.D.x  .S.+XQ.Y.!.[.(.(.R.R.e.e.>.$.X.1             ",
"          q.z.h.L.R.E.E.W.`.%X&Xz.u.z.+XU.K f.i.e ....b C.Y e b.D...C.@Xd. .g.(.$X$X&X(.~.Y.Y.r.e.q.:.X.Q               ",
"          %.w.z.z.T.Q.).+X&X&XE.!.(.(.^.a.k.^.2.N Z.s.m F.f.m Z.OXa.i.OX+Xu.d.R.$X#X{.~.Y.P.P.e.9.:.O.1                 ",
"            1.h.z.T.).(.(._.%X`.[.%X!.l.a.Q.(.4.s.U.k.u.^.A...A.+XZ.C.z.&XQ.z.T.~._.`.R.P.I.e.q.=.O.2                   ",
"            ( 1.z.z.^.(.).`.%X%X=X{.!.l.I.'.(.h.z.Q.S.S.+XQ.J.S.+XU.l.z.$X&X).j.W.).!.L.T.z.q.8.o.2                     ",
"              %.q.j.L.L.(.~._.*X%X[.Q.Q.].=X(.P./.(./.~.+X^.z.^.$X(.I.l._.:X_.W.W.!.T.e.j.w.=.X.,                       ",
"                <.q.z.L.).).(.(._.W.E.`._.%X%X`._.#X~.~.%X_.T.(.&X$XY.Y.(.%X(.Q.T.Y.z.z.9.;.o.,                         ",
"                  %.q.z.T.Q.R.!.~.`.E.`.%X`.%X%X%X&X=X&X=X#X_.(.&X+X~.E.Q.(.(.Q.T.j.j.9.$.Q                             ",
"                    / 1.j.j.j.R.~.E.T.).).`.`._._.).%X%X&X(._._.%X#X!.(.Q.(.(.z.w.h.-.O.1                               ",
"                        ,.q.x.z.j.P.Q.E.E.T.R.~._.~._.(.(.(.(.~.(.(.Q.Q.L.j.e.j.5.$.o.Q                                 ",
"                          / 1.h.w.j.j.E.L.L.E.E.E.).(.).(.T.!.Q.Q.T.T.U.z.h.q.:.o.Q                                     ",
"                            u ^ <.q.j.j.x.L.L.L.T.Q.).Q.Q.T.Q.Q.T.Y.h.e.8.3.#.4                                         ",
"                                  k ) 1.w.j.j.T.z.L.L.T.P.L.j.j.j.q.5.<./ <.(                                           ",
"                                      n j ^ ) ) <.1.<.1.1.<.2.z k k                                                     ",
"                                              t y y 6 u i                                                               ",
"                                                                                                                        ",
"                                                                                                                        ",
"                                                                                                                        "
};
