/* XPM */
static char *_ff4a98e779249bf874c45660595d504DKmr8Jws6tNtxJfZ[] = {
/* columns rows colors chars-per-pixel */
"60 60 200 2 ",
"   c #0D131A",
".  c #131313",
"X  c #13161B",
"o  c #14181C",
"O  c #1D1D1D",
"+  c #201F1F",
"@  c #26221F",
"#  c #1F2020",
"$  c #242323",
"%  c #282827",
"&  c #2C2C2C",
"*  c #24262A",
"=  c #362F29",
"-  c #30302F",
";  c #3C342A",
":  c #2B2E33",
">  c #242B33",
",  c #2F3133",
"<  c #2C343C",
"1  c #333333",
"2  c #383736",
"3  c #3A3936",
"4  c #333639",
"5  c #35393B",
"6  c #3C3C3C",
"7  c #4B3C2D",
"8  c #433C34",
"9  c #413F3C",
"0  c #40403F",
"q  c #4C453E",
"w  c #5A4A35",
"e  c #51463D",
"r  c #614E3A",
"t  c #6C5239",
"y  c #715B3E",
"u  c #323941",
"i  c #393D41",
"p  c #3E4042",
"a  c #434343",
"s  c #494643",
"d  c #4C4C4C",
"f  c #46474A",
"g  c #544C43",
"h  c #5F5649",
"j  c #53504F",
"k  c #474950",
"l  c #4B4D51",
"z  c #4E5154",
"x  c #525252",
"c  c #5B5B5A",
"v  c #55575A",
"b  c #635442",
"n  c #665B4B",
"m  c #6B5846",
"M  c #745D48",
"N  c #645D55",
"B  c #7D6244",
"V  c #7D644A",
"C  c #78664E",
"Z  c #676158",
"A  c #6E6758",
"S  c #6B6054",
"D  c #796D5C",
"F  c #7A6A54",
"G  c #7E705F",
"H  c #5C5F63",
"J  c #545A62",
"K  c #5F6163",
"L  c #656565",
"P  c #696764",
"I  c #696969",
"U  c #6E6962",
"Y  c #796E61",
"T  c #726C63",
"R  c #7A7063",
"E  c #82674C",
"W  c #866B4C",
"Q  c #886C4D",
"!  c #836543",
"~  c #906F4E",
"^  c #93724E",
"/  c #866C50",
"(  c #896C51",
")  c #897154",
"_  c #83785F",
"`  c #957552",
"'  c #9A7B56",
"]  c #A57A4F",
"[  c #A37C55",
"{  c #A97D50",
"}  c #B07E52",
"|  c #827161",
" . c #947E64",
".. c #9A805F",
"X. c #A6815D",
"o. c #AD835A",
"O. c #B58654",
"+. c #B88857",
"@. c #B48A5C",
"#. c #BC905F",
"$. c #8F8362",
"%. c #9E8D67",
"&. c #AB8A62",
"*. c #B48D63",
"=. c #B08761",
"-. c #B79A6D",
";. c #B0A16E",
":. c #CF9453",
">. c #CC985D",
",. c #D79A59",
"<. c #DDA25E",
"1. c #CD9D65",
"2. c #C09669",
"3. c #C59D6D",
"4. c #C89867",
"5. c #D59D62",
"6. c #DA9D62",
"7. c #D19F6C",
"8. c #CEA46A",
"9. c #DEA363",
"0. c #DAA66C",
"q. c #DCAB6B",
"w. c #D1A06C",
"e. c #CDA973",
"r. c #DEAA73",
"t. c #D7A575",
"y. c #D3BB78",
"u. c #E2A463",
"i. c #E6A963",
"p. c #E5AA6A",
"a. c #EAAF6B",
"s. c #F0AD65",
"d. c #EBB46F",
"f. c #E6AE71",
"g. c #E4AE79",
"h. c #EDB475",
"j. c #E5B17B",
"k. c #ECB57A",
"l. c #EEB97D",
"z. c #E6BC7A",
"x. c #F1B574",
"c. c #F3B77D",
"v. c #F4BB7C",
"b. c #FABC7B",
"n. c #FBC47E",
"m. c #D7AC81",
"M. c #DDB187",
"N. c #EFB680",
"B. c #EEBA83",
"V. c #EDBC8B",
"C. c #E6B480",
"Z. c #F3BC82",
"A. c #F8BE84",
"S. c #F0B781",
"D. c #DEC883",
"F. c #EEC280",
"G. c #F4C484",
"H. c #F9C384",
"J. c #FECB85",
"K. c #F4C18B",
"L. c #FDC68A",
"P. c #FECA8A",
"I. c #F5C987",
"U. c #FDD18D",
"Y. c #F4DB8B",
"T. c #FBD587",
"R. c #ECC296",
"E. c #E8C598",
"W. c #F4C492",
"Q. c #FBCA95",
"!. c #F4CB9F",
"~. c #FCCD9B",
"^. c #FDC791",
"/. c #FDD693",
"(. c #FDDC94",
"). c #FED09D",
"_. c #FDE396",
"`. c #FEE897",
"'. c #FCE699",
"]. c #FBEA9B",
"[. c #FDF49D",
"{. c #EBC8A1",
"}. c #F2CAA1",
"|. c #F4CDA2",
" X c #F3CDA2",
".X c #F9CFA3",
"XX c #F4CFA9",
"oX c #FCD3A5",
"OX c #F4D1A9",
"+X c #FCD5AC",
"@X c #FDD8AE",
"#X c #F6D6B2",
"$X c #FFE7A3",
"%X c #FEF4A3",
"&X c #FDFBA4",
"*X c #FFFAAF",
"=X c #FAF0AB",
"-X c #F9EFB4",
";X c #FFF7B9",
":X c #FEF6B3",
/* pixels */
"a a a a a a a a a a a a a a a a a a a a a a a a a a a a a 6 @ & Z K f a a a a a a a a a a a a a a a a a a a a a a a a a ",
"a a a a a a a a a a a a a a a a a a a a a a a a a a p a a 5 # - K c a a a a a a a a f a a a a a a a a a a s a a a a a a ",
"a a a a a a a a a a a a a a a a a a s a a a a a a a a a a 5 # & Z K s p a a a a a a a a a a a a a a a a a a a a a a a a ",
"a a a a a a a a a a a a a a a a a a a a a a a a a a a a a 5 O & H K f a a a a a a a a a a a a a a a a a a a a a a a a a ",
"a a a a a a a a a a a a a p a a a a a p a a a a a a a a a 3 X $ c Z f a a a a a a a a a a a a a p a a a a a a a a a p a ",
"a a a a a a a a a a a a a a a a a a a a a a a a a a a a 0 1 X @ f j a a a a a a a a a a a a a a a a a a a a a a a a a a ",
"9 a a 0 0 0 a a a p a p 0 a p a p a a a 0 a a a 0 p a 0 2 & + @ , 5 0 a 0 a a p p a p a 0 a p a 0 a p a p a p a a 0 a 0 ",
"& % % $ % $ * * % % % % % % & - , & & & & & % - & & & % % @ X O $ % & & - % - % - & & & & & & & & & - & % $ $ % $ $ % $ ",
"# O . . . . . . . O O X . # # # # # # # # O # # $ O @ O # @ O O # # # # # # # # # # O O O X O O O @ # # o . . . . . . . ",
"f f a a a a a a a a f a a s d s d s d f d d d s f f d d f f f f s d d s f d d d f d a , @ o O $ 1 a f f s a a a a a a a ",
"I I I I I I I I I I I I I I I I I I I I I I I I I I I I I I I I I I I I I I I I I I Z f & @ $ 2 d L I I I I I I I I I I ",
"c c c c c c c c c c c c c c c c c c c c c c c c c c c c c c c c c c c c c c c c c c v d 6 # % d c c c c c c c c c c c c ",
"x x x x j x x j x x x x j z x x z x x j x x d x x x x j x x x x x x x x j z j x x x x x f $ - K L x x x x x j x x x x x ",
"x x x x x x x x x x x x x x x x x x x x x x x x x x x x x x x x j z j z x x x x x x x x f & 2 Z L x x x x x x x x x x x ",
"x x x x x x x x x x x x x x x x x x x x x x x x x x x x x x x x x x x x x x x x x x x x f & 4 Z L x x x x x x x x x x x ",
"x x x x x x z j x j x x x j x z x x x z x x x x x x x x j x x x x x x x j z x x x x x x a * 1 L L x x x x j x z x x z j ",
"x x x x x x x x x x x j x x x j x x x x z x x j x x x x j x x x x x x x x x x x x x x d 6 * & x c x x x x x x x x x x x ",
"x x x x x x x l x x x x x x x x x x x x x x x x x x x x x x x x x x x x x x x x x x j i 1 % % 2 a l x x x x x x x x x x ",
"6 6 6 6 6 5 e m s 2 < 4 6 9 0 i 6 6 6 6 6 6 6 6 6 6 6 6 6 6 6 6 6 6 6 6 6 6 6 6 6 6 5 - % * * % 1 5 6 6 6 6 6 6 6 6 6 6 ",
"+ + + @ o r j.W.f.@.! 7 @ o o # @ O # O # # # O # # # O # # # # # # + # O O + + + + + O @ $ $ O O @ # @ O + + + # # O @ ",
"6 6 6 5 e C.@X|.|.~.~.A.7.] t 6 6 6 6 6 6 6 6 6 6 6 6 6 6 6 6 6 6 6 6 6 6 6 6 6 6 6 6 6 9 a a 6 5 6 6 6 6 6 6 6 6 6 6 6 ",
"L I L K *..X}.}.}.}.}.|.oX~.A.[ K L L L I L P P L P L P L P L L L L L P L L L P I L L L L L I L I P L L L L L L L L I L ",
"v c v N j.oX}.!.}. X}.}.}. X+X1.x c c c v c v c v v c c c c v v c c c c c v v v v c c c c v z c v z c c c c v c v c v v ",
"s s i Q P.}.}.+X~.~..X.XoXV.V.@.a a a a a a a a a a a a a a a a a a a a a a a a a a a a i n ) p ) ' a a a a a a a s a a ",
"a a i =.~.}.+Xt.~ @.g.Q.M.m.E.7.s p a a a a a a a 0 a a a a p a a a a a a i a a a a a s i [ s.g 1.h.p C @.0 p a a a a a ",
"a a 6 t..X|.N.r u i e } R.OXOXL.M p a a a a a a a a a p a a a a a a a a a s a a a a a i &.Z.V.g.K.r.0 / n.-.h p a a a a ",
"a p V 0.!.oXo.i s f , M oX}.}.~.4.0 a a a a a a a a s a a a a s a a a s s a a a a s s i *.Q.W.W.Q.p.a V H.P.' 6 a a a a ",
"i m W.{.7.K.E i s s 5 [ +X!.!.OXQ.^ u i i 6 i i p 6 i i i i i i i i i i i i i i i i i 4 [ a.k.h.k.k.4.0.x.p.E < i i p a ",
"i [ +X#XB.5.b i a a 9 7.@X!. XOXr.:.` / Q Q / / Q W W W / Q Q Q Q W Q ( / / / / / / / V O.,.:.5.6.6.u.6.:.:.{ / Q E g 0 ",
"p 2.~.l.Z.k.g p a i 9 0.~.V.!.j.9.W.Z.A.A.v.A.H.H.H.H.I.H.I.H.H.H.G.H.H.A.A.H.l.C.N.k.Z.Z.B.S.Z.B.N.N.N.S.Z.S.A.A.P.*.a ",
"a 3.Q.h.c.h.n i a 6 8 r.G.h.Z.k.p.G.v.n.n.b.b.n.n.n.n.n.n.n.n.n.n.n.n.n.b.b.n.h.d.h.d.x.b.c.h.h.h.h.x.x.x.x.c.b.v.J.4.6 ",
", &.^.l.l.p.b , 2 1 % 1.G.l.l.B.p.<.` E W E E W W W W W W Q Q W W W W W Q Q W W W Q Q W ` ,.9.u.u.p.p.u.,.i.+.E Q W q 4 ",
"X w L.S.p.n.y X @ O X ] n.I.n.C.v.! X X o X   o o o o o o o o o X X X o o o o o o o o   ; p.l.x.h.h.F.G.Z.p.7   o X O O ",
"2 , ( f.k.H.@.: 2 2 > ) J.n.G.I.1.3 2 3 2 2 2 2 2 2 2 2 2 2 2 2 2 2 2 2 2 2 2 2 2 2 1 $ ; p.f.w B H.j.0.A.V & 2 2 2 2 4 ",
"L L H r.A.c.x.| J H Y 8.F.U.U.J.$.H L L L L Z L L L L L K L L L L Z K L K L K L L L c a # w 9.% n n.&.G u.U K L L L L K ",
"K L H 3.L.H.J.k.-.e.G./.F.n.U.z.P K Z L L H K L K K Z H L Z H L K K L K L K Z L H Z c l , 7 >.f Z @.G G i.T K L K K K Z ",
"x x l ..U.L.I.P.(._._._.`.Y.T.q.x x x x x x x x x x x x x x x x x x x x x x x x x x x x a % 2 c H z z A 9.Z x x x x x x ",
"x j z S I./././.(._._.`.`.].;XF.j x x x x x x x x x x x x x z j x x x x x x x x x x x x f $ & L I x x x Z x x j x x x x ",
"x x x d e.$X/.(.(.].[.&X[.&X:X;.d x x x x x x x x x x x x x x x x x x x x x x x x x x x a $ - c L x x z l j x x x x x x ",
"x j x l D _.=X-X:X%X[.[.Y.y.%.x j x x x x x x x z j x x x x z j z x x x x x x x x x j x f * & L I x j x x x x x x x x x ",
"x x z x l %.].:X].D.;.| Z d k z x x x x x x x x x x x x x x x x x x j j x x x x x x x d a $ % c K x x x x x x x x x x x ",
"x x x x x z R $.A z k l z x x x x x x x x x x x x x x x x x x x x x x x x x x x x x x a 2 # * p d x x x x x x x x x x x ",
"d f s d d f f p a f f d d s d d f f d f d f f f d d s f d d d f d f f d d f f f f f s 2 % O @ % 2 a f d d f f f d f f f ",
"% % % % % % % % % % % % % % % % % % % % % % % % % % % * % % % % % % % % % % % % % % % $ O X O O $ % % % % % % % % % * % ",
"% % & % % & % & % $ O O o O # % % & % & & % % % % % % % % % % % % & % & % & % & % & % & % % & % % % % & & % & % & % & % ",
"c c c H c c c c v a % # O $ 2 j c c c c c c c c c c c H c c H c c c c c c c c c c c c c c c c c c c c c c c c c c c c c ",
"L I I L I P L I L d 5 $ # 2 d H I I P I I I P I I P I I I P I I I I I L I L L I I L I L I L I I P I L I I I I P P I I P ",
"x x c x x v x v x x s % $ z Z v x v x x v x v x x v x x v x x x x x v x x c x x c x v x x c x x c x x v x x x v x x v x ",
"x x x x j z x j x x f & * x I x j x j z x x j x j z j x x x x j x j x x z x j x x x x x x x j z j j x x x x x x x x j x ",
"x x x x x x x x x x d & % v I c j x j z x x x z x x x x x x x x x x x x x x x x x x x x x x x z x x x x x j x x x x x x ",
"x x x x x x x z x x d & @ c I c x x x x x x x x x x x x x z j x x x x x x x x x x x x x x x j j x x x x x x x x x x x x ",
"x j x x x j x x x x d % $ x L x x x x x x x x x z j x x x x j z x x x j x x x x x x x x x x z x z x x x x x x x x x x x ",
"x x x x x x x x x f 0 $ $ 0 x x x x x x x x x x x x x x x x x x x z x x x x x x x x x x x x x x x x x z x z x x x x x x ",
"x d x d x d x d d 0 , $ O & 5 f x d x d d d d x x d d x x d j d x d x d d x l d d d z d x d x d x d x d d d x d d d z d ",
"& - - - - - & - & % # O X @ $ % - & , - - - - - , & & & - - - - - - - - & - - - & - , & & - & - & - - - - - - - & - - & ",
"$ # # $ # $ $ # # $ # @ # @ $ # $ $ # $ # $ # @ # $ $ @ O O O X O O $ # $ $ # @ @ $ $ # $ $ $ # # $ $ $ # # @ # $ $ $ $ ",
"x x d x x d x x d x x d x d x x x x x x x d x x x x d d 2 $ O O $ 2 d x x d x x x x x d x d x x x x x d x d x x x x x d ",
"L I I L I L L I I L I L I L L I L L L L I L L I L L P H a & # $ 2 f L L L I I L L L L I I I L I I L L I I L L I L L L I ",
"x d d x d x d d d d d x d d x d d x d x d x d d x d d d a 2 $ % x c d x x d d x x d x d d d x d d x d x d x d x d d d x ",
"a 0 a p a a a a a a a 0 a a a a a 0 a p a a a a 0 a a a a 5 # - Z H a 0 a a p p 0 a a p a a 0 a a a 0 p 0 a a 0 a a a a "
};
