/* XPM */
static char *result[] = {
/* columns rows colors chars-per-pixel */
"60 60 200 2 ",
"   c #382907",
".  c #6A5F45",
"X  c #746239",
"o  c #563F0B",
"O  c #4F3A0A",
"+  c #402F08",
"@  c #896820",
"#  c #936C14",
"$  c #7C5B11",
"%  c #AE8018",
"&  c #A77B17",
"*  c #A47816",
"=  c #896412",
"-  c #533D0B",
";  c #896513",
":  c #755610",
">  c #4C380A",
",  c #6B4E0E",
"<  c #493509",
"1  c #49360A",
"2  c #6B4F0F",
"3  c #775813",
"4  c #6E5317",
"5  c #6A511A",
"6  c #775913",
"7  c #534424",
"8  c #453D2B",
"9  c #534524",
"0  c #6E5417",
"q  c #44330C",
"w  c #5D4715",
"e  c #69562C",
"r  c #666052",
"t  c #656565",
"y  c #3B2E10",
"u  c #423822",
"i  c #A9A7A2",
"p  c #CACACA",
"a  c #372C12",
"s  c #343128",
"d  c #F4F4F4",
"f  c gray90",
"g  c #B2B2B2",
"h  c #5D5D5D",
"j  c #453D2A",
"k  c #6A5119",
"l  c #B6B6B6",
"z  c #848484",
"x  c #4E4E4E",
"c  c #6B4F11",
"v  c #483712",
"b  c #382F1C",
"n  c #393630",
"m  c #686868",
"M  c #C3C3C3",
"N  c gray83",
"B  c gray61",
"V  c gray43",
"C  c #4B4B4B",
"Z  c #464032",
"A  c #5E4B22",
"S  c #6A5017",
"D  c #463B22",
"F  c #434240",
"G  c #6C6C6C",
"H  c #B4B4B4",
"J  c gray76",
"K  c gray59",
"L  c #727272",
"P  c #565656",
"I  c #474541",
"U  c gray37",
"Y  c gray31",
"T  c DimGray",
"R  c gray67",
"E  c #B9B9B9",
"W  c #939393",
"Q  c #484848",
"!  c gray28",
"~  c #424039",
"^  c #3B321F",
"/  c gray65",
"(  c #5F5F5F",
")  c gray66",
"_  c #606060",
"`  c #5F5E5C",
"'  c #665329",
"]  c #5D5749",
"[  c gray46",
"{  c #AEAEAE",
"}  c #A4A4A4",
"|  c gray35",
" . c #555555",
".. c #989898",
"X. c #8E8E8E",
"o. c #6D6D6D",
"O. c #464646",
"+. c #414141",
"@. c gray39",
"#. c #505050",
"$. c #4F493B",
"%. c #614E25",
"&. c #8E8C87",
"*. c gray25",
"=. c #7B7B7B",
"-. c gray52",
";. c gray22",
":. c #63615C",
">. c #979797",
",. c gray33",
"<. c #383631",
"1. c #413B2D",
"2. c #383531",
"3. c #5C4A20",
"4. c #5C4920",
"5. c #413A2D",
"6. c #434343",
"7. c #646464",
"8. c #515151",
"9. c gray24",
"0. c gray26",
"q. c #838383",
"w. c gray75",
"e. c #AAAAAA",
"r. c #898989",
"t. c #767676",
"y. c #626262",
"u. c #C1C1C1",
"i. c #808080",
"p. c #6A6A6A",
"a. c #868686",
"s. c gray36",
"d. c #AFAFAF",
"f. c #2A2A2A",
"g. c #202020",
"h. c #1D1D1D",
"j. c gray4",
"k. c black",
"l. c gray15",
"z. c gray45",
"x. c gray1",
"c. c gray5",
"v. c gray21",
"b. c #A2A2A2",
"n. c #3C3C3C",
"m. c #181818",
"M. c gray3",
"N. c #101010",
"B. c #2F2F2F",
"V. c #676767",
"C. c #C6C6C6",
"Z. c gray47",
"A. c #888888",
"S. c gray20",
"D. c gray60",
"F. c #8B8B8B",
"G. c gray49",
"H. c #777777",
"J. c #7C7C7C",
"K. c #3A3A3A",
"L. c #585858",
"P. c gray42",
"I. c #747474",
"U. c gray32",
"Y. c #5B5B5B",
"T. c gray29",
"R. c gray30",
"E. c #3F3F3F",
"W. c #413A2A",
"Q. c #393429",
"!. c #5D4818",
"~. c #433514",
"^. c #443514",
"/. c #302306",
"(. c #7B5A11",
"). c #8A6513",
"_. c #765710",
"`. c #6C4F0F",
"'. c #5D440D",
"]. c #3F2E08",
"[. c #3F2F08",
"{. c #5D450D",
"}. c #211804",
"|. c #57400C",
" X c #503B0B",
".X c #4D380A",
"XX c #423009",
"oX c #2C2006",
"OX c #2C2106",
"+X c #1A1303",
"@X c #231A04",
"#X c #342707",
"$X c #3D2D08",
"%X c #342607",
"&X c #231904",
"*X c #534E42",
"=X c #4C4433",
"-X c #3C3116",
";X c #2E2206",
":X c #1C1503",
/* pixels */
"    .                                                                                                             .     ",
"    X o o o o o o o o O + + O o o o o o o o o O + + O o o o o o o o o O + + O o o o o o o o o O + + O o o o o o o X     ",
". X @ # # # # # # # # $ O O $ # # # # # # # # $ O O $ # # # # # # # # $ O O $ # # # # # # # # $ O O $ # # # # # # @ X . ",
"  o # % & * * * * * * = - - = * * * * * * * * = - - = * * * * * * * * = - - = * * * * * * * * = - - = * * * * * * = -   ",
"  o # & # ; ; ; ; ; ; : > > : ; ; ; ; ; ; ; ; : > > : ; ; ; ; ; ; ; ; : > > : ; ; ; ; ; ; ; ; : > > : ; ; ; ; ; ; : >   ",
"  o # * ; $ $ $ $ $ $ , < 1 2 $ $ $ $ $ $ $ $ , < 1 2 3 4 5 5 4 6 $ $ , < 1 2 $ $ $ $ $ $ $ $ , < 1 2 $ $ $ $ $ $ , <   ",
"  o # * ; $ $ $ $ $ $ , < 1 2 $ $ $ $ $ $ $ $ , < 1 2 4 7 8 8 9 0 $ $ , < 1 2 $ $ $ $ $ $ $ $ , < 1 2 $ $ $ $ $ $ , <   ",
"  o # * ; $ $ $ $ $ $ , < 1 2 $ $ $ $ $ $ $ $ , < q w e r t t r e 4 6 , < 1 2 $ $ $ $ $ $ $ $ , < 1 2 $ $ $ $ $ $ , <   ",
"  o # * ; $ $ $ $ $ $ , < 1 2 $ $ $ $ $ $ $ $ , < y u r i p p i r 9 0 , < 1 2 $ $ $ $ $ $ $ $ , < 1 2 $ $ $ $ $ $ , <   ",
"  o # * ; $ $ $ $ $ $ , < 1 2 $ $ $ $ $ $ $ $ , < a s t p d f g h j k , < 1 2 $ $ $ $ $ $ $ $ , < 1 2 $ $ $ $ $ $ , <   ",
"  o # * ; $ $ $ $ $ $ , < 1 2 $ $ $ $ $ $ $ $ , < a s t p f l z x j k , < 1 2 $ $ $ $ $ $ $ $ , < 1 2 $ $ $ $ $ $ , <   ",
"  o # * ; $ $ $ $ $ $ , < 1 2 $ $ $ $ $ $ $ $ c v b n m M N B V C Z A w q 1 2 $ $ $ $ $ $ $ $ , < 1 2 $ $ $ $ $ $ , <   ",
"  o # * ; $ $ $ $ $ $ , < 1 2 $ $ $ $ $ $ $ $ S D n F G H J K L P I Z u y 1 2 $ $ $ $ $ $ $ $ , < 1 2 $ $ $ $ $ $ , <   ",
"  o # * ; $ $ $ $ $ $ , < 1 2 $ $ $ $ $ $ 3 4 e r U Y T R E W L P Q ! ~ ^ v c $ $ $ $ $ $ $ $ , < 1 2 $ $ $ $ $ $ , <   ",
"  o # * ; $ $ $ $ $ $ , < 1 2 $ $ $ $ $ $ 4 7 r i / U ( ) E W V C ! _ ` ~ D S $ $ $ $ $ $ $ $ , < 1 2 $ $ $ $ $ $ , <   ",
"  o # * ; $ $ $ $ $ $ , < 1 2 $ $ $ $ 3 4 ' ] [ { } |  ...R X.o.O.+.U @.#.$.%.4 6 $ $ $ $ $ $ , < 1 2 $ $ $ $ $ $ , <   ",
"  o # * ; $ $ $ $ $ $ , < 1 2 $ $ $ $ 4 7 ] &.K [ | *.C =.X.-.o.O.;.+.#.@.:.$.9 0 $ $ $ $ $ $ , < 1 2 $ $ $ $ $ $ , <   ",
"  o # * ; $ $ $ $ $ $ , < 1 2 $ $ $ $ 5 8  ...>.,.<.1.$.:.o.o.:.$.1.2.O.o.o.O.j k $ $ $ $ $ $ , < 1 2 $ $ $ $ $ $ , <   ",
"  o # * ; $ $ $ $ $ $ , < 1 2 $ $ $ $ 5 8 C =.=.C 1.3.%.$.O.O.$.%.4.5.O.o.o.O.j k $ $ $ $ $ $ , < 1 2 $ $ $ $ $ $ , <   ",
"  o # * ; $ $ $ $ $ $ , < 1 2 $ $ $ $ 5 8 O.o.o.O.j k 4 9 j j 9 0 5 8 C =.=.C j k $ $ $ $ $ $ , < 1 2 $ $ $ $ $ $ , <   ",
"  o # * ; $ $ $ $ $ $ , < 1 2 $ $ $ $ 5 8 O.o.o.O.j k 6 0 k k 0 6 5 8  ...>.,.j k $ $ $ $ $ $ , < 1 2 $ $ $ $ $ $ , <   ",
"  o # * ; $ $ $ $ $ $ , < 1 2 $ $ $ $ 5 8 6.7.7.6.1.4.5 5 5 5 5 5 4.5.8.X.X.8.j k $ $ $ $ $ $ , < 1 2 $ $ $ $ $ $ , <   ",
"  o # * ; $ $ $ $ $ $ , < 1 2 $ $ $ $ 5 8 9.8.8.9.2.5.8 8 8 8 8 8 5.2.0.( ( 0.j k $ $ $ $ $ $ , < 1 2 $ $ $ $ $ $ , <   ",
"  o # * ; $ $ $ $ $ $ , < 1 2 $ $ 3 4 e r m G T ( | | | | | | | | | | ( T T ( ] ' 4 6 $ $ $ $ , < 1 2 $ $ $ $ $ $ , <   ",
"  o # * ; $ $ $ $ $ $ , < 1 2 $ $ 4 7 r i M H R ) / / / / / / / / / / ) R R ) &.] 9 0 $ $ $ $ , < 1 2 $ $ $ $ $ $ , <   ",
"  o # * ; $ $ $ $ $ $ , < 1 2 3 4 e r q.w.N J E E E E E E E E E E E E E E E E B @.$.%.4 6 $ $ , < 1 2 $ $ $ $ $ $ , <   ",
"  o # * ; $ $ $ $ $ $ , < 1 2 4 7 r i w.e.B K W W W W W W W W W W W W W W W W r.t.:.$.9 0 $ $ , < 1 2 $ $ $ $ $ $ , <   ",
"  o # * ; $ $ $ $ $ $ , < 1 2 5 8 y.u.N B i.i.i.i.=.L p.@._ _ o.a.W W X.-.i.i.i.i.o.O.j k $ $ , < 1 2 $ $ $ $ $ $ , <   ",
"  o # * ; $ $ $ $ $ $ , < 1 2 5 8 s.d.J K i.i.i.i.L  .9.f.g.g.O.W E E R X.i.i.i.i.o.O.j k $ $ , < 1 2 $ $ $ $ $ $ , <   ",
"  o # * ; $ $ $ $ $ $ , < 1 2 5 8 | / E W i.i.i.i.p.9.h.j.k.k.l.z./ w.E W i.i.i.i.o.O.j k $ $ , < 1 2 $ $ $ $ $ $ , <   ",
"  o # * ; $ $ $ $ $ $ , < 1 2 5 8 | / E W i.i.i.i.@.f.j.x.k.k.c.l.| / E W i.i.i.i.o.O.j k $ $ , < 1 2 $ $ $ $ $ $ , <   ",
"  o # * ; $ $ $ $ $ $ , < 1 2 5 8 | / E W i.i.i.i._ g.k.k.k.k.k.k.v.b.J K i.i.i.i.o.O.j k $ $ , < 1 2 $ $ $ $ $ $ , <   ",
"  o # * ; $ $ $ $ $ $ , < 1 2 5 8 | / E W i.i.i.i._ g.k.k.k.k.k.k.n.H N B i.i.i.i.o.O.j k $ $ , < 1 2 $ $ $ $ $ $ , <   ",
"  o # * ; $ $ $ $ $ $ , < 1 2 5 8 | / E W i.i.i.i.m ;.m.M.k.k.N.B.V.l C.>.i.i.i.i.o.O.j k $ $ , < 1 2 $ $ $ $ $ $ , <   ",
"  o # * ; $ $ $ $ $ $ , < 1 2 5 8 | / E W i.i.i.i.Z.m Q m.k.k.B.X.l / >.A.i.i.i.i.o.O.j k $ $ , < 1 2 $ $ $ $ $ $ , <   ",
"  o # * ; $ $ $ $ $ $ , < 1 2 5 8 | / E W i.i.i.i.i.i._ g.k.k.n.H N B i.i.i.i.i.i.o.O.j k $ $ , < 1 2 $ $ $ $ $ $ , <   ",
"  o # * ; $ $ $ $ $ $ , < 1 2 5 8 | / E W i.i.i.i.i.i._ g.k.k.v.b.J K i.i.i.i.i.i.o.O.j k $ $ , < 1 2 $ $ $ $ $ $ , <   ",
"  o # * ; $ $ $ $ $ $ , < 1 2 5 8 | / E W i.i.i.i.i.i._ g.k.k.S.D.E W i.i.i.i.i.i.o.O.j k $ $ , < 1 2 $ $ $ $ $ $ , <   ",
"  o # * ; $ $ $ $ $ $ , < 1 2 5 8 | / E W i.i.i.i.i.i._ g.k.k.S.D.E W i.i.i.i.i.i.o.O.j k $ $ , < 1 2 $ $ $ $ $ $ , <   ",
"  o # * ; $ $ $ $ $ $ , < 1 2 5 8 8.X.b.F.i.i.i.i.i.i.m ;.g.g.O.W R X.i.i.i.i.G.H.7.6.j k $ $ , < 1 2 $ $ $ $ $ $ , <   ",
"  o # * ; $ $ $ $ $ $ , < 1 2 5 8 0.( z.J.i.i.i.i.i.i.Z.m _ _ o.a.X.-.i.i.i.i.H.7.8.9.j k $ $ , < 1 2 $ $ $ $ $ $ , <   ",
"  o # * ; $ $ $ $ $ $ , < 1 2 5 8 K.Q L.P.I.I.I.I.I.I.I.I.I.I.I.I.I.I.I.I.I.I.P.L.Q K.j k $ $ , < 1 2 $ $ $ $ $ $ , <   ",
"  o # * ; $ $ $ $ $ $ , < 1 2 5 8 K.Q U.L.Y.Y.Y.Y.Y.Y.Y.Y.Y.Y.Y.Y.Y.Y.Y.Y.Y.Y.L.U.Q K.j k $ $ , < 1 2 $ $ $ $ $ $ , <   ",
"  o # * ; $ $ $ $ $ $ , < 1 2 4 9 Z I T.R.Y Y Y Y Y Y Y Y Y Y Y Y Y Y Y Y Y Y R.T.I Z 9 0 $ $ , < 1 2 $ $ $ $ $ $ , <   ",
"  o # * ; $ $ $ $ $ $ , < 1 2 6 0 A Z E.T.Y Y Y Y Y Y Y Y Y Y Y Y Y Y Y Y Y Y T.E.Z A 0 6 $ $ , < 1 2 $ $ $ $ $ $ , <   ",
"  o # * ; $ $ $ $ $ $ , < 1 2 $ $ 4 9 Z I Q Q Q Q Q Q Q Q Q Q Q Q Q Q Q Q Q Q I Z 9 0 $ $ $ $ , < 1 2 $ $ $ $ $ $ , <   ",
"  o # * ; $ $ $ $ $ $ , < 1 2 $ $ 6 0 A Z K.K.K.K.K.K.K.K.K.K.K.K.K.K.K.K.K.K.Z A 0 6 $ $ $ $ , < 1 2 $ $ $ $ $ $ , <   ",
"  o # * ; $ $ $ $ $ $ , < 1 2 $ $ $ $ 4 9 j j W.Q.Q.W.j j j j j j j j W.Q.Q.W.9 0 $ $ $ $ $ $ , < 1 2 $ $ $ $ $ $ , <   ",
"  o # * ; $ $ $ $ $ $ , < 1 2 $ $ $ $ 6 0 k k !.~.^.!.k k k k k k k k !.~.^.!.0 6 $ $ $ $ $ $ , < 1 2 $ $ $ $ $ $ , <   ",
"  o # * ; $ $ $ $ $ $ , < 1 2 $ $ $ $ $ $ $ $ , < 1 2 $ $ $ $ $ $ $ $ , < 1 2 $ $ $ $ $ $ $ $ , < 1 2 $ $ $ $ $ $ , <   ",
"  o # * ; $ $ $ $ $ $ , < 1 2 $ $ $ $ $ $ $ $ , < 1 2 $ $ $ $ $ $ $ $ , < 1 2 $ $ $ $ $ $ $ $ , < 1 2 $ $ $ $ $ $ , <   ",
"  o # * ; $ $ $ $ $ $ , < 1 2 $ $ $ $ $ $ $ $ , < 1 2 $ $ $ $ $ $ $ $ , < 1 2 $ $ $ $ $ $ $ $ , < 1 2 $ $ $ $ $ $ , <   ",
"  o # * ; $ $ $ $ $ $ , < 1 2 $ $ $ $ $ $ $ $ , < 1 2 $ $ $ $ $ $ $ $ , < 1 2 $ $ $ $ $ $ $ $ , < 1 2 $ $ $ $ $ $ , <   ",
"/.1 (.)._.`.`.`.`.`.`.'.].[.{.`.`.`.`.`.`.`.`.'.].[.{.`.`.`.`.`.`.`.`.'.].[.{.`.`.`.`.`.`.`.`.'.].[.{.`.`.`.`.`.`.'.]./.",
"}./.> |. X.X.X.X.X.X.XXXoXOXXX.X.X.X.X.X.X.X.XXXoXOXXX.X.X.X.X.X.X.X.XXXoXOXXX.X.X.X.X.X.X.X.XXXoXOXXX.X.X.X.X.X.XXXoX}.",
"+X@X#X$X$X$X$X$X$X$X$X%X&X@X#X$X$X$X$X$X$X$X$X%X&X@X#X$X$X$X$X$X$X$X$X%X&X@X#X$X$X$X$X$X$X$X$X%X&X@X#X$X$X$X$X$X$X%X&X+X",
"+X@X#X$X$X$X$X$X$X$X$X%X&X@X#X$X$X$X$X$X$X$X$X%X&X@X#X$X$X$X$X$X$X$X$X%X&X@X#X$X$X$X$X$X$X$X$X%X&X@X#X$X$X$X$X$X$X%X&X+X",
"*X=X-X%X%X%X%X%X%X%X%X;X}.}.;X%X%X%X%X%X%X%X%X;X}.}.;X%X%X%X%X%X%X%X%X;X}.}.;X%X%X%X%X%X%X%X%X;X}.}.;X%X%X%X%X%X%X-X=X*X",
"    =X&X&X&X&X&X&X&X&X}.:X:X}.&X&X&X&X&X&X&X&X}.:X:X}.&X&X&X&X&X&X&X&X}.:X:X}.&X&X&X&X&X&X&X&X}.:X:X}.&X&X&X&X&X&X=X    ",
"    *X+X+X+X+X+X+X+X+X+X+X+X+X+X+X+X+X+X+X+X+X+X+X+X+X+X+X+X+X+X+X+X+X+X+X+X+X+X+X+X+X+X+X+X+X+X+X+X+X+X+X+X+X+X+X      "
};
