/* XPM */
static char *result[] = {
/* columns rows colors chars-per-pixel */
"60 60 233 2 ",
"   c #0B0B0D",
".  c #0D0F11",
"X  c #070D14",
"o  c #0A111A",
"O  c #0D1113",
"+  c #1B1B1B",
"@  c #161617",
"#  c #100E0D",
"$  c #211E1B",
"%  c #221916",
"&  c #361713",
"*  c #25211C",
"=  c #0E1622",
"-  c #131C2B",
";  c #191D24",
":  c #151F31",
">  c #1C222C",
",  c #18212B",
"<  c #152133",
"1  c #1B2434",
"2  c #1A263B",
"3  c #1C283C",
"4  c #232424",
"5  c #292624",
"6  c #2C2C2C",
"7  c #27282B",
"8  c #312D2B",
"9  c #362D24",
"0  c #383229",
"q  c #242A33",
"w  c #2B2D33",
"e  c #232A38",
"r  c #2D3136",
"t  c #333333",
"y  c #3C3A3A",
"u  c #393838",
"i  c #312F30",
"p  c #433C35",
"a  c #49352B",
"s  c #6B3229",
"d  c #68231B",
"f  c #4B4236",
"g  c #574939",
"h  c #56422C",
"j  c #634E36",
"k  c #69553B",
"l  c #715A3B",
"z  c #64442E",
"x  c #79603D",
"c  c #1D2B43",
"v  c #1F2F4A",
"b  c #1F314C",
"n  c #212E44",
"m  c #212F4C",
"M  c #22324D",
"N  c #2A354A",
"B  c #343B46",
"V  c #223452",
"C  c #253856",
"Z  c #293A55",
"A  c #263A5A",
"S  c #2A3C5C",
"D  c #273756",
"F  c #2B3E61",
"G  c #34425D",
"H  c #2B405F",
"J  c #2D4266",
"K  c #2E4268",
"L  c #314465",
"P  c #31456A",
"I  c #354A6D",
"U  c #3B4C6C",
"Y  c #394965",
"T  c #354C74",
"R  c #3A4E72",
"E  c #384D78",
"W  c #3D5175",
"Q  c #3C527B",
"!  c #3E506E",
"~  c #494846",
"^  c #5B5347",
"/  c #4D4E53",
"(  c #62594C",
")  c #685845",
"_  c #715D43",
"`  c #665D50",
"'  c #796448",
"]  c #776957",
"[  c #6B6359",
"{  c #43526D",
"}  c #445574",
"|  c #4C5D7B",
" . c #465879",
".. c #525F7A",
"X. c #4D576A",
"o. c #55627C",
"O. c #5C626B",
"+. c #67666B",
"@. c #6E6F76",
"#. c #903024",
"$. c #A43B2C",
"%. c #9C4F37",
"&. c #A94B36",
"*. c #80633D",
"=. c #A85B43",
"-. c #866B48",
";. c #8D724D",
":. c #95764D",
">. c #87735A",
",. c #9B7C53",
"<. c #937855",
"1. c #826A51",
"2. c #AC6E52",
"3. c #8C7A64",
"4. c #847664",
"5. c #917E66",
"6. c #827875",
"7. c #905B46",
"8. c #9B815D",
"9. c #A38154",
"0. c #AA8657",
"q. c #B48D5B",
"w. c #B98F5A",
"e. c #BC925D",
"r. c #998467",
"t. c #938576",
"y. c #A38B6D",
"u. c #A68964",
"i. c #B58663",
"p. c #AA906D",
"a. c #B99566",
"s. c #A38D71",
"d. c #AE9675",
"f. c #A79175",
"g. c #B09675",
"h. c #B39975",
"j. c #BB9E78",
"k. c #BBA17B",
"l. c #C0965E",
"z. c #C59A63",
"x. c #C89D65",
"c. c #C39E72",
"v. c #CDA168",
"b. c #D4A66C",
"n. c #DBAB6B",
"m. c #D3A668",
"M. c #C6A578",
"N. c #D6AB75",
"B. c #DCB278",
"V. c #E9B46F",
"C. c #E6B26E",
"Z. c #E6B373",
"A. c #E8B471",
"S. c #EABB7C",
"D. c #E4B87B",
"F. c #E1AE6F",
"G. c #3D5581",
"H. c #435B83",
"J. c #546584",
"K. c #5C6B88",
"L. c #5C7194",
"P. c #626E8A",
"I. c #69758C",
"U. c #6B7893",
"Y. c #747C92",
"T. c #767980",
"R. c #837E80",
"E. c #75829A",
"W. c #7C8499",
"Q. c #7C8188",
"!. c #7E89A2",
"~. c #999699",
"^. c #908C8A",
"/. c #848EA4",
"(. c #8A94AA",
"). c #949CB0",
"_. c #9298AB",
"`. c #9DA4B7",
"'. c #A4A9BB",
"]. c #A7ABBA",
"[. c #B1AFB4",
"{. c #B8A58C",
"}. c #CAAD82",
"|. c #C7AA83",
" X c #CEB28A",
".X c #D2B184",
"XX c #DCBB8D",
"oX c #D8B789",
"OX c #D3BA96",
"+X c #CCB08F",
"@X c #E5BB83",
"#X c #ECBE82",
"$X c #E3BE8C",
"%X c #E2BF92",
"&X c #C8BEB8",
"*X c #EDC38B",
"=X c #E9C189",
"-X c #E4C392",
";X c #EBC693",
":X c #EECA95",
">X c #EECC99",
",X c #F0CA95",
"<X c #F0CB99",
"1X c #F0C791",
"2X c #DCC4A3",
"3X c #D2C5B8",
"4X c #E8CBA4",
"5X c #EAD0A9",
"6X c #E2CEB3",
"7X c #DEC39F",
"8X c #A7ADC1",
"9X c #B8B9C7",
"0X c #B1B8C9",
"qX c #C1BDC1",
"wX c #BEC1D1",
"eX c #C5C2CA",
"rX c #D1C9C4",
"tX c #C8C9D7",
"yX c #D5D4DD",
"uX c #CECED7",
"iX c #E8D8C7",
"pX c #E7D9D0",
"aX c #D9D8E3",
"sX c #E1DEEA",
"dX c #E8E4ED",
"fX c #EDE9F2",
"gX c #F2EDF6",
"hX c #F3EEF8",
"jX c #F6F1F9",
"kX c #F7F0F9",
"lX c #F3EBEC",
"zX c #E9E0DC",
"xX c None",
/* pixels */
"xXxXxXxXxXxXxXxXxXxXxXxXxXxXxXxXxXxXxXxXxXxXxXxXxXxX- , < 3 3 n n n n m n n c 3 1 - xXxXxXxXxXxXxXxXxXxXxXxXxXxXxXxXxXxX",
"xXxXxXxXxXxXxXxXxXxXxXxXxXxXxXxXxXxXxX- < 3 n Z J W W W Q Q E Q E E Q Q Q G.G.H.H.H.W S c 1 , xXxXxXxXxXxXxXxXxXxXxXxXxX",
"xXxXxXxXxXxXxXxXxXxXxXxXxXxX, 3 V J I R T K K K J J J J J J J J L J J J K K K P K  . .E W Q Q I Z c - xXxXxXxXxXxXxXxXxX",
"xXxXxXxXxXxXxXxXxXxXxX= n U Q T P J J J K K G.U.W.K.! J I J.} P F L J K K K F K K U P.(.E.W P  . .Q W H < xXxXxXxXxXxXxX",
"xXxXxXxXxXxXxXxX: c K T I L J J J J K J K J K K W K.(.'.`.E.E.).!. .K J P F P F K K K W I.8X`.U.I._.J.T I G 3 xXxXxXxXxX",
"xXxXxXxXxXxX, M I T J J K K J J J J J K J K J J J P I } Y.wXaXwX9XyX8X| P P F K J K J J P ! !.yXuX_.wX`. .P I V - xXxXxX",
"xXxXxXxXxXe S P K K J K J J K K K J K J J J J J J K J R | E.].sXfXhXhXaX`.H.F P J J K K P W K./.uXdXaXdX9XU.U P N , xXxX",
"xXxXxX< M H J J J K J J J J K K K K K J K J J J K J J P P I I.9XfXkXkXkXfXaX(.R K K J J K K I P.9XhXkXjXkXaX(.} J M = xX",
"xXxXxX3 S J J J J J K J J J J K F K K F K J K K J K J J J S J } (.aXgXgXfX9X'.!.T J J J J J J J J.9XjXjXgXgXaX!.U H : xX",
"xXxX2 A J J J J J J K J J ! o.P.U.K. .T K J K K J J J J J H S D F ..8X0X9XaX!. .T J J J J H S J I | '.dXsXsX'.`.U.I b X ",
"xX= V J J J J J I  .K.U.E./.(.).8XwXyXtX0X/.I.W J J J J F F F A V D U (.U.).8X} K J K K J F A A J S | '.'.tX`.J.| P A X ",
"xX- F J J J K K J J Y I ! { o.Q.'.aXgXgXgXsX9X/.J.I J J F A F S A V V L |  ./.U.J J F J F J A V A C S o.U.W.`.J.L J Z X ",
"o n P J F L F A C C V C C C H H { ..Y.).tXtX9XeX/.Y F F F A V A C V V V Z S Y | D A A C A C C V V V V S Y { (.K.J J M . ",
"o D F L S A C V V V V b b b b V M D Z Y { o.I.I.o.K.U A A A V V V V V V V M V D V V b V b V b V V b M M C C X.! C C 3 o ",
"o Z F D V V V V V V b V b V b V M M M V V V G S H G A V V V V V M V V V m c 3 2 < - : : > > , , - < < 2 c b Z Z C v o xX",
"o m D M V V M M b 3 3 1 q r r r e e e 1 3 v b V V M V b V b c 2 e w u f ) ) _ -.;.:.,.,.9.9.9.9.,.;.-.' ) g u e 3 < o xX",
"o 2 b V M c 2 r ~ ` ] ] 4.3.3.3.5.4.4.] ` ~ u 1 c c < q u g ' <.9.i.a.x.v.M.N.B.B.D.D.@X@X@XS.B.D.D.B.b.m.c.a.9._ 5 xXxX",
"xX- b v e y ( >.r.r.p.d.d.g.g.g.g.g.g.p.y.r.>.^ , i k :.0.x.b.B.D.#X*X*X1X1X1X1X,X>X:X:X:X>X:X:X;X1X1X1X#X#X#XZ.z.g xXxX",
"xXo - 7 ( 5.s.f.d.d.g.d.d.d.d.d.g.g.g.g.h.M.b.u.> q g -.a.oX;X;X>X>X>X>X,X<X<X<X>X>X:X:X>X>X>X>X<X<X<X<X<X<X,X#Xm.g xXxX",
"xXo O 8 ' g.g.g.d.d.d.d.d.g.d.d.g.g.h.c.N.B.Z.b.9 1 3 G ~ ^ 4.h. X-X>X>X<X<X<X<X:X>X>X>X>X>X>X>X<X<X<X<X4X%X|.r.) 6 xXxX",
"xXxXxXxXg r.d.g.d.d.g.d.g.d.d.h.h.c.N.n.Z.#X=X#Xs.4.[ ^ ~ u B ~ ^ ` 4.s.k. X%X>X>X>X>X>X>X>X>X>X;XoXk.s.4.( ( ( ^ a xXxX",
"xXxXxXxXxX) s.g.d.d.g.d.d.d.g.h.c.N.A.A.#X1X>X>X:X%X Xh.4.^ u 6 > > w u y ~ ( ] ] r.p..X:X>X>X X] ( ~ u 0 u p ] u.l xXxX",
"xXxXxXxXxXp ] r.r.r.d.d.g.d.g.M.B.C.A.#X1X,X>X:X|.u.<.t.s.~.~.~.~.~.@./ n 1 > y ` >.r..X:X>X>XXXp.[ +.@.G G / +.3.f xXxX",
"xXxXxXxXxXxXf ;.,.-._ s.g.g.c.N.C.A.S.1X<X<X>X|.j [ [.[.uXyXdXlXyX(.I.| W Y Y G / 6. X;X>X>X>X-X+X&X9X^.| K T o.+.8 xXxX",
"xXxXxXxXxXxX-.0.0.9.j ) f.h.n.A.V.A.*X,X>X>X:XoX>.@.zXhXjXkXkXhX]...E.W J J T G.U @.+X>X<X<X>X2XrXfXaXP. .F T J.+.xXxXxX",
"xXxXxXxXxXl 0.z.z.9.u.h ) ,.C.V.V.S.*X>X>X>X>X>X-X.X6XlXjXjXkXgX).X.K.Q H H T H.W W.rX4X>X<X>X6XfXhXdX).J.E } O./ xXxXxX",
"xXxXxXxXxXl q.m.N.,.M.<.9 0.V.V.A.#X:X,X>X>X>X>X<X<X5XiXzXgXjXkXtXE.| Q T T Q | E.[.pX4X>X<X>X6XiXpXpXrX~.R.t.] xXxXxXxX",
"xXxXxXxXxXxX,.m.b.9.}.N.*.m.V.V.V.S.*X,X>X>X,X,X<X<X<X4X2X3X3XrXeX[.~.Q.T.T.Q.^.OX6X5X4X<X<X;X>X4X>X4X4X4XOXOX3.xXxXxXxX",
"xXxXxXxXxXxXl e.m.x.B.S.v.C.V.A.A.Z.S.*X1X:X1X,X<X<X<X>X;XOXOXOX7X2X2XOX+X XXX-X>X>X>X>X<X>X>XoXoX-X>X<X>X>X;X3.xXxXxXxX",
"xXxXxXxXxXxXxX-.e.b.Z.Z.n.F.A.A.A.A.A.S.S.=X=X#X*X<X<X>X>X>X>X>X>X>X:X>X>X>X>X>X>X>X>X>X<X<X;XXX.X|. X<X>X>X;Xy.xXxXxXxX",
"xXxXxXxXxXxXxXxXxX0.w.w.:.e.C.C.A.A.A.V.A.A.A.A.S.*X:X:X>X>X>X>X>X>X>X>X>X>X>X>X>X>X>X>X<X<X>X>XXXj. X>X>X>X>Xj.^ xXxXxX",
"xXxXxXxXxXxXxXxXxXxXxXxXxX-.q.v.F.V.A.V.V.V.A.C.A.S.=X:X:X:X:X:X>X>X>X>X>X>X>X>X:X>X-X%X%X4X;X>X;X%X>X>X>X>X-Xp.xXxXxXxX",
"xXxXxXxXxXxXxXxXxXxXxXxXxXxXxX,.w.l.x.n.C.V.V.V.V.V.A.#X*X:X:X>X>X>X>X>X>X>X>X,X>X>XXXB.|.}. X-X>X>X>X>XoX}.k.xXxXxXxXxX",
"xXxXxXxXxXxXxXxXxXxXxXxXxXxXxXxXxXxX:.0.w.w.x.n.V.V.V.V.D.@X=X1X:X:X>X>X>X>X>X>X,X>X>XXX}.k.M.-X;XXXoX|.f.xXxXxXxXxXxXxX",
"xXxXxXxXxXxXxXxXxXxXxXxXxXxXxXxXxXxXxX9 a g l -.:.0.q.w.l.v.m.B.B.@X=X=X=X-X-X-X-X-X-X-X-XXXXXoX Xc.xXxXxXxXxXxXxXxXxXxX",
"xXxXxXxXxXxXxXxXxXxXxXxXxXxXxXxXxXxX; ; * 7 5 $ 9 0 f g k x x ' ;.;.;.:.q.j.M.M.M.M. XxXxXxXxXxXxXxXxXxXxXxXxXxXxXxXxXxX",
"xXxXxXxXxXxXxXxXxXxXxXxXxXxXxXxX7 ; $ 4 6 t i 5 6 t t t t i 7 7 5 5 7 + xXxXxXxXxXxXxXxXxXxXxXxXxXxXxXxXxXxXxXxXxXxXxXxX",
"xXxXxXxXxXxXxXxXxXxXxXxXxXxXxX7 ; 4 6 i t t w 4 t t t t t t i i t t t 5 xXxXxXxXxXxXxXxXxXxXxXxXxXxXxXxXxXxXxXxXxXxXxXxX",
"xXxXxXxXxXxXxXxXxXxXxXxXxXxXg g p p p p u 8 4 5 t t t t t t 6 i t t y 6 O xXxXxXxXxXxXxXxXxXxXxXxXxXxXxXxXxXxXxXxXxXxXxX",
"xXxXxXxXxXxXxXxXxXxXxXxXxXxX;.x.p.y.3.4.( 5 + ; t t t t t t 6 i t t y 6   xXxXxXxXxXxXxXxXxXxXxXxXxXxXxXxXxXxXxXxXxXxXxX",
"xXxXxXxXxXxXxXxXxXxXxXxXxXxXa.S.:X<X>X%X5.$ @ + 7 t t t t t t 6 w i t i # 5 a xXxXxXxXxXxXxXxXxXxXxXxXxXxXxXxXxXxXxXxXxX",
"xXxXxXxXxXxXxXxXxXxXxXxXxXxX,.b.B..XN.i.7.& % ; + 4 6 i t t t t t t t t % s #.d ) xXxXxXxXxXxXxXxXxXxXxXxXxXxXxXxXxXxXxX",
"xXxXxXxXxXxXxXxXxXxXxXxXxXxXz %.%.&.&.#.$.#.9 % + $ 4 7 i t t t t t t t % d &.2.|.y.( xXxXxXxXxXxXxXxXxXxXxXxXxXxXxXxXxX",
"xXxXxXxXxXxXxXxXxXxXxXxXxXxX& #.&.&.&.=.2.2.) 9 7 4 $ 4 4 7 i i u t i i & s 0.XX:Xk.' -.' t xXxXxXxXxXxXxXxXxXxXxXxXxXxX",
"xXxXxXxXxXxXxXxXxXxXxXxXxXxXxXl e.N.-X:X:X;XM.<.) 8 8 6 6 6 6 6 8 t w i * ' =X*XB.9.j a.u.0 ) ] f xXxXxXxXxXxXxXxXxXxXxX",
"xXxXxXxXxXxXxXxXxXxXxXxXxXxXxXj e.C.#X*X*X*X1X;Xy.8 6 6 w w w w w q q q > g z.m.0.j a x -.h ;.8.` xXxXxXxXxXxXxXxXxXxXxX",
"xXxXxXxXxXxXxXxXxXxXxXxXxXxXxXxX' v.V.#X1X1X:X=Xh.^ 7 1 e n n M Z D S L b $ k :.h j ' l l -.1.0 xXxXxXxXxXxXxXxXxXxXxXxX",
"xXxXxXxXxXxXxXxXxXxXxXxXxXxXxXxXxX:.n.D.@XB..XB.M.r.i c M M D A F J J J b - , xXf ' j ' u.' xXxXxXxXxXxXxXxXxXxXxXxXxXxX",
"xXxXxXxXxXxXxXxXxXxXxXxXxXxXxXxXxXxX9.q.0.<.k ) 0 t 4 - v v M A F L F P F S c xXxXxX' _ 0 xXxXxXxXxXxXxXxXxXxXxXxXxXxXxX",
"xXxXxXxXxXxXxXxXxXxXxXxXxXxXxXxXxXxX4 5 * 4 4 6 t 6 ; xXxXxX< v A F P F F P S c xXxXxXxXxXxXxXxXxXxXxXxXxXxXxXxXxXxXxXxX",
"xXxXxXxXxXxXxXxXxXxXxXxXxXxXxXxXxXxX; ; 4 7 4 7 8 6 > xXxXxXxX< M S F F J K P D xXxXxXxXxXxXxXxXxXxXxXxXxXxXxXxXxXxXxXxX",
"xXxXxXxXxXxXxXxXxXxXxXxXxXxXxXxXxXxX- q q q q 7 q e - xXxXxXxXxX> N Y Y { X.+.i xXxXxXxXxXxXxXxXxXxXxXxXxXxXxXxXxXxXxXxX",
"xXxXxXxXxXxXxXxXxXxXxXxXxXxXxXxXxXxXe B G G H G Z Z < xXxXxXxXxXa >.r.s.h.+X{.9 xXxXxXxXxXxXxXxXxXxXxXxXxXxXxXxXxXxXxXxX",
"xXxXxXxXxXxXxXxXxXxXxXxXxXxXxXxXxXf r.f.6.+...O.N b xXxXxXxXxXxXj M.=X=X>X>Xk.% xXxXxXxXxXxXxXxXxXxXxXxXxXxXxXxXxXxXxXxX",
"xXxXxXxXxXxXxXxXxXxXxXxXxXxXxXxXxXk c.D.@X*X-Xk.4 xXxXxXxXxXxXxXf j.B.B.XXXXr.@ xXxXxXxXxXxXxXxXxXxXxXxXxXxXxXxXxXxXxXxX",
"xXxXxXxXxXxXxXxXxXxXxXxXxXxXxXxX@ % 9 g ] u.f.g xXxXxXxXxXxXxXxX@ * * * 8 8 7 @ xXxXxXxXxXxXxXxXxXxXxXxXxXxXxXxXxXxXxXxX",
"xXxXxXxXxXxXxXxXxXxXxXxXxXxXxXo @ + 4 6 t w 4 O xXxXxXxXxXxXxXO @ + + * t t t 4 xXxXxXxXxXxXxXxXxXxXxXxXxXxXxXxXxXxXxXxX",
"xXxXxXxXxXxXxXxXxXxXxXxXxXxXO + + + 4 w t t t t w 7 xXxXxXxXxX. # + + + 6 t t t t w 7 xXxXxXxXxXxXxXxXxXxXxXxXxXxXxXxXxX",
"xXxXxXxXxXxXxXxXxXxXxXxXxXxX  + + + + + 4 7 6 7 6 6 4 @ xXxXxX. @ + + + $ * 5 6 6 6 i 6 + xXxXxXxXxXxXxXxXxXxXxXxXxXxXxX",
"xXxXxXxXxXxXxXxXxXxXxXxXxXxX  .   . . . . # . . . . . X xXxXxX    O O   O O O O O . O O     xXxXxXxXxXxXxXxXxXxXxXxXxXxX"
};
