/* XPM */
static char *result[] = {
/* columns rows colors chars-per-pixel */
"60 60 91 1 ",
"  c #010101",
". c #0B0B0B",
"X c #1E1604",
"o c #1E1A0F",
"O c #141414",
"+ c #1C1C1C",
"@ c #201704",
"# c #241B05",
"$ c #291E05",
"% c #241E12",
"& c #2C2106",
"* c #2F250C",
"= c #332607",
"- c #372907",
"; c #392A07",
": c #31260D",
"> c #352808",
", c #3C2D08",
"< c #262114",
"1 c #292315",
"2 c #2A251A",
"3 c #2E291E",
"4 c #332C1D",
"5 c #242424",
"6 c #282726",
"7 c #2F2B22",
"8 c #2B2B2B",
"9 c #312D24",
"0 c #343127",
"q c #36322A",
"w c #39352C",
"e c #343434",
"r c #3A3730",
"t c #3B3831",
"y c #3B3B3B",
"u c #402F09",
"i c #433109",
"p c #49360A",
"a c #4E390A",
"s c #533D0B",
"d c #453D2C",
"f c #413E3A",
"g c #5C430C",
"h c #5F4B1F",
"j c #61470D",
"k c #654A0E",
"l c #6B4E0E",
"z c #6E510F",
"x c #71530F",
"c c #644B10",
"v c #6A4E11",
"b c #644E1C",
"n c #6B5012",
"m c #6B511A",
"M c #755610",
"N c #775813",
"B c #7B5B11",
"V c #4F4226",
"C c #4F452E",
"Z c #524427",
"A c #564827",
"S c #5C4A22",
"D c #544729",
"F c #464135",
"G c #4A4437",
"H c #46433B",
"J c #4B4539",
"K c #414141",
"L c #4C4941",
"P c #4E4E4E",
"I c #52504C",
"U c #525252",
"Y c #5A5A5A",
"T c #656565",
"R c #6D6D6D",
"E c #757575",
"W c #7D7D7D",
"Q c #825F12",
"! c #846112",
"~ c #966E14",
"^ c #986F15",
"/ c #9B7215",
"( c #808080",
") c #8D8D8D",
"_ c gray58",
"` c gray60",
"' c #A4A4A4",
"] c #ACACAC",
"[ c #B1B1B1",
"{ c #B8B8B8",
"} c #C5C5C5",
/* pixels */
"pB/~!BBBBBMgpsnSJE]])(((WY8O   O8T{}`((((RLdmBBlaplBBBBBBla;",
"aB/~!BBBBBMjpgnhJR][)(((WWTLO  e_{'_(W(((RKdmBBlaplBBBBBBla;",
"pB/~!BBBBBxgpslhGR][)(((((WY+  K'}`((((((RPdbNBzapkBBBBBBla;",
"pB/~!BBBBBBjpsvhGR][_(((((WY+  e`{_((((((RPdmBBlapkNBBBBBls;",
"pM/~!BBBBBBjpsnhFY)_)W(((((RK88P)')((W(WETKdbBBzapjBQBBBBxs,",
"pB/~!BBBBBxjpsvbdKYREEEEEEERRTTREWWEEEEEYPKdbNNMspkBBBBBBzs;",
"px//!BBBBBxjpsnbFyLUUYYYYYYYYYYUUYUYYUUUPPydbBBvapjBBBBBBxs,",
"pB//!BBBBBBjpanMbAHKPPPPPPPPPUPPUPUPUUPPKHAmmBBMspjxBQBBBxg,",
"px//!BQBBBBjpazBBmSGHLKKKKKKLKKKKKKKKKfHDhmNBBQxgpgBBBBBBxg,",
"ix//!BBBBBBjpazBBBNmZdddrwdddddddddddwdZbNBBBBBxsigBBBBBBBg,",
"ix//!BBBBBBkpazBBBBBNNNvapcNBBBBBBBxspjMBBQBBBBxgpgzBBBBQxg,",
"ix//!BBBBBMkpazBBBBBBBBlapcNBBBBBBBxspgxBBBBBBBxgpgxBBBBBxgi",
"px//!BBBBBBjpazBBQBBBBBlapkNBBBBNBBlspgMBNBBNBNxgigzBxNBBxg,",
",j!!Bxzzxxlgiijlzvlvllljuiskvccclclgp,pgkkkkjkkgp-igkgkgggp=",
"#&,iiiiiiii=##=iuuuiuui,$#=uuuuuuuu;$#=;uuuu,u,,&#&;,,i,,,=#",
"X$;,;,;,;,;=##=,,,;,;;;=##&-;;;,;;;=$#$>;-=;;;;>&X#=;-----=1",
"%1:$*&&&&&$#XX#$$$$$$$$#@@##$#$$$$$##X##########XXX#######9L",
"677%%%%%<%<2%22222222631o%9q947998998099q0qwqewwwwerrttttfPR",
"6yYTYUUUUUUUUUUUUUUUUUYK68YTUUUUUUUUUUUUUUUUUUUUUUUUUUUUUYTR",
"6yYTYPUUUUPUUUPPUIUUUUPK68YTYUUUPUUUUUUUPUUUUUPPUUUUUPUUUYTR",
"6ePYUPPPPPPPPPPPPPPPPPPK5eYTUPPPPPPPPPPPPPPPPPPPPPPPPPPPPUTR",
"8eKPKKPKLKKPPKKPKLPKKKKK58UYULPKKKPKKKPKKLPKPKPKLKPKKLPKKUTR",
"888eeeeeeeeeeeeeeeeeyee855yKyeeeeeeeyeeeeeeeeeeeeeeeeeeeeKTR",
"865+5+555+55+555555+55+++++555+5555+5555555+++5555+55+55+eUR",
"65++8e8888888888888888888888888888e88e88885+++888888e65+O6UR",
"85++eyyyyyyyyyyeyyyyyyyyyyyyyyyyyeeyeyyeye85+58yyyeyye8+.+UR",
"65+5yKKyKyKKKyKKKKyKKyKKKyKyKKKKKKKKKyKKKye5++eKyKKKKye+.+UR",
"85++yKKKKKyKKKKKKyKKKKyKKKKKKyKKKyKKKKKKyy85++eKKKyKKy85.+UR",
"65++yKKKyKKyKKKKKKKKKKKKKKyKyKKyKyKyKyKKKy85++eKKKKKyy85.+UR",
"65+5yKKKKKKKKyKyKyyKKyyKyKKKKKKKKKKKKKKyKye5++eKKKyKKye+ +UR",
"65O5yKKKKKKKKyKKKKKKKKKKKKKKKKKyKKKKKyKKKy85++eKyKKKyy8+.+UR",
"85+5yKKyyKyyKyKyyKyyKyyKyyyKyyyKyKyyyKKyyy85+5eyKyyyKy85.+UR",
"85++8eeeeeeeeeeeeeeeeeeeeeeeeeeeeeeeeeeee885++8eeeeeee8+.+UR",
"85++566866688685588558855855855858858858585++++56866665+ +UR",
"85O+++++++++++++++++++++++++++++++++++++++++OO++++5+++++.+UR",
"6++.OOOO+++O+O+++++++++++++++++O+O+++++++++++++++O+O+OO. +UR",
"8+O ..OO++++++5+++5+++5++++++++O++++5+++5+++++++++++O..  +UR",
"85.   O++585555655558555555555O++5558555555555555565+O.  +UR",
"8+.   OO5855556585555555555885++55555555555858855565OO.  +UR",
"8+.   OO+58555855558555885555++O5585558585555555655+O.   +UR",
"8+.   .O555558555555555556656+++55858555555585555555OO   +UR",
"8+.  ..+5585555558585555555565OO+555555855555558656+O.   +UR",
"6+.   .++555585855658858655665++5585555588588555656++O   +UR",
"65.   .++5+5++++5+++++++++5+++O+++++5++++++++5++5+++O.   +UR",
"8+.  ..OO+++++O++O+++++++++OOOOO++++++++++++++++OO++O.   +PR",
"65.   ...O.OOOO.OO.O.O.OOO.OOOOOO.O..O.O.O.O.OO.OOO.O.   +UR",
"8+.    ...O..O.O.OO..O.OO.O.O.OO.O.O.O.O.O.OO..O.O...    +UR",
"8+.     ...OO.OOOO.O.OO.OOOO.OOOO.OOOOOO.OO.OOO.OO..     +UR",
"8+.     ..OOOOOOOOO.OOOOOOOOOOOOOOOOOOOOOOOOOOO.OO.      +UR",
"8+.      OOOOO+OOOO.OOOOOO+O+OOOO++OOO+OOO+OOO.OOO..     +UR",
"8+.     ..O+OOOOOOOOO+O++O+OO+O+OOOOOOOO+O+OOO.OOO..     +IR",
"8+.      .OO+O+OOOOOOOOOOOOOOOOO+O+O+O+OOOOO+OO.OO.      +UR",
"8+.      OOO+O+OOO.OOO+O+OOOOOOOO+O+O+OO+OOO+O.OOO.      +UR",
"8+.     ..OOOOOOOOOOOOOOOOO++O+OOOOOOOO+OOO+OOOOOOO.     +UR",
"6+.     ..OOOOOOOOO.OO+OOOOOOOOOO++OO+OO+OO+OOO.OOO      +UR",
"8+.      .OOOOOOOOO.OOOOOOOOOOOOO.O.O.OOO.OO.O..O..      +UR",
"8+O.....OOOO+OO+OO+O+OOO+OO++OO+O+OO++OOOOOO+OOOOOOO.....5UR",
"8888e88eeeeeeeeeeeyeeeeeeeeeeeeeeeeeeeeeeeeeeeeeeeeee8888KYR",
"6yUYYYYYYYYYYYYYYYYYYYYYYYYYYYYYYYYYYYYYYYYYYYYYYYUYYYYYYYRR",
"8yYRRRRRRRRRRRRRRRRRERRRRRRRRRRRRRRRRRRRRRRRRRRRRRRRRRRRRRRR"
};
