/* XPM */
static char *result[] = {
/* columns rows colors chars-per-pixel */
"60 47 91 1 ",
"  c #262626",
". c #2B2526",
"X c #342425",
"o c #3C2324",
"O c #312C2C",
"+ c #363636",
"@ c #3F3E3E",
"# c #5D1D1F",
"$ c #671C1F",
"% c #6D1B1F",
"& c #7E171B",
"* c #751A1E",
"= c #7B191D",
"- c #4D1F21",
"; c #541F21",
": c #5B1E21",
"> c #631E21",
", c #6B1E21",
"< c #741E21",
"1 c #7C1F23",
"2 c #442324",
"3 c #4B2224",
"4 c #492729",
"5 c #4D2C2D",
"6 c #542224",
"7 c #5C2124",
"8 c #5A2B2D",
"9 c #413F3F",
"0 c #4A3A3A",
"q c #632124",
"w c #6C2124",
"e c #60282B",
"r c #742024",
"t c #7E2024",
"y c #613134",
"u c #4A4949",
"i c #545252",
"p c #5E5555",
"a c #615C5C",
"s c #656565",
"d c #6E6C6C",
"f c gray44",
"g c gray49",
"h c #87171C",
"j c #8C161B",
"k c #82181D",
"l c #8A1A1F",
"z c #93161B",
"x c #9B151A",
"c c #961A1F",
"v c #9A191F",
"b c #A51319",
"n c #AC141B",
"m c #A3191F",
"M c #AC181E",
"N c #B4161C",
"B c #BC161D",
"V c #B4191F",
"C c #BB181F",
"Z c #831E22",
"A c #8C1E22",
"S c #931E22",
"D c #9C1D23",
"F c #A41D22",
"G c #AC1B21",
"H c #B31C22",
"J c #BB1B22",
"K c #862024",
"L c #8C2125",
"P c #B12026",
"I c #C5171E",
"U c #C9171E",
"Y c #C4181F",
"T c #CE181F",
"R c #C31A21",
"E c #CC1A21",
"W c #D31921",
"Q c #D91921",
"! c #E61C23",
"~ c #EB1A23",
"^ c #F51C25",
"/ c #FD1D26",
"( c gray51",
") c #8D8D8D",
"_ c gray58",
"` c #AAAAAA",
"' c gray71",
"] c #C2C2C2",
"[ c #D3D3D3",
"{ c #E5E5E5",
"} c None",
/* pixels */
"}}}}}}}}}}}}}}}}}}}}}}}}}}}}}}}}}}}}}}}}}}}}}}}}}}}}}}}}}}}}",
"}}}}}}}}}}}}}}}}}}}}}}}}}}}}}}}}}}}}}}}}}}}}}}}}}}}}}}}}}}}}",
"}}}}}}}}}}}}}}}}}}}}}}}}}}}}}}}}}}}}}}}}}}}}}}}}}}}}}}}}}}}}",
"}}}}}}}}}}}}}}}}}}}}}}}}}}}}}}}}}}}}}}}}}}}}}}}}}}}}}}}}}}}}",
"}}}}}}}}}}}}}}}}}}}}}}}}}}}}}}}}}}}}}}}}}}}}}}}}}}}}}}}}}}}}",
"}}}}}}}}}}}}}}}}}}}}}}}}}}}}}}}}}}}}}}}}}}}}}}}}}}}}}}}}}}}}",
"}}}}}}}}}}}}}}}}}}}}}}}}}}}}}}}}}}}}}}}}}}}}}}}}}}}}}}}}}}}}",
"}}}}}}}}}}}}}}}}}}}}}}}}}}}}}}}}}}}}}}}}}}}}}}}}}}}}}}}}}}}}",
"}}}}}}}}}}}}}}}}}}}}}}}}}}}}}}}}}}}}}}}}}}}}}}}}}}}}}}}}}}}}",
"}}}}}}}}}}}}}}}}}}}}}}}}}}}}}}}}}}}}}}}}}}}}}}}}}}}}}}}}}}}}",
"}}}}}}}}}}}}}}}}o64 }}}}}}}}}}}}}}}}}}}}}}}}}}}}}}}}}}}}}}}}",
"}}}}}}}}}}}}}}} =BWD6.}}}}}}}}  }}}}}}}}}}}}}}}}}}}}}}}}}}}}",
"}}}}}}}}}}}}}}} =x37LS3 }}}} 3L2}}}}}}}}}}}  o }}}}}}}}}}}}}",
"}}}}}}}}}}}}}}} =k6S77Sq.}}.ZRJo.XO }}}}} o>hzX}}}}}}}}}}}}}",
"}}}}}}}}}}}}}}} *j3~!F2rDXXHQQEHWQQr }  6jbNq. }}}}}}}}}}}}}",
"}}}}}}}}}}}}}}} ,xX!/^E4wRtFQQQQQQR3 .:zk:RZ7S }}}}}}}}}}}}}",
"}}}}}}}}}}}}}}}}>b2H/^DXAQQWQQQQQQEEDqxBJEA3EG }}}}}}}}}}}}}",
"}}}}}}}}}     }};b,r^KoFQQQQQQQQQQQQQQEUQJ3J^L }}}}}}}}}}}}}",
"}}}}}}  oqSMMD3 oxb4LXcQQQQQQQQQQQQQQQQQD6D^^6   }}}}}}}}}}}",
"}}}}.31GVS*7qQYq hb;XzTQQQQQQQQQQQQQQQQQD.W/Po1AA<6X }}}}}}}",
"}} 6AVv>3X-XqRvGX*bj=IQQQQQQQQQQQQQQQQQQW3A^wwQm1mBDro }}}}}",
" 6DV<o2-kxjXHq2M1ojbzGQQQQQQQQQQQQQQQQQQQJ4F2AGS 2o:jVS4 }}}",
" 3,2o&l,nN$;J.2,Yq6b=AQQQQG3ZJQQQQQQQQQQQC3o<:4JX&k;o6hJKX }",
"}}} XZBBIboHw-&XmUo$jHQQQW4_)@4AWQQQQQQF6u 2<X.F,#x2:*oocB, ",
"}}}}} 3MB*6J2h$$6VJ2$UQWQGi[{{`d0rRQQSyd`{+Xo*;wHonBmBn; 62 ",
"}}}}}}}3x2ZZ3nZbo*UF46AWQDs[{{{{]iDQJu`{{{i #xjoR2hBIv>. }}}",
"}}}}}}}}o FohBMv=XZYYF4JQHi]{{{{{sHQHs[{{{iX;cN-Sr;N<X}}}}}}",
"}}}}}}}} XZ.:3ooo.XcWW6GQE5_[{{{'5EQEi]{{{+ovNB*6SX:.}}}}}}}",
"}}}}}}}}}XX }}}}} o7UloWQQGO('])OPQQQe([{(.. .3:XS  }}}}}}}}",
"}}}}}}}}} }}}}}}}} o6o*YQQQJq44eJQQQQH8ap7o}}}}  7 }}}}}}}}}",
"}}}}}}}}}}}}}}}}}} $=zbbVEQQQWQQQQQQQQWJJD }}}}}}  }}}}}}}}}",
"}}}}}}}}}}}}}}}}}}}2zbbbj6FQQQQQQQQQQQQQRo}}}}}}}}}}}}}}}}}}",
"}}}}}}}}}}}}}}}}}}} 2bbbbbhRJQQQQQQQQQQI6 }}}}}}}}}}}}}}}}}}",
"}}}}}}}}}}}}}}}}}}}} 3jbbbbb=BUWTWWTUBvo }}}}}}}}}}}}}}}}}}}",
"}}}}}}}}}}}}}}}}}}}}} okbbbbbbbbnNNbb*o }}}}}}}}}}}}}}}}}}}}",
"}}}}}}}}}}}}}}}}}}}}}}} 3kxbbbbbbbxk3 }}}}}}}}}}}}}}}}}}}}}}",
"}}}}}}}}}}}}}}}}}}}}}}}}} X->%*,$-X }}}}}}}}}}}}}}}}}}}}}}}}",
"}}}}}}}}}}}}}}}}}}}}}}}}}}}}     }}}}}}}}}}}}}}}}}}}}}}}}}}}",
"}}}}}}}}}}}}}}}}}}}}}}}}}}}}}}}}}}}}}}}}}}}}}}}}}}}}}}}}}}}}",
"}}}}}}}}}}}}}}}}}}}}}}}}}}}}}}}}}}}}}}}}}}}}}}}}}}}}}}}}}}}}",
"}}}}}}}}}}}}}}}}}}}}}}}}}}}}}}}}}}}}}}}}}}}}}}}}}}}}}}}}}}}}",
"}}}}}}}}}}}}}}}}}}}}}}}}}}}}}}}}}}}}}}}}}}}}}}}}}}}}}}}}}}}}",
"}}}}}}}}}}}}}}}}}}}}}}}}}}}}}}}}}}}}}}}}}}}}}}}}}}}}}}}}}}}}",
"}}}}}}}}}}}}}}}}}}}}}}}}}}}}}}}}}}}}}}}}}}}}}}}}}}}}}}}}}}}}",
"}}}}}}}}}}}}}}}}}}}}}}}}}}}}}}}}}}}}}}}}}}}}}}}}}}}}}}}}}}}}",
"}}}}}}}}}}}}}}}}}}}}}}}}}}}}}}}}}}}}}}}}}}}}}}}}}}}}}}}}}}}}",
"}}}}}}}}}}}}}}}}}}}}}}}}}}}}}}}}}}}}}}}}}}}}}}}}}}}}}}}}}}}}"
};
