/* XPM */
static char *result[] = {
/* columns rows colors chars-per-pixel */
"60 60 153 2 ",
"   c black",
".  c #0B0B0B",
"X  c gray9",
"o  c gray17",
"O  c #464646",
"+  c #3F3F3F",
"@  c #3E3E3E",
"#  c #393939",
"$  c #252525",
"%  c gray8",
"&  c gray3",
"*  c #010101",
"=  c #1E1E1E",
"-  c gray15",
";  c gray36",
":  c #B7B7B7",
">  c gray74",
",  c #AAAAAA",
"<  c gray65",
"1  c gray58",
"2  c #4B4B4B",
"3  c gray12",
"4  c #151515",
"5  c #323232",
"6  c gray37",
"7  c #888888",
"8  c gray76",
"9  c gray70",
"0  c #B1B1B1",
"q  c gray62",
"w  c gray32",
"e  c #181818",
"r  c gray60",
"t  c #8D8D8D",
"y  c gray54",
"u  c #818181",
"i  c #5B5B5B",
"p  c #373737",
"a  c #161616",
"s  c #808080",
"d  c gray48",
"f  c gray24",
"g  c #777777",
"h  c #686868",
"j  c #727272",
"k  c #797979",
"l  c gray50",
"z  c gray49",
"x  c #6F6F6F",
"c  c #656565",
"v  c #6D6D6D",
"b  c #767676",
"n  c gray39",
"m  c #313131",
"M  c gray20",
"N  c #505050",
"B  c #7C7C7C",
"V  c #494949",
"C  c #272727",
"Z  c gray26",
"A  c #5D5D5D",
"S  c #747474",
"D  c #606060",
"F  c gray40",
"G  c #444444",
"H  c gray14",
"J  c gray31",
"K  c #6C6C6C",
"L  c gray64",
"P  c #9D9D9D",
"I  c gray52",
"U  c #5A5A5A",
"Y  c gray30",
"T  c gray66",
"R  c gray56",
"E  c #A5A5A5",
"W  c gray61",
"Q  c #7E7E7E",
"!  c #929292",
"~  c #7B7B7B",
"^  c gray53",
"/  c #868686",
"(  c #4E4E4E",
")  c gray38",
"_  c #848484",
"`  c #838383",
"'  c gray45",
"]  c #626262",
"[  c #414141",
"{  c #2A2A2A",
"}  c #2C2C2C",
"|  c #555555",
" . c #939393",
".. c #646464",
"X. c gray28",
"o. c #222222",
"O. c #090909",
"+. c #ACACAC",
"@. c #A7A7A7",
"#. c gray11",
"$. c gray1",
"%. c #B2B2B2",
"&. c #484848",
"*. c #232323",
"=. c gray4",
"-. c gray68",
";. c gray46",
":. c gray27",
">. c #0E0E0E",
",. c #9F9F9F",
"<. c #909090",
"1. c #3C3C3C",
"2. c gray77",
"3. c #C8C8C8",
"4. c gray73",
"5. c #8B8B8B",
"6. c #A2A2A2",
"7. c #979797",
"8. c #898989",
"9. c gray51",
"0. c DimGray",
"q. c #565656",
"w. c #5F5F5F",
"e. c #4C4C4C",
"r. c gray23",
"t. c gray29",
"y. c gray18",
"u. c gray44",
"i. c gray63",
"p. c #AEAEAE",
"a. c gray47",
"s. c gray42",
"d. c gray59",
"f. c gray43",
"g. c #8E8E8E",
"h. c gray55",
"j. c gray19",
"k. c #6A6A6A",
"l. c #535353",
"z. c #515151",
"x. c #111111",
"c. c #101010",
"v. c gray22",
"b. c gray25",
"n. c #343434",
"m. c gray21",
"M. c gray6",
"N. c #0C0C0C",
"B. c #070707",
"V. c #131313",
"C. c #060606",
"Z. c gray2",
"A. c #020202",
/* pixels */
"                                                                                                                        ",
"  . X o O O + @ @ @ @ @ @ @ @ @ @ @ @ @ @ @ @ @ @ @ @ @ @ @ @ @ @ @ @ @ @ @ @ @ @ @ @ @ @ @ @ @ @ @ @ @ @ @ @ # $ % &   ",
"* = - ; : > , < < < < < < < < < < < < < < < < < < < < < < < < < < < < < < < < < < < < < < < < < < < < < < < < 1 2 3 4   ",
"* 5 6 7 8 8 9 0 0 0 0 0 0 0 0 0 0 0 0 0 0 0 0 0 0 0 0 0 0 0 0 0 0 0 0 0 0 0 0 0 0 0 0 0 0 0 0 0 0 0 0 0 0 0 0 q w $ e   ",
"  O : 8 r t y y y y y y y y y y y y y y y y y y y y y y y y y y y y y y y y y y y y y y y y y y y y y y y y y u i p a   ",
"  O > 8 t s s s s s s s s s s s s s s s s s s s s s s s s s s s s s s s s s s s s s s s s s s s s s s s s s s d 6 f a   ",
"  + , 9 y s s s s s s s s s s s s s s s s s s s s s s s s s s s s s s s s s s s s s s s s s s s s s s s s s s d 6 f a   ",
"  @ < 0 y s s s s s s s s s s s s s s s s s s s s s s s s s s s s s s s s s s s s s s s s s s s s s s s s s s d 6 f a   ",
"  @ < 0 y s s s s s s s s s s s s s s s s s s s s s s s s s s s s s s s s s s s s s s s s s s s s s s s s s s d 6 f a   ",
"  @ < 0 y s s s s s s s s s s s s s s s s s s s s s s s s s s s s s s s s s s s s s s s s s s s s s s s s s s d 6 f a   ",
"  @ < 0 y s s s s s s s s s s s s s s s s s s s s s s s s s s s s s s s s s s s s s s s s s s s s s s s s s s d 6 f a   ",
"  @ < 0 y s s s s s s s s s s s s s s s s s s s s s s s s s s s s s s s s s s s s s s s s s s s s s s s s s s d 6 f a   ",
"  @ < 0 y s s s s s s s s s s s s s s s s s s s s s s s s s s s s s s s s s s s s s s s s s s s s s s s s s s d 6 f a   ",
"  @ < 0 y s s s s s s s s s s s s s s s s s s s s s s s s s s s s s s s s s s s s s s s s s s s s s s s s s s d 6 f a   ",
"  @ < 0 y s s s s s s s s s s s g h h j k l s s s s s s s s s s s s s s s s z x c v b z s s s s s s s s s s s d 6 f a   ",
"  @ < 0 y s s s s s s s s s s s n m M N h B s s s s s s s s s s s s s s s s b V C Z A S s s s s s s s s s s s d 6 f a   ",
"  @ < 0 y s s s s s s s s s s s D o p F g l s s s s s s s s s s s s s s s s b G H J j B s s s s s s s s s s s d 6 f a   ",
"  @ < 0 y s s s s s s s s s s s K 2 h L P I s s s s l l l l l l l l s s s s k U Y 7 T R s s s s s s s s s s s d 6 f a   ",
"  @ < 0 y s s s s s s s s s s s b c B E W I s s s Q S v K K K K v S Q s s s z v h ! < R s s s s s s s s s s s d 6 f a   ",
"  @ < 0 y s s s s s s s s s s s Q ~ l ^ / u s s l k D J ( ( ( ( J ) B u s s s B ~ _ 7 ` s s s s s s s s s s s d 6 f a   ",
"  @ < 0 y s s s s s s s s s s s s s s s s s s Q ' ] [ o { { { { } | !  .` s s s s s s s s s s s s s s s s s s d 6 f a   ",
"  @ < 0 y s s s s s s s s s s s s s s s s s s ~ ..X.o.O.& & & & . Y +.@.^ s s s s s s s s s s s s s s s s s s d 6 f a   ",
"  @ < 0 y s s s s s s s s s s s s s s s s s s ~ ) Z #.*         $.2 %.+.7 s s s s s s s s s s s s s s s s s s d 6 f a   ",
"  @ < 0 y s s s s s s s s s s s s s s s s s s ~ ) Z #.*         $.2 %.+.7 s s s s s s s s s s s s s s s s s s d 6 f a   ",
"  @ < 0 y s s s s s s s s s s s s s s s s s s ~ ) Z #.*         $.2 %.+.7 s s s s s s s s s s s s s s s s s s d 6 f a   ",
"  @ < 0 y s s s s s s s s s s s s s s s s s s ~ c &.*.O.$.    =.#.i -.< ^ s s s s s s s s s s s s s s s s s s d 6 f a   ",
"  @ < 0 y s s s s s s s s s s s s s s s s s s Q ;.c :.C >.    m _ ,.W <.` s s s s s s s s s s s s s s s s s s d 6 f a   ",
"  @ < 0 y s s s s s s s s s s s s s s s s s s s s k ; 1.a     V 2.3.R u s s s s s s s s s s s s s s s s s s s d 6 f a   ",
"  @ < 0 y s s s s s s s s s s s s s s s s s s s s d 6 f a     Z %.4.5.s s s s s s s s s s s s s s s s s s s s d 6 f a   ",
"  @ < 0 y s s s s s s s s s s s s s s s s s s s s d 6 f a     @ < 0 y s s s s s s s s s s s s s s s s s s s s d 6 f a   ",
"  @ < 0 y s s s s s s s s s s s s s s s s s s s s d 6 f a     @ < 0 y s s s s s s s s s s s s s s s s s s s s d 6 f a   ",
"  @ < 0 y s s s s s s s s s s s s s s s s s s s s ~ h | O @ @ ) ,.6.^ s s s s s s s s s s s s s s s s s s s s d 6 f a   ",
"  @ < 0 y s s s s s s s s s s s l Q Q l s s s s s l d l 7.< < ,.! 8.9.s s s s l Q l l s s s s s s s s s s s s d 6 f a   ",
"  @ < 0 y s s s s s s s s s s s j i i 0.;.Q s s s s s 8.6.0 0 6.8.s s s s s B c q.] x d s s s s s s s s s s s d 6 f a   ",
"  @ < 0 y s s s s s s s s s s s w.C { e.F B s s s s s 9.^ y y ^ 9.s s s s s ;.Z #.r.U j s s s s s s s s s s s d 6 f a   ",
"  @ < 0 y s s s s s s s s s s s n M G b u s s s s s s s s s s s s s s s s s g t.y.6 s u s s s s s s s s s s s d 6 f a   ",
"  @ < 0 y s s s s s s s s s s s x w u., i./ s s s s s s s s s s s s s s s s d w.| R p.! s s s s s s s s s s s d 6 f a   ",
"  @ < 0 y s s s s s s s s s s s a.s.z P d._ s s s s s s s s s s s s s s s s Q u.f.g.q h.s s s s s s s s s s s d 6 f a   ",
"  @ < 0 y s s s s s s s s s s s l z s _ ` u s s s s s s s s s s s s s s s s s Q Q 9._ 9.s s s s s s s s s s s d 6 f a   ",
"  @ < 0 y s s s s s s s s s s s s s s s s s s s s s s s s s s s s s s s s s s s s s s s s s s s s s s s s s s d 6 f a   ",
"  @ < 0 y s s s s s s s s s s s s s s s s s s s s s s s s s s s s s s s s s s s s s s s s s s s s s s s s s s d 6 f a   ",
"  @ < 0 y s s s s s s s s s s s s s s s s s s s s s s s s s s s s s s s s s s s s s s s s s s s s s s s s s s d 6 f a   ",
"  @ < 0 y s s s s s s s s s s s s s s s s s s s s s s s s s s s s s s s s s s s s s s s s s s s s s s s s s s d 6 f a   ",
"  @ < 0 y s s s s s s s s s s s s s s s s s s s s s s s s s s s s s s s s s s s s s s s s s s s s s s s s s s d 6 f a   ",
"  @ < 0 y s s s s s s s s s s s s s s s s s s s s s s s s s s s s s s s s s s s s s s s s s s s s s s s s s s d 6 f a   ",
"  @ < 0 y s s s s s s s s s s s s s s s s s s s s s s s s s s s s s s s s s s s s s s s s s s s s s s s s s s d 6 f a   ",
"  j.u t ;.u.u.u.u.u.u.u.u.u.u.u.u.u.u.u.u.u.u.u.u.u.u.u.u.u.u.u.u.u.u.u.u.u.u.u.u.u.u.u.u.u.u.u.u.u.u.u.u.u.u.k.l.p %   ",
"  e [ z.l.l.l.l.l.l.l.l.l.l.l.l.l.l.l.l.l.l.l.l.l.l.l.l.l.l.l.l.l.l.l.l.l.l.l.l.l.l.l.l.l.l.l.l.l.l.l.l.l.l.l.J [ y.x.  ",
"  c.o v.b.Z Z Z Z Z Z Z Z Z Z Z Z Z Z Z Z Z Z Z Z Z Z Z Z Z Z Z Z Z Z Z Z Z Z Z Z Z Z Z Z Z Z Z Z Z Z Z Z Z Z + v.{ c.  ",
"  c.{ n.m.m.m.m.m.m.m.m.m.m.m.m.m.m.m.m.m.m.m.m.m.m.m.m.m.m.m.m.m.m.m.m.m.m.m.m.m.m.m.m.m.m.m.m.m.m.m.m.m.m.m.m.n.{ c.  ",
"  c.{ M M M M M M M M M M M M M M M M M M M M M M M M M M M M M M M M M M M M M M M M M M M M M M M M M M M M M M { c.  ",
"  c.{ M M M M M M M M M M M M M M M M M M M M M M M M M M M M M M M M M M M M M M M M M M M M M M M M M M M M M M { c.  ",
"  c.{ M M M M M M M M M M M M M M M M M M M M M M M M M M M M M M M M M M M M M M M M M M M M M M M M M M M M M M { c.  ",
"  c.{ M M M M M M M M M M M M M M M M M M M M M M M M M M M M M M M M M M M M M M M M M M M M M M M M M M M M M M { c.  ",
"  c.{ M M M M M M M M M M M M M M M M M M M M M M M M M M M M M M M M M M M M M M M M M M M M M M M M M M M M M M { c.  ",
"  M.- j.5 M M M M M M M M M M M M M M M M M M M M M M M M M M M M M M M M M M M M M M M M M M M M M M M M M M 5 j.- M.  ",
"  N.% 3 j.M M M M M M M M M M M M M M M M M M M M M M M M M M M M M M M M M M M M M M M M M M M M M M M M M M j.3 % =.  ",
"  B.O.V.- { { { { { { { { { { { { { { { { { { { { { { { { { { { { { { { { { { { { { { { { { { { { { { { { { { - V.& C.  ",
"  $.C.O.>.c.c.c.c.c.c.c.c.c.c.c.c.c.c.c.c.c.c.c.c.c.c.c.c.c.c.c.c.c.c.c.c.c.c.c.c.c.c.c.c.c.c.c.c.c.c.c.c.c.c.>.O.Z.A.  ",
"                                                                                                                        "
};
