/* XPM */
static char *result[] = {
/* columns rows colors chars-per-pixel */
"29 28 5 1 ",
"  c black",
". c gray20",
"X c #494949",
"o c #808080",
"O c gray80",
/* pixels */
"                             ",
"OOOOOOOOOOOOOOOOOOOOOOOOOOOO ",
"oooooooooooooooooooooooooooX ",
"oooooooooooooooooooooooooooX ",
"oooooooooooooooooooooooooooX ",
"oooooooooooooooooooooooooooX ",
"oooooooooooooooooooooooooooX ",
"oooooooooooooooooooooooooooX ",
"oooooooooooooooooooooooooooX ",
"oooooooooooooooooooooooooooX ",
"oooooooooooooooooooooooooooX ",
"oooooooooooooooooooooooooooX ",
"oooooooooooooooooooooooooooX ",
"oooooooooooooooooooooooooooX ",
"oooooooooooooooooooooooooooX ",
"oooooooooooooooooooooooooooX ",
"oooooooooooooooooooooooooooX ",
"oooooooooooooooooooooooooooX ",
"oooooooooooooooooooooooooooX ",
"oooooooooooooooooooooooooooX ",
"oooooooooooooooooooooooooooX ",
"XXXXXXXXXXXXXXXXXXXXXXXXXXXX ",
"............................ ",
"............................ ",
"............................ ",
"............................ ",
"............................ ",
"                             "
};
