/* XPM */
static char *result[] = {
/* columns rows colors chars-per-pixel */
"80 80 224 2 ",
"   c #752D9E",
".  c #7B2F9C",
"X  c #7A2E96",
"o  c #7F3196",
"O  c #7E319B",
"+  c #7C2EA3",
"@  c #732AAB",
"#  c #7C2EAC",
"$  c #7129A5",
"%  c #7E30A3",
"&  c #7E30AC",
"*  c #752AB3",
"=  c #7D2EB3",
"-  c #7D2CBA",
";  c #7729B8",
":  c #7A2AC3",
">  c #7226CB",
",  c #7528C6",
"<  c #7326D2",
"1  c #7827D6",
"2  c #6E24CE",
"3  c #833496",
"4  c #893796",
"5  c #8C3B96",
"6  c #84349B",
"7  c #8A369B",
"8  c #86399D",
"9  c #8C3A9B",
"0  c #873A95",
"q  c #923D96",
"w  c #933D9B",
"e  c #812FA7",
"r  c #802FAA",
"t  c #8433A3",
"y  c #8A36A4",
"u  c #843AA5",
"i  c #8D3CA3",
"p  c #8332AB",
"a  c #8935AB",
"s  c #8D3BAA",
"d  c #923EA2",
"f  c #933DAC",
"g  c #822FB4",
"h  c #812FBA",
"j  c #8634B1",
"k  c #8C36B5",
"l  c #8D3BB2",
"z  c #8530BD",
"x  c #8A36BB",
"c  c #8C3CBA",
"v  c #933DB3",
"b  c #8D429B",
"n  c #8E4699",
"m  c #954296",
"M  c #9A4595",
"N  c #9E4A96",
"B  c #94439B",
"V  c #9B459C",
"C  c #944C9C",
"Z  c #9C4B9B",
"A  c #93559E",
"S  c #9D539C",
"D  c #9E5D9F",
"F  c #965E9E",
"G  c #A44B95",
"H  c #A0479C",
"J  c #A34B9C",
"K  c #AA4E99",
"L  c #A94E95",
"P  c #AB5397",
"I  c #A4539C",
"U  c #AB539B",
"Y  c #A6599E",
"T  c #AD599C",
"R  c #B15496",
"E  c #B25A9C",
"W  c #93639D",
"Q  c #B2609E",
"!  c #8E41A3",
"~  c #8F46AA",
"^  c #9443A4",
"/  c #9B44A4",
"(  c #944BA2",
")  c #9C4BA3",
"_  c #9343AB",
"`  c #9A45A9",
"'  c #9D4BA9",
"]  c #954BAB",
"[  c #9453A2",
"{  c #9B53A3",
"}  c #9D5DA3",
"|  c #9452AA",
" . c #955BAA",
".. c #9C56AD",
"X. c #8E45B5",
"o. c #9541B4",
"O. c #9A43B1",
"+. c #9948BA",
"@. c #9E5EB4",
"#. c #9856B3",
"$. c #A047A1",
"%. c #A34CA3",
"&. c #A94FA1",
"*. c #A34CAB",
"=. c #A44AAB",
"-. c #A354A3",
";. c #AC53A3",
":. c #A35AA3",
">. c #AC5DA3",
",. c #A454AB",
"<. c #A45CAB",
"1. c #A957AA",
"2. c #B15DA3",
"3. c #A14DB4",
"4. c #A44CBC",
"5. c #A94EB0",
"6. c #A454B3",
"7. c #AC5CB4",
"8. c #A95AB9",
"9. c #B45BB5",
"0. c #B55FB9",
"q. c #9C63A2",
"w. c #9B6BA1",
"e. c #9A75A9",
"r. c #9861B0",
"t. c #A262A4",
"y. c #AC63A4",
"u. c #A369A5",
"i. c #AC6AA6",
"p. c #AC63AB",
"a. c #AD6AA9",
"s. c #A367AA",
"d. c #B262A6",
"f. c #B36AA9",
"g. c #BA6CAD",
"h. c #B863A9",
"j. c #A571AA",
"k. c #AF72AC",
"l. c #A678A9",
"z. c #B47CAC",
"x. c #B874AE",
"c. c #A767B6",
"v. c #B465B1",
"b. c #B46BB1",
"n. c #BA6CB3",
"m. c #BC6ABC",
"M. c #AD73B1",
"N. c #A778B5",
"B. c #B474B3",
"V. c #BA71B0",
"C. c #BC79B5",
"Z. c #BB78BB",
"A. c #C37ABA",
"S. c #C87BAC",
"D. c #812EC3",
"F. c #852FC9",
"G. c #8635CB",
"H. c #812BD7",
"J. c #883DD9",
"K. c #8F43C5",
"L. c #9C53CA",
"P. c #A45EC4",
"I. c #9C67C7",
"U. c #A36ECB",
"Y. c #B060C1",
"T. c #BC7EC2",
"R. c #A678CC",
"E. c #9652ED",
"W. c #9C62E0",
"Q. c #AF79F1",
"!. c #A570E8",
"~. c #9E90AD",
"^. c #9788A8",
"/. c #A18AAD",
"(. c #A482A9",
"). c #AD83B3",
"_. c #AC88B6",
"`. c #B983B4",
"'. c #B98ABA",
"]. c #B587B8",
"[. c #A392B1",
"{. c #AD93B4",
"}. c #A199B5",
"|. c #B496B8",
" X c #9EAAB4",
".X c #ABA5BA",
"XX c #BFA1BF",
"oX c #A6B9BA",
"OX c #C184BA",
"+X c #A7C5BC",
"@X c #B68BC4",
"#X c #B895C1",
"$X c #B394C2",
"%X c #AF8FD1",
"&X c #BAAAC5",
"*X c #BEBAC0",
"=X c #BDB4DD",
"-X c #B18CF3",
";X c #C581C0",
":X c #C5A9C8",
">X c #C5BAC9",
",X c #C4A3F4",
"<X c #DABDEB",
"1X c #ABD1C0",
"2X c #BFDFCA",
"3X c #B9C6D8",
"4X c #BBE2C8",
"5X c #B8C6EE",
"6X c #C9CECA",
"7X c #C6D2CE",
"8X c #C9E6CC",
"9X c #DAEFDE",
"0X c #D6F7D7",
"qX c #CAEED8",
"wX c #D0DAED",
"eX c #DCC8EA",
"rX c #E9DBED",
"tX c #E3D7F5",
"yX c #D7E5E9",
"uX c #E6E1EA",
"iX c #EBE6F6",
"pX c #F0ECF7",
"aX c #FDFEFE",
"sX c None",
/* pixels */
"sXsXsXsXsXsXsXsXsXsXsXsXsXsXsXsXsXsXsXsXsXsXsXsXsXsXsXsXsXsXsXsXsXsXsXsXsXsXsXsXsXsXsXsXsXsXsXsXsXsXsXsXsXsXsXsXsXsXsXsXsXsXsXsXsXsXsXsXsXsXsXsXsXsXsXsXsXsXsXsX",
"sXsXsXsXsXsXsXsXsXsXsXsXsXsXsXsXsXsXsXsXsXsXsXsXsXsXsXsXsXsXsXsXsXsXsXsXsXsXsXsXsXsXsXsXsXsXsXsXsXsXsXsXsXsXsXsXsXsXsXsXsXsXsXsXsXsXsXsXsXsXsXsXsXsXsXsXsXsXsXsX",
"sXsXsXsXsXsXsXsXsXsXsXsXsXsXsXsXsXsXsXsXsXsXsXsXsXsXsXsXsXsXsXsXsXsXsXsXsXsXsXsXsXsXsXsXsXsXsXsXsXsXsXsXsXsXsXsXsXsXsXsXsXsXsXsXsXsXsXsXsXsXsXsXsXsXsXsXsXsXsXsX",
"sXsXsXsXsXsXsXsXsXsXsXsXsXsXsXsXsXsXsXsXsXsXsXsXsXsXsXsXsXsXsXsXsXsXsXsXsXsXsXsXsXsXsXsXsXsXsXsXsXsXsXsXsXsXsXsXsXsXsXsXsXsXsXsXsXsXsXsXsXsXsXsXsXsXsXsXsXsXsXsX",
"sXsXsXsXsXsXsXsXsXsXsXsXsXsXsXsXsXsXsXsXsXsXsXsXsXsXsXsXsXsXsXsXsXsXsXsXsXsXsXsXsXsXsXsXsXsXsXsXsXsXsXsXsXsXsXsXsXsXsXsXsXsXsXsXsXsXsXsXsXsXsXsXsXsXsXsXsXsXsXsX",
"sXsXsXsXsXsXsXsXsXsXsXsXsXsXsXsXsXsXsXsXsXsXsXsXsXsXsXsXsXsXsXsXsXsXsXsXsXsXsXsXsXsXsXsXsXsXsXsXsXsXsXsXsXsXsXsXsXsXsXsXsXsXsXsXsXsXsXsXsXsXsXsXsXsXsXsXsXsXsXsX",
"sXsXsXsXsXsXsXsXsXsXsXsXsXsXsXsXsXsXsXsXsXsXsXsXsXsXsXsXsXsXsXsXsXsXsXsXsXsXsXsXsXsXsXsXsXsXsXsXsXsXsXsXsXsXsXsXsXsXsXsXsXsXsXsXsXsXsXsXsXsXsXsXsXsXsXsXsXsXsXsX",
"sXsXsXsXsXsXsXsXsXsXsXsXsXsXsXsXsXsXsXsXsXsXsXsXsXsXsXsXsXsXsXsXsXsXsXsXsXsXsXsXsXsXsXsXsXsXsXsXsXsXsXsXsXsXsXsXsXsXsXsXsXsXsXsXsXsXsXsXsXsXsXsXsXsXsXsXsXsXsXsX",
"sXsXsXsXsXsXsXsXsXsXsXsXsXsXsXsXsXsXsXsXsXsXsXsXsXsXsXsXsXsXsXsXsXsXsXsXsXsXsXsXsXsXsXsXsXsXsXsXsXsXsXsXsXsXsXsXsXsXsXsXsXsXsXsXsXsXsXsXsXsXsXsXsXsXsXsXsXsXsXsX",
"sXsXsXsXsXsXsXsXsXsXsXsXsXsXsXsXsXsXsXsXsXsXsXsXsXsXsXsXsXsXsXsXsXsXsXsXsXsXsXsXsXsXsXsXsXsXsXsXsXsXsXsXsXsXsXsXsXsXsXsXsXsXsXsXsXsXsXsXsXsXsXsXsXsXsXsXsXsXsXsX",
"sXsXsXsXsXsXsXsXsXsXsXsXsXsXsXsXsXsXsXsXsXsXsXsXsXsXsXsXsXsXsXsX3 sXsXsXsXsX5 q sXsXsXsXsXsXsXsXsXsXsXsXsXsXsXsXsXsXsXsXsXsXsXsXsXsXsXsXsXsXsXsXsXsXsXsXsXsXsXsX",
"sXsXsXsXsXsXsXsXsXsXsXsXsXsXsXsXsXsXsXsXsXsXsXsXsXsXsXsXsXsX6 6 o sXsXsXsX4 4 7 4 q sXsXsXsXsXsXsXsXsXsXsXsXsXsXsXsXsXsXsXsXsXsXsXsXsXsXsXsXsXsXsXsXsXsXsXsXsXsX",
"sXsXsXsXsXsXsXsXsXsXsXsXsXsXsXsXsXsXsXsXsXsXsXsXsXsXsXsX3 6 + e 6 t t t 7 9 sXsX3 7 q sXsXsXsXsXsXsXsXsXsXsXsXsXsXsXsXsXsXsXsXsXsXsXsXsXsXsXsXsXsXsXsXsXsXsXsXsX",
"sXsXsXsXsXsXsXsXsXsXsXsXsXsXsXsXsXsXsXsXsXsXsXsXsXsXsX6 6 6 4 t + 4 6 e e e e # + = g a y t sXsXsX9 6 sXsXsXsXsXsXsXsXsXsXsXsXsXsXsXsXsXsXsXsXsXsXsXsXsXsXsXsXsX",
"sXsXsXsXsXsXsXsXsXsXsXsXsXsXsXsXsXsXsXsXsXsXsXsX. 3 3 o 3 sX6 t 4 4 t g g r e + * : h r r r t a t 5 6 X sXsXsXsXsXsXsXsXsXsXsXsXsXsXsXsXsXsXsXsXsXsXsXsXsXsXsXsX",
"sXsXsXsXsXsXsXsXsXsXsXsXsXsXsXsXsXsXsXsXsXsXsXsXsX. o 3 sXsX6 O sXsX4 t h g t 4 t = a a a 7 7 y e 4 4 + @ sXsXsXsXsXsXsXsXsXsXsXsXsXsXsXsXsXsXsXsXsXsXsXsXsXsXsX",
"sXsXsXsXsXsXsXsXsXsXsXsXsXsXsXsXsXsXsXsXsXsXsXsX4 . 6 6 o sX4 sXsXsXsXsX0 p p % 6 t t y s f y 5 sXsXsX6 $ . sXsXsXsXsXsXsXsXsXsXsXsXsXsXsXsXsXsXsXsXsXsXsXsXsXsX",
"sXsXsXsXsXsXsXsXsXsXsXsXsXsXsXsXsXsXsXsXsXsXsXsX3 . . 4 sX4 9 q sXsXsXsXsXu ; ; = # * + e p 6 sXsX4 6 7 4   6 sXsXsXsXsXsXsXsXsXsXsXsXsXsXsXsXsXsXsXsXsXsXsXsXsX",
"sXsXsXsXsXsXsXsXsXsXsXsXsXsXsXsXsXsXsXsXsXsX7 4 7 7 m M B q m A t.C sXsX    @ @ * # * ; r r % & . 7 t t 9 . . 7 sXsX7 4 sXsXsXsXsXsXsXsXsXsXsXsXsXsXsXsXsXsXsXsX",
"sXsXsXsXsXsXsXsXsXsXsXsXsXsXsXsXsXsXsXsXsXsXq m H G B / H sXI ^ s a B sXsXsX5 y p + # # t r # # t 6 a t t # # + t y d y sXsXsXsXsXsXsXsXsXsXsXsXsXsXsXsXsXsXsXsX",
"sXsXsXsXsXsXsXsXsXsXsXsXsXsXsXsXsXsXsXsXsXsXw V ;.J M J Z Z %.=.1.+.' M Z M sXy + sXsXsX* : D.p t 7 w t - , - r a r 7 a w sXsXsXsXsXsXsXsXsXsXsXsXsXsXsXsXsXsXsX",
"sXsXsXsXsXsXsXsXsXsXsXsXsXsXsXsXsXsXsXsXsXsXsXG U U sXE U *.*.n.v.5.*.=.>.sXsXsXsXsXsXsXsX% p p p j d 5 e > > D.k r 7 5 q q sXsXsXsXsXsXsXsXsXsXsXsXsXsXsXsXsXsX",
"sXsXsXsXsXsXsXsXsXsXsXsXsXsXsXsXsXsXsXsXsXq sXsXR R P 5.Y.v.Y.A.Z.S.9.9.sXsXsXsXsXsXsXsXsXsXsXsX6 = z 9 7 > > 1 H.h e 9 w w sXsXsXsXsXsXsXsXsXsXsXsXsXsXsXsXsXsX",
"sXsXsXsXsXsXsXsXsXsXsXsXsXsXsXsXsXsXsXG $.J sXsXsXsX&.9.m.T.;XOX@XT.Z.S.p.sXJ sXsXsXsXsXsX8 B 5 sX4 t y r * ; > 1 F.e y d B q w sXsXsXsXsXsXsXsXsXsXsXsXsXsXsXsX",
"sXsXsXsXsXsXsXsXsXsXsXsXsXsXsXsXsXL G $.f K H $.sXd 9.m.A.A.g.V.M.C.V.d.2.sX;.U sXm q sXsXsX) _ ^ m 9 sX. + $ # , 1 D.4 r 7 d V q sXsXsXsXsXsXsXsXsXsXsXsXsXsXsX",
"sXsXsXsXsXsXsXsXsXsXsXsXsXsXsXsXsXJ / V &.%.U =.$.4.4.n.A.n.n.h.sXV.sX>.2.sXsXsXsX9 4 sXsXsXG ` o.V A q sX% 5 4 * > < 6 6 e y q G sXsXsXsXsXsXsXsXsXsXsXsXsXsXsX",
"sXsXsXsXsXsXsXsXsXsXsXsXsXsXsXsXsXV f H G sXE v *.P.4.9.9.A.C.;.sXsXsXsXsXsXsXsXsXV i s 7 6 y / p.:.] sXm sXsXsXg : 2 g sX6 y 7 V sXsXsXsXsXsXsXsXsXsXsXsXsXsXsX",
"sXsXsXsXsXsXsXsXsXsXsXsXsXsXsXsXsXf d G G R =.5.B.6.9.5.E g.2.U sXsXsXsXsXsXsXI Z G J v f d s d %.d.%.9 9 t t sXg 1 > : f 6 y y 5 sXsXsXsXsXsXsXsXsXsXsXsXsXsXsX",
"sXsXsXsXsXsXsXsXsXsXsXsXsXsXsXsXsX` $.sXK ;.3.8.7.7.n.v.sXU sXsXsXsXsXU &.J %.=.J V -.{ a i ! B / / P sXi + 6 % - - % : F.k t 6 sXsXsXsXsXsXsXsXsXsXsXsXsXsXsXsX",
"sXsXsXsXsXsXsXsXsXsXsXsXsXsXsXsX$.$.G M K =.4.L.4.>.2.sXsXK sXsXsXsXK &.2.d.b.Z.V.h.>.f.u.! a ^ Z / ` sXsXO 5 y p u 6 j H.h 6 7 V sXsXsXsXsXsXsXsXsXsXsXsXsXsXsX",
"sXsXsXsXsXsXsXsXsXsXsXsXsXsXsXG $.Z sXM V k f c f / G sXsXsXsXsXsXsXI sXsXsX).].'.@X].Z.'.`.] a B Y K sXsX4 d f t O u s x h a 9 sXsXsXsXsXsXsXsXsXsXsXsXsXsXsXsX",
"sXsXsXsXsXsXsXsXsXsXsXsXsXsXsXsXsXsXsXsX_ j p a y sXsXsXsXsXsXsXsXsXsXC.B.M.].{.'.{._._.'.'.N.X.^ sXE T m 6 M v k u s s j F.g y L sXsXsXsXsXsXsXsXsXsXsXsXsXsXsX",
"sXsXsXsXsXsXsXsXsXsXsXsXsXsXsXsXsXsXq ^ f w d V sXsXsXsXsXsXsXsXsXsX>.<.p.N.#X:XXX|.{.{.|.{./.(.u.s.f.sX^ y B c k p u j l F.= i / J sXsXsXsXsXsXsXsXsXsXsXsXsXsX",
"sXsXsXsXsXsXsXsXsXsXsXsXsXsXsXsXsXd %.d j a G sXsXsXsXsXsXsXsXsXsXZ Z <.M.#X&X>X6XoX.X}.}.[.~.{.z.z.g.sXA _ ( ' f p p s +.~ # 9 ` J U sXsXsXsXsXsXsXsXsXsXsXsXsX",
"sXsXsXsXsXsXsXsXsXsXsXsXsXsXsXsXsX_ Y M a w sXsXsXsXsXsXsXsXsXsXsXM ,.M.@X>X6X0X0X4XoXoX.X.X}.^.(.k.V.z.sX<.=.S o.s a _ O.l # 5 m &.K sXsXsXsXsXsXsXsXsXsXsXsXsX",
"sXsXsXsXsXsXsXsXsXsXsXsXsXsXsXsXsX,.I sXw sXsXsXsXsXsXsXsXsXsXsXsXZ :.B.%X3XqX0X0X0X8X+XoX&X&X^.(.sXC.h.:.sX*.<.v _ _ l _ s + 4 sXsXsXsXsXsXsXsXsXsXsXsXsXsXsXsX",
"sXsXsXsXsXsXsXsXsXsXsXsXsXsXsX6 M >.sXB d L sXsXsXsXsXsXsXsXsXsXsX` ,.8.U.5XwXtXtXuX9X8X1X>X:X~.l.sX`.v._ <.6.<.o.v S ) / B sXsXsXsXK sXsXsXsXsXsXsXsXsXsXsXsXsX",
"sXsXsXsXsXsXsXsXsXsXsXsXsXsXsX9 m m sXO.v M sXsXsXsXsXsXsXsXsXsX^ ' 6.L.R.-X,XuXpXiXuX9X2X7X:X|.w.e.].>._ <.f.6._ k sXC Y sXsXB V sXsXsXsXsXsXsXsXsXsXsXsXsXsXsX",
"sXsXsXsXsXsXsXsXsXsXsXsXsXsXsXsXm sXL v $.sXsXsXsXsXsXsXsXsXsXsX_ ....@.U.W.,XpXaXaXiXyXqX>X:X'.l.).`.Y ] :.k.+.d d sX%.sXsXsXsXV sXsXsXsXsXsXsXsXsXsXsXsXsXsXsX",
"sXsXsXsXsXsXsXsXsXsXsXsXsXsXsXsXsXsXsX/ sXsXsXsXsXsXsXsXsXsXsXsX) ,.s.<.6.W.-XpXaXaXrXwX6X:X#Xc.j.'.`...p.U -.` / 5 sXY I sXsXsXsXsXsXsXsXsXsXsXsXsXsXsXsXsXsXsX",
"sXsXsXsXsXsXsXsXsXsXsXsXsXsXsXsXsXsXsXH J sXsXsXsXsXsXsXsXsXm 9 ' u.s.i...+.%X<XtXtXeX=X$X@Xr.{ ).@XM.{ d.%.` d V ^ ) i.:.sXsXsXsXsXsXsXsXsXsXsXsXsXsXsXsXsXsXsX",
"sXsXsXsXsXsXsXsXsXsXsXsXsXsXsX6 M sXsX%.H sXsXsXG sXsXsXsXsXsX9 ) i.sXsX] N.I.E.Q.!.W.R._...] j.).r.n ) x.) v _ V J d.:.sXsXsXZ sXsXsXsXsXsXsXsXsXsXsXsXsXsXsXsX",
"sXsXsXsXsXsXsXsXsXsXsXsXsXsX3 3 sXG sX2./ J sXsXsXsXsXG sXsX:.Z a.sXsXsX . .~ J.J.J.K.X.#. .j.).q.{ 9 ..i./ f f sXI -.J sXsXsXsXP G sXsXsXsXsXsXsXsXsXsXsXsXsXsX",
"sXsXsXsXsXsXsXsXsXsXsXsXsXsX4 % sXsXsXsX;.L sXsXsXsX5 U sXsXsXl.l.sXsXsXb 7 ! ~ c X.X._ ^ e.].[ S <.6 sXm B _ / J sXsXsXsX2.U %.H K L sXsXsXsXsXsXsXsXsXsXsXsXsX",
"sXsXsXsXsXsXsXsXsXsXsXsXsXsXsXsXsXsXsXsX%./ sXsXsXsXsXJ E sXsXsXs.sXsXsXb 0 n n ! u i 8 n A sX:.m sX0 5 sXi ^ sXsXsXsXsXsXR U L H R sXsXsXsXsXsXsXsXsXsXsXsXsXsX",
"sXsXsXsXsXsXsXsXsXsXsXsXsXsXsXsXM sXsXsXT f -.sXsXsXsXsXsXsXsXsXe.sXsXsXsX( 5 A n n b 5 5 sXsXsXn sX4 sXsXm sXG sXsX1.sXsXsXsXsXsXsXsXsXsXsXsXsXsXsXsXsXsXsXsXsX",
"sXsXsXsXsXsXsXsXsXsXsXsXsXsXsXsXsXsXsXsXU J Z sXsXsXsXZ sXsXsXsX).q.sXsXsXF 5 9 9 5 9 9 0 sXsXsXsXsX6 sX^ } sXZ G B ) I sXsXsXsXsXsXsXsXsXsXsXsXsXsXsXsXsXsXsXsX",
"sXsXsXsXsXsXsXsXsXsXsXsXsXsXsXsXsXsXsXsXU sX9 sXsXb Z %.d.sXsX-.f.M.w.sXsXsXsXC b m sXsXo 3 sXsXsXsXsXsX7.sXq sXsXq H sXsXsXB m sXsXsXsXsXsXsXsXsXsXsXsXsXsXsXsX",
"sXsXsXsXsXsXsXsXsXsXsXsXsXsXsXsXsXsXsXsXU sXsXsXsXsX..` / T sXG sXA.).W w.sXsXsXsXm sXsXsXsXsXsXsXsXsXsXsXsXsXsXsXsXsXsXsXsXZ Z sXsXsXsXsXsXsXsXsXsXsXsXsXsXsXsX",
"sXsXsXsXsXsXsXsXsXsXsXsXsXsXsXsXsXsXM M I V % sXsXsX} ] ' w J J G sXsXsXsXsXsXi.sXsXsXsXsXsXsXsXsXsXsXsXsXsXsXw sXsXsX9 sXsXsXsXsXsXsXsXsXsXsXsXsXsXsXsXsXsXsXsX",
"sXsXsXsXsXsXsXsXsXsXsXsXsXsXsXsXsXsXS :.y.M t O sXsXq.A C 5 q sXJ sXsXsXsXsXsXsXsXsXsXsXsXm sXsX4 w sXsX4 6 i sXsXsXsXw sXD sXsXsXsXsXsXsXsXsXsXsXsXsXsXsXsXsXsX",
"sXsXsXsXsXsXsXsXsXsXsXsXsXsXsXsXsXsXsXsXi.sXb t sXsX6 | #.m B / P U U sXI sXsXsXsXsXsXsXG sXsXsX5 s d w y t sXsXsXsXsXsXsXsXsXsXsXsXsXsXsXsXsXsXsXsXsXsXsXsXsXsX",
"sXsXsXsXsXsXsXsXsXsXsXsXsXsXsXsXsXsXsXB N Z C ^ 6 sXsX[ r. .9 ' %.&.K U U I sXsXsXsXsXsXsXsXV ^ / f _ y 7 sXsXsXsXb sXsXsXsXsXsXsXsXsXsXsXsXsXsXsXsXsXsXsXsXsXsX",
"sXsXsXsXsXsXsXsXsXsXsXsXsXsXsXsXsXsXsXsX6 9 M z.q.0 sX9 ( [ 6 0 ^ $.%.J J sXsXsXsXsXsXsXsX:.{ s s l i m sXsXsXsX5 sXsXsXsXsXsXsXsXsXsXsXsXsXsXsXsXsXsXsXsXsXsXsX",
"sXsXsXsXsXsXsXsXsXsXsXsXsXsXsXsXsXsXsXsXi 9 M k.u.u + 6 8 ( ! b S ` $./ J sXsXsXsXsXsXsXsX} ^ ^ s ~ sXsXsXsXsXsXsXsXsXsXsXsXsXsXsXsXsXsXsXsXsXsXsXsXsXsXsXsXsXsX",
"sXsXsXsXsXsXsXsXsXsXsXsXsXsXsXsXsXsXsXsXB & e } t.3 + t 8 A ( | #.` H &.*.J sXsXsXsXf.y.sXsXsXsXsXsXsXsX9 5 6 6 sXsXsXsXsXsXsXsXsXsXsXsXsXsXsXsXsXsXsXsXsXsXsXsX",
"sXsXsXsXsXsXsXsXsXsXsXsXsXsXsXsXsXsXsXsX5 i p ( q.n + p % u s | ] ! ^ %.-.-.Y sXsXsXsXm sXsXsXsXsXsXsXsXsXsXsX6 sXsXsXsXsXsXsXsXsXsXsXsXsXsXsXsXsXsXsXsXsXsXsXsX",
"sXsXsXsXsXsXsXsXsXsXsXsXsXsXsXsXsXsXsXsXsXsXsXZ B n O sX. O u _ ^ i ~ n ( -.:.J sXsXsXsXsXsXsXsXsXsXsXsXsXsXsXsXsXsXsXsXsXsXsXsXsXsXsXsXsXsXsXsXsXsXsXsXsXsXsXsX",
"sXsXsXsXsXsXsXsXsXsXsXsXsXsXsXsXsXsXsXsXsXsXC { ! % O sXsXsXsX( ( 9 b ^ ^ d _ *.G G sXsXsXsXsXsXsXsXsXsXsXsXsXsXsXsXsXsXsXsXsXsXsXsXsXsXsXsXsXsXsXsXsXsXsXsXsXsX",
"sXsXsXsXsXsXsXsXsXsXsXsXsXsXsXsXsXsXsXsXsXsXsXsXn 8 sXsXsXsXsXsXl.} B 9 9 s k c _ B J M 9 sXsXsXsXsXsXsXsXsXsXsXsXsXsXsXsXsXsXsXsXsXsXsXsXsXsXsXsXsXsXsXsXsXsXsX",
"sXsXsXsXsXsXsXsXsXsXsXsXsXsXsXsXsXsXsXsXsXsXsXsXsXsX6 sXsXsXsXsXsXz.Y sXb ^ s s ! ^ Z S B sX0 sXsXsXsXsXsXsXsXsXsXsXsXsXsXsXsXsXsXsXsXsXsXsXsXsXsXsXsXsXsXsXsXsX",
"sXsXsXsXsXsXsXsXsXsXsXsXsXsXsXsXsXsXsXsXsXsXsXsXsXsX4 sXsXsXsXsXm sXsXm B B 5 B Z y.sXsXsXsXsXsXsXsXsXsXsXsXsXsXsXsXsXsXsXsXsXsXsXsXsXsXsXsXsXsXsXsXsXsXsXsXsXsX",
"sXsXsXsXsXsXsXsXsXsXsXsXsXsXsXsXsXsXsXsXsXsXsXsXsXsXsXsXsXsXsXsXsXsXsXm w ^ b 5 sXZ sXsXsXsXsXsXsXsXsXsXsXsXsXsXsXsXsXsXsXsXsXsXsXsXsXsXsXsXsXsXsXsXsXsXsXsXsXsX",
"sXsXsXsXsXsXsXsXsXsXsXsXsXsXsXsXsXsXsXsXsXsXsXsXsXsXsXsXsXsXsXsXsXsXsXsXsXsXsX9 m m i.B.sXsXsXsXsXsXsXsXsXsXsXsXsXsXsXsXsXsXsXsXsXsXsXsXsXsXsXsXsXsXsXsXsXsXsXsX",
"sXsXsXsXsXsXsXsXsXsXsXsXsXsXsXsXsXsXsXsXsXsXsXsXsXsXsXsXsXsXsXsXsXsXsXsXsXsXsXn A sXsXsXsXsXsXsXsXsXsXsXsXsXsXsXsXsXsXsXsXsXsXsXsXsXsXsXsXsXsXsXsXsXsXsXsXsXsXsX",
"sXsXsXsXsXsXsXsXsXsXsXsXsXsXsXsXsXsXsXsXsXsXsXsXsXsXsXsXsXsXsXsXsXsXsXsXsXsXsXsXsXsXsXsXsXsXsXsXsXsXsXsXsXsXsXsXsXsXsXsXsXsXsXsXsXsXsXsXsXsXsXsXsXsXsXsXsXsXsXsX",
"sXsXsXsXsXsXsXsXsXsXsXsXsXsXsXsXsXsXsXsXsXsXsXsXsXsXsXsXsXsXsXsXsXsXsXsXsXsXsXsXsXsXsXsXsXsXsXsXsXsXsXsXsXsXsXsXsXsXsXsXsXsXsXsXsXsXsXsXsXsXsXsXsXsXsXsXsXsXsXsX",
"sXsXsXsXsXsXsXsXsXsXsXsXsXsXsXsXsXsXsXsXsXsXsXsXsXsXsXsXsXsXsXsXsXsXsXsXsXsXsXsXsXsXsXsXsXsXsXsXsXsXsXsXsXsXsXsXsXsXsXsXsXsXsXsXsXsXsXsXsXsXsXsXsXsXsXsXsXsXsXsX",
"sXsXsXsXsXsXsXsXsXsXsXsXsXsXsXsXsXsXsXsXsXsXsXsXsXsXsXsXsXsXsXsXsXsXsXsXsXsXsXsXsXsXsXsXsXsXsXsXsXsXsXsXsXsXsXsXsXsXsXsXsXsXsXsXsXsXsXsXsXsXsXsXsXsXsXsXsXsXsXsX",
"sXsXsXsXsXsXsXsXsXsXsXsXsXsXsXsXsXsXsXsXsXsXsXsXsXsXsXsXsXsXsXsXsXsXsXsXsXsXsXsXsXsXsXsXsXsXsXsXsXsXsXsXsXsXsXsXsXsXsXsXsXsXsXsXsXsXsXsXsXsXsXsXsXsXsXsXsXsXsXsX",
"sXsXsXsXsXsXsXsXsXsXsXsXsXsXsXsXsXsXsXsXsXsXsXsXsXsXsXsXsXsXsXsXsXsXsXsXsXsXsXsXsXsXsXsXsXsXsXsXsXsXsXsXsXsXsXsXsXsXsXsXsXsXsXsXsXsXsXsXsXsXsXsXsXsXsXsXsXsXsXsX",
"sXsXsXsXsXsXsXsXsXsXsXsXsXsXsXsXsXsXsXsXsXsXsXsXsXsXsXsXsXsXsXsXsXsXsXsXsXsXsXsXsXsXsXsXsXsXsXsXsXsXsXsXsXsXsXsXsXsXsXsXsXsXsXsXsXsXsXsXsXsXsXsXsXsXsXsXsXsXsXsX",
"sXsXsXsXsXsXsXsXsXsXsXsXsXsXsXsXsXsXsXsXsXsXsXsXsXsXsXsXsXsXsXsXsXsXsXsXsXsXsXsXsXsXsXsXsXsXsXsXsXsXsXsXsXsXsXsXsXsXsXsXsXsXsXsXsXsXsXsXsXsXsXsXsXsXsXsXsXsXsXsX",
"sXsXsXsXsXsXsXsXsXsXsXsXsXsXsXsXsXsXsXsXsXsXsXsXsXsXsXsXsXsXsXsXsXsXsXsXsXsXsXsXsXsXsXsXsXsXsXsXsXsXsXsXsXsXsXsXsXsXsXsXsXsXsXsXsXsXsXsXsXsXsXsXsXsXsXsXsXsXsXsX",
"sXsXsXsXsXsXsXsXsXsXsXsXsXsXsXsXsXsXsXsXsXsXsXsXsXsXsXsXsXsXsXsXsXsXsXsXsXsXsXsXsXsXsXsXsXsXsXsXsXsXsXsXsXsXsXsXsXsXsXsXsXsXsXsXsXsXsXsXsXsXsXsXsXsXsXsXsXsXsXsX",
"sXsXsXsXsXsXsXsXsXsXsXsXsXsXsXsXsXsXsXsXsXsXsXsXsXsXsXsXsXsXsXsXsXsXsXsXsXsXsXsXsXsXsXsXsXsXsXsXsXsXsXsXsXsXsXsXsXsXsXsXsXsXsXsXsXsXsXsXsXsXsXsXsXsXsXsXsXsXsXsX",
"sXsXsXsXsXsXsXsXsXsXsXsXsXsXsXsXsXsXsXsXsXsXsXsXsXsXsXsXsXsXsXsXsXsXsXsXsXsXsXsXsXsXsXsXsXsXsXsXsXsXsXsXsXsXsXsXsXsXsXsXsXsXsXsXsXsXsXsXsXsXsXsXsXsXsXsXsXsXsXsX",
"sXsXsXsXsXsXsXsXsXsXsXsXsXsXsXsXsXsXsXsXsXsXsXsXsXsXsXsXsXsXsXsXsXsXsXsXsXsXsXsXsXsXsXsXsXsXsXsXsXsXsXsXsXsXsXsXsXsXsXsXsXsXsXsXsXsXsXsXsXsXsXsXsXsXsXsXsXsXsXsX",
"sXsXsXsXsXsXsXsXsXsXsXsXsXsXsXsXsXsXsXsXsXsXsXsXsXsXsXsXsXsXsXsXsXsXsXsXsXsXsXsXsXsXsXsXsXsXsXsXsXsXsXsXsXsXsXsXsXsXsXsXsXsXsXsXsXsXsXsXsXsXsXsXsXsXsXsXsXsXsXsX",
"sXsXsXsXsXsXsXsXsXsXsXsXsXsXsXsXsXsXsXsXsXsXsXsXsXsXsXsXsXsXsXsXsXsXsXsXsXsXsXsXsXsXsXsXsXsXsXsXsXsXsXsXsXsXsXsXsXsXsXsXsXsXsXsXsXsXsXsXsXsXsXsXsXsXsXsXsXsXsXsX"
};
