/* XPM */
static char *result[] = {
/* columns rows colors chars-per-pixel */
"60 60 198 2 ",
"   c #7C2F9C",
".  c #7D3395",
"X  c #7E349C",
"o  c #7C2EA4",
"O  c #762CAC",
"+  c #7D2EAC",
"@  c #752BA3",
"#  c #7F30AB",
"$  c #752AB1",
"%  c #792CB0",
"&  c #7C2CBA",
"*  c #7529B8",
"=  c #7C2BC3",
"-  c #7426CC",
";  c #7628C9",
":  c #6E24D2",
">  c #7C29D4",
",  c #843496",
"<  c #8A3794",
"1  c #8C3A96",
"2  c #84349B",
"3  c #8A369D",
"4  c #84399A",
"5  c #8C3B9B",
"6  c #933E96",
"7  c #923D9A",
"8  c #8333A3",
"9  c #8A36A2",
"0  c #8D3BA3",
"q  c #8332AB",
"w  c #8934AC",
"e  c #8D3BAB",
"r  c #8639A6",
"t  c #923DA4",
"y  c #923EAB",
"u  c #812FB4",
"i  c #812EBD",
"p  c #8432B3",
"a  c #8D3CB4",
"s  c #8431BC",
"d  c #8C39B7",
"f  c #923EB1",
"g  c #8D439B",
"h  c #8C4196",
"j  c #944295",
"k  c #9B4695",
"l  c #9D4B96",
"z  c #93439B",
"x  c #9B459C",
"c  c #954C9B",
"v  c #9C4C9B",
"b  c #9F5797",
"n  c #9B509B",
"m  c #9C5C9E",
"M  c #A04797",
"N  c #A34A97",
"B  c #A94E96",
"V  c #A0469C",
"C  c #A34B9B",
"Z  c #A94E9D",
"A  c #AA5296",
"S  c #A4549C",
"D  c #AB529C",
"F  c #AC5A9D",
"G  c #A25197",
"H  c #B0559B",
"J  c #B35A9D",
"K  c #B55596",
"L  c #8D45A2",
"P  c #8F42AC",
"I  c #9442A4",
"U  c #9C45A3",
"Y  c #934BA3",
"T  c #9C4BA3",
"R  c #9442A9",
"E  c #9A44AA",
"W  c #944AAB",
"Q  c #9D4CAB",
"!  c #9756A1",
"~  c #9B55A4",
"^  c #9951AD",
"/  c #985FAE",
"(  c #9857A7",
")  c #8E48B0",
"_  c #8E42B5",
"`  c #9541B2",
"'  c #9B45B1",
"]  c #9D49B1",
"[  c #9841BF",
"{  c #9C59BD",
"}  c #A047A1",
"|  c #A24CA3",
" . c #A34CAB",
".. c #A453A3",
"X. c #AB52A1",
"o. c #AA59A3",
"O. c #A453AD",
"+. c #A55BA9",
"@. c #A85AAB",
"#. c #B35FA7",
"$. c #B257AB",
"%. c #A54EB1",
"&. c #AB54B3",
"*. c #AC5CB2",
"=. c #A657BA",
"-. c #B15BB7",
";. c #9F65A5",
":. c #986BA3",
">. c #9B73A5",
",. c #9F79A9",
"<. c #9D66B2",
"1. c #AD63A5",
"2. c #A46BA3",
"3. c #AB6AA6",
"4. c #A261AA",
"5. c #AB64A9",
"6. c #A36AAA",
"7. c #AE6CAA",
"8. c #B463A6",
"9. c #B66AAC",
"0. c #BB6DAC",
"q. c #AC7CAE",
"w. c #A577A8",
"e. c #B473AE",
"r. c #B67BAF",
"t. c #B375A6",
"y. c #AA69B6",
"u. c #BB6BB4",
"i. c #BB6ABC",
"p. c #B366B1",
"a. c #A670B0",
"s. c #AC74B4",
"d. c #AC7EB4",
"f. c #AA7CB6",
"g. c #B574B2",
"h. c #B77EB6",
"j. c #B77ABA",
"k. c #C17AB8",
"l. c #C072B6",
"z. c #822FC6",
"x. c #8633C5",
"c. c #8B41DB",
"v. c #914CD8",
"b. c #A24BC0",
"n. c #A067CA",
"m. c #A273D7",
"M. c #9652E9",
"N. c #A66FE7",
"B. c #C17DC0",
"V. c #9D8FAD",
"C. c #A58CAC",
"Z. c #AB89B3",
"A. c #B086B4",
"S. c #B087B9",
"D. c #B38AB9",
"F. c #B98DBC",
"G. c #BB81B8",
"H. c #AC93B5",
"J. c #A499B5",
"K. c #B098B6",
"L. c #BC91BC",
"P. c #A4A8B8",
"I. c #B4BDBE",
"U. c #C08CB9",
"Y. c #A7C5BC",
"T. c #B188C0",
"R. c #BF89C0",
"E. c #AE92C2",
"W. c #B99BC8",
"Q. c #A580D8",
"!. c #BEA9C2",
"~. c #B7AAC5",
"^. c #BEADDB",
"/. c #B188F4",
"(. c #CAB9CE",
"). c #C4B0C6",
"_. c #C7A2EB",
"`. c #D4BDF1",
"'. c #B2D2C3",
"]. c #C5CACC",
"[. c #CBD5CC",
"{. c #C5DCD4",
"}. c #C7E7CE",
"|. c #D1EDD0",
" X c #D6FBDA",
".X c #D6DDED",
"XX c #C0CEF1",
"oX c #DCCAF7",
"OX c #E2D9EB",
"+X c #E7D7F3",
"@X c #E9DEF7",
"#X c #E5DBF2",
"$X c #E1E7E7",
"%X c #E0E9E3",
"&X c #F0E9F8",
"*X c #FCFCFD",
"=X c #F6F5FA",
"-X c None",
/* pixels */
"-X-X-X-X-X-X-X-X-X-X-X-X-X-X-X-X-X-X-X-X-X-X-X-X-X-X-X-X-X-X-X-X-X-X-X-X-X-X-X-X-X-X-X-X-X-X-X-X-X-X-X-X-X-X-X-X-X-X-X-X",
"-X-X-X-X-X-X-X-X-X-X-X-X-X-X-X-X-X-X-X-X-X-X-X-X-X-X-X-X-X-X-X-X-X-X-X-X-X-X-X-X-X-X-X-X-X-X-X-X-X-X-X-X-X-X-X-X-X-X-X-X",
"-X-X-X-X-X-X-X-X-X-X-X-X-X-X-X-X-X-X-X-X-X-X-X-X-X-X-X-X-X-X-X-X-X-X-X-X-X-X-X-X-X-X-X-X-X-X-X-X-X-X-X-X-X-X-X-X-X-X-X-X",
"-X-X-X-X-X-X-X-X-X-X-X-X-X-X-X-X-X-X-X-X-X-X-X-X-X-X-X-X-X-X-X-X-X-X-X-X-X-X-X-X-X-X-X-X-X-X-X-X-X-X-X-X-X-X-X-X-X-X-X-X",
"-X-X-X-X-X-X-X-X-X-X-X-X-X-X-X-X-X-X-X-X-X-X-X-X-X-X-X-X-X-X-X-X-X-X-X-X-X-X-X-X-X-X-X-X-X-X-X-X-X-X-X-X-X-X-X-X-X-X-X-X",
"-X-X-X-X-X-X-X-X-X-X-X-X-X-X-X-X-X-X-X-X-X-X-X-X-X-X-X-X-X-X-X-X-X-X-X-X-X-X-X-X-X-X-X-X-X-X-X-X-X-X-X-X-X-X-X-X-X-X-X-X",
"-X-X-X-X-X-X-X-X-X-X-X-X-X-X-X-X-X-X-X-X-X-X-X-X-X-X-X-X-X-X-X-X-X-X-X-X-X-X-X-X-X-X-X-X-X-X-X-X-X-X-X-X-X-X-X-X-X-X-X-X",
"-X-X-X-X-X-X-X-X-X-X-X-X-X-X-X-X-X-X-X-X-X-X-X-X-X-X-X-X-X-X-X-X-X-X-X-X-X-X-X-X-X-X-X-X-X-X-X-X-X-X-X-X-X-X-X-X-X-X-X-X",
"-X-X-X-X-X-X-X-X-X-X-X-X-X-X-X-X-X-X-X-X-X-X, 2 . -X-X-X< 1 1 -X-X-X-X-X-X-X-X-X-X-X-X-X-X-X-X-X-X-X-X-X-X-X-X-X-X-X-X-X",
"-X-X-X-X-X-X-X-X-X-X-X-X-X-X-X-X-X-X-X-X-X2 2 8 8 2 8 9 3 , 2 3 7 -X-X-X-X-X-X-X-X-X-X-X-X-X-X-X-X-X-X-X-X-X-X-X-X-X-X-X",
"-X-X-X-X-X-X-X-X-X-X-X-X-X-X-X-X-X-X  -X2 , 2 8 2 3 q u q 8 $ & p q 8 3 5 3 -X-X-X-X-X-X-X-X-X-X-X-X-X-X-X-X-X-X-X-X-X-X",
"-X-X-X-X-X-X-X-X-X-X-X-X-X-X-X-X-X-X.   , -X-X2 -X, 8 u q 2 % u w 8 8 9 8 1   o -X-X-X-X-X-X-X-X-X-X-X-X-X-X-X-X-X-X-X-X",
"-X-X-X-X-X-X-X-X-X-X-X-X-X-X-X-X-X-X,   2 -X, 1 -X-X-X4 u 8 o 8 8 e 9 3 -X-X3 @ 2 -X-X-X-X-X-X-X-X-X-X-X-X-X-X-X-X-X-X-X",
"-X-X-X-X-X-X-X-X-X-X-X-X-X-X-X-X-X< 2 2 7 j 1 z -X-X-X. O $ % $ $ q 8 2 , 2 3 ,   1 -X-X-X-X-X-X-X-X-X-X-X-X-X-X-X-X-X-X",
"-X-X-X-X-X-X-X-X-X-X-X-X-X-X-X-X7 6 x k U x -XY R L h -X2 8 + + + q + + 8 8 9 8 + o 9 9 t -X-X-X-X-X-X-X-X-X-X-X-X-X-X-X",
"-X-X-X-X-X-X-X-X-X-X-X-X-X-X-X-X6 x X.N N N T O.%.' v N l 3   -X-XO = p 8 t 4 * = & 9 8 9 6 -X-X-X-X-X-X-X-X-X-X-X-X-X-X",
"-X-X-X-X-X-X-X-X-X-X-X-X-X-X-X-X-X-XH K $.$.&.i.l.$.&.-X-X-X-X-X-X-X-X8 q p 5 q : > z.8 1 7 k -X-X-X-X-X-X-X-X-X-X-X-X-X",
"-X-X-X-X-X-X-X-X-X-X-X-X-X-XM x -X-X-XB $.n.k.B.R.k.u.-X-X-X-X-X-X-X-Xj -Xq 9 + * - > s 2 0 6 7 -X-X-X-X-X-X-X-X-X-X-X-X",
"-X-X-X-X-X-X-X-X-X-X-X-X-XB V  .Z V x %.u.k.l.0.j.g.8.8.o.D -X1 -X-Xv R t j 4   o o ; > 8 r 9 x -X-X-X-X-X-X-X-X-X-X-X-X",
"-X-X-X-X-X-X-X-X-X-X-X-X-XU U N Z  .' =.-.i.k.#.-X-X-X-X-X-X-X3 5 -X5 U O.T c -X2 < O : & -X8 7 l -X-X-X-X-X-X-X-X-X-X-X",
"-X-X-X-X-X-X-X-X-X-X-X-X-Xy x -XZ %.p.=.&.#.0.D -X-X-X-X-XN x N R e 0 t o.o.I 1 8 , s - = 0 8 3 6 -X-X-X-X-X-X-X-X-X-X-X",
"-X-X-X-X-X-X-X-X-X-X-X-XC U l Z %.=.&.p.0.J B -X-X-XD D X.&.| S ..0 e z U U -X9 2 2 & # & x.q 3 -X-X-X-X-X-X-X-X-X-X-X-X",
"-X-X-X-X-X-X-X-X-X-X-Xk } C M } ' x.%.X.-X-X-X-X-XD X.-Xe.G.G.g.g.r.E e v U -X-X3 y 8 2 a z.p 5 -X-X-X-X-X-X-X-X-X-X-X-X",
"-X-X-X-X-X-X-X-X-X-X-X-X-X-X-Xy w w t -X-X-X-X-X-X-X-Xj.f.H.F.D.S.F.Z.) I -XF 5 5 y w 8 e p = 9 A -X-X-X-X-X-X-X-X-X-X-X",
"-X-X-X-X-X-X-X-X-X-X-X-X-X6 I y 0 x -X-X-X-X-X-X-Xv +.y.T.!.!.K.H.H.C.C.6.9.-XL t f a q r d s 9 U -X-X-X-X-X-X-X-X-X-X-X",
"-X-X-X-X-X-X-X-X-X-X-X-X-XT x p x -X-X-X-X-X-X-X-Xv 5.S.).[.}.~.P.P.J.C.q.e.r.-XQ ~ e q P ] p 3 U Z -X-X-X-X-X-X-X-X-X-X",
"-X-X-X-X-X-X-X-X-X-X-X-XT ..-X6 -X-X-X-X-X-X-X-X-XT s.W.{. X X}.Y.P.~.V.w.e.9.-XO...` R _ ` q 2 -XB -X-X-X-X-X-X-X-X-X-X",
"-X-X-X-X-X-X-X-X-X-X-X2 v G U I -X-X-X-X-X-X-X-X-X .=.Q.XX$X#X%X|.'.(.H.>.Z.p.E 5.O.f R c T -X-X-X-X-X-X-X-X-X-X-X-X-X-X",
"-X-X-X-X-X-X-X-X-X-X-X-Xz -XE E -X-X-X-X-X-X-X-XR O.{ m./.+X*X&X%X}.(.F.>.A.5.R 7.=.e -X-X-X-X-Xj -X-X-X-X-X-X-X-X-X-X-X",
"-X-X-X-X-X-X-X-X-X-X-X-X-X-XU N -X-X-X-X-X-X-X-XQ +.4.{ N.@X*X=X.X].W.d.s.U.4.+.o.Q x -XS S -X-X-X-X-X-X-X-X-X-X-X-X-X-X",
"-X-X-X-X-X-X-X-X-X-X-X-X-X-XC N -X-X-X-X-X-X-X1 Q 2.2.Q n._.oX`.^.E.y.( A.s.~ 1.E y x T 1.-X-X-X-X-X-X-X-X-X-X-X-X-X-X-X",
"-X-X-X-X-X-X-X-X-X-X-X3 -X-XX.U -X-X-X-X-X-X-Xv +.-X-X/ <.c.M.v.{ <.^ q.a.Y T 3.R R k +.S -X-X-XH -X-X-X-X-X-X-X-X-X-X-X",
"-X-X-X-X-X-X-X-X-X-X-X  -X-X-X| -X-X-X-XB -X-X2.w.-X-XL 5 ) x._ _ Y Z.<.m I c v t I B -X-X-XJ Z C B -X-X-X-X-X-X-X-X-X-X",
"-X-X-X-X-X-X-X-X-X-X-X-X-X-X-X| | -X-X-Xk D -X-X;.-X-Xg 5 c g g 5 g -X-Xz -X, -XI C -X-X-X-XA B B K -X-X-X-X-X-X-X-X-X-X",
"-X-X-X-X-X-X-X-X-X-X-X-Xk -X-XD U -X-X-X-X-X-X-X,.-X-X-Xg g g g 5 -X-X-X-X2 -Xg -Xv -X| ..-X-X-X-X-X-X-X-X-X-X-X-X-X-X-X",
"-X-X-X-X-X-X-X-X-X-X-X-X-X-X-XD x -X-Xj ..9.-XS g.6.-X-X-Xz 6 -X-X, -X-X-X-X-X+.-X-X-Xx -X-X-Xz -X-X-X-X-X-X-X-X-X-X-X-X",
"-X-X-X-X-X-X-X-X-X-X-X-X-X-XG S 4 -X-X! W E -XC F G.:.-X-X-X-Xj -X-X-X-X-X-X-X-X-X-X-X-X-X-X-Xn -X-X-X-X-X-X-X-X-X-X-X-X",
"-X-X-X-X-X-X-X-X-X-X-X-X-XG S S 9 X -X2.! z 7 B N -X-X-X-X-X-X-X-X-X-X-Xz -X-X-X3 5 -X-X1 v n -X-X-X-X-X-X-X-X-X-X-X-X-X",
"-X-X-X-X-X-X-X-X-X-X-X-X-X-X-X3.c 8 -X-XY ^ j v D D -X..-X-X-X-X-XN -X-X1 5 7 9 3 -X-X-X-X3.-X-X-X-X-X-X-X-X-X-X-X-X-X-X",
"-X-X-X-X-X-X-X-X-X-X-X-X-X-X-Xx c Y g -XL <.g t } D D B -X-X-X-X-X-X-XI y y e 1 -X-X-X-X-X-X-X-X-X-X-X-X-X-X-X-X-X-X-X-X",
"-X-X-X-X-X-X-X-X-X-X-X-X-X-X-X9 6 t.4.2 2 g L 4 v U U B -X-X-X-X-Xm ~ P a P j -X-X-X-X-X-X-X-X-X-X-X-X-X-X-X-X-X-X-X-X-X",
"-X-X-X-X-X-X-X-X-X-X-X-X-X-X-X5 o ~ m   o g Y W ^ U | | -X-X-X-X-X-X-X-X-X-X-X-X-X2 -X-X-X-X-X-X-X-X-X-X-X-X-X-X-X-X-X-X",
"-X-X-X-X-X-X-X-X-X-X-X-X-X-X-X1 r I m 4 o 2 r W W R T Q o.G -X-Xk -X-X-X-X-X-X-X-X-X-X-X-X-X-X-X-X-X-X-X-X-X-X-X-X-X-X-X",
"-X-X-X-X-X-X-X-X-X-X-X-X-X-X-X-Xb ! L 8 . -X-XW I 0 z v Q | -X-X-X-X-X-X-X-X-X-X-X-X-X-X-X-X-X-X-X-X-X-X-X-X-X-X-X-X-X-X",
"-X-X-X-X-X-X-X-X-X-X-X-X-X-X-X-X-X-Xg 4 -X-X-X-X;.c z 0 w a I x -X4 -X-X-X-X-X-X-X-X-X-X-X-X-X-X-X-X-X-X-X-X-X-X-X-X-X-X",
"-X-X-X-X-X-X-X-X-X-X-X-X-X-X-X-X-X-X-X-X-X-X-X-X-X2.-Xz L e I ~ -X-X-X-X-X-X-X-X-X-X-X-X-X-X-X-X-X-X-X-X-X-X-X-X-X-X-X-X",
"-X-X-X-X-X-X-X-X-X-X-X-X-X-X-X-X-X-X-X-X-X-X-X-X-X-Xj I 5 j v 3.-X-X-X-X-X-X-X-X-X-X-X-X-X-X-X-X-X-X-X-X-X-X-X-X-X-X-X-X",
"-X-X-X-X-X-X-X-X-X-X-X-X-X-X-X-X-X-X-X-X-X-X-X-X-X-X-Xj 1 1 6 m g.-X-X-X-X-X-X-X-X-X-X-X-X-X-X-X-X-X-X-X-X-X-X-X-X-X-X-X",
"-X-X-X-X-X-X-X-X-X-X-X-X-X-X-X-X-X-X-X-X-X-X-X-X-X-X-X-X-X-Xn -X-X-X-X-X-X-X-X-X-X-X-X-X-X-X-X-X-X-X-X-X-X-X-X-X-X-X-X-X",
"-X-X-X-X-X-X-X-X-X-X-X-X-X-X-X-X-X-X-X-X-X-X-X-X-X-X-X-X-X-X-X-X-X-X-X-X-X-X-X-X-X-X-X-X-X-X-X-X-X-X-X-X-X-X-X-X-X-X-X-X",
"-X-X-X-X-X-X-X-X-X-X-X-X-X-X-X-X-X-X-X-X-X-X-X-X-X-X-X-X-X-X-X-X-X-X-X-X-X-X-X-X-X-X-X-X-X-X-X-X-X-X-X-X-X-X-X-X-X-X-X-X",
"-X-X-X-X-X-X-X-X-X-X-X-X-X-X-X-X-X-X-X-X-X-X-X-X-X-X-X-X-X-X-X-X-X-X-X-X-X-X-X-X-X-X-X-X-X-X-X-X-X-X-X-X-X-X-X-X-X-X-X-X",
"-X-X-X-X-X-X-X-X-X-X-X-X-X-X-X-X-X-X-X-X-X-X-X-X-X-X-X-X-X-X-X-X-X-X-X-X-X-X-X-X-X-X-X-X-X-X-X-X-X-X-X-X-X-X-X-X-X-X-X-X",
"-X-X-X-X-X-X-X-X-X-X-X-X-X-X-X-X-X-X-X-X-X-X-X-X-X-X-X-X-X-X-X-X-X-X-X-X-X-X-X-X-X-X-X-X-X-X-X-X-X-X-X-X-X-X-X-X-X-X-X-X",
"-X-X-X-X-X-X-X-X-X-X-X-X-X-X-X-X-X-X-X-X-X-X-X-X-X-X-X-X-X-X-X-X-X-X-X-X-X-X-X-X-X-X-X-X-X-X-X-X-X-X-X-X-X-X-X-X-X-X-X-X",
"-X-X-X-X-X-X-X-X-X-X-X-X-X-X-X-X-X-X-X-X-X-X-X-X-X-X-X-X-X-X-X-X-X-X-X-X-X-X-X-X-X-X-X-X-X-X-X-X-X-X-X-X-X-X-X-X-X-X-X-X",
"-X-X-X-X-X-X-X-X-X-X-X-X-X-X-X-X-X-X-X-X-X-X-X-X-X-X-X-X-X-X-X-X-X-X-X-X-X-X-X-X-X-X-X-X-X-X-X-X-X-X-X-X-X-X-X-X-X-X-X-X",
"-X-X-X-X-X-X-X-X-X-X-X-X-X-X-X-X-X-X-X-X-X-X-X-X-X-X-X-X-X-X-X-X-X-X-X-X-X-X-X-X-X-X-X-X-X-X-X-X-X-X-X-X-X-X-X-X-X-X-X-X",
"-X-X-X-X-X-X-X-X-X-X-X-X-X-X-X-X-X-X-X-X-X-X-X-X-X-X-X-X-X-X-X-X-X-X-X-X-X-X-X-X-X-X-X-X-X-X-X-X-X-X-X-X-X-X-X-X-X-X-X-X",
"-X-X-X-X-X-X-X-X-X-X-X-X-X-X-X-X-X-X-X-X-X-X-X-X-X-X-X-X-X-X-X-X-X-X-X-X-X-X-X-X-X-X-X-X-X-X-X-X-X-X-X-X-X-X-X-X-X-X-X-X"
};
