/* XPM */
static char *_0ef26b2b4ba4680c6f42a7cdaa7f497BtWIYEYqnvykoB0g[] = {
/* columns rows colors chars-per-pixel */
"60 24 99 2 ",
"   c None",
".  c #C78E51",
"X  c #C58E5C",
"o  c #CE9354",
"O  c #C4915F",
"+  c #CC955F",
"@  c #D99A52",
"#  c #D39B5D",
"$  c #D89D5D",
"%  c #CF9966",
"&  c #D39C64",
"*  c #D89F62",
"=  c #D69F6A",
"-  c #DCA365",
";  c #D3A26B",
":  c #DAA46A",
">  c #DFA96C",
",  c #D6A472",
"<  c #DEAC74",
"1  c #DDAB7A",
"2  c #E2A564",
"3  c #E8A767",
"4  c #E4A864",
"5  c #E2A76A",
"6  c #E3AC6D",
"7  c #F1B069",
"8  c #E3AC73",
"9  c #E9AF71",
"0  c #E2AE7B",
"q  c #E6B175",
"w  c #EEB474",
"e  c #E7B873",
"r  c #EFBC77",
"t  c #E2B17E",
"y  c #ECB67B",
"u  c #EEBA7C",
"i  c #F0B575",
"p  c #F2BC76",
"a  c #F1B679",
"s  c #F3BA7D",
"d  c #FABD7D",
"f  c #EFC37E",
"g  c #FCC17E",
"h  c #DBAF87",
"j  c #E6B684",
"k  c #EFBA83",
"l  c #ECBC8A",
"z  c #F1B782",
"x  c #F2BC83",
"c  c #F8BE85",
"v  c #F2BE8A",
"b  c #E7BB92",
"n  c #ECBE94",
"m  c #F3C485",
"M  c #FCC582",
"N  c #F6CC86",
"B  c #FBCC85",
"V  c #F3C18A",
"C  c #FCC38A",
"Z  c #FDCA8A",
"A  c #FFD687",
"S  c #F7D984",
"D  c #FED38E",
"F  c #F6DA8A",
"G  c #E9C49A",
"H  c #F3C491",
"J  c #FBC792",
"K  c #FDCB95",
"L  c #F7C79B",
"P  c #F5CB9E",
"I  c #FACB9A",
"U  c #FFD391",
"Y  c #F6DD93",
"T  c #FEDB94",
"R  c #FFD29D",
"E  c #FFDD9E",
"W  c #F7E38E",
"Q  c #FEE395",
"!  c #FEE997",
"~  c #FDE59C",
"^  c #FEEA9C",
"/  c #FFF69B",
"(  c #EFCDAA",
")  c #F5CDA2",
"_  c #F8CFA3",
"`  c #F5D1A5",
"'  c #FED3A4",
"]  c #FFD9A4",
"[  c #F6D2AA",
"{  c #FBD4AB",
"}  c #FFDBAD",
"|  c #FBDDBD",
" . c #FEF2A5",
".. c #FFFCA4",
"X. c #FFF1AA",
"o. c #FFFCA9",
"O. c #FFFFB6",
"+. c #FFFFBD",
"@. c #FFFDC4",
/* pixels */
"                                                                                                                        ",
"            = t :                                                                                                       ",
"          , } } ' K x 0 =                                                                                               ",
"        X ' _ ) _ _ _ _ ' J 9                                                                                           ",
"        1 ' ) P ) ) ) ) ) ` ] :                                                                                         ",
"        C _ ) [ ] ' ) _ _ L P &                                                                                         ",
"      % ' ) { n = 5 C _ b h G ;                                                           7     A     ;                 ",
"      1 ' _ J         & G ` ' V                                                         > v x j K     w q               ",
"      & ) ] >         X } ` ) R &                                                       m I I L K     q R 6             ",
"    l ( , K &         = { ) P [ K                                                       * w y a s 9 2 w y #             ",
"  % { | v >           0 } ) ` [ t o X                                                 X o # * * = 2 3 $ o o             ",
"  : ' z x x           0 I l P j 5 H c C C C Z Z Z Z Z Z Z Z Z Z Z Z Z Z C C C x x x x c z z k l z z z k z z C C Z a     ",
"  < R y s s           q m i x y 6 V g g g g g g g B M M g M g B M M M M d d g i p i r d d a y i a a i i i a d d Z s     ",
"  < K s a i           8 M z k x 6 @ ;                                                   # 2 2 4 4 5 2 2 2 $ &           ",
"    x x 6 M :         - B m m x d                                                       & M w w w x V m d +             ",
"      8 z M 6         : D B M Z >                                                       - d >   q C 6 z 6               ",
"      q Z x g         e m D U B                                                           - 2   8 d   2 >               ",
"      6 Z M Z g r f T T N m D p                                                           :           > 4               ",
"        U K Z D ~ ^ ! Q ! Q Q f                                                                       - :               ",
"        m E U T T ! ! ! !  .@.B                                                                                         ",
"        r X.~ T ~ ^ ........^                                                                                           ",
"          Y O.@.+.o./ W F                                                                                               ",
"            Y ~ W S                                                                                                     ",
"                                                                                                                        "
};
