/* XPM */
static char *result[] = {
/* columns rows colors chars-per-pixel */
"60 60 103 2 ",
"   c #1C1C1C",
".  c #242424",
"X  c #2C2626",
"o  c #2E2728",
"O  c #2C2C2C",
"+  c #322525",
"@  c #3C2324",
"#  c #322C2C",
"$  c #382929",
"%  c #332F30",
"&  c #333333",
"*  c #3C3535",
"=  c #3D3D3D",
"-  c #5D1D1F",
";  c #661C1F",
":  c #6B1B1F",
">  c #7A171B",
",  c #731A1E",
"<  c #7C191D",
"1  c #4E1F21",
"2  c #541E21",
"3  c #5C1E21",
"4  c #651E21",
"5  c #6C1E21",
"6  c #741F22",
"7  c #7B1E22",
"8  c #432324",
"9  c #4C2224",
"0  c #462C2D",
"q  c #542224",
"w  c #5B2124",
"e  c #473233",
"r  c #423738",
"t  c #473839",
"y  c #503133",
"u  c #5B3839",
"i  c #642124",
"p  c #6B2124",
"a  c #732024",
"s  c #7B2024",
"d  c #434343",
"f  c #4C4C4C",
"g  c #525252",
"h  c #5B5B5B",
"j  c #614647",
"k  c #625E5E",
"l  c #656565",
"z  c #686868",
"x  c #747474",
"c  c #7E7E7E",
"v  c #86171C",
"b  c #8D171C",
"n  c #82191E",
"m  c #8E191E",
"M  c #9C1117",
"N  c #94151B",
"B  c #9B151A",
"V  c #931A1F",
"C  c #9B191E",
"Z  c #A01117",
"A  c #A51319",
"S  c #AC151B",
"D  c #A1191F",
"F  c #AE181E",
"G  c #B4161C",
"H  c #BD161D",
"J  c #B3181E",
"K  c #BE181F",
"L  c #851E22",
"P  c #8A1E23",
"I  c #931E23",
"U  c #9B1D22",
"Y  c #A21D22",
"T  c #AD1C22",
"R  c #B51C22",
"E  c #B91B21",
"W  c #862226",
"Q  c #A42025",
"!  c #AB2025",
"~  c #C3171E",
"^  c #CA171F",
"/  c #C6181F",
"(  c #CC181F",
")  c #C31B22",
"_  c #CC1A21",
"`  c #D31921",
"'  c #D91921",
"]  c #E11B23",
"[  c #EF1B24",
"{  c #F21C25",
"}  c #FC1D26",
"|  c gray51",
" . c gray57",
".. c gray62",
"X. c gray63",
"o. c #AEAEAE",
"O. c gray71",
"+. c gray73",
"@. c #C0C0C0",
"#. c #CDCDCD",
"$. c #D5D5D5",
"%. c gray87",
"&. c #E6E6E6",
/* pixels */
"d d d d d d d d d d d d d d d d d d d d d d d d d d d d d = . O h h f d d d d d d d d d d d d d d d d d d d d d d d d d ",
"d d d d d d d d d d d d d d d d d d d d d d d d d d d d d = . & l h f d d d d d d d d d d d d d d d d d d d d d d d d d ",
"d d d d d d d d d d d d d d d d d d d d d d d d d d d d d = . & h k f d d d d d d d d d d d d d d d d d d d d d d d d d ",
"d d d d d d d d d d d d d d d d d d d d d d d d d d = d d =   O h h f d d d d d d d d d d d d d d d d d d d d d d d d d ",
"d d d d d d d d d d d d d d d d d d d d d d d d d d d d d &   . h h f d d d d d d d d d d d d d d d d d d d d = d d d d ",
"d d d d d d d d d d d d d d d d d d d d d d d d d d d d = &   . d f d d d d d d d d d d d d d d d d d d d d d d d d d d ",
"d d d = d d = = d = d = = d d d d d d d d = d d = d d = & O   . & = = d d = d d = d = d = d = d = d d d d = = d d = = = ",
"O O X . . . . X . O O O . O O O O O O O O & O & O O & O O .     . O O O & O O O O & O & O & & O O O O O O O . . . . O O ",
". .                 .     . . . . . . . . . . . . . . . . . .   . . . . . . . . . . . .         . . . . .               ",
"f d d = d d d d = d f d d d f f f d f f d f f f f f f f f f d f f f d f f f f f f d d & .   . . & d f f d d = d = d = = ",
"z z z z z z z z z z z z z z z z z z z z z z z z z z z z z z z z z z z z z z z z z z h d & . . & f l z z z z z z z z z z ",
"h h h h h h k h h h h h h h l h h h h l h h h h h h h h h l h h k h h h h h h h h h h g & . O g h h h h h h h l h h h h ",
"g g g g g g g g g g g g g g g g g g g g g g g g g g g g g g g g g g g g g g g g g g g g d . & h l g g g g g g g g g g g ",
"g g g g g g g g g g g g g g g g g g g g g g g g g g g g g g g g g g g g g g g g g g g g f O & l l g g g g g g g g g g g ",
"g g g g g g g g g g g g g g g g g g g g g g g g g g g g g g g g g g g g g g g g g g g g f O = k l g g g g g g g g g g g ",
"g g g g g g g g g g g g g g g d O O O = f g g g g g g g g g g g g g g g g g g g g g g g f . & h l g g g g g g g g g g g ",
"g g g g g g g g g g g g g g g & 4 J T p o & f g g g g g f & O & f g g g g g g g g g f * O . O g h g g g g g g g g g g g ",
"g g g g g g g g g g f g g g f & , A s W R a o = f g g d X a Y # d = = = f g g g d & X 9 < < + & d f g g f g g g g g g g ",
"= = = = = = = = = = = = = = = & , < 9 6 @ i Y w X * & + T ' T X 9 p a 9 & d & O + : B S p @ X . & = = = = = = = = = = = ",
". . . .   . . . . . . .   . . . : v w ] ` W 8 s I o + ) ' ' ` _ ' ` ` 9 . . + , v , K 7 w i . . .   . . . . . . . .   . ",
"= = = = = = = = & & .     . O O 4 N q ' } { ) i i ) L Y ' ' ' ' ' ' R a + 8 N A L E U q E P & = = = = = = = = = = = = = ",
"k l l l l k l l h f O .   O = = q A q T } } R @ s ' ' ` ' ' ' ' ' ' ` ' ` R J ) ' ) 9 T { s d l l l h l l l l l l k l l ",
"g h g h h h h h g f & . . d g f 8 A , p } R $ L ` ' ' ' ' ' ' ' ' ' ' ' ' ' ' ' ) i W { { q f h h h h h h g h h h h h g ",
"d f d d d d d d f d d . . g k d @ N N q Q 8 < ` ' ' ' ' ' ' ' ' ' ' ' ' ' ' ' ' s 9 _ } ) $ d d d d d d f d d d d d f d ",
"d d d d d d d d d d = .   g l f O < A ; o 4 / ' ' ' ' ' ' ' ' ' ' ' ' ' ' ' ' ' ) 0 Q } W & d d d d d d d d d d d d d d ",
"d d d d d d d d d d = .   g l f & ; A N : S ` ' ' ' ' ' ' ' ' ' ' ' ' ' ' ' ' ' ' I 9 ) 8 = d d d d d d d d d d d d d d ",
"d d d d d d d d d d d . . g l f = @ B A A D ' ' ' ' ' ' ' ' ' ' ' ' ' ' ' ' ' ' ' ` q 8 & d d d d d d d d d d d d d d d ",
"d d d d d d d d d d = O O g l f d o 2 A N q ' ' ' ' ) 9 q I ` ' ' ' ' ' ' ' ' ' T q @ . = d d d d d d d d d d d d d d d ",
"d d d d d d d d d * O . . f l f d & - A B 7 ' ' ' ' i x o.z & w I ` ' ' ' ' R q k o.f X = d d * O . X & d d d d d d d d ",
"d d d d d d d = o 9 U T a o & = = & ; A A H ' ' ' ) e O.&.&.%.o.z % a ' ` i h +.&.&.x . & # X q Y _ T w O = d d d d d d ",
"d d d d d d d . s H / ( G K U w X X 8 ; 3 @ 6 ` ' ) t +.&.&.&.&.&.@.9 ' ) j @.&.&.&.| . 9 W R ~ V ` C J W . = d d d d d ",
"& & = & = & . W G @ p F o i S / _ R P i p Y q P ' _ 0 X.%.&.&.&.&. .a ' ` u o.&.&.&.x o T ~ n 8 X ` + @ G W O & = & * & ",
". . . . . . a H 8 @ 8 _ + 1 + q m H / ( ` ' L i ' ' W g +.%.&.&.#.r E ' ' a c $.&.#.d + w + @ - 8 _ X - @ G s . . . . . ",
"= = & & % 9 ~ q 1 N X ` 8 > > ; @ + 9 : D ( 7 i ' ' ` p d | ..c * U ' ' ' ) y c ..h 9 o - ; M , w R + M 2 9 ~ 9 O = & * ",
"l l z g o G 5 @ M Z + E q : 3 G S : o + @ : 8 n ` ' ' ' Y p q 7 E ' ' ' ' ' ) 7 p Y q 4 C n S ; a U 8 B , @ : H O g l l ",
"l k l & P C X - G G 1 I p : G G 4 % = 8 < 9 , A S J ` ' ' ' ' ' ' ' ' ' ' ' ' ' ' U # O i G G 2 P 6 - H w : X C W O k l ",
"g g d 8 ~ @ ; 3 H H - a P 3 S q * g f % : A A A A ; w _ ' ' ' ' ' ' ' ' ' ' ' ' E @ d g & q A 8 Y 9 < H H C , @ / 9 = h ",
"g g o T 6 8 G H ~ ~ v + U @ q * f g g f # , A S A A N B Y E ' ' ' ' ' ' ' ' ( S 8 = g g d . 1 @ C X A H H H G 8 6 R X g ",
"g & q E + 2 4 q q 4 6 X P + & f g g g g d o : A A A A A B m G / ^ ( ( / H S N 8 * g g g d . . 8 7 o q 8 @ @ $ @ + J w & ",
"g O i 8 O = d d d d & X q @ d g g g g g g f O 8 N A A A A A A A A A A A Z : o = g g g g d O O 8 8 & d f f f f d & + 8 & ",
"g d = = g g g g g g g f & & g g g g g g g g f = # q , b M B A B B V < - X & f g g g g g = . & = d g g g g g g g g d d g ",
"g g g g g g g g g g g g g g g g g g f g g g g g f = & O 8 9 9 8 9 $ O = d g g g g g g d & . O = f g g g g g g g g g g g ",
"d f d f d d d f f f f f d f f d f f f d f f d f f d f d = = = = = d f d f f d f d f d * O     O & d f d f d f d f d f d ",
"O O O O O O O O X X . O O O O O . O O O . O O O O O X O O O O O O O O . O O O O O O . .       . . O O O O O O O O O . O ",
"O O O O O O O O O .         . O O O O O O O O O O O O O O O O O O O O O O O O O O O O O O O O O O O O O O O O O O O O O ",
"h h h h h h h h g d O .   . & f h h h h h h h h h h h h h h h h h h h h h h h h h h h h h h h h h h h h h h h h h h h h ",
"z z l z z z z z l g = . . & g h l l l l l l l l l l l l z z z z l l l l z z l l l l z z z z l z z z z z l z z z z z l z ",
"g h g g g h g g g g d O . g k h h g h h g h h g h h g h g h g g h h g h g h g h h g g h g g h g g h g g h g g h g g h g ",
"g g g g g g g g g g d & O g z h g g g g g g g g g g g g g g f g f g g f g g g g g g g g g f g g g g g g g g g g g g g g ",
"g g g g g g g g g g f O O g z h g g g g g g g g g g g g g g g g g g g g g g g g g g g g g g g g g g g g g g g g g g g g ",
"g g g g g g g g g g f & O g z g g g g g g g g f g g g g g g g g g g g g g g g g g g g g g g g g g g g g g g g g g g g g ",
"g g g g g g g g g g f O . g l h g g g g g g g g g g g g g g g g g g g g g g g g g g g g g g g g g g g f g g g g g g g g ",
"g g g g g g g g g d = . . = g g g g g g g g g g g g g g g g g g g g g g g g g g g g g g g g g g g g g g g g g g g g g g ",
"f f f f f f f f f = & .   O = f f f f f f f f f f f f f g f f f f f f f f f f f f f f g f f f f f f f f f f f f f f g f ",
"& & & & & & & & & O .     . . O & & & & & & & & & & & & & O & & & & & & & & & & & & & & & & & & & & & & & & & & & & O & ",
". . . . . . . . . . . . . . . . . . . . . . . . . . . . .         . . . . . . . . . . . . . . . . . . . . . . . . . . . ",
"g f g f f g f g f g g f f g f g g g f g g f g f g f g d & .     . & f g g f g f g f g f f g f g f g g f f g f g f g f g ",
"l l l l l l l l l l l l l l l l l l l l l l l l l l l h d & . . * f k l l l l l l l l l l l l l l l l l l l l l l l l l ",
"f g g g g g g g g g g g g g f g f g g f f g g g g g g f d & . O g h g g g f g g f g g g f g g g g f g g g g f g g g g f ",
"d d d d d d = d d d d = d d d d d d d d d d d d d d d d d & . & h h d d d d d d d d d d d d d d d d d d d d d d d d d d "
};
