/* XPM */
static char *result[] = {
/* columns rows colors chars-per-pixel */
"60 60 230 2 ",
"   c black",
".  c #010101",
"X  c #020202",
"o  c gray1",
"O  c #040404",
"+  c gray2",
"@  c #060606",
"#  c #070707",
"$  c gray3",
"%  c #090909",
"&  c gray4",
"*  c #0B0B0B",
"=  c #0C0C0C",
"-  c gray5",
";  c #0E0E0E",
":  c gray6",
">  c #101010",
",  c #111111",
"<  c gray7",
"1  c #131313",
"2  c gray8",
"3  c #151515",
"4  c #161616",
"5  c gray9",
"6  c #181818",
"7  c #191919",
"8  c gray10",
"9  c #1B1B1B",
"0  c gray11",
"q  c #1D1D1D",
"w  c #1E1E1E",
"e  c gray12",
"r  c #202020",
"t  c gray13",
"y  c #222222",
"u  c #232323",
"i  c gray14",
"p  c #252525",
"a  c gray15",
"s  c #272727",
"d  c #282828",
"f  c gray16",
"g  c #2A2A2A",
"h  c gray17",
"j  c #2C2C2C",
"k  c #2D2D2D",
"l  c gray18",
"z  c #2F2F2F",
"x  c gray19",
"c  c #313131",
"v  c #323232",
"b  c gray20",
"n  c #343434",
"m  c #353535",
"M  c gray21",
"N  c #373737",
"B  c gray22",
"V  c #393939",
"C  c #3A3A3A",
"Z  c gray23",
"A  c #3C3C3C",
"S  c gray24",
"D  c #3E3E3E",
"F  c #3F3F3F",
"G  c gray25",
"H  c #414141",
"J  c gray26",
"K  c #434343",
"L  c #444444",
"P  c gray27",
"I  c #464646",
"U  c gray28",
"Y  c #484848",
"T  c #494949",
"R  c gray29",
"E  c #4C4C4C",
"W  c gray30",
"Q  c #4E4E4E",
"!  c gray31",
"~  c #505050",
"^  c #515151",
"/  c #535353",
"(  c gray33",
")  c #555555",
"_  c #5A5A5A",
"`  c #5B5B5B",
"'  c gray36",
"]  c #5D5D5D",
"[  c #5F5F5F",
"{  c #606060",
"}  c gray38",
"|  c #626262",
" . c #656565",
".. c gray40",
"X. c #676767",
"o. c #686868",
"O. c DimGray",
"+. c #6A6A6A",
"@. c gray42",
"#. c #6C6C6C",
"$. c #6D6D6D",
"%. c gray43",
"&. c #6F6F6F",
"*. c gray44",
"=. c #717171",
"-. c #727272",
";. c gray45",
":. c #747474",
">. c gray46",
",. c #767676",
"<. c #777777",
"1. c #797979",
"2. c gray48",
"3. c #7B7B7B",
"4. c #7C7C7C",
"5. c gray49",
"6. c gray50",
"7. c #808080",
"8. c #818181",
"9. c gray51",
"0. c #838383",
"q. c #848484",
"w. c gray52",
"e. c #868686",
"r. c gray53",
"t. c #888888",
"y. c #898989",
"u. c #8B8B8B",
"i. c gray55",
"p. c #8D8D8D",
"a. c #8E8E8E",
"s. c gray56",
"d. c #909090",
"f. c gray57",
"g. c #929292",
"h. c #939393",
"j. c gray58",
"k. c #959595",
"l. c gray59",
"z. c #979797",
"x. c #989898",
"c. c #9B9B9B",
"v. c gray61",
"b. c #9D9D9D",
"n. c gray62",
"m. c #9F9F9F",
"M. c #A0A0A0",
"N. c gray63",
"B. c #A2A2A2",
"V. c gray65",
"C. c gray66",
"Z. c #A9A9A9",
"A. c #AAAAAA",
"S. c gray67",
"D. c #ACACAC",
"F. c gray68",
"G. c #AEAEAE",
"H. c #B1B1B1",
"J. c gray70",
"K. c #B4B4B4",
"L. c gray71",
"P. c #B6B6B6",
"I. c #B7B7B7",
"U. c gray72",
"Y. c #B9B9B9",
"T. c gray73",
"R. c #BBBBBB",
"E. c #BCBCBC",
"W. c gray74",
"Q. c gray75",
"!. c #C0C0C0",
"~. c #C1C1C1",
"^. c gray76",
"/. c #C3C3C3",
"(. c #C5C5C5",
"). c #C6C6C6",
"_. c gray78",
"`. c #C8C8C8",
"'. c gray79",
"]. c #CACACA",
"[. c #CBCBCB",
"{. c gray80",
"}. c #CDCDCD",
"|. c #CECECE",
" X c gray81",
".X c #D0D0D0",
"XX c gray82",
"oX c #D2D2D2",
"OX c gray83",
"+X c #D5D5D5",
"@X c gray84",
"#X c #D7D7D7",
"$X c gray85",
"%X c gray86",
"&X c gainsboro",
"*X c #DDDDDD",
"=X c gray87",
"-X c #DFDFDF",
";X c gray88",
":X c #E1E1E1",
">X c #E2E2E2",
",X c gray89",
"<X c #E4E4E4",
"1X c gray90",
"2X c #E6E6E6",
"3X c gray91",
"4X c #E9E9E9",
"5X c #EAEAEA",
"6X c gray92",
"7X c #ECECEC",
"8X c gray93",
"9X c #EEEEEE",
"0X c #EFEFEF",
"qX c gray94",
"wX c #F1F1F1",
"eX c gray95",
"rX c #F3F3F3",
"tX c #F4F4F4",
"yX c gray96",
"uX c #F6F6F6",
"iX c gray97",
"pX c #F8F8F8",
"aX c #F9F9F9",
"sX c gray98",
"dX c #FBFBFB",
"fX c gray99",
"gX c #FDFDFD",
"hX c #FEFEFE",
"jX c white",
"kX c None",
/* pixels */
"                                                          .                                       - $                   ",
"                                                        X o                                     % -                     ",
"                                                        X O                                   o - X                     ",
"                                                        o @                                 O $ O                       ",
"                                                        O $                               X # .                         ",
"                                                        + %                               % X                           ",
"                                                        + $                             # %                             ",
"                                                        o +                           . = .                             ",
"                                                    o X   X                           @ @                               ",
"                                                    $ -                               o                                 ",
"                                                .   & u                                                                 ",
"                                                X   + D o     X .   o                                                   ",
"                                      . X       X + kX/ 4 kX. + X o @           X @                                     ",
"                                        + X     . * kX_ n kXo & o = $     . X X 9 &                                     ",
"                                        X =       ; kX) _ kX@ < + 7 @   . # kXx c kX                                    ",
"                                    . o   = >   . ; @ P 3.; : 0 : d . . % o h ..-                                       ",
"                            .     . . O $   e -   * 9 m k.M g u s v . & 1 3 0.T kXX                                     ",
"                            o > $ kXX o * - - v O # h x A.] / z R n = r 5 3.g.,   . . o X                               ",
"                              = C c kXkX$ 8 2 z Z o c G P.5.<./ &.m x l ..K. .kX. @ % o     o .                         ",
"                                , X.1.r kX: c h } m k ] W.v.t.s.y.U [ { R.M.V   3 5 o X % # X                           ",
"                              . kX+ -.K.%.kX1 ^ | e.z 6.`.T.j.).c.4.u.R.R.i.p l p % 5 8 &                               ",
"                              . @ # kX/ ].L.f g ,.Z.a.4.;X+XL.7XJ.I. X.XU.7.T D l S i O                                 ",
"                                X * 9 , n Q.>Xz.w.L.$XZ.4X9X$XpXoX7X7X+X`.3.<.=.' 9 kX. .                               ",
"                                . o * a F E H.wX%XOX8X5X7XfXeXfXeXfX9XqX^.R.Z.] % X # O @ $ +                           ",
"                            .           4 ~ 7.].sXeXtXfXsXgXgXgXhXdXgXwX1X/.| l m n M V c t 3 < > & O                   ",
"                          . + = 3 w g c h e F p.$XfXdXfXhXgXgXgXgXhXgXdX3XE.H.H.D.C.v.r.*.] Y z 6 $ .                   ",
"                            . O * 9 c ~ :.f.M.C.`.wXgXgXgXhXgXgXgXgXhXgXaXaXeX,X[.C.7.' C q $                           ",
"                          X + % > 8 h P o.j.(.4XyXsXgXgXhXgXhXhXhXgXgXhXfX5X~.w.R r $ kXkX                              ",
"                          . O # * , 5 r b ( 6.H.>XsXhXgXgXhXhXhXhXgXgXhXpX<X).b.&.L i < $ o .                           ",
"                          kXkXkX: P 8.G.'.+X*X6XdXhXgXhXgXhXhXgXgXgXhXfXgXeX_.l.&./ S f 6 = + X         .               ",
"                        # 6 x W +.q.l.m.V.Y.oX:X,XwXgXhXgXgXgXgXgXhXhXsX1X2X;Xn.| G y 1 - * % @ o .                     ",
"              X # > 0 f N H I K B j k P ..4.0.z.@XuXfXgXgXhXgXhXgXgXfXjX7XF.C.L.1.S v i 2 $ X                           ",
"        . X @ & - : ; * +   kXkX# 9 l b b C O.W.&X8XpXgXgXgXhXfXgXsXrX=XyX-X>.^ O.A $ @ * = % + X                       ",
"                          X @ = : - * , 9 Q k.M.`.;XyXdX0XfXpXdXeXuXyX!.q.*XXX[ 4 w :         . X X . .                 ",
"                        X o O o X o O @ C o.' B.P.#XtX-X{.gX@XwX2XE.9XXXO.M A.L.` - $ o                                 ",
"                                    @ x S d 7.s.k.7X^.A.oXiXN.|.,X5.j.XX9.c : ! 3.L % o                                 ",
"                                  * y 8 > [ ;.N ,XS.r.h.1X:X*.V.}.7.u U.z.L 3 @ & c q o                                 ",
"                                = < # $ G _ kXW.Q.T X.c.Q.].J 2.E.X.w ..t.` 8 $ $ kX@ +                                 ",
"                            . % # . + s D kX3.XXl N #.$.s.K.q T F.R u l ` A F + o O                                     ",
"                          X + .   o 4 i kXx _.) $ b o.q 2.x.$ w v.B y , H r e f   X .                     .             ",
"                        . X     X * 1   kXB.6.kX> D z o { 6.kX  t.V 7 + j 8 ; > 8   .                                   ",
"                              . O # o kXo.d.kXo < d O . U X.kXkX@.L = @ 0 1 - X * :                                     ",
"                                X X kXl y.e kXX : @ X kXM ! kXkXR W . & = 4   &   @ #                                   ",
"                                    @ #.V kXX X o   X kXd V kXkXg ^ kX& X 2   @ o   o o                                 ",
"                                . kXH L kX.         . kX8 i kX  , W   #   = o   +     . .                               ",
"                                kX7 Z O                 - ,     X K $ X . + +   X X                                     ",
"                                o y *                   O @   . kXn <   X . O     X                             .       ",
"                                * %                       .   . kXp 8 kX.   X                                     . .   ",
"                              . o                               kX4 q kX    .                                           ",
"                                                                  * q                                                   ",
"                                                                  o 7                                                   ",
"                                                                    1 o                                                 ",
"                                                                    = +                                                 ",
"                                                                    # @                                                 ",
"                                                                    o +                                                 ",
"                                                    kXkXkXkXkX  kXkXkXO                                                 ",
"                                                                      o                                                 ",
"                                                kX                    kX                                                ",
"                              + X                                                                                       ",
"                            O =                     kXkXkXkXkXkXkXkX                                                    "
};
